<svg width="38" height="29" viewBox="0 0 38 29" fill="none" xmlns="http://www.w3.org/2000/svg">
<path d="M26.1255 3.58981C26.1255 5.57261 23.0833 7.17961 19.3417 7.17961C15.6 7.17961 12.5579 5.57261 12.5579 3.58981C12.5579 1.607 15.6 0 19.3417 0C23.0833 0 26.1255 1.607 26.1255 3.58981ZM15.494 9.54664C16.7235 9.7093 18.0273 9.87197 19.3629 9.87197C23.5921 9.87197 27.5352 8.73893 29.8354 6.8655L31.7645 5.30282C32.7821 4.47211 34.8808 4.23709 36.4602 4.77781C38.0289 5.31852 38.4741 6.428 37.4459 7.26375L35.5274 8.82307C33.5876 10.3992 30.9165 11.6276 27.8214 12.4297V26.9235C27.8214 27.9164 26.3057 28.7184 24.4295 28.7184C22.5534 28.7184 21.0376 27.9164 21.0376 26.9235V21.5388H17.6457V26.9235C17.6457 27.9164 16.13 28.7184 14.2538 28.7184C12.3777 28.7184 10.8619 27.9164 10.8619 26.9235V12.4185C7.85477 11.6332 5.23771 10.4385 3.32234 8.86794L1.25541 7.28058C0.216635 6.45043 0.637443 5.33872 2.19666 4.78847C3.75481 4.23878 5.86097 4.46146 6.89974 5.28655L8.96668 6.9272C10.4909 8.13315 12.6851 9.025 15.1972 9.49616C15.3032 9.50738 15.3986 9.5242 15.494 9.54664Z" fill="white"/>
</svg>
