<svg width="38" height="29" viewBox="0 0 38 29" fill="none" xmlns="http://www.w3.org/2000/svg">
<path d="M13.4877 2.69245C13.4877 4.17947 12.095 5.3849 10.3784 5.3849C8.66182 5.3849 7.26912 4.17947 7.26912 2.69245C7.26912 1.20543 8.66182 0 10.3784 0C12.095 0 13.4877 1.20543 13.4877 2.69245ZM9.86018 19.7446V26.9245C9.86018 27.9173 8.93388 28.7194 7.78733 28.7194C6.64079 28.7194 5.71449 27.9173 5.71449 26.9245V14.4102L3.86382 17.0802C3.27436 17.9272 2.00085 18.2021 1.01949 17.6916C0.0381285 17.1812 -0.279341 16.0818 0.310384 15.2292L4.08536 9.79378C5.20923 8.1727 7.23026 7.17986 9.41322 7.17986H11.3436C13.5265 7.17986 15.5476 8.1727 16.6747 9.79378L19.5831 13.9839C18.4819 14.9711 17.724 16.1379 17.2123 17.4336C17.0892 17.327 16.9273 17.2092 16.8949 17.0802L15.0423 14.4102V26.9245C15.0423 27.9173 14.116 28.7194 12.9694 28.7194C11.8229 28.7194 10.8966 27.9173 10.8966 26.9245V19.7446H9.86018ZM18.6698 20.6421C18.6698 16.1827 22.8479 12.5648 27.9976 12.5648C33.1473 12.5648 37.3254 16.1827 37.3254 20.6421C37.3254 25.1015 33.1473 28.7194 27.9976 28.7194C22.8479 28.7194 18.6698 25.1015 18.6698 20.6421ZM27.9976 26.027C28.8591 26.027 29.5522 25.4268 29.5522 24.6808C29.5522 23.9347 28.8591 23.3346 27.9976 23.3346C27.1361 23.3346 26.4429 23.9347 26.4429 24.6808C26.4429 25.4268 27.1361 26.027 27.9976 26.027ZM23.8519 18.3984C23.8519 18.892 24.3183 19.2959 24.8883 19.2959C25.4583 19.2959 25.9247 18.892 25.9247 18.3984V18.0394C25.9247 17.7421 26.2033 17.5009 26.5466 17.5009H29.17C29.6688 17.5009 30.0704 17.8487 30.0704 18.2806C30.0704 18.5723 29.8826 18.8359 29.5911 18.9762L27.5182 19.9185C27.1749 20.0756 26.9612 20.3785 26.9612 20.7094V21.5396C26.9612 22.0332 27.4275 22.4371 27.9976 22.4371C28.5676 22.4371 29.034 22.0332 29.034 21.5396V21.2535L30.5562 20.5636C31.5279 20.1148 32.1433 19.1893 32.1433 18.2806C32.1433 16.8615 30.8089 15.7059 29.17 15.7059H26.5466C25.0567 15.7059 23.8519 16.7493 23.8519 18.0394V18.3984Z" fill="white"/>
</svg>
