<svg width="38" height="31" viewBox="0 0 38 31" fill="none" xmlns="http://www.w3.org/2000/svg">
<path d="M26.2577 1.53277C27.5095 0.551491 29.2074 0.000137127 30.9778 2.55751e-08C32.7483 -0.000137076 34.4463 0.550954 35.6983 1.53204C36.9504 2.51312 37.6538 3.84384 37.654 5.23144C37.6542 6.61904 36.951 7.94987 35.6993 8.93115L34.0352 10.2354L24.5955 2.83699L26.2577 1.53277ZM22.6181 4.38685L3.9626 19.0067C3.2045 19.6011 2.67171 20.3486 2.42352 21.1662L0.380748 27.8935C0.325437 28.0758 0.330623 28.2661 0.395811 28.4463C0.460998 28.6266 0.584014 28.7907 0.753126 28.9231C0.922237 29.0555 1.13181 29.1517 1.36184 29.2026C1.59188 29.2535 1.83472 29.2574 2.0672 29.2138L10.6506 27.6128C11.694 27.4179 12.6479 26.9998 13.406 26.4051L15.5532 24.7236C15.1106 23.163 15.1774 21.54 15.7475 20.005C16.3176 18.47 17.3726 17.0725 18.8148 15.9419C20.257 14.8112 22.0398 13.984 23.9982 13.5368C25.9566 13.0896 28.0273 13.0368 30.0187 13.3833L32.0577 11.7852L22.6162 4.38685H22.6181ZM21.3831 17.5109C21.5223 17.8889 21.5627 18.2851 21.502 18.6757C21.4412 19.0662 21.2805 19.4431 21.0295 19.7839C20.7786 20.1246 20.4424 20.4222 20.0412 20.6587C19.6401 20.8952 19.1821 21.0659 18.6948 21.1604L17.6053 21.3724C17.4307 22.248 17.4345 23.1398 17.6165 24.0145L18.6239 24.2046C19.1156 24.2974 19.5781 24.4676 19.9833 24.7049C20.3885 24.9421 20.7279 25.2415 20.9809 25.5847C21.2339 25.928 21.3953 26.308 21.4551 26.7016C21.5149 27.0952 21.472 27.4943 21.329 27.8745L20.9801 28.7971C21.8009 29.3615 22.7337 29.8206 23.7504 30.1452L24.6702 29.3863C25.0187 29.099 25.4381 28.8702 25.903 28.7139C26.3679 28.5575 26.8684 28.4769 27.3743 28.4769C27.8801 28.4769 28.3807 28.5575 28.8455 28.7139C29.3104 28.8702 29.7298 29.099 30.0784 29.3863L31.0093 30.1554C32.0187 29.8333 32.953 29.3822 33.774 28.8205L33.4046 27.8175C33.2655 27.4394 33.2251 27.0431 33.286 26.6525C33.3468 26.2618 33.5077 25.8848 33.7588 25.5441C34.01 25.2033 34.3464 24.9058 34.7478 24.6694C35.1491 24.4329 35.6073 24.2624 36.0948 24.168L37.1824 23.956C37.357 23.0804 37.3532 22.1886 37.1712 21.3139L36.1638 21.1238C35.6722 21.0308 35.2099 20.8605 34.8049 20.6232C34.4 20.3858 34.0608 20.0865 33.808 19.7432C33.5551 19.4 33.394 19.0201 33.3343 18.6265C33.2746 18.233 33.3175 17.834 33.4606 17.4539L33.8076 16.5313C32.9867 15.9645 32.0511 15.5089 31.0391 15.1832L30.1194 15.9406C29.7709 16.2282 29.3513 16.4571 28.8863 16.6136C28.4212 16.7701 27.9204 16.8508 27.4144 16.8508C26.9083 16.8508 26.4075 16.7701 25.9425 16.6136C25.4774 16.4571 25.0579 16.2282 24.7093 15.9406L23.7803 15.173C22.7654 15.4946 21.8327 15.9479 21.0137 16.5079L21.3831 17.5109ZM27.3939 24.8567C25.9014 24.8567 24.6888 23.8756 24.6888 22.6635C24.6888 21.4528 25.9014 20.4703 27.3939 20.4703C28.8863 20.4703 30.0989 21.4528 30.0989 22.6635C30.0989 23.8756 28.8863 24.8567 27.3939 24.8567Z" fill="white"/>
</svg>
