<svg width="38" height="31" viewBox="0 0 38 31" fill="none" xmlns="http://www.w3.org/2000/svg">
<path d="M35.1843 0H12.7975C11.2526 0 9.99919 1.31047 9.99919 2.92307V5.65414C11.3646 5.65414 12.6285 6.05352 13.6778 6.7031V3.76943H34.199V20.7319H30.4679V17.9048C30.4679 17.3842 30.0502 16.9624 29.5351 16.9624H23.9384C23.4233 16.9624 23.0057 17.3842 23.0057 17.9048V20.7319H17.4206C18.7073 21.7025 19.7258 22.9994 20.3799 24.5013H35.1819C36.7292 24.5013 37.9826 23.1938 37.9826 21.58V2.92307C37.9826 1.31047 36.7292 0 35.1843 0ZM9.99919 18.8471C13.0902 18.8471 15.5959 16.3157 15.5959 13.193C15.5959 10.0703 13.0902 7.53886 9.99919 7.53886C6.85689 7.53886 4.40251 10.0184 4.40251 13.193C4.40251 16.3146 6.85689 18.8471 9.99919 18.8471ZM11.8648 20.7319H8.13363C4.01249 20.7319 0.671387 24.1073 0.671387 28.2707C0.671387 29.3114 1.50681 30.1554 2.53695 30.1554H17.4614C18.4916 30.1554 19.327 29.3114 19.327 28.2707C19.327 24.1067 15.9865 20.7319 11.8648 20.7319Z" fill="white"/>
</svg>
