<svg width="119" height="111" viewBox="0 0 119 111" fill="none" xmlns="http://www.w3.org/2000/svg">
<path d="M38.8997 89.0572H40.6638V97.9072H39.6918V89.8732L39.7218 89.8852L37.4658 97.9072H36.0018L33.7338 89.8792L33.7638 89.8672V97.9072H32.7918V89.0572H34.5558L36.7278 97.0852H36.7158L38.8997 89.0572ZM44.7612 98.0272C44.2772 98.0272 43.8532 97.9512 43.4892 97.7992C43.1292 97.6472 42.8492 97.4292 42.6492 97.1452C42.4492 96.8572 42.3492 96.5132 42.3492 96.1132C42.3492 95.6972 42.4572 95.3512 42.6732 95.0752C42.8892 94.7952 43.1932 94.5772 43.5852 94.4212C43.9772 94.2652 44.4332 94.1612 44.9532 94.1092C45.7372 94.0292 46.2952 93.9512 46.6272 93.8752C46.9592 93.7952 47.1252 93.6672 47.1252 93.4912C47.1252 93.4872 47.1252 93.4852 47.1252 93.4852C47.1252 93.4812 47.1252 93.4772 47.1252 93.4732C47.1252 93.1052 46.9752 92.8312 46.6752 92.6512C46.3752 92.4672 45.9412 92.3752 45.3732 92.3752C44.7812 92.3752 44.3212 92.4792 43.9932 92.6872C43.6652 92.8912 43.5012 93.2232 43.5012 93.6832H42.4932C42.4932 93.2072 42.6152 92.8032 42.8592 92.4712C43.1032 92.1352 43.4412 91.8792 43.8732 91.7032C44.3092 91.5272 44.8112 91.4392 45.3792 91.4392C45.8992 91.4392 46.3672 91.5192 46.7832 91.6792C47.2032 91.8352 47.5352 92.0692 47.7792 92.3812C48.0272 92.6892 48.1512 93.0712 48.1512 93.5272C48.1512 93.6112 48.1512 93.6952 48.1512 93.7792C48.1512 93.8592 48.1512 93.9412 48.1512 94.0252V96.7072C48.1512 96.8472 48.1572 96.9832 48.1692 97.1152C48.1812 97.2472 48.2012 97.3632 48.2292 97.4632C48.2652 97.5832 48.3052 97.6812 48.3492 97.7572C48.3932 97.8292 48.4292 97.8792 48.4572 97.9072H47.4312C47.4112 97.8872 47.3812 97.8412 47.3412 97.7692C47.3012 97.6932 47.2632 97.6052 47.2272 97.5052C47.1992 97.4252 47.1772 97.3252 47.1612 97.2052C47.1452 97.0812 47.1372 96.9532 47.1372 96.8212L47.3052 96.9352C47.1812 97.1512 46.9992 97.3412 46.7592 97.5052C46.5232 97.6692 46.2372 97.7972 45.9012 97.8892C45.5652 97.9812 45.1852 98.0272 44.7612 98.0272ZM44.9232 97.1092C45.3352 97.1092 45.7072 97.0472 46.0392 96.9232C46.3712 96.7952 46.6352 96.6072 46.8312 96.3592C47.0272 96.1112 47.1252 95.8032 47.1252 95.4352V94.1692L47.3532 94.5532C47.0972 94.6532 46.7772 94.7352 46.3932 94.7992C46.0132 94.8592 45.6152 94.9092 45.1992 94.9492C44.5952 95.0052 44.1392 95.1112 43.8312 95.2672C43.5272 95.4232 43.3752 95.6852 43.3752 96.0532C43.3752 96.4012 43.5012 96.6652 43.7532 96.8452C44.0052 97.0212 44.3952 97.1092 44.9232 97.1092ZM49.8477 97.9072V91.5352H50.8677V93.4912L50.5317 93.3712C50.5557 93.1352 50.6157 92.9032 50.7117 92.6752C50.8077 92.4432 50.9397 92.2352 51.1077 92.0512C51.2797 91.8632 51.4937 91.7152 51.7497 91.6072C52.0057 91.4952 52.3057 91.4392 52.6497 91.4392C52.9057 91.4392 53.1137 91.4612 53.2737 91.5052C53.4377 91.5452 53.5397 91.5772 53.5797 91.6012L53.3157 92.6032C53.2757 92.5752 53.1937 92.5392 53.0697 92.4952C52.9497 92.4512 52.7777 92.4292 52.5537 92.4292C52.2217 92.4292 51.9457 92.4892 51.7257 92.6092C51.5097 92.7292 51.3377 92.8892 51.2097 93.0892C51.0857 93.2852 50.9977 93.4992 50.9457 93.7312C50.8937 93.9632 50.8677 94.1932 50.8677 94.4212V97.9072H49.8477ZM54.6758 97.9072V88.5292H55.6478V94.2772L55.3538 94.1452L58.4018 91.5352H59.7218L56.6678 94.2232L56.9378 93.7012L59.7458 97.9072H58.6478L56.2778 94.2652L56.4878 94.3852L55.4978 95.2432L55.6478 94.7572V97.9072H54.6758ZM60.8652 95.1292V94.2172H65.7912L65.6112 94.5172C65.6112 94.4932 65.6112 94.4712 65.6112 94.4512C65.6112 94.4272 65.6112 94.4052 65.6112 94.3852C65.6112 94.0172 65.5332 93.6812 65.3772 93.3772C65.2252 93.0692 64.9972 92.8232 64.6932 92.6392C64.3892 92.4552 64.0132 92.3632 63.5652 92.3632C63.1132 92.3632 62.7152 92.4592 62.3712 92.6512C62.0272 92.8432 61.7592 93.1152 61.5672 93.4672C61.3752 93.8152 61.2792 94.2312 61.2792 94.7152C61.2792 95.2072 61.3712 95.6312 61.5552 95.9872C61.7432 96.3432 62.0092 96.6172 62.3532 96.8092C62.6972 97.0012 63.1052 97.0972 63.5772 97.0972C63.9132 97.0972 64.2052 97.0632 64.4532 96.9952C64.7012 96.9232 64.9052 96.8292 65.0652 96.7132C65.2292 96.5932 65.3532 96.4632 65.4372 96.3232C65.5212 96.1832 65.5712 96.0432 65.5872 95.9032H66.6072C66.5872 96.1592 66.5072 96.4132 66.3672 96.6652C66.2272 96.9172 66.0292 97.1472 65.7732 97.3552C65.5172 97.5592 65.2032 97.7232 64.8312 97.8472C64.4592 97.9712 64.0312 98.0332 63.5472 98.0332C62.9072 98.0332 62.3432 97.8932 61.8552 97.6132C61.3672 97.3332 60.9832 96.9452 60.7032 96.4492C60.4272 95.9532 60.2892 95.3832 60.2892 94.7392C60.2892 94.0872 60.4292 93.5152 60.7092 93.0232C60.9892 92.5272 61.3752 92.1392 61.8672 91.8592C62.3592 91.5792 62.9212 91.4392 63.5532 91.4392C64.1972 91.4392 64.7552 91.5792 65.2272 91.8592C65.6992 92.1392 66.0632 92.5232 66.3192 93.0112C66.5752 93.4952 66.7032 94.0472 66.7032 94.6672C66.7032 94.7312 66.7012 94.8152 66.6972 94.9192C66.6932 95.0232 66.6872 95.0932 66.6792 95.1292H60.8652ZM70.6841 98.0032C70.4881 98.0032 70.2961 97.9812 70.1081 97.9372C69.9201 97.8932 69.7501 97.8152 69.5981 97.7032C69.4501 97.5872 69.3321 97.4252 69.2441 97.2172C69.1561 97.0052 69.1121 96.7332 69.1121 96.4012C69.1121 96.3172 69.1121 96.2312 69.1121 96.1432C69.1121 96.0512 69.1121 95.9552 69.1121 95.8552V92.4352H67.5581V91.5352H68.5541C68.6901 91.5352 68.7961 91.5312 68.8721 91.5232C68.9481 91.5112 69.0021 91.4852 69.0341 91.4452C69.0701 91.4012 69.0921 91.3352 69.1001 91.2472C69.1081 91.1552 69.1121 91.0292 69.1121 90.8692V89.4232H70.1381V91.5352H72.1301V92.4352H70.1381V95.5252C70.1381 95.6132 70.1381 95.6992 70.1381 95.7832C70.1381 95.8672 70.1381 95.9452 70.1381 96.0172C70.1381 96.3572 70.1781 96.6232 70.2581 96.8152C70.3421 97.0072 70.5281 97.1032 70.8161 97.1032C70.9321 97.1032 71.0421 97.0932 71.1461 97.0732C71.2501 97.0532 71.3281 97.0332 71.3801 97.0132V97.9012C71.3121 97.9252 71.2161 97.9472 71.0921 97.9672C70.9721 97.9912 70.8361 98.0032 70.6841 98.0032ZM73.4975 97.9072V91.5352H74.5055V97.9072H73.4975ZM74.0075 90.0712C73.8195 90.0712 73.6555 90.0192 73.5155 89.9152C73.3795 89.8072 73.3115 89.6612 73.3115 89.4772C73.3115 89.2972 73.3795 89.1552 73.5155 89.0512C73.6555 88.9432 73.8195 88.8892 74.0075 88.8892C74.1955 88.8892 74.3575 88.9432 74.4935 89.0512C74.6295 89.1552 74.6975 89.2972 74.6975 89.4772C74.6975 89.6612 74.6295 89.8072 74.4935 89.9152C74.3575 90.0192 74.1955 90.0712 74.0075 90.0712ZM80.9624 97.9072V94.8532C80.9624 94.6692 80.9624 94.5192 80.9624 94.4032C80.9624 94.2832 80.9624 94.1692 80.9624 94.0612C80.9624 93.7292 80.9064 93.4392 80.7944 93.1912C80.6824 92.9432 80.5064 92.7512 80.2664 92.6152C80.0264 92.4792 79.7124 92.4112 79.3244 92.4112C78.9844 92.4112 78.6684 92.4992 78.3764 92.6752C78.0884 92.8472 77.8564 93.0812 77.6804 93.3772C77.5084 93.6692 77.4224 93.9972 77.4224 94.3612L76.8404 94.1392C76.8404 93.6392 76.9624 93.1852 77.2064 92.7772C77.4544 92.3692 77.7824 92.0452 78.1904 91.8052C78.6024 91.5612 79.0504 91.4392 79.5344 91.4392C80.0264 91.4392 80.4564 91.5332 80.8244 91.7212C81.1924 91.9092 81.4764 92.1792 81.6764 92.5312C81.8804 92.8792 81.9824 93.2992 81.9824 93.7912C81.9824 93.9672 81.9824 94.1592 81.9824 94.3672C81.9824 94.5752 81.9824 94.7692 81.9824 94.9492V97.9072H80.9624ZM76.4024 97.9072V91.5352H77.4224V97.9072H76.4024ZM87.8298 97.5172C88.1738 97.5452 88.4758 97.6092 88.7358 97.7092C88.9998 97.8052 89.2058 97.9472 89.3538 98.1352C89.5018 98.3272 89.5758 98.5772 89.5758 98.8852C89.5758 99.2252 89.4598 99.5252 89.2278 99.7852C88.9958 100.049 88.6438 100.255 88.1718 100.403C87.6998 100.551 87.1058 100.625 86.3898 100.625C85.3778 100.625 84.6138 100.477 84.0978 100.181C83.5818 99.8892 83.3238 99.4892 83.3238 98.9812C83.3238 98.8212 83.3418 98.6792 83.3778 98.5552C83.4178 98.4352 83.4618 98.3372 83.5098 98.2612L84.4818 98.4052C84.4498 98.4492 84.4178 98.5152 84.3857 98.6032C84.3577 98.6952 84.3438 98.8012 84.3438 98.9212C84.3438 99.2412 84.5258 99.4652 84.8898 99.5932C85.2538 99.7252 85.7698 99.7912 86.4378 99.7912C86.9378 99.7912 87.3478 99.7572 87.6678 99.6892C87.9878 99.6212 88.2258 99.5232 88.3818 99.3952C88.5378 99.2672 88.6158 99.1172 88.6158 98.9452C88.6158 98.6852 88.5058 98.5232 88.2858 98.4592C88.0698 98.3992 87.8018 98.3572 87.4818 98.3332L85.0578 98.1532C84.6538 98.1212 84.3238 97.9972 84.0678 97.7812C83.8158 97.5612 83.6898 97.2952 83.6898 96.9832C83.6898 96.7912 83.7358 96.6092 83.8278 96.4372C83.9238 96.2652 84.0338 96.1212 84.1578 96.0052C84.2858 95.8852 84.3998 95.8132 84.4998 95.7892L85.3038 96.1552C85.2038 96.1712 85.0798 96.2412 84.9318 96.3652C84.7878 96.4852 84.7158 96.6272 84.7158 96.7912C84.7158 96.9392 84.7738 97.0612 84.8898 97.1572C85.0058 97.2492 85.2358 97.3092 85.5798 97.3372L87.8298 97.5172ZM88.7118 91.5352H89.6718L89.2758 94.0432C89.2038 94.5112 89.0538 94.9352 88.8258 95.3152C88.5978 95.6912 88.2858 95.9912 87.8898 96.2152C87.4978 96.4352 87.0118 96.5452 86.4318 96.5452C85.8278 96.5452 85.3118 96.4352 84.8838 96.2152C84.4558 95.9952 84.1278 95.6952 83.8998 95.3152C83.6718 94.9312 83.5578 94.4992 83.5578 94.0192C83.5578 93.5312 83.6758 93.0932 83.9118 92.7052C84.1518 92.3132 84.4838 92.0052 84.9078 91.7812C85.3318 91.5532 85.8178 91.4392 86.3658 91.4392C86.8578 91.4392 87.2878 91.5252 87.6558 91.6972C88.0238 91.8652 88.3138 92.0772 88.5258 92.3332C88.7418 92.5892 88.8618 92.8472 88.8858 93.1072L88.5018 93.1312L88.7118 91.5352ZM86.4258 95.6332C86.8138 95.6332 87.1458 95.5692 87.4218 95.4412C87.7018 95.3132 87.9158 95.1272 88.0638 94.8832C88.2158 94.6392 88.2918 94.3432 88.2918 93.9952C88.2918 93.6592 88.2158 93.3692 88.0638 93.1252C87.9158 92.8772 87.7018 92.6872 87.4218 92.5552C87.1458 92.4192 86.8158 92.3512 86.4318 92.3512C86.0638 92.3512 85.7378 92.4212 85.4538 92.5612C85.1738 92.6972 84.9538 92.8892 84.7938 93.1372C84.6378 93.3852 84.5598 93.6772 84.5598 94.0132C84.5598 94.3532 84.6338 94.6452 84.7818 94.8892C84.9338 95.1292 85.1478 95.3132 85.4238 95.4412C85.7038 95.5692 86.0378 95.6332 86.4258 95.6332Z" fill="#391400" fill-opacity="0.6"/>
<path d="M58.8882 11.3565C60.8819 11.3565 62.4982 9.97092 62.4982 8.26174C62.4982 6.55256 60.8819 5.16699 58.8882 5.16699C56.8944 5.16699 55.2782 6.55256 55.2782 8.26174C55.2782 9.97092 56.8944 11.3565 58.8882 11.3565Z" fill="#FD6584"/>
<path d="M66.9676 6.79586C66.8658 6.50966 66.6686 6.25524 66.4003 6.06391C66.132 5.87257 65.8042 5.75269 65.4574 5.71902C65.4493 5.71844 65.4412 5.71844 65.4331 5.71902C65.4234 5.71642 65.4134 5.71448 65.4034 5.71323C64.1946 5.57877 62.8507 5.90564 61.9462 6.61736C61.6104 6.8774 61.3419 7.19487 61.158 7.54931C60.9903 7.35295 60.7693 7.1946 60.5142 7.08796C60.2591 6.98132 59.9774 6.9296 59.6937 6.93728C59.3279 6.95802 58.9783 7.075 58.6928 7.27227C58.4073 7.46954 58.1997 7.7375 58.0983 8.03962C58.0872 8.07653 58.0903 8.11554 58.1071 8.15084C58.1239 8.18614 58.1535 8.21584 58.1916 8.23552C58.3004 8.31525 58.4297 8.37167 58.5689 8.40011C58.8677 8.45459 59.1692 8.50444 59.4707 8.54964C60.0601 8.63774 60.6528 8.70922 61.2486 8.76408C61.642 8.80002 62.0364 8.82861 62.4316 8.84986C63.2482 8.89391 64.0689 8.90434 64.8869 8.88232C65.2925 8.87073 65.6819 8.85913 66.0523 8.70613C66.3223 8.59231 66.5529 8.42012 66.7216 8.20654C66.8803 8.0011 66.9846 7.76833 67.0271 7.52461C67.0697 7.28088 67.0493 7.03213 66.9676 6.79586Z" fill="#E6E6E6"/>
<path d="M59.541 11.3062C59.5341 11.1765 59.5087 11.048 59.4652 10.9237C59.3629 10.6375 59.1654 10.3832 58.8969 10.1919C58.6284 10.0006 58.3006 9.88066 57.9537 9.84684C57.946 9.84626 57.9383 9.84626 57.9307 9.84684C57.9205 9.84436 57.9101 9.84242 57.8996 9.84105C57.2306 9.77079 56.5518 9.83061 55.9135 10.0161C54.9319 10.2977 54.0707 10.8657 53.6556 11.6771C53.4877 11.4806 53.2665 11.3222 53.0112 11.2156C52.7558 11.1089 52.4739 11.0573 52.19 11.0651C51.8241 11.0858 51.4746 11.2028 51.1891 11.4001C50.9036 11.5974 50.696 11.8653 50.5946 12.1674C50.5841 12.2044 50.5874 12.2432 50.6042 12.2784C50.6209 12.3135 50.6502 12.3433 50.6879 12.3633C50.7968 12.4428 50.926 12.4992 51.0651 12.5279C51.3652 12.5824 51.6654 12.6323 51.9683 12.6775C52.5577 12.7656 53.1499 12.837 53.7448 12.8919C54.9534 13.0031 56.1695 13.0426 57.3845 13.0101C57.7887 12.9985 58.1795 12.9869 58.5499 12.8339C58.8195 12.7201 59.0497 12.5479 59.2178 12.3344C59.4548 12.0316 59.5684 11.6701 59.541 11.3062Z" fill="#E6E6E6"/>
<path d="M106.558 48.8672C106.609 50.9778 106.27 53.0821 105.551 55.1012C105.526 55.1746 105.496 55.2479 105.466 55.3213H90.6537C90.8654 54.4272 91.2016 53.5581 91.6549 52.7327C92.8876 50.4894 94.9001 48.5695 96.8874 46.6627C99.6245 44.0353 102.296 41.4295 102.719 38.0127C103.804 39.4309 104.67 40.9637 105.295 42.5728C104.529 42.8159 103.827 43.1853 103.227 43.66C103.061 43.7937 102.885 43.9879 102.97 44.1734C103.051 44.3287 103.272 44.3805 103.468 44.415C103.941 44.4926 104.414 44.5703 104.887 44.6436C105.26 44.7083 105.637 44.7687 106.014 44.8291C106.346 46.1571 106.528 47.5094 106.558 48.8672Z" fill="#F2F2F2"/>
<path d="M119 47.4688C116.625 48.7069 115.116 50.6223 113.883 52.7662C112.811 52.9759 111.82 53.422 111.01 54.0604C110.839 54.1942 110.663 54.3883 110.754 54.5737C110.829 54.7291 111.056 54.7808 111.252 54.8153C111.72 54.893 112.198 54.9706 112.666 55.044C112.62 55.1346 112.575 55.2295 112.53 55.3201H96.8321C97.5447 54.4961 98.3338 53.7228 99.1918 53.0078C99.378 52.8482 99.5691 52.6972 99.7654 52.5419C101.766 50.9914 104.064 49.7481 106.558 48.8665C110.486 47.4585 114.781 46.976 119 47.4688Z" fill="#F2F2F2"/>
<path d="M99.4484 55.3212H85.4714C85.3951 54.3614 85.4018 53.3982 85.4916 52.4393C86.05 46.5159 89.8084 40.8729 95.4787 37.4561C94.7542 39.6692 95.1265 41.8695 95.8812 44.0784C95.7755 44.1086 95.6699 44.1345 95.5743 44.169C94.8088 44.4121 94.1063 44.7815 93.5064 45.2561C93.3404 45.3899 93.1643 45.584 93.2498 45.7695C93.3253 45.9248 93.5517 45.9766 93.7479 46.0111C94.2209 46.0888 94.6938 46.1664 95.1617 46.2398C95.5391 46.3045 95.9164 46.3649 96.2937 46.4296C96.4698 46.4555 96.6459 46.4857 96.822 46.5159C96.8472 46.5676 96.8623 46.6151 96.8874 46.6626C97.773 48.755 98.7389 50.8646 99.1918 53.0088C99.3039 53.5468 99.3811 54.0898 99.4232 54.6352C99.4383 54.8639 99.4484 55.0925 99.4484 55.3212Z" fill="#F2F2F2"/>
<path d="M23.2728 48.8672C23.3246 50.9778 22.985 53.0821 22.2665 55.1012C22.2413 55.1746 22.2111 55.2479 22.181 55.3213H7.36882C7.58056 54.4272 7.91672 53.5581 8.37007 52.7327C9.60272 50.4894 11.6152 48.5695 13.6026 46.6627C16.3396 44.0353 19.0112 41.4295 19.4339 38.0127C20.5188 39.4309 21.3847 40.9637 22.0099 42.5728C21.2444 42.8159 20.5419 43.1853 19.9421 43.66C19.776 43.7937 19.5999 43.9879 19.6855 44.1734C19.7659 44.3287 19.9873 44.3805 20.1835 44.415C20.6565 44.4926 21.1294 44.5703 21.6024 44.6436C21.9747 44.7083 22.352 44.7687 22.7294 44.8291C23.061 46.1571 23.243 47.5094 23.2728 48.8672Z" fill="#F2F2F2"/>
<path d="M35.7152 47.4688C33.3404 48.7069 31.831 50.6223 30.5983 52.7662C29.5257 52.9759 28.5354 53.422 27.7255 54.0604C27.5544 54.1942 27.3783 54.3883 27.4689 54.5737C27.5443 54.7291 27.7708 54.7808 27.9669 54.8153C28.4349 54.893 28.9128 54.9706 29.3807 55.044C29.3355 55.1346 29.2902 55.2295 29.2449 55.3201H13.5473C14.2599 54.4961 15.049 53.7228 15.907 53.0078C16.0931 52.8482 16.2843 52.6972 16.4805 52.5419C18.4816 50.9914 20.7793 49.7481 23.2728 48.8665C27.2009 47.4585 31.4965 46.976 35.7152 47.4688Z" fill="#F2F2F2"/>
<path d="M16.1635 55.3212H2.1866C2.11027 54.3614 2.117 53.3982 2.20674 52.4393C2.76521 46.5159 6.52357 40.8729 12.1939 37.4561C11.4693 39.6692 11.8416 41.8695 12.5963 44.0784C12.4907 44.1086 12.385 44.1345 12.2894 44.169C11.524 44.4121 10.8215 44.7815 10.2216 45.2561C10.0556 45.3899 9.87947 45.584 9.96499 45.7695C10.0404 45.9248 10.2669 45.9766 10.4631 46.0111C10.936 46.0888 11.409 46.1664 11.8769 46.2398C12.2542 46.3045 12.6316 46.3649 13.0089 46.4296C13.185 46.4555 13.3611 46.4857 13.5372 46.5159C13.5623 46.5676 13.5775 46.6151 13.6026 46.6626C14.4881 48.755 15.4541 50.8646 15.9069 53.0088C16.019 53.5468 16.0963 54.0898 16.1384 54.6352C16.1535 54.8639 16.1635 55.0925 16.1635 55.3212Z" fill="#F2F2F2"/>
<path d="M68.1976 50.2897L80.6862 51.2403L80.8201 51.2507V5.55702C80.7755 5.53035 80.7309 5.50369 80.6862 5.47703C78.0835 3.91596 75.268 2.63351 72.3023 1.6582L71.6642 9.20542L71.606 9.89638L70.9746 17.381L70.7799 19.6834L68.2206 50.023L68.1976 50.2897Z" fill="#E6E6E6"/>
<path d="M37.3132 4.70542C37.224 4.75411 37.1348 4.8028 37.0455 4.85381V51.2501L37.3132 51.2292L49.6667 50.289L49.6437 50.0224L47.0843 19.6828L46.8896 17.3803L46.2582 9.89572L46.2001 9.20476L45.5308 1.29004C42.6447 2.14787 39.8865 3.29422 37.3132 4.70542Z" fill="#E6E6E6"/>
<path d="M37.0455 4.85445C36.8657 4.95415 36.6859 5.05617 36.5088 5.15935V51.8837C36.5088 53.0512 37.3159 54.0296 38.3949 54.2789C38.5712 54.3198 38.753 54.3405 38.9357 54.3403H79.0638C79.246 54.3406 79.4275 54.3199 79.6033 54.2789C80.0043 54.1835 80.3678 53.9968 80.6552 53.7386C81.2032 53.2364 81.5027 52.5714 81.4907 51.8837V5.97204C81.269 5.83176 81.0459 5.69264 80.8201 5.557C80.7755 5.53034 80.7309 5.50367 80.6863 5.47701V51.8837C80.6866 52.0341 80.6657 52.184 80.6241 52.3301C80.4334 53.0199 79.8047 53.5253 79.0638 53.5253H38.9357C38.0406 53.5253 37.3132 52.7891 37.3132 51.8837V4.70605C37.224 4.75475 37.1348 4.80344 37.0455 4.85445Z" fill="#E6E6E6"/>
<path d="M81.0885 9.20508H36.9107V9.89559H81.0885V9.20508Z" fill="#E6E6E6"/>
<path d="M67.5581 0.393386C67.2904 0.336579 67.0227 0.283249 66.7523 0.233398V18.9925H67.5581V0.393386Z" fill="#E6E6E6"/>
<path d="M51.2472 0C50.9782 0.0428951 50.7091 0.08695 50.4414 0.134482V18.9921H51.2472V0Z" fill="#E6E6E6"/>
<path d="M28.2492 53.1304C28.249 53.5268 28.3376 53.9195 28.5102 54.2873C28.5764 54.4299 28.6556 54.5679 28.7468 54.7C28.8646 54.8722 29.0013 55.0345 29.1551 55.1845C29.4948 55.5164 29.9131 55.7823 30.3822 55.9644C30.8514 56.1465 31.3604 56.2407 31.8754 56.2406H84.7815C85.7432 56.2406 86.6656 55.913 87.3456 55.33C88.0256 54.7469 88.4077 53.9561 88.4077 53.1315C88.4077 52.307 88.0256 51.5161 87.3456 50.9331C86.6656 50.35 85.7432 50.0225 84.7815 50.0225H31.8754C30.9142 50.0233 29.9926 50.3509 29.3128 50.9336C28.633 51.5162 28.2505 52.3062 28.2492 53.1304Z" fill="#E6E6E6"/>
<path d="M36.9107 19.6836L80.8199 19.6836V17.3804L36.9107 17.3804V19.6836Z" fill="#E6E6E6"/>
<path d="M60.7452 17.9561H56.9854C56.9854 17.6203 57.141 17.2984 57.418 17.061C57.695 16.8236 58.0707 16.6902 58.4624 16.6902H59.2681C59.4621 16.6902 59.6541 16.723 59.8333 16.7866C60.0126 16.8502 60.1754 16.9434 60.3125 17.061C60.4497 17.1785 60.5585 17.3181 60.6327 17.4716C60.707 17.6252 60.7452 17.7898 60.7452 17.9561H60.7452Z" fill="#E6E6E6"/>
<path d="M0 54.9072C1.17454 56.1004 2.44494 57.2217 3.8019 58.2629H112.854C114.211 57.2217 115.481 56.1004 116.656 54.9072H0Z" fill="#3F3D56"/>
<path d="M53.6335 43.6833V55.5724H63.3479V43.6833C63.348 43.5978 63.3162 43.5145 63.2571 43.4457C63.1979 43.3768 63.1146 43.326 63.0193 43.3008C62.9744 43.2881 62.9274 43.2818 62.8801 43.2822H54.1027C54.0412 43.2821 53.9802 43.2924 53.9233 43.3126C53.8664 43.3327 53.8147 43.3622 53.7712 43.3994C53.7276 43.4367 53.693 43.4809 53.6694 43.5296C53.6458 43.5784 53.6336 43.6306 53.6335 43.6833ZM57.4246 47.7685C57.4272 47.5341 57.5376 47.3101 57.7318 47.1452C57.926 46.9802 58.1883 46.8877 58.4616 46.8877C58.735 46.8877 58.9973 46.9802 59.1915 47.1452C59.3857 47.3101 59.4961 47.5341 59.4986 47.7685V49.148C59.4972 49.383 59.3874 49.608 59.193 49.7738C58.9987 49.9395 58.7358 50.0326 58.4616 50.0326C58.1875 50.0326 57.9245 49.9395 57.7302 49.7738C57.5359 49.608 57.426 49.383 57.4246 49.148V47.7685Z" fill="#2F2E41"/>
<path d="M53.6038 55.1934V56.3393C53.604 56.3986 53.6315 56.4555 53.6804 56.4976C53.7292 56.5397 53.7955 56.5636 53.8647 56.5641H63.1167C63.186 56.5638 63.2524 56.54 63.3013 56.4978C63.3502 56.4557 63.3776 56.3987 63.3776 56.3393V55.1934H53.6038Z" fill="#3F3D56"/>
<path d="M38.3516 25.7698V47.4793C38.3518 47.756 38.4801 48.0213 38.7083 48.2169C38.9364 48.4125 39.2458 48.5225 39.5684 48.5227H77.0871C77.4098 48.5225 77.7191 48.4125 77.9473 48.2169C78.1754 48.0213 78.3037 47.756 78.304 47.4793V25.7698C78.3032 25.4934 78.1747 25.2285 77.9466 25.0331C77.7186 24.8378 77.4095 24.7279 77.0871 24.7275H39.5684C39.246 24.7279 38.937 24.8378 38.7089 25.0331C38.4808 25.2285 38.3523 25.4934 38.3516 25.7698Z" fill="#3F3D56"/>
<path d="M39.2318 26.0393V47.2109C39.232 47.3587 39.3007 47.5004 39.4226 47.6049C39.5445 47.7094 39.7097 47.7683 39.8821 47.7685H76.7748C76.9472 47.7683 77.1125 47.7094 77.2344 47.6049C77.3563 47.5004 77.4249 47.3587 77.4252 47.2109V26.0393C77.4251 25.8913 77.3567 25.7493 77.2347 25.6446C77.1128 25.5398 76.9474 25.4808 76.7748 25.4805H39.8821C39.7095 25.4808 39.5441 25.5398 39.4222 25.6446C39.3002 25.7493 39.2318 25.8913 39.2318 26.0393Z" fill="#6C63FF"/>
<path d="M46.7544 56.8353C46.792 56.8756 46.8397 56.9082 46.894 56.9305C46.9484 56.9528 47.0079 56.9642 47.0681 56.964H69.0169C69.0769 56.9639 69.1362 56.9524 69.1904 56.9302C69.2445 56.908 69.2923 56.8758 69.3301 56.8358C69.3679 56.7958 69.3949 56.7491 69.409 56.6991C69.4231 56.649 69.424 56.5969 69.4117 56.5465L69.071 55.1586C69.0569 55.102 69.0265 55.0493 68.9825 55.0054C68.9386 54.9614 68.8826 54.9276 68.8195 54.907C68.7739 54.8916 68.7253 54.8837 68.6762 54.8838H47.4075C47.3584 54.8837 47.3098 54.8916 47.2642 54.907C47.2011 54.9276 47.1451 54.9614 47.1011 55.0054C47.0572 55.0493 47.0268 55.102 47.0127 55.1586L46.672 56.5465C46.6598 56.5969 46.661 56.6489 46.6752 56.6989C46.6895 56.7488 46.7165 56.7954 46.7544 56.8353Z" fill="#2F2E41"/>
<path d="M67.9103 55.4814H68.4543C68.4907 55.4814 68.5203 55.456 68.5203 55.4247V55.1895C68.5203 55.1582 68.4907 55.1328 68.4543 55.1328H67.9103C67.8738 55.1328 67.8443 55.1582 67.8443 55.1895V55.4247C67.8443 55.456 67.8738 55.4814 67.9103 55.4814Z" fill="#3F3D56"/>
<path d="M66.5583 55.4814H67.1023C67.1387 55.4814 67.1683 55.456 67.1683 55.4247V55.1895C67.1683 55.1582 67.1387 55.1328 67.1023 55.1328H66.5583C66.5218 55.1328 66.4923 55.1582 66.4923 55.1895V55.4247C66.4923 55.456 66.5218 55.4814 66.5583 55.4814Z" fill="#3F3D56"/>
<path d="M65.2062 55.4814H65.7502C65.7867 55.4814 65.8163 55.456 65.8163 55.4247V55.1895C65.8163 55.1582 65.7867 55.1328 65.7502 55.1328H65.2062C65.1698 55.1328 65.1402 55.1582 65.1402 55.1895V55.4247C65.1402 55.456 65.1698 55.4814 65.2062 55.4814Z" fill="#3F3D56"/>
<path d="M63.8542 55.4814H64.3982C64.4347 55.4814 64.4642 55.456 64.4642 55.4247V55.1895C64.4642 55.1582 64.4347 55.1328 64.3982 55.1328H63.8542C63.8178 55.1328 63.7882 55.1582 63.7882 55.1895V55.4247C63.7882 55.456 63.8178 55.4814 63.8542 55.4814Z" fill="#3F3D56"/>
<path d="M62.5022 55.4814H63.0462C63.0826 55.4814 63.1122 55.456 63.1122 55.4247V55.1895C63.1122 55.1582 63.0826 55.1328 63.0462 55.1328H62.5022C62.4657 55.1328 62.4362 55.1582 62.4362 55.1895V55.4247C62.4362 55.456 62.4657 55.4814 62.5022 55.4814Z" fill="#3F3D56"/>
<path d="M61.1501 55.4814H61.6942C61.7306 55.4814 61.7602 55.456 61.7602 55.4247V55.1895C61.7602 55.1582 61.7306 55.1328 61.6942 55.1328H61.1501C61.1137 55.1328 61.0841 55.1582 61.0841 55.1895V55.4247C61.0841 55.456 61.1137 55.4814 61.1501 55.4814Z" fill="#3F3D56"/>
<path d="M59.7981 55.4814H60.3421C60.3786 55.4814 60.4081 55.456 60.4081 55.4247V55.1895C60.4081 55.1582 60.3786 55.1328 60.3421 55.1328H59.7981C59.7617 55.1328 59.7321 55.1582 59.7321 55.1895V55.4247C59.7321 55.456 59.7617 55.4814 59.7981 55.4814Z" fill="#3F3D56"/>
<path d="M58.4461 55.4814H58.9901C59.0266 55.4814 59.0561 55.456 59.0561 55.4247V55.1895C59.0561 55.1582 59.0266 55.1328 58.9901 55.1328H58.4461C58.4097 55.1328 58.3801 55.1582 58.3801 55.1895V55.4247C58.3801 55.456 58.4097 55.4814 58.4461 55.4814Z" fill="#3F3D56"/>
<path d="M57.0941 55.4814H57.6381C57.6745 55.4814 57.7041 55.456 57.7041 55.4247V55.1895C57.7041 55.1582 57.6745 55.1328 57.6381 55.1328H57.0941C57.0576 55.1328 57.0281 55.1582 57.0281 55.1895V55.4247C57.0281 55.456 57.0576 55.4814 57.0941 55.4814Z" fill="#3F3D56"/>
<path d="M55.742 55.4814H56.286C56.3225 55.4814 56.3521 55.456 56.3521 55.4247V55.1895C56.3521 55.1582 56.3225 55.1328 56.286 55.1328H55.742C55.7056 55.1328 55.676 55.1582 55.676 55.1895V55.4247C55.676 55.456 55.7056 55.4814 55.742 55.4814Z" fill="#3F3D56"/>
<path d="M54.39 55.4814H54.934C54.9705 55.4814 55 55.456 55 55.4247V55.1895C55 55.1582 54.9705 55.1328 54.934 55.1328H54.39C54.3536 55.1328 54.324 55.1582 54.324 55.1895V55.4247C54.324 55.456 54.3536 55.4814 54.39 55.4814Z" fill="#3F3D56"/>
<path d="M53.038 55.4814H53.582C53.6185 55.4814 53.648 55.456 53.648 55.4247V55.1895C53.648 55.1582 53.6185 55.1328 53.582 55.1328H53.038C53.0015 55.1328 52.972 55.1582 52.972 55.1895V55.4247C52.972 55.456 53.0015 55.4814 53.038 55.4814Z" fill="#3F3D56"/>
<path d="M51.686 55.4814H52.23C52.2664 55.4814 52.296 55.456 52.296 55.4247V55.1895C52.296 55.1582 52.2664 55.1328 52.23 55.1328H51.686C51.6495 55.1328 51.62 55.1582 51.62 55.1895V55.4247C51.62 55.456 51.6495 55.4814 51.686 55.4814Z" fill="#3F3D56"/>
<path d="M50.3339 55.4814H50.8779C50.9144 55.4814 50.944 55.456 50.944 55.4247V55.1895C50.944 55.1582 50.9144 55.1328 50.8779 55.1328H50.3339C50.2975 55.1328 50.2679 55.1582 50.2679 55.1895V55.4247C50.2679 55.456 50.2975 55.4814 50.3339 55.4814Z" fill="#3F3D56"/>
<path d="M48.9819 55.4814H49.5259C49.5624 55.4814 49.5919 55.456 49.5919 55.4247V55.1895C49.5919 55.1582 49.5624 55.1328 49.5259 55.1328H48.9819C48.9455 55.1328 48.9159 55.1582 48.9159 55.1895V55.4247C48.9159 55.456 48.9455 55.4814 48.9819 55.4814Z" fill="#3F3D56"/>
<path d="M47.6299 55.4814H48.1739C48.2103 55.4814 48.2399 55.456 48.2399 55.4247V55.1895C48.2399 55.1582 48.2103 55.1328 48.1739 55.1328H47.6299C47.5934 55.1328 47.5639 55.1582 47.5639 55.1895V55.4247C47.5639 55.456 47.5934 55.4814 47.6299 55.4814Z" fill="#3F3D56"/>
<path d="M67.9263 56.0615H68.4703C68.5067 56.0615 68.5363 56.0361 68.5363 56.0048V55.7696C68.5363 55.7382 68.5067 55.7128 68.4703 55.7128H67.9263C67.8898 55.7128 67.8603 55.7382 67.8603 55.7696V56.0048C67.8603 56.0361 67.8898 56.0615 67.9263 56.0615Z" fill="#3F3D56"/>
<path d="M66.5743 56.0615H67.1183C67.1547 56.0615 67.1843 56.0361 67.1843 56.0048V55.7696C67.1843 55.7382 67.1547 55.7128 67.1183 55.7128H66.5743C66.5378 55.7128 66.5083 55.7382 66.5083 55.7696V56.0048C66.5083 56.0361 66.5378 56.0615 66.5743 56.0615Z" fill="#3F3D56"/>
<path d="M65.2222 56.0615H65.7662C65.8027 56.0615 65.8322 56.0361 65.8322 56.0048V55.7696C65.8322 55.7382 65.8027 55.7128 65.7662 55.7128H65.2222C65.1858 55.7128 65.1562 55.7382 65.1562 55.7696V56.0048C65.1562 56.0361 65.1858 56.0615 65.2222 56.0615Z" fill="#3F3D56"/>
<path d="M63.8702 56.0615H64.4142C64.4506 56.0615 64.4802 56.0361 64.4802 56.0048V55.7696C64.4802 55.7382 64.4506 55.7128 64.4142 55.7128H63.8702C63.8337 55.7128 63.8042 55.7382 63.8042 55.7696V56.0048C63.8042 56.0361 63.8337 56.0615 63.8702 56.0615Z" fill="#3F3D56"/>
<path d="M62.5182 56.0615H63.0622C63.0986 56.0615 63.1282 56.0361 63.1282 56.0048V55.7696C63.1282 55.7382 63.0986 55.7128 63.0622 55.7128H62.5182C62.4817 55.7128 62.4522 55.7382 62.4522 55.7696V56.0048C62.4522 56.0361 62.4817 56.0615 62.5182 56.0615Z" fill="#3F3D56"/>
<path d="M61.1661 56.0615H61.7101C61.7466 56.0615 61.7762 56.0361 61.7762 56.0048V55.7696C61.7762 55.7382 61.7466 55.7128 61.7101 55.7128H61.1661C61.1297 55.7128 61.1001 55.7382 61.1001 55.7696V56.0048C61.1001 56.0361 61.1297 56.0615 61.1661 56.0615Z" fill="#3F3D56"/>
<path d="M59.8141 56.0615H60.3581C60.3946 56.0615 60.4241 56.0361 60.4241 56.0048V55.7696C60.4241 55.7382 60.3946 55.7128 60.3581 55.7128H59.8141C59.7777 55.7128 59.7481 55.7382 59.7481 55.7696V56.0048C59.7481 56.0361 59.7777 56.0615 59.8141 56.0615Z" fill="#3F3D56"/>
<path d="M58.4621 56.0615H59.0061C59.0425 56.0615 59.0721 56.0361 59.0721 56.0048V55.7696C59.0721 55.7382 59.0425 55.7128 59.0061 55.7128H58.4621C58.4256 55.7128 58.3961 55.7382 58.3961 55.7696V56.0048C58.3961 56.0361 58.4256 56.0615 58.4621 56.0615Z" fill="#3F3D56"/>
<path d="M57.11 56.0615H57.6541C57.6905 56.0615 57.7201 56.0361 57.7201 56.0048V55.7696C57.7201 55.7382 57.6905 55.7128 57.6541 55.7128H57.11C57.0736 55.7128 57.044 55.7382 57.044 55.7696V56.0048C57.044 56.0361 57.0736 56.0615 57.11 56.0615Z" fill="#3F3D56"/>
<path d="M55.758 56.0615H56.302C56.3385 56.0615 56.368 56.0361 56.368 56.0048V55.7696C56.368 55.7382 56.3385 55.7128 56.302 55.7128H55.758C55.7216 55.7128 55.692 55.7382 55.692 55.7696V56.0048C55.692 56.0361 55.7216 56.0615 55.758 56.0615Z" fill="#3F3D56"/>
<path d="M54.406 56.0615H54.95C54.9865 56.0615 55.016 56.0361 55.016 56.0048V55.7696C55.016 55.7382 54.9865 55.7128 54.95 55.7128H54.406C54.3696 55.7128 54.34 55.7382 54.34 55.7696V56.0048C54.34 56.0361 54.3696 56.0615 54.406 56.0615Z" fill="#3F3D56"/>
<path d="M53.054 56.0615H53.598C53.6344 56.0615 53.664 56.0361 53.664 56.0048V55.7696C53.664 55.7382 53.6344 55.7128 53.598 55.7128H53.054C53.0175 55.7128 52.988 55.7382 52.988 55.7696V56.0048C52.988 56.0361 53.0175 56.0615 53.054 56.0615Z" fill="#3F3D56"/>
<path d="M51.7019 56.0615H52.2459C52.2824 56.0615 52.312 56.0361 52.312 56.0048V55.7696C52.312 55.7382 52.2824 55.7128 52.2459 55.7128H51.7019C51.6655 55.7128 51.6359 55.7382 51.6359 55.7696V56.0048C51.6359 56.0361 51.6655 56.0615 51.7019 56.0615Z" fill="#3F3D56"/>
<path d="M50.3499 56.0615H50.8939C50.9304 56.0615 50.9599 56.0361 50.9599 56.0048V55.7696C50.9599 55.7382 50.9304 55.7128 50.8939 55.7128H50.3499C50.3135 55.7128 50.2839 55.7382 50.2839 55.7696V56.0048C50.2839 56.0361 50.3135 56.0615 50.3499 56.0615Z" fill="#3F3D56"/>
<path d="M48.9979 56.0615H49.5419C49.5784 56.0615 49.6079 56.0361 49.6079 56.0048V55.7696C49.6079 55.7382 49.5784 55.7128 49.5419 55.7128H48.9979C48.9614 55.7128 48.9319 55.7382 48.9319 55.7696V56.0048C48.9319 56.0361 48.9614 56.0615 48.9979 56.0615Z" fill="#3F3D56"/>
<path d="M47.6459 56.0615H48.1899C48.2263 56.0615 48.2559 56.0361 48.2559 56.0048V55.7696C48.2559 55.7382 48.2263 55.7128 48.1899 55.7128H47.6459C47.6094 55.7128 47.5799 55.7382 47.5799 55.7696V56.0048C47.5799 56.0361 47.6094 56.0615 47.6459 56.0615Z" fill="#3F3D56"/>
<path d="M56.7044 56.7568H61.9805C62.017 56.7568 62.0466 56.7314 62.0466 56.7001V56.4649C62.0466 56.4336 62.017 56.4081 61.9805 56.4081H56.7044C56.668 56.4081 56.6384 56.4336 56.6384 56.4649V56.7001C56.6384 56.7314 56.668 56.7568 56.7044 56.7568Z" fill="#3F3D56"/>
<path d="M41.736 28.3984H76.2564C76.2922 28.3977 76.3264 28.385 76.3515 28.3629C76.3766 28.3408 76.3907 28.3112 76.3907 28.2803C76.3907 28.2494 76.3766 28.2197 76.3515 28.1976C76.3264 28.1755 76.2922 28.1628 76.2564 28.1621H41.736C41.7001 28.1628 41.6659 28.1755 41.6408 28.1976C41.6157 28.2197 41.6017 28.2494 41.6017 28.2803C41.6017 28.3112 41.6157 28.3408 41.6408 28.3629C41.6659 28.385 41.7001 28.3977 41.736 28.3984Z" fill="#3F3D56"/>
<path d="M73.9065 27.5602C74.3508 27.5602 74.711 27.2446 74.711 26.8553C74.711 26.466 74.3508 26.1504 73.9065 26.1504C73.4622 26.1504 73.102 26.466 73.102 26.8553C73.102 27.2446 73.4622 27.5602 73.9065 27.5602Z" fill="#3F3D56"/>
<path d="M71.1273 27.5602C71.5716 27.5602 71.9318 27.2446 71.9318 26.8553C71.9318 26.466 71.5716 26.1504 71.1273 26.1504C70.683 26.1504 70.3228 26.466 70.3228 26.8553C70.3228 27.2446 70.683 27.5602 71.1273 27.5602Z" fill="#3F3D56"/>
<path d="M68.3481 27.5602C68.7924 27.5602 69.1526 27.2446 69.1526 26.8553C69.1526 26.466 68.7924 26.1504 68.3481 26.1504C67.9037 26.1504 67.5435 26.466 67.5435 26.8553C67.5435 27.2446 67.9037 27.5602 68.3481 27.5602Z" fill="#3F3D56"/>
<path d="M43.2621 26.4542C43.2621 26.4709 43.2658 26.4875 43.2732 26.503C43.2805 26.5184 43.2913 26.5325 43.305 26.5444C43.3187 26.5563 43.335 26.5657 43.3529 26.5722C43.3708 26.5786 43.3901 26.582 43.4095 26.5821H45.3835C45.4225 26.5813 45.4596 26.5674 45.4869 26.5434C45.5142 26.5194 45.5294 26.4872 45.5294 26.4536C45.5294 26.4201 45.5142 26.3879 45.4869 26.3639C45.4596 26.3399 45.4225 26.326 45.3835 26.3252H43.4095C43.3701 26.3256 43.3325 26.3394 43.3049 26.3636C43.2773 26.3878 43.2619 26.4203 43.2621 26.4542Z" fill="#3F3D56"/>
<path d="M43.2621 26.9347C43.2621 26.9514 43.2658 26.968 43.2732 26.9834C43.2805 26.9989 43.2913 27.013 43.305 27.0249C43.3187 27.0367 43.335 27.0462 43.3529 27.0526C43.3708 27.0591 43.3901 27.0625 43.4095 27.0625H45.3835C45.4225 27.0618 45.4597 27.0479 45.487 27.0239C45.5143 26.9999 45.5296 26.9677 45.5296 26.9341C45.5296 26.9005 45.5143 26.8683 45.487 26.8443C45.4597 26.8203 45.4225 26.8064 45.3835 26.8057H43.4095C43.3701 26.8061 43.3325 26.8199 43.3049 26.844C43.2773 26.8682 43.2619 26.9008 43.2621 26.9347Z" fill="#3F3D56"/>
<path d="M43.2621 27.415C43.2619 27.4488 43.2773 27.4814 43.3049 27.5056C43.3325 27.5298 43.3701 27.5436 43.4095 27.544H45.3835C45.4225 27.5432 45.4596 27.5293 45.4869 27.5053C45.5142 27.4813 45.5294 27.4491 45.5294 27.4155C45.5294 27.382 45.5142 27.3498 45.4869 27.3258C45.4596 27.3018 45.4225 27.2879 45.3835 27.2871H43.4095C43.3901 27.2872 43.3708 27.2905 43.3529 27.297C43.335 27.3035 43.3187 27.3129 43.305 27.3248C43.2913 27.3367 43.2805 27.3507 43.2732 27.3662C43.2658 27.3817 43.2621 27.3982 43.2621 27.415Z" fill="#3F3D56"/>
<path d="M43.8722 31.1328H43.1629C42.9479 31.1328 42.7735 31.2822 42.7735 31.4665C42.7735 31.6508 42.9479 31.8003 43.1629 31.8003H43.8722C44.0873 31.8003 44.2616 31.6508 44.2616 31.4665C44.2616 31.2822 44.0873 31.1328 43.8722 31.1328Z" fill="#E6E6E6"/>
<path d="M51.9844 31.1328H51.2751C51.06 31.1328 50.8857 31.2822 50.8857 31.4665C50.8857 31.6508 51.06 31.8003 51.2751 31.8003H51.9844C52.1994 31.8003 52.3737 31.6508 52.3737 31.4665C52.3737 31.2822 52.1994 31.1328 51.9844 31.1328Z" fill="#E6E6E6"/>
<path d="M54.2828 31.1328H53.5735C53.3585 31.1328 53.1841 31.2822 53.1841 31.4665C53.1841 31.6508 53.3585 31.8003 53.5735 31.8003H54.2828C54.4978 31.8003 54.6722 31.6508 54.6722 31.4665C54.6722 31.2822 54.4978 31.1328 54.2828 31.1328Z" fill="#E6E6E6"/>
<path d="M49.7778 31.0771H45.3694C45.1544 31.0771 44.9801 31.2266 44.9801 31.4109C44.9801 31.5952 45.1544 31.7446 45.3694 31.7446H49.7778C49.9929 31.7446 50.1672 31.5952 50.1672 31.4109C50.1672 31.2266 49.9929 31.0771 49.7778 31.0771Z" fill="#E6E6E6"/>
<path d="M60.594 31.0771H56.1856C55.9706 31.0771 55.7963 31.2266 55.7963 31.4109C55.7963 31.5952 55.9706 31.7446 56.1856 31.7446H60.594C60.8091 31.7446 60.9834 31.5952 60.9834 31.4109C60.9834 31.2266 60.8091 31.0771 60.594 31.0771Z" fill="#E6E6E6"/>
<path d="M46.0354 32.6396H45.3261C45.1111 32.6396 44.9368 32.7891 44.9368 32.9734C44.9368 33.1577 45.1111 33.3071 45.3261 33.3071H46.0354C46.2505 33.3071 46.4248 33.1577 46.4248 32.9734C46.4248 32.7891 46.2505 32.6396 46.0354 32.6396Z" fill="#E6E6E6"/>
<path d="M54.1476 32.6396H53.4383C53.2232 32.6396 53.0489 32.7891 53.0489 32.9734C53.0489 33.1577 53.2232 33.3071 53.4383 33.3071H54.1476C54.3626 33.3071 54.537 33.1577 54.537 32.9734C54.537 32.7891 54.3626 32.6396 54.1476 32.6396Z" fill="#E6E6E6"/>
<path d="M56.4461 32.6396H55.7368C55.5217 32.6396 55.3474 32.7891 55.3474 32.9734C55.3474 33.1577 55.5217 33.3071 55.7368 33.3071H56.4461C56.6611 33.3071 56.8354 33.1577 56.8354 32.9734C56.8354 32.7891 56.6611 32.6396 56.4461 32.6396Z" fill="#E6E6E6"/>
<path d="M51.9411 32.584H47.5327C47.3176 32.584 47.1433 32.7334 47.1433 32.9177C47.1433 33.102 47.3176 33.2514 47.5327 33.2514H51.9411C52.1561 33.2514 52.3304 33.102 52.3304 32.9177C52.3304 32.7334 52.1561 32.584 51.9411 32.584Z" fill="#E6E6E6"/>
<path d="M62.7573 32.584H58.3489C58.1338 32.584 57.9595 32.7334 57.9595 32.9177C57.9595 33.102 58.1338 33.2514 58.3489 33.2514H62.7573C62.9723 33.2514 63.1467 33.102 63.1467 32.9177C63.1467 32.7334 62.9723 32.584 62.7573 32.584Z" fill="#E6E6E6"/>
<path d="M48.1987 34.1475H47.4894C47.2743 34.1475 47.1 34.2969 47.1 34.4812C47.1 34.6655 47.2743 34.8149 47.4894 34.8149H48.1987C48.4137 34.8149 48.5881 34.6655 48.5881 34.4812C48.5881 34.2969 48.4137 34.1475 48.1987 34.1475Z" fill="#E6E6E6"/>
<path d="M56.3108 34.1475H55.6015C55.3865 34.1475 55.2122 34.2969 55.2122 34.4812C55.2122 34.6655 55.3865 34.8149 55.6015 34.8149H56.3108C56.5259 34.8149 56.7002 34.6655 56.7002 34.4812C56.7002 34.2969 56.5259 34.1475 56.3108 34.1475Z" fill="#E6E6E6"/>
<path d="M58.6093 34.1475H57.9C57.6849 34.1475 57.5106 34.2969 57.5106 34.4812C57.5106 34.6655 57.6849 34.8149 57.9 34.8149H58.6093C58.8243 34.8149 58.9987 34.6655 58.9987 34.4812C58.9987 34.2969 58.8243 34.1475 58.6093 34.1475Z" fill="#E6E6E6"/>
<path d="M54.1043 34.0918H49.6959C49.4809 34.0918 49.3065 34.2412 49.3065 34.4255C49.3065 34.6098 49.4809 34.7592 49.6959 34.7592H54.1043C54.3194 34.7592 54.4937 34.6098 54.4937 34.4255C54.4937 34.2412 54.3194 34.0918 54.1043 34.0918Z" fill="#E6E6E6"/>
<path d="M64.9205 34.0918H60.5121C60.2971 34.0918 60.1228 34.2412 60.1228 34.4255C60.1228 34.6098 60.2971 34.7592 60.5121 34.7592H64.9205C65.1356 34.7592 65.3099 34.6098 65.3099 34.4255C65.3099 34.2412 65.1356 34.0918 64.9205 34.0918Z" fill="#E6E6E6"/>
<path d="M50.3619 35.6543H49.6526C49.4376 35.6543 49.2632 35.8037 49.2632 35.988C49.2632 36.1723 49.4376 36.3217 49.6526 36.3217H50.3619C50.577 36.3217 50.7513 36.1723 50.7513 35.988C50.7513 35.8037 50.577 35.6543 50.3619 35.6543Z" fill="#E6E6E6"/>
<path d="M58.4741 35.6543H57.7648C57.5497 35.6543 57.3754 35.8037 57.3754 35.988C57.3754 36.1723 57.5497 36.3217 57.7648 36.3217H58.4741C58.6891 36.3217 58.8635 36.1723 58.8635 35.988C58.8635 35.8037 58.6891 35.6543 58.4741 35.6543Z" fill="#E6E6E6"/>
<path d="M60.7725 35.6543H60.0632C59.8482 35.6543 59.6739 35.8037 59.6739 35.988C59.6739 36.1723 59.8482 36.3217 60.0632 36.3217H60.7725C60.9876 36.3217 61.1619 36.1723 61.1619 35.988C61.1619 35.8037 60.9876 35.6543 60.7725 35.6543Z" fill="#E6E6E6"/>
<path d="M56.2676 35.5986H51.8592C51.6441 35.5986 51.4698 35.748 51.4698 35.9324C51.4698 36.1167 51.6441 36.2661 51.8592 36.2661H56.2676C56.4826 36.2661 56.6569 36.1167 56.6569 35.9324C56.6569 35.748 56.4826 35.5986 56.2676 35.5986Z" fill="#E6E6E6"/>
<path d="M51.9844 41.6475H51.2751C51.06 41.6475 50.8857 41.7969 50.8857 41.9812C50.8857 42.1655 51.06 42.3149 51.2751 42.3149H51.9844C52.1994 42.3149 52.3737 42.1655 52.3737 41.9812C52.3737 41.7969 52.1994 41.6475 51.9844 41.6475Z" fill="#E6E6E6"/>
<path d="M54.2828 41.6475H53.5735C53.3585 41.6475 53.1841 41.7969 53.1841 41.9812C53.1841 42.1655 53.3585 42.3149 53.5735 42.3149H54.2828C54.4978 42.3149 54.6722 42.1655 54.6722 41.9812C54.6722 41.7969 54.4978 41.6475 54.2828 41.6475Z" fill="#E6E6E6"/>
<path d="M60.594 41.7031H56.1856C55.9706 41.7031 55.7963 41.8525 55.7963 42.0368C55.7963 42.2212 55.9706 42.3706 56.1856 42.3706H60.594C60.8091 42.3706 60.9834 42.2212 60.9834 42.0368C60.9834 41.8525 60.8091 41.7031 60.594 41.7031Z" fill="#E6E6E6"/>
<path d="M43.8722 41.6475H43.1629C42.9479 41.6475 42.7735 41.7969 42.7735 41.9812C42.7735 42.1655 42.9479 42.3149 43.1629 42.3149H43.8722C44.0873 42.3149 44.2616 42.1655 44.2616 41.9812C44.2616 41.7969 44.0873 41.6475 43.8722 41.6475Z" fill="#E6E6E6"/>
<path d="M49.7778 41.7031H45.3694C45.1544 41.7031 44.9801 41.8525 44.9801 42.0368C44.9801 42.2212 45.1544 42.3706 45.3694 42.3706H49.7778C49.9929 42.3706 50.1672 42.2212 50.1672 42.0368C50.1672 41.8525 49.9929 41.7031 49.7778 41.7031Z" fill="#E6E6E6"/>
<path d="M46.0354 40.1406H45.3261C45.1111 40.1406 44.9368 40.29 44.9368 40.4743C44.9368 40.6587 45.1111 40.8081 45.3261 40.8081H46.0354C46.2505 40.8081 46.4248 40.6587 46.4248 40.4743C46.4248 40.29 46.2505 40.1406 46.0354 40.1406Z" fill="#E6E6E6"/>
<path d="M54.1476 40.1406H53.4383C53.2232 40.1406 53.0489 40.29 53.0489 40.4743C53.0489 40.6587 53.2232 40.8081 53.4383 40.8081H54.1476C54.3626 40.8081 54.537 40.6587 54.537 40.4743C54.537 40.29 54.3626 40.1406 54.1476 40.1406Z" fill="#E6E6E6"/>
<path d="M56.4461 40.1406H55.7368C55.5217 40.1406 55.3474 40.29 55.3474 40.4743C55.3474 40.6587 55.5217 40.8081 55.7368 40.8081H56.4461C56.6611 40.8081 56.8354 40.6587 56.8354 40.4743C56.8354 40.29 56.6611 40.1406 56.4461 40.1406Z" fill="#E6E6E6"/>
<path d="M51.9411 40.1963H47.5327C47.3176 40.1963 47.1433 40.3457 47.1433 40.53C47.1433 40.7143 47.3176 40.8637 47.5327 40.8637H51.9411C52.1561 40.8637 52.3304 40.7143 52.3304 40.53C52.3304 40.3457 52.1561 40.1963 51.9411 40.1963Z" fill="#E6E6E6"/>
<path d="M48.1987 38.6328H47.4894C47.2743 38.6328 47.1 38.7822 47.1 38.9665C47.1 39.1508 47.2743 39.3003 47.4894 39.3003H48.1987C48.4137 39.3003 48.5881 39.1508 48.5881 38.9665C48.5881 38.7822 48.4137 38.6328 48.1987 38.6328Z" fill="#E6E6E6"/>
<path d="M56.3108 38.6328H55.6015C55.3865 38.6328 55.2122 38.7822 55.2122 38.9665C55.2122 39.1508 55.3865 39.3003 55.6015 39.3003H56.3108C56.5259 39.3003 56.7002 39.1508 56.7002 38.9665C56.7002 38.7822 56.5259 38.6328 56.3108 38.6328Z" fill="#E6E6E6"/>
<path d="M58.6093 38.6328H57.9C57.6849 38.6328 57.5106 38.7822 57.5106 38.9665C57.5106 39.1508 57.6849 39.3003 57.9 39.3003H58.6093C58.8243 39.3003 58.9987 39.1508 58.9987 38.9665C58.9987 38.7822 58.8243 38.6328 58.6093 38.6328Z" fill="#E6E6E6"/>
<path d="M54.1043 38.6885H49.6959C49.4809 38.6885 49.3065 38.8379 49.3065 39.0222C49.3065 39.2065 49.4809 39.3559 49.6959 39.3559H54.1043C54.3194 39.3559 54.4937 39.2065 54.4937 39.0222C54.4937 38.8379 54.3194 38.6885 54.1043 38.6885Z" fill="#E6E6E6"/>
<path d="M50.3619 37.126H49.6526C49.4376 37.126 49.2632 37.2754 49.2632 37.4597C49.2632 37.644 49.4376 37.7934 49.6526 37.7934H50.3619C50.577 37.7934 50.7513 37.644 50.7513 37.4597C50.7513 37.2754 50.577 37.126 50.3619 37.126Z" fill="#E6E6E6"/>
<path d="M58.4741 37.126H57.7648C57.5497 37.126 57.3754 37.2754 57.3754 37.4597C57.3754 37.644 57.5497 37.7934 57.7648 37.7934H58.4741C58.6891 37.7934 58.8635 37.644 58.8635 37.4597C58.8635 37.2754 58.6891 37.126 58.4741 37.126Z" fill="#E6E6E6"/>
<path d="M60.7725 37.126H60.0632C59.8482 37.126 59.6739 37.2754 59.6739 37.4597C59.6739 37.644 59.8482 37.7934 60.0632 37.7934H60.7725C60.9876 37.7934 61.1619 37.644 61.1619 37.4597C61.1619 37.2754 60.9876 37.126 60.7725 37.126Z" fill="#E6E6E6"/>
<path d="M56.2676 37.1816H51.8592C51.6441 37.1816 51.4698 37.3311 51.4698 37.5154C51.4698 37.6997 51.6441 37.8491 51.8592 37.8491H56.2676C56.4826 37.8491 56.6569 37.6997 56.6569 37.5154C56.6569 37.3311 56.4826 37.1816 56.2676 37.1816Z" fill="#E6E6E6"/>
<path d="M47.309 63.2938C47.2793 63.3065 47.2495 63.3193 47.2198 63.3309C47.0319 63.4109 46.8426 63.4897 46.6519 63.5674C46.0814 63.8004 45.5036 64.0218 44.9186 64.2317C43.3794 64.7837 41.8001 65.2496 40.1906 65.6263C39.9202 64.1807 39.6579 60.7711 39.4064 58.2634C39.3591 57.7916 39.3118 57.3522 39.2645 56.9638C39.2195 56.454 39.1341 55.9473 39.0089 55.4474C38.9967 55.4083 38.979 55.3705 38.9562 55.335C38.9819 55.5355 39.0089 56.1338 39.0346 56.9638C39.0481 57.3522 39.0603 57.7916 39.0738 58.2634C39.1374 60.6772 39.2036 63.9615 39.2699 65.8315C39.0819 65.871 38.8927 65.9104 38.7034 65.9475C38.5844 65.9718 38.4641 65.995 38.3437 66.017C38.1977 66.0448 38.0517 66.0727 37.9057 66.0982C37.7529 66.126 37.6001 66.1527 37.4473 66.1782C34.9507 66.5987 32.4122 66.8099 29.8679 66.8088C29.6989 66.8088 29.5312 66.8077 29.3622 66.8065C29.3108 66.8065 29.2595 66.8054 29.2067 66.8042C29.058 66.8019 28.9039 66.7996 28.747 66.7961C25.7403 66.7248 22.7532 66.3556 19.8453 65.6959L19.9629 58.2634L19.9832 56.9638L19.9913 56.4711C19.9243 56.6296 19.8843 56.7956 19.8723 56.9638C19.825 57.2803 19.7763 57.729 19.7277 58.2634C19.5424 60.3224 19.3518 63.6439 19.1544 65.5336C16.8168 64.9632 15.1078 64.4427 12.9716 63.5268C12.8891 63.492 12.8053 63.4561 12.7228 63.4201C12.7377 63.3309 12.7539 63.2416 12.7688 63.15C13.0108 61.7078 12.7255 59.8308 12.9932 58.2634C13.1974 57.0543 13.4083 55.8926 13.6206 54.9072C13.8775 53.7212 14.1384 52.7891 14.3966 52.3358C14.6941 51.8129 14.9915 51.2982 15.2795 50.8055C15.4039 50.5933 15.526 50.385 15.6459 50.1806C15.7108 50.0705 15.7757 49.9615 15.8392 49.8548C16.1286 49.3691 16.4017 48.9204 16.6518 48.5228C16.8276 48.2434 16.9898 47.9906 17.1385 47.7692C17.313 47.5084 17.4671 47.2927 17.5942 47.1293C18.5329 45.9091 19.9296 45.0007 21.5529 44.5544L21.5935 44.5451L21.6327 44.559L21.6773 44.5764L24.2543 43.7684L25.4048 41.3929L31.3145 41.0811L32.2691 41.7036L32.7571 42.0224L33.2777 42.3621L34.2349 42.987L34.5067 43.0589L34.9109 43.1655L37.6758 43.8936L37.7042 43.8831L37.7448 43.8924C39.2219 44.2979 40.515 45.0881 41.4439 46.1531C41.5359 46.2551 41.621 46.3606 41.7035 46.4673C41.9279 46.7525 42.2308 47.2035 42.5877 47.7692C42.7351 48.0022 42.8906 48.255 43.0542 48.5228C43.1529 48.6839 44.0047 50.9632 44.8335 53.2911C45.6082 55.4706 46.3626 57.693 46.4613 58.2634C46.4789 58.3689 46.4978 58.4756 46.5154 58.5811C46.6276 59.2408 46.7385 59.905 46.8453 60.5531C47.0035 61.5142 47.1576 62.4417 47.305 63.2706C47.3063 63.2787 47.3077 63.2857 47.309 63.2938Z" fill="#3F3D56"/>
<path opacity="0.2" d="M41.0462 54.9016L39.8974 51.1006L38.8829 54.3805L41.0462 54.9016Z" fill="black"/>
<path d="M2.14017 54.8575C2.19973 55.0062 2.31273 55.1349 2.46292 55.2251C2.61312 55.3153 2.79279 55.3624 2.97614 55.3595L6.5579 55.2805C6.74259 55.2774 6.92116 55.2232 7.06691 55.1259C7.21267 55.0286 7.31777 54.8934 7.36653 54.7407L7.87339 50.0936C8.05322 50.1635 8.24898 50.198 8.44637 50.1946C8.79269 50.1871 9.12138 50.062 9.36012 49.8468C9.59887 49.6315 9.72811 49.3438 9.71941 49.0468C9.71072 48.7499 9.56481 48.4681 9.31377 48.2634C9.06273 48.0587 8.72714 47.9479 8.38081 47.9553C8.30192 47.9551 8.22322 47.9621 8.14607 47.9762C8.06217 47.8984 7.96018 47.8365 7.84669 47.7945C7.73319 47.7525 7.61069 47.7314 7.48709 47.7325L1.97751 47.8544C1.9318 47.8559 1.88633 47.8607 1.8416 47.8689C1.72078 47.8882 1.60618 47.9295 1.50552 47.99C1.40487 48.0504 1.32048 48.1287 1.25806 48.2195C1.19563 48.3102 1.15661 48.4114 1.14361 48.5162C1.13062 48.621 1.14396 48.727 1.18274 48.827L2.14017 54.8575ZM7.97733 49.7781L8.338 48.6707C8.37903 48.5428 8.37998 48.4078 8.34075 48.2795C8.35826 48.2795 8.37369 48.2724 8.39119 48.2723C8.63849 48.2679 8.87773 48.3478 9.05645 48.4944C9.23517 48.6411 9.33879 48.8425 9.34458 49.0545C9.35037 49.2665 9.25786 49.4718 9.08734 49.6255C8.91683 49.7791 8.68221 49.8685 8.43494 49.874C8.27507 49.8783 8.11685 49.8452 7.97733 49.7781Z" fill="#2F2E41"/>
<path d="M1.8416 47.869C1.95898 48.444 3.27868 48.8483 4.86552 48.7781C6.32473 48.7205 7.51786 48.2814 7.73644 47.7611C7.65555 47.7406 7.57142 47.731 7.48708 47.7326L1.9775 47.8545C1.9318 47.8559 1.88633 47.8608 1.8416 47.869Z" fill="#3F3D56"/>
<path d="M5.15635 52.304C5.1636 52.3024 5.1705 52.2998 5.17675 52.2963L5.95459 51.8596C5.964 51.8543 5.97172 51.8472 5.97707 51.8387C5.98242 51.8302 5.98523 51.8208 5.98523 51.8111C5.98523 51.8015 5.98244 51.792 5.9771 51.7836C5.97176 51.7751 5.96404 51.7679 5.95464 51.7626L5.14615 51.3085C5.13873 51.3042 5.13042 51.3013 5.12168 51.2999C5.11295 51.2984 5.10396 51.2985 5.09525 51.3C5.08654 51.3016 5.07826 51.3046 5.0709 51.3088C5.06354 51.3131 5.05724 51.3186 5.05236 51.325C5.04749 51.3314 5.04413 51.3385 5.04248 51.346C5.04083 51.3535 5.04092 51.3612 5.04275 51.3687C5.04458 51.3762 5.04812 51.3833 5.05315 51.3895C5.05818 51.3958 5.06461 51.4012 5.07207 51.4054L5.79418 51.811L5.10275 52.1993C5.08937 52.2068 5.07951 52.2181 5.07496 52.2313C5.0704 52.2444 5.07142 52.2585 5.07785 52.2711C5.08428 52.2836 5.0957 52.2938 5.11007 52.2999C5.12444 52.3059 5.14084 52.3073 5.15634 52.304H5.15635Z" fill="#6C63FF"/>
<path d="M3.92779 52.3526C3.94085 52.3498 3.95262 52.3437 3.96159 52.3351C3.97057 52.3265 3.97634 52.3158 3.97817 52.3043C3.98 52.2929 3.97781 52.2812 3.97187 52.2709C3.96593 52.2605 3.95652 52.2519 3.94484 52.2461L3.22785 51.8936L3.92084 51.4521C3.92796 51.4476 3.93397 51.4419 3.93853 51.4353C3.94308 51.4288 3.94609 51.4216 3.94738 51.414C3.94868 51.4065 3.94823 51.3988 3.94607 51.3915C3.9439 51.3841 3.94007 51.3771 3.93478 51.371C3.92948 51.3649 3.92284 51.3598 3.91523 51.3559C3.90762 51.352 3.89918 51.3494 3.89041 51.3483C3.88163 51.3472 3.87268 51.3476 3.86408 51.3494C3.85548 51.3513 3.84738 51.3546 3.84026 51.3591L3.06439 51.8534C3.05537 51.8591 3.04816 51.8667 3.04341 51.8754C3.03866 51.8841 3.03652 51.8937 3.03718 51.9033C3.03784 51.9129 3.04128 51.9223 3.04719 51.9304C3.0531 51.9386 3.0613 51.9454 3.07103 51.9502L3.87755 52.3467C3.89277 52.3542 3.91079 52.3563 3.92779 52.3526Z" fill="#6C63FF"/>
<path d="M5.07898 52.6852C5.08552 52.6838 5.09177 52.6815 5.0975 52.6785C5.1051 52.6746 5.11171 52.6694 5.11696 52.6632C5.1222 52.6571 5.12599 52.6501 5.12809 52.6427C5.13019 52.6353 5.13058 52.6276 5.12921 52.6201C5.12785 52.6126 5.12477 52.6054 5.12015 52.5989L4.01751 51.0452C4.00814 51.0321 3.99311 51.0228 3.97572 51.0192C3.95833 51.0156 3.93999 51.0181 3.92472 51.026C3.90944 51.034 3.89848 51.0469 3.89422 51.0617C3.88996 51.0766 3.89275 51.0924 3.90199 51.1055L5.00463 52.6592C5.01216 52.6698 5.02344 52.678 5.03682 52.6827C5.0502 52.6874 5.06497 52.6882 5.07898 52.6852Z" fill="#6C63FF"/>
<path d="M106.154 63.4201C106.072 63.4561 105.988 63.492 105.905 63.5268C103.769 64.4427 102.06 64.9632 99.7227 65.5336C99.5253 63.6439 99.3346 60.3224 99.1494 58.2634C99.1007 57.729 99.0521 57.2803 99.0047 56.9638C98.9928 56.7956 98.9527 56.6296 98.8858 56.4711L98.8939 56.9638L98.9141 58.2634L99.0318 65.6959C96.1239 66.3556 93.1368 66.7248 90.13 66.7961C89.9732 66.7996 89.8191 66.8019 89.6703 66.8042C89.6176 66.8054 89.5662 66.8065 89.5149 66.8065C89.3459 66.8077 89.1782 66.8088 89.0092 66.8088C85.8406 66.8108 82.6835 66.4827 79.6072 65.8315C79.6735 63.9615 79.7397 60.6772 79.8032 58.2634C79.8168 57.7916 79.8289 57.3522 79.8425 56.9638C79.8681 56.1338 79.8952 55.5355 79.9209 55.335C79.8981 55.3705 79.8804 55.4083 79.8681 55.4474C79.7429 55.9473 79.6576 56.454 79.6126 56.9638C79.5653 57.3522 79.518 57.7916 79.4706 58.2634C79.2192 60.7711 78.9569 64.1806 78.6865 65.6263C77.077 65.2496 75.4976 64.7837 73.9584 64.2317C73.1472 63.9418 72.3504 63.6292 71.5681 63.2938C71.7168 62.459 71.8723 61.5235 72.0318 60.5531C72.1562 59.8007 72.2846 59.0274 72.4158 58.2634C72.6186 57.0832 79.5085 44.3388 81.1323 43.8924L81.1728 43.8831L81.2012 43.8936L83.9661 43.1655L84.3704 43.0589L84.6421 42.987L85.5994 42.3621L86.1199 42.0224L86.608 41.7036L87.5625 41.0811L93.4722 41.3929L94.6228 43.7684L97.1998 44.5764L97.2444 44.559L97.2836 44.5451L97.3242 44.5544C98.9474 45.0007 100.344 45.9091 101.283 47.1293C101.41 47.2927 101.564 47.5084 101.739 47.7692C101.887 47.9906 102.049 48.2434 102.225 48.5228C102.475 48.9204 102.748 49.3691 103.038 49.8548C103.101 49.9615 103.166 50.0705 103.231 50.1806C103.351 50.3846 103.474 50.5929 103.598 50.8055C103.886 51.2982 104.183 51.8129 104.48 52.3358C104.739 52.7891 105 53.7212 105.257 54.9072C105.469 55.8926 105.68 57.0543 105.884 58.2634C106.152 59.8308 105.866 61.7078 106.108 63.15C106.123 63.2416 106.139 63.3309 106.154 63.4201Z" fill="#3F3D56"/>
<path d="M88.822 40.2267C92.6179 40.2267 95.6952 37.5882 95.6952 34.3336C95.6952 31.0789 92.6179 28.4404 88.822 28.4404C85.026 28.4404 81.9487 31.0789 81.9487 34.3336C81.9487 37.5882 85.026 40.2267 88.822 40.2267Z" fill="#FFB6B6"/>
<path opacity="0.2" d="M77.8306 54.9016L78.9794 51.1006L79.9939 54.3805L77.8306 54.9016Z" fill="black"/>
<path d="M108.401 52.4251C107.99 57.2803 108.416 59.4181 106.147 63.4213C104.083 64.2876 101.933 64.9945 99.7227 65.5336C99.4928 65.5892 99.2625 65.6433 99.0318 65.6959C96.1239 66.3556 93.1368 66.7248 90.13 66.7961C89.9732 66.7996 89.8191 66.8019 89.6703 66.8042C89.6176 66.8054 89.5662 66.8065 89.5149 66.8065C89.3459 66.8077 89.1782 66.8089 89.0092 66.8089C85.8406 66.8109 82.6835 66.4827 79.6072 65.8315C79.299 65.7666 78.992 65.6982 78.6865 65.6263C77.077 65.2496 75.4977 64.7837 73.9584 64.2317C73.1472 63.9418 72.3504 63.6292 71.5681 63.2938C71.3909 63.2173 71.2138 63.1407 71.0394 63.0619C70.143 61.7101 69.6333 60.0662 69.6225 58.0907C70.2431 54.6869 107.03 49.4897 108.401 52.4251Z" fill="#2F2E41"/>
<path opacity="0.2" d="M108.4 53.2558C108.421 52.9553 108.445 52.6448 108.472 52.3215C107.101 49.3863 70.3138 54.5832 69.6933 57.9867C69.695 58.2987 69.7105 58.6015 69.7367 58.8972C71.2396 55.5379 106.188 50.5987 108.4 53.2558Z" fill="black"/>
<path d="M68.7076 52.6525L71.7272 51.358L69.2109 45.5328L68.5477 42.5951C68.4616 42.2134 68.2601 41.8578 67.9634 41.5638C67.6668 41.2698 67.2853 41.0477 66.8572 40.9197C66.4291 40.7917 65.9693 40.7623 65.5237 40.8344C65.0782 40.9065 64.6625 41.0776 64.3183 41.3306C63.8081 41.7055 63.4878 42.2357 63.425 42.8093C63.3621 43.3828 63.5616 43.9549 63.9813 44.4047L66.4429 47.043L68.7076 52.6525Z" fill="#FFB6B6"/>
<path d="M71.7272 50.2805L67.7011 52.0066L70.7565 60.2157C70.9759 60.8052 71.3692 61.3361 71.8983 61.7569C72.4274 62.1776 73.0743 62.4741 73.7763 62.6174C74.6419 62.7941 75.5507 62.7299 76.3708 62.4339C77.191 62.138 77.8799 61.6258 78.3377 60.9715L86.4397 49.0636C87.0139 48.2431 87.1911 47.2625 86.9335 46.3315C86.676 45.4004 86.004 44.5926 85.0612 44.0806C84.5542 43.8052 83.9852 43.6245 83.3913 43.5502C82.7974 43.4758 82.1919 43.5096 81.6142 43.6491C81.0365 43.7887 80.4995 44.0311 80.0383 44.3604C79.5771 44.6897 79.2018 45.0986 78.9371 45.5605L73.9919 54.5958L71.7272 50.2805Z" fill="#3F3D56"/>
<path d="M28.326 39.821C32.5027 39.821 35.8886 36.9177 35.8886 33.3363C35.8886 29.7549 32.5027 26.8516 28.326 26.8516C24.1493 26.8516 20.7634 29.7549 20.7634 33.3363C20.7634 36.9177 24.1493 39.821 28.326 39.821Z" fill="#A0616A"/>
<path d="M20.8542 28.8682C21.4691 28.1576 22.3529 27.6523 23.0289 26.9838C23.3999 26.6169 23.7078 26.2013 24.1248 25.8729C24.8996 25.2627 25.9831 25.0127 27.0344 24.9816C28.1866 24.9562 29.3296 25.1638 30.3709 25.5875C31.4122 26.0112 32.3225 26.6392 33.0281 27.4206C33.5777 27.1443 34.1272 26.8681 34.6767 26.5918C34.8939 27.0818 35.111 27.5718 35.3281 28.0618C35.5062 27.929 35.7335 27.8545 35.9696 27.8517C36.2056 27.8489 36.4352 27.9178 36.6177 28.0462C36.8001 28.1747 36.9237 28.3544 36.9664 28.5535C37.0091 28.7526 36.9682 28.9582 36.8509 29.1339C36.9817 28.7874 37.5809 28.7139 37.9113 28.9428C38.2416 29.1717 38.3301 29.579 38.2762 29.9403C38.2085 30.3366 38.0042 30.7065 37.6894 31.0025C37.3747 31.2985 36.9638 31.5069 36.5098 31.6011C35.7927 31.7381 34.958 31.5942 34.3841 31.9875C33.9239 32.3028 33.785 32.8769 33.3154 33.1817C32.7367 33.5574 31.9188 33.3837 31.1995 33.4667C29.941 33.6119 28.9445 34.7156 29.0958 35.7967C28.9819 35.4556 28.8623 35.1046 28.6038 34.8275C28.3454 34.5504 27.9101 34.363 27.5138 34.4648C26.8586 34.6332 26.7514 35.399 26.9102 35.9694C27.3313 37.4824 28.9273 39.9278 28.9273 39.9278C26.855 40.6288 24.3861 39.966 22.7871 38.6359C21.1882 37.3058 20.3554 35.4224 19.9926 33.5377C19.685 31.9394 19.7286 30.1692 20.8542 28.8682Z" fill="#2F2E41"/>
<path d="M97.4354 37.5831C98.8742 34.7546 98.0591 32.1517 96.3051 30.7709V30.7698C95.6156 29.4446 94.6989 28.4221 93.6498 28.1821C93.1427 27.9027 92.6506 27.5746 92.1044 27.4077C91.85 27.326 91.5789 27.2894 91.3075 27.2999C91.0361 27.3105 90.77 27.3681 90.5252 27.4691L90.2467 27.4054C90.0101 26.8872 89.7329 26.8767 89.4247 27.2176C88.2376 26.7434 87.1681 26.5312 86.2163 26.5312C83.1121 26.5312 81.276 28.785 80.7893 31.5094L83.3838 32.1018L84.2856 30.8695L83.8692 32.2131L85.301 32.5389C87.4805 34.9723 84.8724 40.5858 81.5667 43.709C82.3536 43.5224 83.1373 43.3647 83.9179 43.236L86.7544 39.6699L84.9968 42.916C85.9094 42.8012 87.0735 42.9114 88.3458 43.1328C88.7743 42.6529 89.0001 42.0129 88.7784 41.4425C89.1409 42.0441 89.3909 42.6908 89.5193 43.3589C92.2044 43.9212 95.8671 44.2098 97.841 44.4231C99.4359 43.9767 99.4402 38.9349 97.4354 37.5831Z" fill="#2F2E41"/>
<path d="M98.3715 27.9609C99.4253 29.9838 97.2989 30.8539 95.3509 30.8294C93.5907 30.8072 92.0947 29.7471 92.0048 28.2399C91.9617 27.5161 92.2557 26.8073 92.8222 26.2694C93.3886 25.7314 94.1812 25.4084 95.0254 25.3715C96.7835 25.2944 97.6536 26.583 98.3715 27.9609Z" fill="#2F2E41"/>
<path d="M49.4817 60.8993L47.7458 58.4167L53.5177 54.6622L55.9176 52.4897C56.2294 52.2074 56.6221 52.0003 57.0565 51.889C57.4909 51.7776 57.9518 51.766 58.3931 51.8552C58.8344 51.9444 59.2407 52.1314 59.5713 52.3974C59.9019 52.6634 60.1453 52.9992 60.2772 53.3711C60.4726 53.9223 60.4106 54.517 60.1043 55.0297C59.798 55.5425 59.2714 55.9331 58.6355 56.1193L54.9063 57.2108L49.4817 60.8993Z" fill="#A0616A"/>
<path d="M50.7364 60.8184L48.0337 62.7499L47.305 63.2704L47.2198 63.3307C47.0319 63.4107 46.8426 63.4895 46.6519 63.5672C46.0814 63.8002 45.5036 64.0217 44.9186 64.2315C43.3794 64.7835 41.8001 65.2494 40.1906 65.6262C39.8851 65.6981 39.5781 65.7665 39.2699 65.8314C39.0819 65.8708 38.8927 65.9102 38.7034 65.9473C38.5844 65.9717 38.4641 65.9948 38.3437 66.0169C38.1977 66.0447 38.0517 66.0725 37.9057 66.098C37.7529 66.1259 37.6001 66.1525 37.4473 66.178C37.0362 65.8426 36.709 65.439 36.4854 64.9918C36.2618 64.5446 36.1465 64.0631 36.1467 63.5765C36.1467 63.5452 36.1467 63.5127 36.1481 63.4803L36.5821 53.9355L36.774 49.7051C36.8036 48.7485 37.2684 47.8396 38.069 47.1729C38.8696 46.5061 39.9425 46.1342 41.0586 46.1367C41.1884 46.1367 41.3169 46.1425 41.4439 46.153C41.5359 46.255 41.6211 46.3605 41.7035 46.4671C41.928 46.7523 42.2308 47.2033 42.5878 47.7691C42.7351 48.0021 42.8906 48.2548 43.0542 48.5226C43.1529 48.6838 44.0047 50.963 44.8335 53.2909L44.4684 55.722L43.8086 60.1043L46.5154 58.581L48.4218 57.5074L48.6475 57.8309L49.2357 58.6725L50.3714 60.2956L50.7364 60.8184Z" fill="#3F3D56"/>
<path d="M49.2546 58.0906C49.2532 58.2876 49.2478 58.4813 49.2357 58.6725C49.2075 59.2002 49.1361 59.7255 49.022 60.2446C48.8354 61.1162 48.5025 61.9601 48.0337 62.7499C47.9715 62.8554 47.9053 62.9597 47.8377 63.0618C47.6633 63.1406 47.4861 63.2171 47.309 63.2936C47.2793 63.3064 47.2495 63.3191 47.2198 63.3307C46.4667 63.6519 45.6997 63.9521 44.9186 64.2315C43.3794 64.7835 41.8001 65.2494 40.1906 65.6262C39.8851 65.6981 39.5781 65.7665 39.2699 65.8314C38.6682 65.9589 38.0607 66.0745 37.4473 66.178C34.9507 66.5986 32.4123 66.8098 29.8679 66.8087C29.6989 66.8087 29.5312 66.8075 29.3622 66.8064C29.3109 66.8064 29.2595 66.8052 29.2067 66.8041C29.058 66.8017 28.9039 66.7994 28.7471 66.7959C25.7403 66.7247 22.7532 66.3555 19.8453 65.6957C19.6141 65.6436 19.3838 65.5895 19.1544 65.5334C16.9439 64.9944 14.7938 64.2875 12.7296 63.4211C10.4609 59.418 10.8868 57.2802 10.4758 52.4249C11.3194 50.6175 25.5928 51.894 36.5821 53.9355C39.5646 54.4897 42.3038 55.1007 44.4684 55.7221C46.7047 56.3632 48.3258 57.0147 48.9612 57.6268C49.1097 57.7535 49.2117 57.9147 49.2546 58.0906Z" fill="#2F2E41"/>
<path opacity="0.2" d="M10.4766 53.2558C10.4556 52.9553 10.4321 52.6448 10.4047 52.3215C11.7757 49.3863 48.563 54.5832 49.1836 57.9867C49.1818 58.2987 49.1663 58.6015 49.1401 58.8972C47.6373 55.5379 12.6888 50.5987 10.4766 53.2558Z" fill="black"/>
</svg>
