<svg width="119" height="111" viewBox="0 0 119 111" fill="none" xmlns="http://www.w3.org/2000/svg">
<path d="M20.2548 97.9072H19.2288V89.0572H21.7128C22.3968 89.0572 22.9648 89.1852 23.4168 89.4412C23.8688 89.6932 24.2068 90.0332 24.4308 90.4612C24.6548 90.8892 24.7668 91.3652 24.7668 91.8892C24.7668 92.4132 24.6508 92.8972 24.4188 93.3412C24.1908 93.7852 23.8488 94.1432 23.3928 94.4152C22.9408 94.6832 22.3808 94.8172 21.7128 94.8172H20.2548V97.9072ZM20.2548 94.4392L19.7928 93.9172H21.5868C22.0668 93.9172 22.4648 93.8332 22.7808 93.6652C23.1008 93.4932 23.3388 93.2552 23.4948 92.9512C23.6548 92.6472 23.7348 92.2932 23.7348 91.8892C23.7348 91.4812 23.6588 91.1332 23.5068 90.8452C23.3548 90.5572 23.1208 90.3372 22.8048 90.1852C22.4888 90.0332 22.0828 89.9572 21.5868 89.9572H19.7928L20.2548 89.3752V94.4392ZM30.7692 97.9072V95.5372C30.7692 95.4252 30.7692 95.2932 30.7692 95.1412C30.7692 94.9852 30.7692 94.8292 30.7692 94.6732C30.7692 94.5132 30.7692 94.3772 30.7692 94.2652C30.7692 93.6532 30.6372 93.1912 30.3732 92.8792C30.1132 92.5672 29.6992 92.4112 29.1312 92.4112C28.7512 92.4112 28.4172 92.4852 28.1292 92.6332C27.8452 92.7812 27.6232 92.9832 27.4632 93.2392C27.3032 93.4952 27.2232 93.7852 27.2232 94.1092L26.5752 93.9112C26.5752 93.4552 26.6932 93.0412 26.9292 92.6692C27.1692 92.2932 27.4952 91.9952 27.9072 91.7752C28.3232 91.5512 28.7932 91.4392 29.3172 91.4392C30.0812 91.4392 30.6832 91.6692 31.1232 92.1292C31.5672 92.5892 31.7892 93.2252 31.7892 94.0372C31.7892 94.2492 31.7892 94.4932 31.7892 94.7692C31.7892 95.0452 31.7892 95.3352 31.7892 95.6392V97.9072H30.7692ZM26.2032 97.9072V88.5292H27.2232V97.9072H26.2032ZM36.5805 98.0212C35.9405 98.0212 35.3745 97.8792 34.8825 97.5952C34.3945 97.3072 34.0105 96.9152 33.7305 96.4192C33.4545 95.9192 33.3165 95.3512 33.3165 94.7152C33.3165 94.0792 33.4545 93.5152 33.7305 93.0232C34.0105 92.5312 34.3945 92.1452 34.8825 91.8652C35.3745 91.5852 35.9405 91.4452 36.5805 91.4452C37.2205 91.4452 37.7845 91.5852 38.2725 91.8652C38.7645 92.1452 39.1485 92.5312 39.4245 93.0232C39.7045 93.5152 39.8445 94.0792 39.8445 94.7152C39.8445 95.3512 39.7045 95.9192 39.4245 96.4192C39.1485 96.9152 38.7645 97.3072 38.2725 97.5952C37.7845 97.8792 37.2205 98.0212 36.5805 98.0212ZM36.5805 97.0852C37.0205 97.0852 37.4085 96.9872 37.7445 96.7912C38.0805 96.5952 38.3425 96.3192 38.5305 95.9632C38.7225 95.6072 38.8185 95.1912 38.8185 94.7152C38.8185 94.2392 38.7225 93.8272 38.5305 93.4792C38.3425 93.1272 38.0805 92.8572 37.7445 92.6692C37.4085 92.4772 37.0205 92.3812 36.5805 92.3812C36.1445 92.3812 35.7565 92.4772 35.4165 92.6692C35.0805 92.8572 34.8165 93.1272 34.6245 93.4792C34.4365 93.8272 34.3425 94.2392 34.3425 94.7152C34.3425 95.1912 34.4365 95.6072 34.6245 95.9632C34.8165 96.3192 35.0805 96.5952 35.4165 96.7912C35.7565 96.9872 36.1445 97.0852 36.5805 97.0852ZM43.8286 98.0032C43.6326 98.0032 43.4406 97.9812 43.2526 97.9372C43.0646 97.8932 42.8946 97.8152 42.7426 97.7032C42.5946 97.5872 42.4766 97.4252 42.3886 97.2172C42.3006 97.0052 42.2566 96.7332 42.2566 96.4012C42.2566 96.3172 42.2566 96.2312 42.2566 96.1432C42.2566 96.0512 42.2566 95.9552 42.2566 95.8552V92.4352H40.7026V91.5352H41.6986C41.8346 91.5352 41.9406 91.5312 42.0166 91.5232C42.0926 91.5112 42.1466 91.4852 42.1786 91.4452C42.2146 91.4012 42.2366 91.3352 42.2446 91.2472C42.2526 91.1552 42.2566 91.0292 42.2566 90.8692V89.4232H43.2826V91.5352H45.2746V92.4352H43.2826V95.5252C43.2826 95.6132 43.2826 95.6992 43.2826 95.7832C43.2826 95.8672 43.2826 95.9452 43.2826 96.0172C43.2826 96.3572 43.3226 96.6232 43.4026 96.8152C43.4866 97.0072 43.6726 97.1032 43.9606 97.1032C44.0766 97.1032 44.1866 97.0932 44.2906 97.0732C44.3946 97.0532 44.4726 97.0332 44.5246 97.0132V97.9012C44.4566 97.9252 44.3606 97.9472 44.2366 97.9672C44.1166 97.9912 43.9806 98.0032 43.8286 98.0032ZM49.3891 98.0212C48.7491 98.0212 48.1831 97.8792 47.6911 97.5952C47.2031 97.3072 46.8191 96.9152 46.5391 96.4192C46.2631 95.9192 46.1251 95.3512 46.1251 94.7152C46.1251 94.0792 46.2631 93.5152 46.5391 93.0232C46.8191 92.5312 47.2031 92.1452 47.6911 91.8652C48.1831 91.5852 48.7491 91.4452 49.3891 91.4452C50.0291 91.4452 50.5931 91.5852 51.0811 91.8652C51.5731 92.1452 51.9571 92.5312 52.2331 93.0232C52.5131 93.5152 52.6531 94.0792 52.6531 94.7152C52.6531 95.3512 52.5131 95.9192 52.2331 96.4192C51.9571 96.9152 51.5731 97.3072 51.0811 97.5952C50.5931 97.8792 50.0291 98.0212 49.3891 98.0212ZM49.3891 97.0852C49.8291 97.0852 50.2171 96.9872 50.5531 96.7912C50.8891 96.5952 51.1511 96.3192 51.3391 95.9632C51.5311 95.6072 51.6271 95.1912 51.6271 94.7152C51.6271 94.2392 51.5311 93.8272 51.3391 93.4792C51.1511 93.1272 50.8891 92.8572 50.5531 92.6692C50.2171 92.4772 49.8291 92.3812 49.3891 92.3812C48.9531 92.3812 48.5651 92.4772 48.2251 92.6692C47.8891 92.8572 47.6251 93.1272 47.4331 93.4792C47.2451 93.8272 47.1511 94.2392 47.1511 94.7152C47.1511 95.1912 47.2451 95.6072 47.4331 95.9632C47.6251 96.3192 47.8891 96.5952 48.2251 96.7912C48.5651 96.9872 48.9531 97.0852 49.3891 97.0852ZM58.3141 97.5172C58.6581 97.5452 58.9601 97.6092 59.2201 97.7092C59.4841 97.8052 59.6901 97.9472 59.8381 98.1352C59.9861 98.3272 60.0601 98.5772 60.0601 98.8852C60.0601 99.2252 59.9441 99.5252 59.7121 99.7852C59.4801 100.049 59.1281 100.255 58.6561 100.403C58.1841 100.551 57.5901 100.625 56.8741 100.625C55.8621 100.625 55.0981 100.477 54.5821 100.181C54.0661 99.8892 53.8081 99.4892 53.8081 98.9812C53.8081 98.8212 53.8261 98.6792 53.8621 98.5552C53.9021 98.4352 53.9461 98.3372 53.9941 98.2612L54.9661 98.4052C54.9341 98.4492 54.9021 98.5152 54.8701 98.6032C54.8421 98.6952 54.8281 98.8012 54.8281 98.9212C54.8281 99.2412 55.0101 99.4652 55.3741 99.5932C55.7381 99.7252 56.2541 99.7912 56.9221 99.7912C57.4221 99.7912 57.8321 99.7572 58.1521 99.6892C58.4721 99.6212 58.7101 99.5232 58.8661 99.3952C59.0221 99.2672 59.1001 99.1172 59.1001 98.9452C59.1001 98.6852 58.9901 98.5232 58.7701 98.4592C58.5541 98.3992 58.2861 98.3572 57.9661 98.3332L55.5421 98.1532C55.1381 98.1212 54.8081 97.9972 54.5521 97.7812C54.3001 97.5612 54.1741 97.2952 54.1741 96.9832C54.1741 96.7912 54.2201 96.6092 54.3121 96.4372C54.4081 96.2652 54.5181 96.1212 54.6421 96.0052C54.7701 95.8852 54.8841 95.8132 54.9841 95.7892L55.7881 96.1552C55.6881 96.1712 55.5641 96.2412 55.4161 96.3652C55.2721 96.4852 55.2001 96.6272 55.2001 96.7912C55.2001 96.9392 55.2581 97.0612 55.3741 97.1572C55.4901 97.2492 55.7201 97.3092 56.0641 97.3372L58.3141 97.5172ZM59.1961 91.5352H60.1561L59.7601 94.0432C59.6881 94.5112 59.5381 94.9352 59.3101 95.3152C59.0821 95.6912 58.7701 95.9912 58.3741 96.2152C57.9821 96.4352 57.4961 96.5452 56.9161 96.5452C56.3121 96.5452 55.7961 96.4352 55.3681 96.2152C54.9401 95.9952 54.6121 95.6952 54.3841 95.3152C54.1561 94.9312 54.0421 94.4992 54.0421 94.0192C54.0421 93.5312 54.1601 93.0932 54.3961 92.7052C54.6361 92.3132 54.9681 92.0052 55.3921 91.7812C55.8161 91.5532 56.3021 91.4392 56.8501 91.4392C57.3421 91.4392 57.7721 91.5252 58.1401 91.6972C58.5081 91.8652 58.7981 92.0772 59.0101 92.3332C59.2261 92.5892 59.3461 92.8472 59.3701 93.1072L58.9861 93.1312L59.1961 91.5352ZM56.9101 95.6332C57.2981 95.6332 57.6301 95.5692 57.9061 95.4412C58.1861 95.3132 58.4001 95.1272 58.5481 94.8832C58.7001 94.6392 58.7761 94.3432 58.7761 93.9952C58.7761 93.6592 58.7001 93.3692 58.5481 93.1252C58.4001 92.8772 58.1861 92.6872 57.9061 92.5552C57.6301 92.4192 57.3001 92.3512 56.9161 92.3512C56.5481 92.3512 56.2221 92.4212 55.9381 92.5612C55.6581 92.6972 55.4381 92.8892 55.2781 93.1372C55.1221 93.3852 55.0441 93.6772 55.0441 94.0132C55.0441 94.3532 55.1181 94.6452 55.2661 94.8892C55.4181 95.1292 55.6321 95.3132 55.9081 95.4412C56.1881 95.5692 56.5221 95.6332 56.9101 95.6332ZM61.5586 97.9072V91.5352H62.5786V93.4912L62.2426 93.3712C62.2666 93.1352 62.3266 92.9032 62.4226 92.6752C62.5186 92.4432 62.6506 92.2352 62.8186 92.0512C62.9906 91.8632 63.2046 91.7152 63.4606 91.6072C63.7166 91.4952 64.0166 91.4392 64.3606 91.4392C64.6166 91.4392 64.8246 91.4612 64.9846 91.5052C65.1486 91.5452 65.2506 91.5772 65.2906 91.6012L65.0266 92.6032C64.9866 92.5752 64.9046 92.5392 64.7806 92.4952C64.6606 92.4512 64.4886 92.4292 64.2646 92.4292C63.9326 92.4292 63.6566 92.4892 63.4366 92.6092C63.2206 92.7292 63.0486 92.8892 62.9206 93.0892C62.7966 93.2852 62.7086 93.4992 62.6566 93.7312C62.6046 93.9632 62.5786 94.1932 62.5786 94.4212V97.9072H61.5586ZM68.4956 98.0272C68.0116 98.0272 67.5876 97.9512 67.2236 97.7992C66.8636 97.6472 66.5836 97.4292 66.3836 97.1452C66.1836 96.8572 66.0836 96.5132 66.0836 96.1132C66.0836 95.6972 66.1916 95.3512 66.4076 95.0752C66.6236 94.7952 66.9276 94.5772 67.3196 94.4212C67.7116 94.2652 68.1676 94.1612 68.6876 94.1092C69.4716 94.0292 70.0296 93.9512 70.3616 93.8752C70.6936 93.7952 70.8596 93.6672 70.8596 93.4912C70.8596 93.4872 70.8596 93.4852 70.8596 93.4852C70.8596 93.4812 70.8596 93.4772 70.8596 93.4732C70.8596 93.1052 70.7096 92.8312 70.4096 92.6512C70.1096 92.4672 69.6756 92.3752 69.1076 92.3752C68.5156 92.3752 68.0556 92.4792 67.7276 92.6872C67.3996 92.8912 67.2356 93.2232 67.2356 93.6832H66.2276C66.2276 93.2072 66.3496 92.8032 66.5936 92.4712C66.8376 92.1352 67.1756 91.8792 67.6076 91.7032C68.0436 91.5272 68.5456 91.4392 69.1136 91.4392C69.6336 91.4392 70.1016 91.5192 70.5176 91.6792C70.9376 91.8352 71.2696 92.0692 71.5136 92.3812C71.7616 92.6892 71.8856 93.0712 71.8856 93.5272C71.8856 93.6112 71.8856 93.6952 71.8856 93.7792C71.8856 93.8592 71.8856 93.9412 71.8856 94.0252V96.7072C71.8856 96.8472 71.8916 96.9832 71.9036 97.1152C71.9156 97.2472 71.9356 97.3632 71.9636 97.4632C71.9996 97.5832 72.0396 97.6812 72.0836 97.7572C72.1276 97.8292 72.1636 97.8792 72.1916 97.9072H71.1656C71.1456 97.8872 71.1156 97.8412 71.0756 97.7692C71.0356 97.6932 70.9976 97.6052 70.9616 97.5052C70.9336 97.4252 70.9116 97.3252 70.8956 97.2052C70.8796 97.0812 70.8716 96.9532 70.8716 96.8212L71.0396 96.9352C70.9156 97.1512 70.7336 97.3412 70.4936 97.5052C70.2576 97.6692 69.9716 97.7972 69.6356 97.8892C69.2996 97.9812 68.9196 98.0272 68.4956 98.0272ZM68.6576 97.1092C69.0696 97.1092 69.4416 97.0472 69.7736 96.9232C70.1056 96.7952 70.3696 96.6072 70.5656 96.3592C70.7616 96.1112 70.8596 95.8032 70.8596 95.4352V94.1692L71.0876 94.5532C70.8316 94.6532 70.5116 94.7352 70.1276 94.7992C69.7476 94.8592 69.3496 94.9092 68.9336 94.9492C68.3296 95.0052 67.8736 95.1112 67.5656 95.2672C67.2616 95.4232 67.1096 95.6852 67.1096 96.0532C67.1096 96.4012 67.2356 96.6652 67.4876 96.8452C67.7396 97.0212 68.1296 97.1092 68.6576 97.1092ZM73.5821 100.529V91.5352H74.6021V100.529H73.5821ZM76.6961 98.0272C76.2041 98.0272 75.7441 97.9072 75.3161 97.6672C74.8881 97.4232 74.5401 97.0892 74.2721 96.6652C74.0081 96.2412 73.8761 95.7572 73.8761 95.2132C73.8761 95.2012 73.8761 95.1912 73.8761 95.1832C73.8761 95.1752 73.8761 95.1652 73.8761 95.1532L74.6081 95.1352C74.6081 95.1432 74.6081 95.1532 74.6081 95.1652C74.6081 95.1732 74.6081 95.1812 74.6081 95.1892C74.6081 95.5332 74.6981 95.8472 74.8781 96.1312C75.0621 96.4152 75.3021 96.6412 75.5981 96.8092C75.8941 96.9772 76.2121 97.0612 76.5521 97.0612C77.1161 97.0612 77.5841 96.8692 77.9561 96.4852C78.3321 96.0972 78.5201 95.5072 78.5201 94.7152C78.5201 93.9192 78.3341 93.3312 77.9621 92.9512C77.5901 92.5672 77.1201 92.3752 76.5521 92.3752C76.2121 92.3752 75.8941 92.4592 75.5981 92.6272C75.3021 92.7912 75.0621 93.0132 74.8781 93.2932C74.6981 93.5732 74.6081 93.8872 74.6081 94.2352L73.8761 94.2112C73.8761 93.6632 74.0081 93.1812 74.2721 92.7652C74.5401 92.3492 74.8881 92.0252 75.3161 91.7932C75.7441 91.5572 76.2041 91.4392 76.6961 91.4392C77.2121 91.4392 77.6881 91.5672 78.1241 91.8232C78.5601 92.0752 78.9101 92.4452 79.1741 92.9332C79.4381 93.4212 79.5701 94.0152 79.5701 94.7152C79.5701 95.4272 79.4401 96.0312 79.1801 96.5272C78.9201 97.0192 78.5721 97.3932 78.1361 97.6492C77.7001 97.9012 77.2201 98.0272 76.6961 98.0272ZM85.7301 97.9072V95.5372C85.7301 95.4252 85.7301 95.2932 85.7301 95.1412C85.7301 94.9852 85.7301 94.8292 85.7301 94.6732C85.7301 94.5132 85.7301 94.3772 85.7301 94.2652C85.7301 93.6532 85.5981 93.1912 85.3341 92.8792C85.0741 92.5672 84.6601 92.4112 84.0921 92.4112C83.7121 92.4112 83.3781 92.4852 83.0901 92.6332C82.8061 92.7812 82.5841 92.9832 82.4241 93.2392C82.2641 93.4952 82.1841 93.7852 82.1841 94.1092L81.5361 93.9112C81.5361 93.4552 81.6541 93.0412 81.8901 92.6692C82.1301 92.2932 82.4561 91.9952 82.8681 91.7752C83.2841 91.5512 83.7541 91.4392 84.2781 91.4392C85.0421 91.4392 85.6441 91.6692 86.0841 92.1292C86.5281 92.5892 86.7501 93.2252 86.7501 94.0372C86.7501 94.2492 86.7501 94.4932 86.7501 94.7692C86.7501 95.0452 86.7501 95.3352 86.7501 95.6392V97.9072H85.7301ZM81.1641 97.9072V88.5292H82.1841V97.9072H81.1641ZM88.4811 100.595C88.3211 100.595 88.1751 100.585 88.0431 100.565C87.9111 100.549 87.8291 100.533 87.7971 100.517V99.6292C87.8491 99.6532 87.9351 99.6732 88.0551 99.6892C88.1751 99.7052 88.2951 99.7132 88.4151 99.7132C88.6711 99.7132 88.8871 99.6592 89.0631 99.5512C89.2391 99.4472 89.3871 99.3032 89.5071 99.1192C89.6271 98.9392 89.7251 98.7352 89.8011 98.5072L89.9931 97.9432L87.7971 91.5352H88.8651L90.6291 97.0252H90.4851L92.2131 91.5352H93.2631L90.9291 98.4532C90.7971 98.8412 90.6371 99.1972 90.4491 99.5212C90.2651 99.8452 90.0171 100.105 89.7051 100.301C89.3971 100.497 88.9891 100.595 88.4811 100.595Z" fill="#391400" fill-opacity="0.6"/>
<path opacity="0.2" d="M30.6333 38.9844C30.6333 38.9844 30.883 42.8669 20.2283 47.6552C20.2283 47.6552 20.2157 47.6764 98.2238 47.6552C98.2238 47.6552 89.3171 42.7375 88.7345 37.2373" fill="black"/>
<path d="M88.4046 36.2092V3.58199C88.9069 3.48087 89.3517 3.25294 89.6693 2.93399C89.9869 2.61503 90.1592 2.22311 90.1593 1.81976C90.1593 1.58079 90.0987 1.34415 89.9811 1.12337C89.8635 0.902585 89.6911 0.701974 89.4737 0.532993C89.2563 0.364013 88.9983 0.229971 88.7143 0.13852C88.4303 0.0470684 88.1259 -5.51289e-07 87.8185 0H31.6406C31.3332 -4.13466e-07 31.0288 0.0470684 30.7448 0.13852C30.4608 0.229971 30.2028 0.364014 29.9854 0.532995C29.768 0.701976 29.5956 0.902585 29.478 1.12337C29.3604 1.34415 29.2998 1.58079 29.2998 1.81976C29.2998 2.30239 29.5464 2.76526 29.9854 3.10653C30.4244 3.44781 31.0197 3.63953 31.6406 3.63953H31.6411L30.3405 36.2381L19.8985 46.628C19.8985 46.628 19.8107 46.6282 97.8939 46.628C97.8939 46.628 97.8391 46.7331 88.4046 36.2092Z" fill="#E6E6E6"/>
<path opacity="0.2" d="M61.8422 42.9617C71.3412 42.9617 79.0416 42.5014 79.0416 41.9335C79.0416 41.3656 71.3412 40.9053 61.8422 40.9053C52.3432 40.9053 44.6428 41.3656 44.6428 41.9335C44.6428 42.5014 52.3432 42.9617 61.8422 42.9617Z" fill="black"/>
<path opacity="0.2" d="M31.6405 3.63964L88.4046 4.92414L88.4292 3.56055L31.6405 3.63964Z" fill="black"/>
<path d="M72.6541 15.0815V19.093C72.6539 19.13 72.6349 19.1655 72.6012 19.1918C72.5675 19.218 72.5218 19.2327 72.4742 19.2328H72.3461V40.1297C72.3461 40.708 72.0506 41.2626 71.5246 41.6715C70.9987 42.0804 70.2853 42.3101 69.5415 42.3101H52.7461C52.3778 42.3101 52.0131 42.2537 51.6729 42.1441C51.3327 42.0345 51.0236 41.8739 50.7632 41.6714C50.5029 41.4689 50.2964 41.2286 50.1555 40.9641C50.0146 40.6995 49.9422 40.416 49.9422 40.1297V19.9657H49.8495C49.8159 19.9658 49.7836 19.9554 49.7598 19.937C49.7359 19.9186 49.7224 19.8935 49.7223 19.8674V17.5844C49.7222 17.5714 49.7255 17.5585 49.7319 17.5465C49.7383 17.5345 49.7477 17.5236 49.7595 17.5144C49.7713 17.5053 49.7854 17.498 49.8008 17.493C49.8163 17.488 49.8328 17.4855 49.8495 17.4855H49.9422V16.6255H49.8487C49.8134 16.6254 49.7796 16.6144 49.7547 16.595C49.7298 16.5755 49.7159 16.5491 49.716 16.5217V14.2699C49.7161 14.2425 49.7301 14.2163 49.755 14.1969C49.7798 14.1776 49.8135 14.1667 49.8487 14.1666H49.9422V12.9928H49.8472C49.8317 12.9928 49.8163 12.9904 49.802 12.9858C49.7877 12.9812 49.7747 12.9745 49.7638 12.966C49.7528 12.9575 49.7442 12.9473 49.7382 12.9362C49.7323 12.9251 49.7293 12.9132 49.7293 12.9011V11.6723C49.7293 11.6479 49.7416 11.6246 49.7637 11.6073C49.7858 11.59 49.8158 11.5802 49.8472 11.5801H49.9422V9.09189C49.9423 8.51378 50.2377 7.95936 50.7635 7.55057C51.2893 7.14179 52.0024 6.91213 52.7461 6.91211H69.5415C70.2852 6.91211 70.9984 7.14174 71.5244 7.55051C72.0503 7.95928 72.3459 8.51372 72.3461 9.09189V14.9417H72.4742C72.5218 14.9418 72.5675 14.9565 72.6012 14.9828C72.6349 15.009 72.6539 15.0445 72.6541 15.0815Z" fill="#3F3D56"/>
<path d="M61.9529 8.03027H59.2238C59.1135 8.03027 59.0241 8.09965 59.0241 8.18522V8.36826C59.0241 8.45383 59.1135 8.52321 59.2238 8.52321H61.9529C62.0632 8.52321 62.1526 8.45383 62.1526 8.36826V8.18522C62.1526 8.09965 62.0632 8.03027 61.9529 8.03027Z" fill="#E6E8EC"/>
<path d="M62.986 8.55639C63.185 8.55639 63.3463 8.43118 63.3463 8.27673C63.3463 8.12228 63.185 7.99707 62.986 7.99707C62.787 7.99707 62.6257 8.12228 62.6257 8.27673C62.6257 8.43118 62.787 8.55639 62.986 8.55639Z" fill="#E6E8EC"/>
<path d="M71.0031 9.52398V40.3114C71.0029 40.6782 70.8153 41.0299 70.4816 41.2892C70.1479 41.5485 69.6955 41.6941 69.2237 41.6941H53.1463C52.9126 41.6945 52.6811 41.6589 52.465 41.5896C52.249 41.5202 52.0527 41.4184 51.8874 41.2899C51.7221 41.1614 51.5911 41.0089 51.5017 40.841C51.4124 40.6731 51.3666 40.4931 51.3669 40.3114V9.52398C51.3669 9.34231 51.4129 9.16243 51.5023 8.99459C51.5917 8.82675 51.7228 8.67424 51.888 8.54578C52.0533 8.41733 52.2494 8.31543 52.4653 8.24591C52.6812 8.17639 52.9126 8.14062 53.1463 8.14063H55.5526V8.38065C55.5526 8.68274 55.707 8.97247 55.9817 9.18608C56.2565 9.39969 56.6292 9.5197 57.0177 9.5197H65.1943C65.5829 9.5197 65.9556 9.39969 66.2303 9.18608C66.5051 8.97246 66.6595 8.68274 66.6595 8.38065V8.14063H69.2237C69.4574 8.14057 69.6888 8.17631 69.9047 8.24581C70.1206 8.31531 70.3168 8.4172 70.4821 8.54567C70.6473 8.67414 70.7784 8.82666 70.8678 8.99452C70.9572 9.16238 71.0032 9.3423 71.0031 9.52398Z" fill="white"/>
<path d="M69.3881 28.4082H53.0475V30.0564H69.3881V28.4082Z" fill="#E6E6E6"/>
<path d="M69.3881 31.3398H53.0475V32.9881H69.3881V31.3398Z" fill="#E6E6E6"/>
<path d="M69.3881 34.2715H53.0475V35.9197H69.3881V34.2715Z" fill="#E6E6E6"/>
<path d="M69.3553 16.5596H53.0147V24.9873H69.3553V16.5596Z" fill="#E6E6E6"/>
<path d="M30.6623 4.84766L22.2825 4.88812C22.2825 4.88812 8.48969 10.5935 18.1707 22.409C18.1707 22.409 22.1264 21.6807 26.4984 24.1895C26.4984 24.1895 29.0488 5.29276 30.6623 4.84766Z" fill="#6C63FF"/>
<path opacity="0.2" d="M28.1696 4.90657C26.6683 9.78191 24.9712 22.3564 24.9712 22.3564C21.065 20.115 17.4938 20.4573 16.7765 20.5557C17.1996 21.207 17.6649 21.8412 18.1707 22.4559C18.1707 22.4559 22.1264 21.7276 26.4984 24.2363C26.4984 24.2363 29.0488 5.33963 30.6623 4.89453L28.1696 4.90657Z" fill="black"/>
<path d="M18.1186 10.9567L17.3899 13.7077L8.23251 12.4139L8.22941 12.4131L8.02124 9.17676H9.79092L18.1186 10.9567Z" fill="#3F3D56"/>
<path opacity="0.2" d="M9.6431 9.17676L8.23251 12.4142L8.22941 12.4133L8.02124 9.17676H9.6431Z" fill="black"/>
<path d="M17.8063 14.0317C18.3813 14.0317 18.8473 13.1984 18.8473 12.1706C18.8473 11.1428 18.3813 10.3096 17.8063 10.3096C17.2314 10.3096 16.7654 11.1428 16.7654 12.1706C16.7654 13.1984 17.2314 14.0317 17.8063 14.0317Z" fill="#3F3D56"/>
<path d="M12.3933 51.5068C12.3515 51.5068 12.3102 51.5004 12.2716 51.4879C12.2329 51.4755 12.1979 51.4573 12.1683 51.4343C12.1388 51.4113 12.1153 51.3841 12.0993 51.3541C12.0834 51.324 12.0751 51.2919 12.0751 51.2594V12.1712C12.0751 12.1056 12.1087 12.0427 12.1683 11.9963C12.228 11.9499 12.3089 11.9238 12.3933 11.9238C12.4777 11.9238 12.5586 11.9499 12.6183 11.9963C12.678 12.0427 12.7115 12.1056 12.7115 12.1712V51.2594C12.7115 51.2919 12.7033 51.324 12.6873 51.3541C12.6713 51.3841 12.6479 51.4113 12.6183 51.4343C12.5888 51.4573 12.5537 51.4755 12.5151 51.4879C12.4765 51.5004 12.4351 51.5068 12.3933 51.5068Z" fill="#3F3D56"/>
<path d="M16.765 58.3863C16.6913 58.3862 16.6199 58.3662 16.563 58.3297C16.5061 58.2932 16.4672 58.2425 16.4531 58.1863L12.081 40.7615C12.0669 40.7052 12.0784 40.6469 12.1135 40.5965C12.1486 40.546 12.2051 40.5067 12.2734 40.485C12.3417 40.4634 12.4175 40.4609 12.488 40.478C12.5584 40.495 12.619 40.5306 12.6594 40.5785L24.2141 54.2805C24.2604 54.3354 24.2768 54.4023 24.2596 54.4665C24.2424 54.5308 24.1931 54.5871 24.1225 54.6231C24.052 54.659 23.9659 54.6718 23.8833 54.6584C23.8006 54.6451 23.7282 54.6067 23.6819 54.5519L13.0159 41.9037L17.0777 58.0916C17.0857 58.1235 17.0855 58.1563 17.0772 58.1881C17.0689 58.2199 17.0526 58.2502 17.0293 58.2771C17.006 58.3041 16.976 58.3272 16.9412 58.3451C16.9064 58.3631 16.8673 58.3755 16.8263 58.3817C16.8061 58.3848 16.7856 58.3863 16.765 58.3863Z" fill="#3F3D56"/>
<path d="M0.317821 55.3107C0.260477 55.3107 0.204217 55.2986 0.15499 55.2757C0.105764 55.2528 0.0654014 55.2201 0.0381695 55.1808C0.0109377 55.1416 -0.00215134 55.0974 0.000288091 55.0528C0.00272752 55.0083 0.0206034 54.9651 0.0520264 54.9278L12.1273 40.6036C12.1736 40.5489 12.246 40.5106 12.3285 40.4973C12.411 40.484 12.4969 40.4967 12.5674 40.5327C12.6379 40.5686 12.6872 40.6248 12.7045 40.6889C12.7217 40.753 12.7055 40.8199 12.6595 40.8747L0.584237 55.1989C0.555293 55.2333 0.515771 55.2616 0.469252 55.2811C0.422732 55.3006 0.370684 55.3108 0.317821 55.3107Z" fill="#3F3D56"/>
<path d="M88.3374 4.84766L96.7172 4.88812C96.7172 4.88812 110.51 10.5935 100.829 22.409C100.829 22.409 96.8733 21.6807 92.5013 24.1895C92.5013 24.1895 89.9509 5.29276 88.3374 4.84766Z" fill="#6C63FF"/>
<path opacity="0.2" d="M90.8301 4.90657C92.3314 9.78191 94.0285 22.3564 94.0285 22.3564C97.9347 20.115 101.506 20.4573 102.223 20.5557C101.8 21.207 101.335 21.8412 100.829 22.4559C100.829 22.4559 96.8733 21.7276 92.5013 24.2363C92.5013 24.2363 89.9509 5.33963 88.3374 4.89453L90.8301 4.90657Z" fill="black"/>
<path d="M100.881 10.9567L101.61 13.7077L110.767 12.4139L110.77 12.4131L110.978 9.17676H109.209L100.881 10.9567Z" fill="#3F3D56"/>
<path opacity="0.2" d="M109.357 9.17676L110.767 12.4142L110.77 12.4133L110.978 9.17676H109.357Z" fill="black"/>
<path d="M101.193 14.0317C101.768 14.0317 102.234 13.1984 102.234 12.1706C102.234 11.1428 101.768 10.3096 101.193 10.3096C100.618 10.3096 100.152 11.1428 100.152 12.1706C100.152 13.1984 100.618 14.0317 101.193 14.0317Z" fill="#3F3D56"/>
<path d="M106.606 51.5068C106.565 51.5068 106.523 51.5004 106.485 51.4879C106.446 51.4755 106.411 51.4573 106.381 51.4343C106.352 51.4113 106.328 51.3841 106.312 51.3541C106.296 51.324 106.288 51.2919 106.288 51.2594V12.1712C106.288 12.1056 106.322 12.0427 106.381 11.9963C106.441 11.9499 106.522 11.9238 106.606 11.9238C106.691 11.9238 106.772 11.9499 106.831 11.9963C106.891 12.0427 106.925 12.1056 106.925 12.1712V51.2594C106.925 51.2919 106.916 51.324 106.9 51.3541C106.884 51.3841 106.861 51.4113 106.831 51.4343C106.802 51.4573 106.767 51.4755 106.728 51.4879C106.69 51.5004 106.648 51.5068 106.606 51.5068Z" fill="#3F3D56"/>
<path d="M102.235 58.3863C102.214 58.3863 102.194 58.3848 102.173 58.3817C102.091 58.3692 102.018 58.3315 101.97 58.2771C101.923 58.2227 101.906 58.156 101.922 58.0916L105.984 41.9036L95.3178 54.5518C95.2949 54.579 95.2653 54.6024 95.2307 54.6207C95.1962 54.639 95.1574 54.6518 95.1165 54.6584C95.0755 54.665 95.0333 54.6653 94.9923 54.6592C94.9512 54.6532 94.9121 54.6409 94.8772 54.6231C94.8422 54.6052 94.8121 54.5823 94.7886 54.5554C94.7651 54.5285 94.7486 54.4983 94.7401 54.4665C94.7316 54.4347 94.7313 54.4019 94.739 54.37C94.7468 54.3381 94.7627 54.3077 94.7856 54.2805L106.34 40.5785C106.381 40.5305 106.441 40.495 106.512 40.478C106.582 40.4609 106.658 40.4634 106.726 40.485C106.795 40.5067 106.851 40.546 106.886 40.5965C106.921 40.6469 106.933 40.7052 106.919 40.7615L102.547 58.1863C102.533 58.2425 102.494 58.2932 102.437 58.3297C102.38 58.3662 102.309 58.3862 102.235 58.3863Z" fill="#3F3D56"/>
<path d="M118.682 55.3107C118.629 55.3108 118.577 55.3006 118.531 55.2811C118.484 55.2616 118.444 55.2333 118.416 55.1989L106.34 40.8747C106.294 40.8199 106.278 40.753 106.295 40.6889C106.313 40.6248 106.362 40.5686 106.432 40.5327C106.503 40.4967 106.589 40.484 106.671 40.4973C106.754 40.5106 106.826 40.5489 106.873 40.6036L118.948 54.9278C118.979 54.9651 118.997 55.0083 118.999 55.0528C119.002 55.0974 118.989 55.1416 118.962 55.1808C118.934 55.2201 118.894 55.2529 118.845 55.2757C118.796 55.2986 118.739 55.3107 118.682 55.3107Z" fill="#3F3D56"/>
<path d="M52.2474 34.3488L54.5271 33.8554C54.5271 33.8554 55.4201 33.7168 54.8745 32.3611C54.3288 31.0054 53.2467 31.3848 53.2467 31.3848L51.2243 31.8415L50.4259 32.0332L51.5493 33.2584L51.6435 34.075L52.2474 34.3488Z" fill="#3F3D56"/>
<path d="M47.8423 30.7672L47.1271 32.9878L50.7918 35.7484L51.1069 35.8098L51.9474 35.6263L52.6628 33.4057L51.9382 32.8135L52.6788 32.6627L51.0984 31.4703L50.2737 31.6048L49.6122 31.0943L50.0587 30.9556L50.1008 30.825L49.56 30.4941L47.8423 30.7672Z" fill="#3F3D56"/>
<path d="M51.2759 33.8991L50.8025 35.3688L48.6183 33.7636L49.1653 32.2734L51.2759 33.8991Z" fill="#6C63FF"/>
<path d="M47.8423 30.7672L47.742 31.0786L51.3863 33.8343L51.7013 33.8956L52.5156 33.7243L52.5605 33.7236L52.6628 33.406L51.9383 32.8137L52.6788 32.6629L51.0984 31.4703L50.2737 31.6049L49.6123 31.0944L50.0587 30.9556L50.1008 30.825L49.56 30.4941L47.8423 30.7672Z" stroke="#3F3D56" stroke-miterlimit="10"/>
<path d="M49.82 30.7959C49.8477 30.71 49.7384 30.6148 49.576 30.5831C49.4135 30.5515 49.2594 30.5955 49.2318 30.6814C49.2041 30.7673 49.3134 30.8625 49.4758 30.8942C49.6382 30.9258 49.7924 30.8818 49.82 30.7959Z" fill="#6C63FF"/>
<path d="M52.1352 33.1729C52.1629 33.087 52.0536 32.9917 51.8912 32.9601C51.7287 32.9285 51.5746 32.9725 51.5469 33.0584C51.5193 33.1442 51.6285 33.2395 51.791 33.2711C51.9534 33.3027 52.1075 33.2587 52.1352 33.1729Z" fill="#6C63FF"/>
<path d="M53.7621 37.1152L53.2649 35.8013C53.2649 35.8013 54.5575 33.4054 53.0661 33.1735C51.5746 32.9417 51.4752 35.4149 51.4752 35.4149L52.0718 36.8834L53.7621 37.1152Z" fill="#FFB6B6"/>
<path d="M44.5317 34.5596C46.7131 34.5596 48.4814 33.1852 48.4814 31.4898C48.4814 29.7943 46.7131 28.4199 44.5317 28.4199C42.3504 28.4199 40.5821 29.7943 40.5821 31.4898C40.5821 33.1852 42.3504 34.5596 44.5317 34.5596Z" fill="#FFB6B6"/>
<path d="M45.8096 33.6579C45.8096 33.6579 46.0419 35.9152 46.6227 36.0958C47.2036 36.2763 40.3497 37.5404 40.3497 37.5404L42.0922 36.0055C42.0922 36.0055 42.4407 33.6579 41.6276 33.1162L45.8096 33.6579Z" fill="#FFB6B6"/>
<path d="M51.3758 36.4202L52.9667 36.2656C52.9667 36.2656 54.8558 37.0386 54.8558 38.0434C54.8558 39.0482 55.9496 40.6714 55.9496 40.6714C55.9496 40.6714 56.745 42.8357 54.9553 42.9902C53.1655 43.1448 51.5746 40.6714 51.5746 40.6714L51.3758 36.4202Z" fill="#6C63FF"/>
<path d="M52.2706 48.7107C52.2706 48.7107 55.7507 46.1598 56.745 46.3144C57.7393 46.469 59.728 46.7009 59.728 47.8604C59.728 49.0199 56.4467 51.7254 56.4467 51.7254C56.4467 51.7254 53.961 55.9769 51.5746 56.1316C50.0048 56.2422 48.4445 56.4229 46.9014 56.6727C46.9014 56.6727 47.9951 59.7647 47.3985 60.615C46.8019 61.4653 44.515 62.4702 44.3162 62.3929C44.1173 62.3156 41.3332 60.3058 40.1401 57.4457C38.9469 54.5855 38.1514 52.4211 39.2452 52.2665C40.3389 52.1119 52.2706 48.7107 52.2706 48.7107Z" fill="#2F2E41"/>
<path d="M59.4296 47.6288C59.4296 47.6288 60.1257 47.5515 60.0262 48.8655C59.9268 50.1795 59.6285 54.8945 59.1314 55.822C58.6342 56.7495 58.5348 57.8316 58.7336 58.2181C58.9325 58.6046 59.3302 59.2229 58.6342 59.3002C57.9382 59.3775 55.0547 59.0684 54.7564 58.9911C54.4581 58.9138 54.1598 57.5998 54.3587 57.5998C54.5575 57.5998 55.0547 57.5225 54.8558 56.9814C54.657 56.4403 54.5575 56.4404 54.8558 56.2858C55.1541 56.1312 55.9496 55.8993 55.7507 55.7447C55.5518 55.5901 55.353 51.9573 55.353 51.9573L59.4296 47.6288Z" fill="#2F2E41"/>
<path d="M58.4353 59.0691C58.4353 59.0691 60.1257 58.6826 60.3245 59.5328C60.3245 59.5328 60.6228 60.8467 59.3302 61.3104C58.4961 61.6169 57.6976 61.9789 56.9439 62.3925C56.9439 62.3925 54.8558 63.0108 54.7564 62.2379C54.657 61.465 55.1541 58.6826 55.1541 58.6826L58.4353 59.0691Z" fill="#2F2E41"/>
<path d="M47.1996 59.9966L44.0178 57.9873C44.0178 57.9873 44.6144 60.4603 43.819 60.924L43.4556 61.7497L44.4731 62.3966C44.4731 62.3966 47.5974 62.006 47.1996 59.9966Z" fill="#2F2E41"/>
<path d="M42.7252 56.596C42.7252 56.596 44.8133 57.0598 44.515 58.683C44.2167 60.3062 43.8343 62.0696 43.8343 62.0696C43.8343 62.0696 43.7196 66.4124 42.2281 66.7216C40.7366 67.0308 40.3389 66.4124 40.3389 66.4124C40.3389 66.4124 38.6435 63.0188 39.1457 62.0066C39.7536 60.7815 40.6296 59.4058 40.3389 58.9921C40.0529 58.5852 40.5378 56.3641 42.7252 56.596Z" fill="#2F2E41"/>
<path d="M41.5321 35.2613C41.5321 35.2613 42.3275 35.3386 43.6201 35.4932C44.9127 35.6478 45.8076 34.8747 46.5036 35.0293C47.1996 35.184 52.9666 36.2662 52.9666 36.2662L52.0718 41.5999C52.0718 41.5999 53.1655 47.7839 52.9666 48.8662C52.7678 49.9484 55.353 49.7938 53.8615 51.1079C52.37 52.422 49.7848 53.5815 44.515 53.195C39.2452 52.8085 38.5491 52.8858 38.5491 52.2674C38.5491 51.649 39.7423 46.3925 39.3446 45.9287C38.9469 45.4649 38.1514 44.9238 38.5491 44.3827C38.9469 43.8416 39.3446 43.5324 38.748 43.0686C38.1514 42.6048 37.8531 42.141 37.8531 41.9091C37.8531 41.6772 36.4611 37.8895 36.4611 37.8895C36.4611 37.8895 37.0577 36.0343 37.7537 35.957C38.4497 35.8797 39.0463 35.4932 39.5434 35.4932C40.0406 35.4932 40.3389 35.5705 40.6372 35.4932L41.5321 35.2613Z" fill="#6C63FF"/>
<path d="M51.0671 30.4125C51.0159 30.2339 50.7655 29.6367 50.2564 29.491C49.884 29.3844 49.1909 29.6096 48.8457 29.5722L48.8012 29.474C48.7717 29.2805 48.7096 29.0908 48.6166 28.9099C48.4343 28.548 48.1598 28.2185 47.8096 27.9411C47.4595 27.6637 47.0408 27.444 46.5789 27.2954C45.4419 26.926 43.6436 26.6205 42.0834 27.5885C39.9403 28.9181 40.318 30.9075 40.4737 31.4595C40.4997 31.5516 40.5219 31.6443 40.5405 31.7375C40.6365 32.2237 40.9133 32.2817 40.9133 32.2817C40.9133 32.2817 40.9073 32.2677 40.8976 32.2422L42.8332 32.3886L43.8797 32.2498C43.8973 32.3293 43.9041 32.3764 43.9041 32.3764C46.9579 32.0136 48.735 30.7633 49.0236 30.5465C49.2773 30.6773 49.7498 30.8907 50.208 30.9376C50.8791 31.0061 51.1182 30.5911 51.0671 30.4125ZM43.1985 31.6078L40.7394 31.5382C40.7046 31.0165 40.8779 30.4065 41.8664 30.3753C42.8194 30.3453 43.3396 30.9476 43.6153 31.499L43.1985 31.6078Z" fill="#2F2E41"/>
<path d="M43.8414 27.1475C44.0782 27.116 44.2578 27.0339 44.2424 26.964C44.2271 26.894 44.0227 26.8628 43.7858 26.8943C43.5489 26.9257 43.3694 27.0079 43.3847 27.0778C43.4001 27.1477 43.6045 27.1789 43.8414 27.1475Z" fill="#2F2E41"/>
</svg>
