<svg width="119" height="111" viewBox="0 0 119 111" fill="none" xmlns="http://www.w3.org/2000/svg">
<path d="M21.3226 97.9072V89.0572H23.5426C24.1266 89.0572 24.6526 89.1592 25.1206 89.3632C25.5926 89.5672 25.9946 89.8612 26.3266 90.2452C26.6626 90.6252 26.9206 91.0892 27.1006 91.6372C27.2806 92.1812 27.3706 92.7952 27.3706 93.4792C27.3706 94.1632 27.2806 94.7792 27.1006 95.3272C26.9206 95.8712 26.6626 96.3352 26.3266 96.7192C25.9946 97.1032 25.5926 97.3972 25.1206 97.6012C24.6526 97.8052 24.1266 97.9072 23.5426 97.9072H21.3226ZM22.3546 97.5892L21.8926 97.0072H23.4226C23.9906 97.0072 24.4926 96.8652 24.9286 96.5812C25.3686 96.2932 25.7126 95.8852 25.9606 95.3572C26.2086 94.8292 26.3326 94.2032 26.3326 93.4792C26.3326 92.7512 26.2086 92.1252 25.9606 91.6012C25.7126 91.0732 25.3686 90.6672 24.9286 90.3832C24.4926 90.0992 23.9906 89.9572 23.4226 89.9572H21.8926L22.3546 89.3752V97.5892ZM29.2246 95.1292V94.2172H34.1506L33.9706 94.5172C33.9706 94.4932 33.9706 94.4712 33.9706 94.4512C33.9706 94.4272 33.9706 94.4052 33.9706 94.3852C33.9706 94.0172 33.8926 93.6812 33.7366 93.3772C33.5846 93.0692 33.3566 92.8232 33.0526 92.6392C32.7486 92.4552 32.3726 92.3632 31.9246 92.3632C31.4726 92.3632 31.0746 92.4592 30.7306 92.6512C30.3866 92.8432 30.1186 93.1152 29.9266 93.4672C29.7346 93.8152 29.6386 94.2312 29.6386 94.7152C29.6386 95.2072 29.7306 95.6312 29.9146 95.9872C30.1026 96.3432 30.3686 96.6172 30.7126 96.8092C31.0566 97.0012 31.4646 97.0972 31.9366 97.0972C32.2726 97.0972 32.5646 97.0632 32.8126 96.9952C33.0606 96.9232 33.2646 96.8292 33.4246 96.7132C33.5886 96.5932 33.7126 96.4632 33.7966 96.3232C33.8806 96.1832 33.9306 96.0432 33.9466 95.9032H34.9666C34.9466 96.1592 34.8666 96.4132 34.7266 96.6652C34.5866 96.9172 34.3886 97.1472 34.1326 97.3552C33.8766 97.5592 33.5626 97.7232 33.1906 97.8472C32.8186 97.9712 32.3906 98.0332 31.9066 98.0332C31.2666 98.0332 30.7026 97.8932 30.2146 97.6132C29.7266 97.3332 29.3426 96.9452 29.0626 96.4492C28.7866 95.9532 28.6486 95.3832 28.6486 94.7392C28.6486 94.0872 28.7886 93.5152 29.0686 93.0232C29.3486 92.5272 29.7346 92.1392 30.2266 91.8592C30.7186 91.5792 31.2806 91.4392 31.9126 91.4392C32.5566 91.4392 33.1146 91.5792 33.5866 91.8592C34.0586 92.1392 34.4226 92.5232 34.6786 93.0112C34.9346 93.4952 35.0626 94.0472 35.0626 94.6672C35.0626 94.7312 35.0606 94.8152 35.0566 94.9192C35.0526 95.0232 35.0466 95.0932 35.0386 95.1292H29.2246ZM41.512 91.5352L39.376 97.9072H38.038L35.854 91.5352H36.91L38.788 97.3672H38.626L40.456 91.5352H41.512ZM42.7597 95.1292V94.2172H47.6857L47.5057 94.5172C47.5057 94.4932 47.5057 94.4712 47.5057 94.4512C47.5057 94.4272 47.5057 94.4052 47.5057 94.3852C47.5057 94.0172 47.4277 93.6812 47.2717 93.3772C47.1197 93.0692 46.8917 92.8232 46.5877 92.6392C46.2837 92.4552 45.9077 92.3632 45.4597 92.3632C45.0077 92.3632 44.6097 92.4592 44.2657 92.6512C43.9217 92.8432 43.6537 93.1152 43.4617 93.4672C43.2697 93.8152 43.1737 94.2312 43.1737 94.7152C43.1737 95.2072 43.2657 95.6312 43.4497 95.9872C43.6377 96.3432 43.9037 96.6172 44.2477 96.8092C44.5917 97.0012 44.9997 97.0972 45.4717 97.0972C45.8077 97.0972 46.0997 97.0632 46.3477 96.9952C46.5957 96.9232 46.7997 96.8292 46.9597 96.7132C47.1237 96.5932 47.2477 96.4632 47.3317 96.3232C47.4157 96.1832 47.4657 96.0432 47.4817 95.9032H48.5017C48.4817 96.1592 48.4017 96.4132 48.2617 96.6652C48.1217 96.9172 47.9237 97.1472 47.6677 97.3552C47.4117 97.5592 47.0977 97.7232 46.7257 97.8472C46.3537 97.9712 45.9257 98.0332 45.4417 98.0332C44.8017 98.0332 44.2377 97.8932 43.7497 97.6132C43.2617 97.3332 42.8777 96.9452 42.5977 96.4492C42.3217 95.9532 42.1837 95.3832 42.1837 94.7392C42.1837 94.0872 42.3237 93.5152 42.6037 93.0232C42.8837 92.5272 43.2697 92.1392 43.7617 91.8592C44.2537 91.5792 44.8157 91.4392 45.4477 91.4392C46.0917 91.4392 46.6497 91.5792 47.1217 91.8592C47.5937 92.1392 47.9577 92.5232 48.2137 93.0112C48.4697 93.4952 48.5977 94.0472 48.5977 94.6672C48.5977 94.7312 48.5957 94.8152 48.5917 94.9192C48.5877 95.0232 48.5817 95.0932 48.5737 95.1292H42.7597ZM51.2855 88.5292V97.9072H50.2775V88.5292H51.2855ZM56.1704 98.0212C55.5304 98.0212 54.9644 97.8792 54.4724 97.5952C53.9844 97.3072 53.6004 96.9152 53.3204 96.4192C53.0444 95.9192 52.9064 95.3512 52.9064 94.7152C52.9064 94.0792 53.0444 93.5152 53.3204 93.0232C53.6004 92.5312 53.9844 92.1452 54.4724 91.8652C54.9644 91.5852 55.5304 91.4452 56.1704 91.4452C56.8104 91.4452 57.3744 91.5852 57.8624 91.8652C58.3544 92.1452 58.7384 92.5312 59.0144 93.0232C59.2944 93.5152 59.4344 94.0792 59.4344 94.7152C59.4344 95.3512 59.2944 95.9192 59.0144 96.4192C58.7384 96.9152 58.3544 97.3072 57.8624 97.5952C57.3744 97.8792 56.8104 98.0212 56.1704 98.0212ZM56.1704 97.0852C56.6104 97.0852 56.9984 96.9872 57.3344 96.7912C57.6704 96.5952 57.9324 96.3192 58.1204 95.9632C58.3124 95.6072 58.4084 95.1912 58.4084 94.7152C58.4084 94.2392 58.3124 93.8272 58.1204 93.4792C57.9324 93.1272 57.6704 92.8572 57.3344 92.6692C56.9984 92.4772 56.6104 92.3812 56.1704 92.3812C55.7344 92.3812 55.3464 92.4772 55.0064 92.6692C54.6704 92.8572 54.4064 93.1272 54.2144 93.4792C54.0264 93.8272 53.9324 94.2392 53.9324 94.7152C53.9324 95.1912 54.0264 95.6072 54.2144 95.9632C54.4064 96.3192 54.6704 96.5952 55.0064 96.7912C55.3464 96.9872 55.7344 97.0852 56.1704 97.0852ZM61.0274 100.529V91.5352H62.0474V100.529H61.0274ZM64.1414 98.0272C63.6494 98.0272 63.1894 97.9072 62.7614 97.6672C62.3334 97.4232 61.9854 97.0892 61.7174 96.6652C61.4534 96.2412 61.3214 95.7572 61.3214 95.2132C61.3214 95.2012 61.3214 95.1912 61.3214 95.1832C61.3214 95.1752 61.3214 95.1652 61.3214 95.1532L62.0534 95.1352C62.0534 95.1432 62.0534 95.1532 62.0534 95.1652C62.0534 95.1732 62.0534 95.1812 62.0534 95.1892C62.0534 95.5332 62.1434 95.8472 62.3234 96.1312C62.5074 96.4152 62.7474 96.6412 63.0434 96.8092C63.3394 96.9772 63.6574 97.0612 63.9974 97.0612C64.5614 97.0612 65.0294 96.8692 65.4014 96.4852C65.7774 96.0972 65.9654 95.5072 65.9654 94.7152C65.9654 93.9192 65.7794 93.3312 65.4074 92.9512C65.0354 92.5672 64.5654 92.3752 63.9974 92.3752C63.6574 92.3752 63.3394 92.4592 63.0434 92.6272C62.7474 92.7912 62.5074 93.0132 62.3234 93.2932C62.1434 93.5732 62.0534 93.8872 62.0534 94.2352L61.3214 94.2112C61.3214 93.6632 61.4534 93.1812 61.7174 92.7652C61.9854 92.3492 62.3334 92.0252 62.7614 91.7932C63.1894 91.5572 63.6494 91.4392 64.1414 91.4392C64.6574 91.4392 65.1334 91.5672 65.5694 91.8232C66.0054 92.0752 66.3554 92.4452 66.6194 92.9332C66.8834 93.4212 67.0154 94.0152 67.0154 94.7152C67.0154 95.4272 66.8854 96.0312 66.6254 96.5272C66.3654 97.0192 66.0174 97.3932 65.5814 97.6492C65.1454 97.9012 64.6654 98.0272 64.1414 98.0272ZM72.5274 97.9072V95.0932C72.5274 94.8452 72.5274 94.6312 72.5274 94.4512C72.5274 94.2672 72.5274 94.1132 72.5274 93.9892C72.5274 93.8332 72.5154 93.6652 72.4914 93.4852C72.4714 93.3012 72.4214 93.1292 72.3414 92.9692C72.2614 92.8052 72.1354 92.6712 71.9634 92.5672C71.7954 92.4632 71.5614 92.4112 71.2614 92.4112C70.9574 92.4112 70.7014 92.4712 70.4934 92.5912C70.2854 92.7072 70.1174 92.8612 69.9894 93.0532C69.8614 93.2452 69.7694 93.4572 69.7134 93.6892C69.6574 93.9172 69.6294 94.1432 69.6294 94.3672L69.0534 94.1332C69.0534 93.6532 69.1534 93.2092 69.3534 92.8012C69.5534 92.3932 69.8334 92.0652 70.1934 91.8172C70.5574 91.5652 70.9834 91.4392 71.4714 91.4392C71.9554 91.4392 72.3494 91.5372 72.6534 91.7332C72.9574 91.9292 73.1814 92.1992 73.3254 92.5432C73.4694 92.8872 73.5414 93.2832 73.5414 93.7312C73.5414 93.8912 73.5414 94.0972 73.5414 94.3492C73.5414 94.5972 73.5414 94.8812 73.5414 95.2012V97.9072H72.5274ZM68.6094 97.9072V91.5352H69.6294V97.9072H68.6094ZM76.4334 97.9072V95.0932C76.4334 94.8212 76.4334 94.5972 76.4334 94.4212C76.4334 94.2412 76.4334 94.0892 76.4334 93.9652C76.4334 93.8092 76.4234 93.6412 76.4034 93.4612C76.3834 93.2812 76.3334 93.1132 76.2534 92.9572C76.1734 92.7972 76.0454 92.6672 75.8694 92.5672C75.6974 92.4632 75.4554 92.4112 75.1434 92.4112C74.8354 92.4112 74.5774 92.4692 74.3694 92.5852C74.1654 92.7012 74.0014 92.8532 73.8774 93.0412C73.7574 93.2292 73.6714 93.4332 73.6194 93.6532C73.5674 93.8692 73.5414 94.0772 73.5414 94.2772L72.9654 94.0552C72.9654 93.5992 73.0614 93.1732 73.2534 92.7772C73.4494 92.3772 73.7254 92.0552 74.0814 91.8112C74.4414 91.5632 74.8674 91.4392 75.3594 91.4392C75.8194 91.4392 76.2034 91.5292 76.5114 91.7092C76.8234 91.8892 77.0574 92.1432 77.2134 92.4712C77.3734 92.7952 77.4534 93.1812 77.4534 93.6292C77.4534 93.7972 77.4534 94.0052 77.4534 94.2532C77.4534 94.5012 77.4534 94.7812 77.4534 95.0932V97.9072H76.4334ZM79.5566 95.1292V94.2172H84.4826L84.3026 94.5172C84.3026 94.4932 84.3026 94.4712 84.3026 94.4512C84.3026 94.4272 84.3026 94.4052 84.3026 94.3852C84.3026 94.0172 84.2246 93.6812 84.0686 93.3772C83.9166 93.0692 83.6886 92.8232 83.3846 92.6392C83.0806 92.4552 82.7046 92.3632 82.2566 92.3632C81.8046 92.3632 81.4066 92.4592 81.0626 92.6512C80.7186 92.8432 80.4506 93.1152 80.2586 93.4672C80.0666 93.8152 79.9706 94.2312 79.9706 94.7152C79.9706 95.2072 80.0626 95.6312 80.2466 95.9872C80.4346 96.3432 80.7006 96.6172 81.0446 96.8092C81.3886 97.0012 81.7966 97.0972 82.2686 97.0972C82.6046 97.0972 82.8966 97.0632 83.1446 96.9952C83.3926 96.9232 83.5966 96.8292 83.7566 96.7132C83.9206 96.5932 84.0446 96.4632 84.1286 96.3232C84.2126 96.1832 84.2626 96.0432 84.2786 95.9032H85.2986C85.2786 96.1592 85.1986 96.4132 85.0586 96.6652C84.9186 96.9172 84.7206 97.1472 84.4646 97.3552C84.2086 97.5592 83.8946 97.7232 83.5226 97.8472C83.1506 97.9712 82.7226 98.0332 82.2386 98.0332C81.5986 98.0332 81.0346 97.8932 80.5466 97.6132C80.0586 97.3332 79.6746 96.9452 79.3946 96.4492C79.1186 95.9532 78.9806 95.3832 78.9806 94.7392C78.9806 94.0872 79.1206 93.5152 79.4006 93.0232C79.6806 92.5272 80.0666 92.1392 80.5586 91.8592C81.0506 91.5792 81.6126 91.4392 82.2446 91.4392C82.8886 91.4392 83.4466 91.5792 83.9186 91.8592C84.3906 92.1392 84.7546 92.5232 85.0106 93.0112C85.2666 93.4952 85.3946 94.0472 85.3946 94.6672C85.3946 94.7312 85.3926 94.8152 85.3886 94.9192C85.3846 95.0232 85.3786 95.0932 85.3706 95.1292H79.5566ZM91.5444 97.9072V94.8532C91.5444 94.6692 91.5444 94.5192 91.5444 94.4032C91.5444 94.2832 91.5444 94.1692 91.5444 94.0612C91.5444 93.7292 91.4884 93.4392 91.3764 93.1912C91.2644 92.9432 91.0884 92.7512 90.8484 92.6152C90.6084 92.4792 90.2944 92.4112 89.9064 92.4112C89.5664 92.4112 89.2504 92.4992 88.9584 92.6752C88.6704 92.8472 88.4384 93.0812 88.2624 93.3772C88.0904 93.6692 88.0044 93.9972 88.0044 94.3612L87.4224 94.1392C87.4224 93.6392 87.5444 93.1852 87.7884 92.7772C88.0364 92.3692 88.3644 92.0452 88.7724 91.8052C89.1844 91.5612 89.6324 91.4392 90.1164 91.4392C90.6084 91.4392 91.0384 91.5332 91.4064 91.7212C91.7744 91.9092 92.0584 92.1792 92.2584 92.5312C92.4624 92.8792 92.5644 93.2992 92.5644 93.7912C92.5644 93.9672 92.5644 94.1592 92.5644 94.3672C92.5644 94.5752 92.5644 94.7692 92.5644 94.9492V97.9072H91.5444ZM86.9844 97.9072V91.5352H88.0044V97.9072H86.9844ZM96.688 98.0032C96.492 98.0032 96.3 97.9812 96.112 97.9372C95.924 97.8932 95.754 97.8152 95.602 97.7032C95.454 97.5872 95.336 97.4252 95.248 97.2172C95.16 97.0052 95.116 96.7332 95.116 96.4012C95.116 96.3172 95.116 96.2312 95.116 96.1432C95.116 96.0512 95.116 95.9552 95.116 95.8552V92.4352H93.562V91.5352H94.558C94.694 91.5352 94.8 91.5312 94.876 91.5232C94.952 91.5112 95.006 91.4852 95.038 91.4452C95.074 91.4012 95.096 91.3352 95.104 91.2472C95.112 91.1552 95.116 91.0292 95.116 90.8692V89.4232H96.142V91.5352H98.134V92.4352H96.142V95.5252C96.142 95.6132 96.142 95.6992 96.142 95.7832C96.142 95.8672 96.142 95.9452 96.142 96.0172C96.142 96.3572 96.182 96.6232 96.262 96.8152C96.346 97.0072 96.532 97.1032 96.82 97.1032C96.936 97.1032 97.046 97.0932 97.15 97.0732C97.254 97.0532 97.332 97.0332 97.384 97.0132V97.9012C97.316 97.9252 97.22 97.9472 97.096 97.9672C96.976 97.9912 96.84 98.0032 96.688 98.0032Z" fill="#391400" fill-opacity="0.6"/>
<path d="M59.5001 47.8879C46.3492 47.8879 33.9795 46.4011 24.6695 43.7016C15.2354 40.9661 10.0399 37.2914 10.0399 33.3545C10.0399 29.4176 15.2354 25.7431 24.6695 23.0075C33.9795 20.308 46.3492 18.8213 59.5001 18.8213C72.6509 18.8213 85.0206 20.308 94.3307 23.0075C103.765 25.7431 108.96 29.4177 108.96 33.3545C108.96 37.2913 103.765 40.9661 94.3307 43.7016C85.0206 46.4011 72.6509 47.8879 59.5001 47.8879ZM59.5001 19.4413C46.4463 19.4413 34.18 20.9135 24.9607 23.5868C15.8652 26.2241 10.8563 29.693 10.8563 33.3545C10.8563 37.016 15.8652 40.485 24.9607 43.1223C34.18 45.7956 46.4463 47.2679 59.5001 47.2679C72.5539 47.2679 84.8201 45.7956 94.0393 43.1223C103.135 40.485 108.144 37.0161 108.144 33.3545C108.144 29.6929 103.135 26.2241 94.0393 23.5868C84.82 20.9135 72.5538 19.4413 59.5001 19.4413Z" fill="#61DAFB"/>
<path d="M79.9353 66.7091C75.8483 66.7091 70.7537 64.9152 65.116 61.4356C57.3824 56.6623 49.5021 49.2702 42.9268 40.6212C36.3514 31.9721 31.8619 23.0933 30.2854 15.6204C28.6879 8.048 30.2805 2.79369 34.77 0.82529C39.2594 -1.14303 46.0478 0.436652 53.8841 5.27341C61.6177 10.0467 69.4979 17.4388 76.0733 26.0878C82.6487 34.7369 87.1382 43.6157 88.7147 51.0886C90.3122 58.661 88.7196 63.9153 84.2301 65.8839C82.9705 66.4361 81.5292 66.7091 79.9353 66.7091ZM39.0866 0.615116C37.6295 0.615116 36.3186 0.86215 35.1782 1.3622C31.0027 3.193 29.5513 8.22177 31.0916 15.5224C32.6527 22.9224 37.107 31.7258 43.6338 40.3112C50.1607 48.8964 57.9727 56.2276 65.6308 60.9544C73.1861 65.6177 79.6467 67.1779 83.8219 65.3468C87.9974 63.516 89.4488 58.4872 87.9085 51.1867C86.3474 43.7866 81.8931 34.9831 75.3663 26.3978C68.8394 17.8126 61.0274 10.4814 53.3691 5.75461C47.8776 2.36501 42.9644 0.615116 39.0866 0.615116Z" fill="#61DAFB"/>
<path d="M39.0647 66.7092C37.4704 66.7092 36.0299 66.4363 34.77 65.884C30.2805 63.9154 28.6879 58.6611 30.2854 51.0887C31.8619 43.6158 36.3514 34.737 42.9268 26.0879C49.5021 17.4389 57.3824 10.0469 65.116 5.27352C72.9524 0.436687 79.7408 -1.14315 84.2301 0.825402C88.7196 2.7938 90.3122 8.04811 88.7147 15.6206C87.1382 23.0934 82.6487 31.9722 76.0733 40.6213C69.4979 49.2703 61.6177 56.6624 53.8841 61.4357C48.2468 64.9152 43.1515 66.7092 39.0647 66.7092ZM79.9134 0.615227C76.0356 0.615227 71.123 2.3649 65.6308 5.75472C57.9727 10.4815 50.1607 17.8128 43.6338 26.3979C37.107 34.9833 32.6527 43.7867 31.0916 51.1868C29.5513 58.4873 31.0027 63.5161 35.1782 65.3469C36.3184 65.8469 37.6299 66.0939 39.0866 66.0941C42.9645 66.0944 47.8771 64.3444 53.3691 60.9545C61.0274 56.2277 68.8394 48.8965 75.3663 40.3113C81.8931 31.726 86.3474 22.9225 87.9085 15.5225C89.4488 8.22188 87.9974 3.19311 83.8219 1.36231C82.6817 0.862411 81.3702 0.615227 79.9134 0.615227Z" fill="#61DAFB"/>
<path d="M59.5 40.2968C64.5487 40.2968 68.6415 37.1886 68.6415 33.3544C68.6415 29.5203 64.5487 26.4121 59.5 26.4121C54.4513 26.4121 50.3585 29.5203 50.3585 33.3544C50.3585 37.1886 54.4513 40.2968 59.5 40.2968Z" fill="#61DAFB"/>
<path d="M115.274 52.5128C115.102 52.2922 114.356 52.5284 114.219 52.3282C114.082 52.1286 114.775 51.8246 115.171 51.13C115.242 51.0048 115.692 50.2155 115.359 49.9719C114.728 49.5103 111.84 51.4154 110.83 50.792C110.608 50.6551 110.453 50.382 109.782 49.9385C109.515 49.7621 109.353 49.6825 109.197 49.7121C108.975 49.7542 108.958 49.9795 108.72 50.4226C108.363 51.0872 108.153 51.047 107.945 51.5772C107.791 51.9708 107.826 52.1996 107.644 52.2442C107.388 52.3073 107.151 51.8898 106.826 51.9272C106.494 51.9654 106.293 52.4514 106.229 52.8154C106.11 53.4983 106.441 53.949 106.624 54.4228C106.823 54.9378 106.941 55.721 106.481 56.8296L101.934 66.5585C102.938 64.5622 105.845 59.0897 107.066 57.0561C107.419 56.469 107.808 55.8736 108.607 55.6385C109.377 55.4123 110.434 55.5474 111.781 55.3009C111.938 55.2721 112.375 55.1877 112.43 54.9926C112.476 54.8314 112.219 54.7414 112.258 54.5903C112.311 54.3877 112.816 54.3853 113.437 54.1515C113.875 53.9867 114.147 53.7907 114.382 53.6222C114.452 53.5713 115.503 52.8066 115.274 52.5128Z" fill="#F2F2F2"/>
<path d="M97.3853 57.6341C97.193 57.6346 97.1306 57.9806 96.9616 57.9739C96.7932 57.9673 96.7966 57.6214 96.4619 57.2735C96.4015 57.2108 96.0212 56.8155 95.7677 56.8693C95.2873 56.9713 95.6853 58.5971 94.9908 58.7939C94.8384 58.8371 94.6172 58.816 94.1369 58.9382C93.9459 58.9869 93.8478 59.0241 93.8219 59.0909C93.7851 59.1856 93.9257 59.2572 94.1434 59.4737C94.47 59.7983 94.3833 59.8653 94.666 60.0957C94.8758 60.2667 95.0339 60.3196 95.0103 60.4001C94.977 60.514 94.639 60.4817 94.5692 60.6138C94.4981 60.7486 94.7543 60.9636 94.9712 61.0923C95.3782 61.3337 95.7648 61.3406 96.1238 61.4091C96.514 61.4835 97.0542 61.6655 97.6382 62.1565L102.614 66.658C101.613 65.7079 98.9152 63.0458 97.9533 62.0039C97.6756 61.7031 97.4031 61.3863 97.4818 61.0205C97.5576 60.6685 97.9499 60.3135 98.1793 59.7402C98.2061 59.6733 98.2776 59.4862 98.1674 59.4094C98.0763 59.3459 97.944 59.4157 97.8578 59.3574C97.7421 59.2792 97.8863 59.0903 97.9143 58.7915C97.9341 58.5808 97.8861 58.4226 97.8448 58.2866C97.8324 58.2456 97.6413 57.6333 97.3853 57.6341H97.3853Z" fill="#F2F2F2"/>
<path d="M101.222 58.2875L101.106 57.502L101.159 57.4425C101.404 57.1672 101.529 56.8983 101.531 56.643C101.531 56.6024 101.529 56.5619 101.526 56.5205C101.516 56.3567 101.504 56.153 101.643 55.9156C101.722 55.7832 101.942 55.4768 102.273 55.5147C102.362 55.5242 102.43 55.5553 102.481 55.5917C102.489 55.5826 102.496 55.5735 102.504 55.5636C102.608 55.4442 102.689 55.393 102.768 55.3437C102.828 55.3057 102.891 55.2667 102.989 55.1741C103.032 55.1336 103.065 55.0979 103.093 55.068C103.179 54.9773 103.291 54.8692 103.488 54.8711C103.699 54.8787 103.809 55.0111 103.883 55.0987C104.013 55.2549 104.072 55.3676 104.112 55.4423C104.126 55.4696 104.142 55.5003 104.15 55.5098C104.218 55.5856 104.77 55.5147 104.978 55.4889C105.446 55.4298 105.85 55.3786 106.017 55.6023C106.136 55.7624 106.047 55.974 105.745 56.2482C105.651 56.3335 105.551 56.3984 105.462 56.4492C105.536 56.4826 105.602 56.5338 105.628 56.6142C105.691 56.8046 105.476 56.9953 104.988 57.1819C104.867 57.2286 104.704 57.2908 104.475 57.3208C104.368 57.3348 104.271 57.3382 104.188 57.3401C104.186 57.3765 104.175 57.4159 104.146 57.4565C104.06 57.576 103.882 57.6329 103.613 57.6192C103.317 57.6075 103.074 57.5646 102.859 57.5271C102.671 57.4945 102.51 57.4668 102.383 57.4732C102.148 57.4876 101.966 57.6306 101.754 57.8161L101.222 58.2875Z" fill="#F2F2F2"/>
<path d="M101.76 53.611L100.789 53.8953L100.699 53.8716C100.286 53.7615 99.9123 53.738 99.5867 53.8016C99.535 53.8117 99.4839 53.8238 99.4319 53.8362C99.2257 53.885 98.9694 53.9459 98.6315 53.9034C98.443 53.8794 97.9967 53.7953 97.961 53.5425C97.9505 53.4746 97.973 53.4172 98.0064 53.3703C97.9929 53.3671 97.9793 53.3637 97.9647 53.3602C97.7863 53.3147 97.7004 53.2677 97.6176 53.2225C97.554 53.1877 97.4884 53.1517 97.3457 53.1033C97.2831 53.0821 97.2292 53.0665 97.1839 53.0534C97.0467 53.0135 96.8806 52.9587 96.8329 52.8133C96.7891 52.6566 96.9298 52.5419 97.0228 52.466C97.1887 52.3304 97.3172 52.2584 97.4025 52.2106C97.4336 52.1932 97.4686 52.1735 97.4786 52.1651C97.558 52.0959 97.3276 51.7084 97.242 51.5621C97.0481 51.2339 96.8803 50.9499 97.1231 50.7708C97.2967 50.6426 97.5888 50.654 98.0148 50.8064C98.1474 50.8539 98.2554 50.911 98.3427 50.9634C98.3665 50.9008 98.415 50.8394 98.5107 50.7994C98.7372 50.7049 99.0349 50.8148 99.3964 51.1257C99.4865 51.2028 99.6071 51.3068 99.7032 51.4671C99.7484 51.5426 99.7774 51.6129 99.8008 51.6733C99.8476 51.6653 99.9007 51.6636 99.9598 51.6748C100.134 51.7074 100.251 51.8239 100.302 52.0247C100.362 52.2449 100.369 52.4346 100.376 52.6019C100.382 52.7479 100.388 52.8736 100.428 52.9652C100.506 53.1343 100.734 53.2312 101.025 53.3404L101.76 53.611Z" fill="#F2F2F2"/>
<path d="M101.222 51.2963L101.106 50.5108L101.159 50.4513C101.404 50.1759 101.529 49.9071 101.531 49.6518C101.531 49.6112 101.529 49.5707 101.526 49.5293C101.516 49.3655 101.504 49.1618 101.643 48.9244C101.722 48.792 101.942 48.4856 102.273 48.5235C102.362 48.533 102.43 48.5641 102.481 48.6005C102.489 48.5914 102.496 48.5823 102.504 48.5724C102.608 48.453 102.689 48.4018 102.768 48.3525C102.828 48.3145 102.891 48.2755 102.989 48.1829C103.032 48.1424 103.065 48.1067 103.093 48.0767C103.179 47.9861 103.291 47.878 103.488 47.8799C103.699 47.8875 103.809 48.0199 103.883 48.1075C104.013 48.2637 104.072 48.3764 104.112 48.4511C104.126 48.4784 104.142 48.5091 104.15 48.5186C104.218 48.5944 104.77 48.5235 104.978 48.4977C105.446 48.4386 105.85 48.3874 106.017 48.6111C106.136 48.7712 106.047 48.9828 105.745 49.257C105.651 49.3423 105.551 49.4072 105.462 49.458C105.536 49.4914 105.602 49.5426 105.628 49.623C105.691 49.8134 105.476 50.0041 104.988 50.1907C104.867 50.2374 104.704 50.2996 104.475 50.3295C104.368 50.3436 104.271 50.347 104.188 50.3489C104.186 50.3853 104.175 50.4247 104.146 50.4653C104.06 50.5848 103.882 50.6417 103.613 50.628C103.317 50.6163 103.074 50.5734 102.859 50.5359C102.671 50.5032 102.51 50.4756 102.383 50.482C102.148 50.4964 101.966 50.6394 101.754 50.8249L101.222 51.2963Z" fill="#F2F2F2"/>
<path d="M102.281 66.545L102.064 66.4418L102.012 66.2518L102.064 66.4418L101.811 66.4638C101.807 66.446 101.793 66.405 101.773 66.3409C101.66 65.9897 101.315 64.9208 101.027 63.2373C100.826 62.0622 100.713 60.8541 100.689 59.6459C100.666 58.4359 100.741 57.5198 100.802 56.7836C100.847 56.2283 100.903 55.6995 100.957 55.1844C101.102 53.8082 101.239 52.5082 101.137 51.0691C101.114 50.7478 101.067 50.0791 100.553 49.3675C100.254 48.9548 99.8433 48.5883 99.3308 48.2788L99.6495 47.9746C100.215 48.3168 100.67 48.7226 101.001 49.1808C101.572 49.9698 101.623 50.6985 101.648 51.0486C101.751 52.5132 101.613 53.8256 101.467 55.2151C101.413 55.7283 101.357 56.2548 101.312 56.8079C101.252 57.5373 101.177 58.4454 101.201 59.6399C101.224 60.8336 101.336 62.0269 101.534 63.1873C101.818 64.8495 102.158 65.9025 102.27 66.2484C102.329 66.4331 102.342 66.4718 102.281 66.545Z" fill="#F2F2F2"/>
<path d="M98.3928 48.8958C98.3718 48.8958 98.3506 48.8954 98.3291 48.8943C97.8935 48.8765 97.4902 48.6785 97.1301 48.306C96.9613 48.1308 96.8749 47.931 96.7025 47.5324C96.6758 47.4709 96.5459 47.1592 96.467 46.7302C96.4153 46.4499 96.4218 46.3328 96.495 46.2292C96.5762 46.1139 96.7075 46.0335 96.8554 45.9793C96.8489 45.9421 96.8541 45.9038 96.8754 45.8647C96.9625 45.7028 97.1943 45.724 97.3196 45.7343C97.3831 45.7404 97.4622 45.7483 97.5476 45.7449C97.682 45.74 97.7542 45.7096 97.8636 45.6641C97.9682 45.6205 98.0983 45.5663 98.2914 45.5363C98.672 45.476 98.9909 45.5579 99.096 45.5849C99.6492 45.7248 99.9219 46.0513 100.238 46.4295C100.301 46.5053 100.517 46.7814 100.659 47.1599C100.762 47.433 100.748 47.5544 100.717 47.6446C100.654 47.8301 100.505 47.9363 100.128 48.1707C99.7336 48.416 99.5358 48.5389 99.366 48.6136C98.9707 48.7869 98.7224 48.8958 98.3928 48.8958V48.8958Z" fill="#F2F2F2"/>
<path d="M49.6927 35.4558C50.543 35.6261 51.3479 35.431 51.4906 35.02C51.6333 34.609 51.0597 34.1378 50.2091 33.9675C49.8706 33.8959 49.5144 33.8869 49.1703 33.9413L45.5558 33.2539L45.1672 34.5491L48.7718 35.0893C49.0358 35.2655 49.3516 35.3912 49.6927 35.4558Z" fill="#FFB6B6"/>
<path d="M29.8261 29.1503C29.8261 29.1503 29.092 30.2202 30.1095 30.7479C31.1271 31.2756 39.6008 33.7215 39.6008 33.7215L48.016 35.1122L48.3197 33.5592L40.6581 31.7005L34.2689 28.4375L29.8261 29.1503H29.8261Z" fill="#3F3D56"/>
<path d="M39.8468 63.6838L41.274 63.1963L39.0269 58.0967L36.9206 58.8159L39.8468 63.6838Z" fill="#FFB6B6"/>
<path d="M46.0975 64.1609C46.2116 64.3419 46.1349 64.5501 45.9262 64.6259L43.1249 65.6436C43.1249 65.6436 42.319 64.9024 40.9669 64.9487L41.6477 66.1802L40.2027 66.7052L39.1583 64.7066C39.1583 64.7066 38.1193 63.8118 38.5886 62.991C39.0579 62.1701 38.4541 62.48 38.4541 62.48L38.0151 61.1677L40.3217 60.5693L41.5225 62.4435L43.7583 63.9246L45.68 63.9429C45.851 63.9445 46.0151 64.0302 46.0975 64.1609L46.0975 64.1609Z" fill="#3F3D56"/>
<path d="M11.6054 61.0505L12.8808 61.7391L17.5402 57.6891L15.6581 56.6729L11.6054 61.0505Z" fill="#FFB6B6"/>
<path d="M14.2238 65.388C14.0757 65.5543 13.8003 65.6093 13.6087 65.5109L11.0361 64.19C11.0361 64.19 11.471 63.2873 10.7349 62.4247L9.67952 63.4935L8.35242 62.8121L10.0957 61.1173C10.0957 61.1173 10.5874 59.9842 11.7574 59.8767C12.9275 59.7692 12.2701 59.5302 12.2701 59.5302L13.5396 58.5791L15.3855 59.7878L13.8627 61.5222L13.3098 63.7359L14.2605 65.0042C14.3451 65.1171 14.3307 65.2679 14.2237 65.388L14.2238 65.388Z" fill="#3F3D56"/>
<path d="M34.1848 22.2148H27.4833V29.2036H34.1848V22.2148Z" fill="#3F3D56"/>
<path d="M32.6798 26.2101L29.0411 25.3887L28.3527 26.8076L28.2544 35.4703C28.2544 35.4703 33.4666 34.5741 34.6467 36.0677L35.0401 33.3793C35.0401 33.3793 36.3185 32.0351 35.2367 30.3174C34.155 28.5998 33.1351 27.8254 33.1351 27.8254L32.2865 27.4797L32.6798 26.2101V26.2101Z" fill="#6C63FF"/>
<path d="M28.5002 34.1641L28.0085 37.9721L34.4991 39.0174C34.4991 39.0174 34.0074 35.7321 34.5975 34.9854L28.5002 34.1641Z" fill="#FFB6B6"/>
<path d="M34.8925 38.9436C34.8925 38.9436 30.7621 36.6284 27.2218 37.5246C27.2218 37.5246 23.0422 39.5037 25.2057 42.9392L21.9112 48.8766L14.5355 56.7185L16.6007 58.5856L26.3367 50.8931L29.4836 47.607L37.4494 60.4527L39.908 59.5565L36.8594 49.6981L35.04 42.8645L34.8925 38.9436H34.8925Z" fill="#3F3D56"/>
<path d="M25.2549 43.35L20.3378 42.1551L25.0582 32.2221L24.5665 26.9195L28.7312 26.0273L31.0571 33.8651L25.2549 43.35Z" fill="#3F3D56"/>
<path d="M32.8633 28.0322L32.1199 27.4677L32.4515 26.9473C32.4515 26.9473 34.5975 28.6376 34.9908 29.0857C35.3842 29.5338 39.0576 40.7887 39.0576 40.7887L33.5157 42.5289L34.5975 33.6918L34.998 31.7041C35.0572 31.4101 34.991 31.1096 34.809 30.8463L32.8633 28.0322Z" fill="#3F3D56"/>
<path d="M31.0545 25.5026C32.8555 25.5026 34.3155 24.3941 34.3155 23.0267C34.3155 21.6593 32.8555 20.5508 31.0545 20.5508C29.2535 20.5508 27.7935 21.6593 27.7935 23.0267C27.7935 24.3941 29.2535 25.5026 31.0545 25.5026Z" fill="#FFB6B6"/>
<path d="M33.0827 22.0145C31.9638 21.4479 29.9613 23.7171 29.349 22.3222C29.2536 22.1047 29.029 23.067 28.9468 23.4037C28.8424 23.8312 29.1065 24.1727 28.9468 24.2492C28.7663 24.3357 28.3243 23.9497 28.231 24.0076C28.1397 24.0642 28.433 24.5128 28.9468 25.0344C29.6287 25.7268 30.056 25.8953 30.6171 26.3631C31.1394 26.7987 32.1057 27.6046 31.9692 28.2959C31.7123 29.596 27.5318 30.6007 26.2425 29.6246C25.9339 29.3909 25.8735 28.8617 25.7653 27.8127C25.6044 26.2516 25.7259 25.0802 25.7653 24.7324C25.9295 23.2843 26.0116 22.5602 26.4016 21.9541C26.6507 21.5671 27.4895 20.2637 29.3445 19.8402C31.3371 19.3853 33.7086 20.127 34.3553 21.2294C34.5421 21.5479 34.3605 21.5139 34.5939 22.5581C34.8701 23.7939 35.0489 24.5354 35.7869 24.974C36.465 25.3769 36.9883 25.1517 37.2186 25.4572C37.816 26.2495 35.0436 28.7567 33.8781 28.4167C33.1758 28.2118 33.1137 26.9898 33.1622 26.4235C33.2667 25.2042 34.0624 24.9454 34.0371 23.8264C34.0305 23.5304 34.0068 22.4825 33.0827 22.0145V22.0145Z" fill="#3F3D56"/>
<path d="M18.8758 42.7094C18.7373 43.3687 19.0731 43.9574 19.6258 44.0242C20.1785 44.091 20.7385 43.6108 20.8769 42.9512C20.937 42.6883 20.9132 42.4183 20.8077 42.1638L21.3478 39.3647L19.6123 39.2002L19.2641 41.9771C19.0595 42.1942 18.9263 42.4453 18.8758 42.7094H18.8758Z" fill="#FFB6B6"/>
<path d="M25.1566 27.0692C25.1566 27.0692 23.6814 26.6211 23.0914 27.4427C22.5013 28.2642 20.1411 34.9111 20.1411 34.9111L19.1577 41.4087L21.2229 41.4834L22.8947 35.5086L26.5334 30.3554L25.1566 27.0692V27.0692Z" fill="#3F3D56"/>
<path d="M119 66.6794C119 66.7515 118.923 66.8099 118.829 66.8099H0V66.5488H118.829C118.923 66.5488 119 66.6073 119 66.6794V66.6794Z" fill="#E6E6E6"/>
</svg>
