<svg width="120" height="111" viewBox="0 0 120 111" fill="none" xmlns="http://www.w3.org/2000/svg">
<path d="M28.8641 89.0572C29.4121 89.0572 29.8761 89.1332 30.2561 89.2852C30.6401 89.4332 30.9321 89.6632 31.1321 89.9752C31.3361 90.2872 31.4381 90.6832 31.4381 91.1632C31.4381 91.6192 31.3441 92.0012 31.1561 92.3092C30.9721 92.6132 30.7341 92.8452 30.4421 93.0052C30.1541 93.1612 29.8541 93.2472 29.5421 93.2632C29.8821 93.2712 30.2121 93.3492 30.5321 93.4972C30.8521 93.6412 31.1141 93.8732 31.3181 94.1932C31.5261 94.5092 31.6301 94.9312 31.6301 95.4592C31.6301 95.9752 31.5261 96.4172 31.3181 96.7852C31.1141 97.1492 30.8041 97.4272 30.3881 97.6192C29.9721 97.8112 29.4481 97.9072 28.8161 97.9072H25.9241V89.0572H28.8641ZM26.9141 93.1972L26.5661 92.8492H28.3841C29.0241 92.8492 29.5221 92.7212 29.8781 92.4652C30.2341 92.2052 30.4121 91.8232 30.4121 91.3192C30.4121 90.9832 30.3381 90.7172 30.1901 90.5212C30.0421 90.3212 29.8321 90.1772 29.5601 90.0892C29.2921 90.0012 28.9781 89.9572 28.6181 89.9572H26.4521L26.9141 89.3752V93.1972ZM28.6181 97.0072C29.2261 97.0072 29.7061 96.8732 30.0581 96.6052C30.4101 96.3372 30.5861 95.9372 30.5861 95.4052C30.5861 95.0812 30.5281 94.8132 30.4121 94.6012C30.2961 94.3852 30.1381 94.2152 29.9381 94.0912C29.7381 93.9672 29.5081 93.8792 29.2481 93.8272C28.9921 93.7712 28.7221 93.7432 28.4381 93.7432H26.5661L26.9141 93.3952V97.5892L26.4521 97.0072H28.6181ZM33.2852 97.9072V91.5352H34.3052V93.4912L33.9692 93.3712C33.9932 93.1352 34.0532 92.9032 34.1492 92.6752C34.2452 92.4432 34.3772 92.2352 34.5452 92.0512C34.7172 91.8632 34.9312 91.7152 35.1872 91.6072C35.4432 91.4952 35.7432 91.4392 36.0872 91.4392C36.3432 91.4392 36.5512 91.4612 36.7112 91.5052C36.8752 91.5452 36.9772 91.5772 37.0172 91.6012L36.7532 92.6032C36.7132 92.5752 36.6312 92.5392 36.5072 92.4952C36.3872 92.4512 36.2152 92.4292 35.9912 92.4292C35.6592 92.4292 35.3832 92.4892 35.1632 92.6092C34.9472 92.7292 34.7752 92.8892 34.6472 93.0892C34.5232 93.2852 34.4352 93.4992 34.3832 93.7312C34.3312 93.9632 34.3052 94.1932 34.3052 94.4212V97.9072H33.2852ZM40.2221 98.0272C39.7381 98.0272 39.3141 97.9512 38.9501 97.7992C38.5901 97.6472 38.3101 97.4292 38.1101 97.1452C37.9101 96.8572 37.8101 96.5132 37.8101 96.1132C37.8101 95.6972 37.9181 95.3512 38.1341 95.0752C38.3501 94.7952 38.6541 94.5772 39.0461 94.4212C39.4381 94.2652 39.8941 94.1612 40.4141 94.1092C41.1981 94.0292 41.7561 93.9512 42.0881 93.8752C42.4201 93.7952 42.5861 93.6672 42.5861 93.4912C42.5861 93.4872 42.5861 93.4852 42.5861 93.4852C42.5861 93.4812 42.5861 93.4772 42.5861 93.4732C42.5861 93.1052 42.4361 92.8312 42.1361 92.6512C41.8361 92.4672 41.4021 92.3752 40.8341 92.3752C40.2421 92.3752 39.7821 92.4792 39.4541 92.6872C39.1261 92.8912 38.9621 93.2232 38.9621 93.6832H37.9541C37.9541 93.2072 38.0761 92.8032 38.3201 92.4712C38.5641 92.1352 38.9021 91.8792 39.3341 91.7032C39.7701 91.5272 40.2721 91.4392 40.8401 91.4392C41.3601 91.4392 41.8281 91.5192 42.2441 91.6792C42.6641 91.8352 42.9961 92.0692 43.2401 92.3812C43.4881 92.6892 43.6121 93.0712 43.6121 93.5272C43.6121 93.6112 43.6121 93.6952 43.6121 93.7792C43.6121 93.8592 43.6121 93.9412 43.6121 94.0252V96.7072C43.6121 96.8472 43.6181 96.9832 43.6301 97.1152C43.6421 97.2472 43.6621 97.3632 43.6901 97.4632C43.7261 97.5832 43.7661 97.6812 43.8101 97.7572C43.8541 97.8292 43.8901 97.8792 43.9181 97.9072H42.8921C42.8721 97.8872 42.8421 97.8412 42.8021 97.7692C42.7621 97.6932 42.7241 97.6052 42.6881 97.5052C42.6601 97.4252 42.6381 97.3252 42.6221 97.2052C42.6061 97.0812 42.5981 96.9532 42.5981 96.8212L42.7661 96.9352C42.6421 97.1512 42.4601 97.3412 42.2201 97.5052C41.9841 97.6692 41.6981 97.7972 41.3621 97.8892C41.0261 97.9812 40.6461 98.0272 40.2221 98.0272ZM40.3841 97.1092C40.7961 97.1092 41.1681 97.0472 41.5001 96.9232C41.8321 96.7952 42.0961 96.6072 42.2921 96.3592C42.4881 96.1112 42.5861 95.8032 42.5861 95.4352V94.1692L42.8141 94.5532C42.5581 94.6532 42.2381 94.7352 41.8541 94.7992C41.4741 94.8592 41.0761 94.9092 40.6601 94.9492C40.0561 95.0052 39.6001 95.1112 39.2921 95.2672C38.9881 95.4232 38.8361 95.6852 38.8361 96.0532C38.8361 96.4012 38.9621 96.6652 39.2141 96.8452C39.4661 97.0212 39.8561 97.1092 40.3841 97.1092ZM49.8686 97.9072V94.8532C49.8686 94.6692 49.8686 94.5192 49.8686 94.4032C49.8686 94.2832 49.8686 94.1692 49.8686 94.0612C49.8686 93.7292 49.8126 93.4392 49.7006 93.1912C49.5886 92.9432 49.4126 92.7512 49.1726 92.6152C48.9326 92.4792 48.6186 92.4112 48.2306 92.4112C47.8906 92.4112 47.5746 92.4992 47.2826 92.6752C46.9946 92.8472 46.7626 93.0812 46.5866 93.3772C46.4146 93.6692 46.3286 93.9972 46.3286 94.3612L45.7466 94.1392C45.7466 93.6392 45.8686 93.1852 46.1126 92.7772C46.3606 92.3692 46.6886 92.0452 47.0966 91.8052C47.5086 91.5612 47.9566 91.4392 48.4406 91.4392C48.9326 91.4392 49.3626 91.5332 49.7306 91.7212C50.0986 91.9092 50.3826 92.1792 50.5826 92.5312C50.7866 92.8792 50.8886 93.2992 50.8886 93.7912C50.8886 93.9672 50.8886 94.1592 50.8886 94.3672C50.8886 94.5752 50.8886 94.7692 50.8886 94.9492V97.9072H49.8686ZM45.3086 97.9072V91.5352H46.3286V97.9072H45.3086ZM55.296 98.0272C54.772 98.0272 54.292 97.9012 53.856 97.6492C53.42 97.3932 53.072 97.0192 52.812 96.5272C52.552 96.0312 52.422 95.4272 52.422 94.7152C52.422 94.0152 52.554 93.4212 52.818 92.9332C53.082 92.4452 53.432 92.0752 53.868 91.8232C54.304 91.5672 54.78 91.4392 55.296 91.4392C55.788 91.4392 56.248 91.5572 56.676 91.7932C57.108 92.0252 57.456 92.3492 57.72 92.7652C57.984 93.1812 58.116 93.6632 58.116 94.2112C58.116 94.2232 58.116 94.2352 58.116 94.2472C58.116 94.2592 58.116 94.2712 58.116 94.2832L57.384 94.3132C57.384 94.3012 57.384 94.2892 57.384 94.2772C57.384 94.2612 57.384 94.2472 57.384 94.2352C57.384 93.8872 57.292 93.5732 57.108 93.2932C56.928 93.0132 56.69 92.7912 56.394 92.6272C56.098 92.4592 55.78 92.3752 55.44 92.3752C54.872 92.3752 54.402 92.5672 54.03 92.9512C53.658 93.3312 53.472 93.9192 53.472 94.7152C53.472 95.5072 53.658 96.0972 54.03 96.4852C54.406 96.8692 54.876 97.0612 55.44 97.0612C55.796 97.0612 56.12 96.9752 56.412 96.8032C56.708 96.6312 56.944 96.4012 57.12 96.1132C57.296 95.8212 57.384 95.4952 57.384 95.1352L58.116 95.1532C58.116 95.6972 57.99 96.1872 57.738 96.6232C57.486 97.0552 57.146 97.3972 56.718 97.6492C56.294 97.9012 55.82 98.0272 55.296 98.0272ZM57.384 97.9072V88.5292H58.41V97.9072H57.384ZM60.2632 97.9072V91.5352H61.2712V97.9072H60.2632ZM60.7732 90.0712C60.5852 90.0712 60.4212 90.0192 60.2812 89.9152C60.1452 89.8072 60.0772 89.6612 60.0772 89.4772C60.0772 89.2972 60.1452 89.1552 60.2812 89.0512C60.4212 88.9432 60.5852 88.8892 60.7732 88.8892C60.9612 88.8892 61.1232 88.9432 61.2592 89.0512C61.3952 89.1552 61.4632 89.2972 61.4632 89.4772C61.4632 89.6612 61.3952 89.8072 61.2592 89.9152C61.1232 90.0192 60.9612 90.0712 60.7732 90.0712ZM67.728 97.9072V94.8532C67.728 94.6692 67.728 94.5192 67.728 94.4032C67.728 94.2832 67.728 94.1692 67.728 94.0612C67.728 93.7292 67.672 93.4392 67.56 93.1912C67.448 92.9432 67.272 92.7512 67.032 92.6152C66.792 92.4792 66.478 92.4112 66.09 92.4112C65.75 92.4112 65.434 92.4992 65.142 92.6752C64.854 92.8472 64.622 93.0812 64.446 93.3772C64.274 93.6692 64.188 93.9972 64.188 94.3612L63.606 94.1392C63.606 93.6392 63.728 93.1852 63.972 92.7772C64.22 92.3692 64.548 92.0452 64.956 91.8052C65.368 91.5612 65.816 91.4392 66.3 91.4392C66.792 91.4392 67.222 91.5332 67.59 91.7212C67.958 91.9092 68.242 92.1792 68.442 92.5312C68.646 92.8792 68.748 93.2992 68.748 93.7912C68.748 93.9672 68.748 94.1592 68.748 94.3672C68.748 94.5752 68.748 94.7692 68.748 94.9492V97.9072H67.728ZM63.168 97.9072V91.5352H64.188V97.9072H63.168ZM74.5954 97.5172C74.9394 97.5452 75.2414 97.6092 75.5014 97.7092C75.7654 97.8052 75.9714 97.9472 76.1194 98.1352C76.2674 98.3272 76.3414 98.5772 76.3414 98.8852C76.3414 99.2252 76.2254 99.5252 75.9934 99.7852C75.7614 100.049 75.4094 100.255 74.9374 100.403C74.4654 100.551 73.8714 100.625 73.1554 100.625C72.1434 100.625 71.3794 100.477 70.8634 100.181C70.3474 99.8892 70.0894 99.4892 70.0894 98.9812C70.0894 98.8212 70.1074 98.6792 70.1434 98.5552C70.1834 98.4352 70.2274 98.3372 70.2754 98.2612L71.2474 98.4052C71.2154 98.4492 71.1834 98.5152 71.1514 98.6032C71.1234 98.6952 71.1094 98.8012 71.1094 98.9212C71.1094 99.2412 71.2914 99.4652 71.6554 99.5932C72.0194 99.7252 72.5354 99.7912 73.2034 99.7912C73.7034 99.7912 74.1134 99.7572 74.4334 99.6892C74.7534 99.6212 74.9914 99.5232 75.1474 99.3952C75.3034 99.2672 75.3814 99.1172 75.3814 98.9452C75.3814 98.6852 75.2714 98.5232 75.0514 98.4592C74.8354 98.3992 74.5674 98.3572 74.2474 98.3332L71.8234 98.1532C71.4194 98.1212 71.0894 97.9972 70.8334 97.7812C70.5814 97.5612 70.4554 97.2952 70.4554 96.9832C70.4554 96.7912 70.5014 96.6092 70.5934 96.4372C70.6894 96.2652 70.7994 96.1212 70.9234 96.0052C71.0514 95.8852 71.1654 95.8132 71.2654 95.7892L72.0694 96.1552C71.9694 96.1712 71.8454 96.2412 71.6974 96.3652C71.5534 96.4852 71.4814 96.6272 71.4814 96.7912C71.4814 96.9392 71.5394 97.0612 71.6554 97.1572C71.7714 97.2492 72.0014 97.3092 72.3454 97.3372L74.5954 97.5172ZM75.4774 91.5352H76.4374L76.0414 94.0432C75.9694 94.5112 75.8194 94.9352 75.5914 95.3152C75.3634 95.6912 75.0514 95.9912 74.6554 96.2152C74.2634 96.4352 73.7774 96.5452 73.1974 96.5452C72.5934 96.5452 72.0774 96.4352 71.6494 96.2152C71.2214 95.9952 70.8934 95.6952 70.6654 95.3152C70.4374 94.9312 70.3234 94.4992 70.3234 94.0192C70.3234 93.5312 70.4414 93.0932 70.6774 92.7052C70.9174 92.3132 71.2494 92.0052 71.6734 91.7812C72.0974 91.5532 72.5834 91.4392 73.1314 91.4392C73.6234 91.4392 74.0534 91.5252 74.4214 91.6972C74.7894 91.8652 75.0794 92.0772 75.2914 92.3332C75.5074 92.5892 75.6274 92.8472 75.6514 93.1072L75.2674 93.1312L75.4774 91.5352ZM73.1914 95.6332C73.5794 95.6332 73.9114 95.5692 74.1874 95.4412C74.4674 95.3132 74.6814 95.1272 74.8294 94.8832C74.9814 94.6392 75.0574 94.3432 75.0574 93.9952C75.0574 93.6592 74.9814 93.3692 74.8294 93.1252C74.6814 92.8772 74.4674 92.6872 74.1874 92.5552C73.9114 92.4192 73.5814 92.3512 73.1974 92.3512C72.8294 92.3512 72.5034 92.4212 72.2194 92.5612C71.9394 92.6972 71.7194 92.8892 71.5594 93.1372C71.4034 93.3852 71.3254 93.6772 71.3254 94.0132C71.3254 94.3532 71.3994 94.6452 71.5474 94.8892C71.6994 95.1292 71.9134 95.3132 72.1894 95.4412C72.4694 95.5692 72.8034 95.6332 73.1914 95.6332Z" fill="#391400" fill-opacity="0.6"/>
<path opacity="0.1" d="M118.094 54.8156C117.524 56.0945 116.721 57.214 115.742 58.0967C115.603 58.2263 115.461 58.3512 115.317 58.4736C115.123 58.6321 114.924 58.7878 114.72 58.9408C113.137 60.1094 111.282 60.9083 109.472 61.4908C108.978 61.6494 108.483 61.7984 107.986 61.9378C107.567 62.0559 107.148 62.1661 106.728 62.2683C106.569 62.3088 106.409 62.3468 106.25 62.3872C106.09 62.4276 105.907 62.4669 105.738 62.5061L105.496 62.5596C100.812 63.5642 96.0667 63.7556 91.2866 63.5035L91.0596 63.4905L90.6967 63.4691C89.7262 63.4104 88.7547 63.3355 87.7822 63.2444L87.4142 63.2099L87.2517 63.1944C86.7064 63.1413 86.1612 63.0831 85.616 63.0197C84.8977 62.9404 84.1784 62.8528 83.458 62.757L83.365 62.7451L83.2893 62.7344C80.7183 62.3979 78.1411 61.9937 75.5609 61.5788L75.196 61.5194L74.5407 61.4136L73.9887 61.3244L73.8251 61.2983C72.9541 61.1564 72.0831 61.0161 71.2122 60.8774L71.0711 60.8548C69.4354 60.5945 67.7906 60.3436 66.1509 60.1154L65.9372 60.0857C65.2659 59.9929 64.595 59.9046 63.9244 59.8205L63.4132 59.7575L62.7334 59.6779C60.8494 59.4603 58.9663 59.2868 57.0874 59.1786C56.1837 59.1263 55.278 59.0866 54.3702 59.0597C53.6205 59.0399 52.8708 59.0284 52.1212 59.0252C51.1044 59.0197 50.0855 59.0264 49.0646 59.0454H48.8335C47.3952 59.0728 45.9538 59.1203 44.5114 59.1774L44.2517 59.1869H44.1658C41.099 59.3129 38.0322 59.4805 34.9735 59.6006L34.2262 59.6291H34.1179C33.0547 59.6688 31.9926 59.6993 30.9314 59.7207H30.6503H30.6411H30.2997L29.8253 59.7278C29.3326 59.7334 28.8409 59.7365 28.3502 59.7373H27.7481C25.9468 59.7314 24.1527 59.685 22.3699 59.5768L22.1716 59.5638C18.7071 59.3462 15.2814 58.8968 11.9171 58.0801C11.5689 57.9953 11.2213 57.9065 10.8744 57.8138C8.54966 57.2077 6.26706 56.4006 4.04561 55.3993C2.9988 54.9238 1.94586 54.3745 1.1495 53.4449C-0.870513 51.0672 -0.111984 46.4106 2.51629 45.0565C4.57208 43.9973 6.98056 44.8592 9.19174 44.3813C9.32761 44.3511 9.46177 44.3114 9.5935 44.2624C9.8746 44.157 10.1481 44.0258 10.4113 43.8701C10.5013 43.8178 10.5912 43.7619 10.6822 43.7036C10.8867 43.574 11.0911 43.4302 11.2874 43.2733C11.6083 43.0251 11.9156 42.7539 12.2075 42.4613C12.3369 42.3329 12.463 42.1998 12.5857 42.0619C13.0102 41.5981 13.3851 41.0764 13.702 40.5081C13.8174 40.2931 13.9199 40.069 14.0087 39.8376C14.0568 39.7187 14.0997 39.5903 14.1355 39.4667C14.1889 39.2878 14.2296 39.1041 14.2571 38.9174C14.3859 38.0353 14.1774 37.1746 13.4516 36.447C13.3866 36.3825 13.3183 36.3226 13.2471 36.2675C13.1065 36.1541 12.9581 36.0543 12.8034 35.9691C12.7411 35.9346 12.6767 35.9014 12.6113 35.8693C11.6769 35.4116 10.4716 35.2356 9.45549 34.9182C9.14582 34.8269 8.84348 34.7048 8.5518 34.5532C8.36677 34.4534 8.18276 34.3488 8.00181 34.2394L7.95377 34.2085C6.40869 33.2821 5.04991 31.9855 3.96689 30.4042C3.69767 30.0046 3.44981 29.5862 3.22472 29.1512C3.15623 29.0204 3.08978 28.8861 3.0264 28.7518C1.23026 24.9832 1.04523 20.1542 2.91395 16.4486C3.14097 15.999 3.3937 15.5677 3.67043 15.1575C3.76039 15.022 3.85342 14.8889 3.94952 14.7581C5.72827 12.3174 8.28396 10.6638 10.8642 9.43927C14.3277 7.79631 17.9537 6.75847 21.6492 6.07489C22.3989 5.9362 23.1485 5.81177 23.8982 5.7016C27.0366 5.23558 30.2118 4.98831 33.3645 4.80047C36.3134 4.6269 39.2753 4.51476 42.2501 4.46403C43.258 4.44818 44.267 4.44145 45.277 4.44382C47.5526 4.44382 49.8282 4.49494 52.1038 4.59718C52.8535 4.63047 53.6031 4.6701 54.3528 4.71607C56.2754 4.83178 58.1942 4.99029 60.1092 5.1916C61.0293 5.28829 61.9473 5.39489 62.8632 5.51139C69.8392 6.39825 76.7141 7.90212 83.3517 10.2405C84.1048 10.5053 84.8544 10.7826 85.6007 11.0727C88.392 12.1415 91.1349 13.3743 93.8188 14.7664C94.0723 14.8988 94.3251 15.0319 94.5773 15.1659C96.2531 16.0598 97.9051 17.0232 99.5333 18.0559C101.682 19.4006 103.752 20.9098 105.728 22.5734C106.5 23.2312 107.249 23.9176 107.977 24.6325C109.264 25.8945 110.464 27.2714 111.566 28.7506C111.665 28.8829 111.762 29.0161 111.858 29.15C112.357 29.8467 112.83 30.5683 113.279 31.3149C115.466 34.9717 116.934 39.154 118.018 43.4266C118.974 47.1548 119.61 51.3407 118.094 54.8156Z" fill="#6C63FF"/>
<path opacity="0.1" d="M116.719 42.0619H107.985V29.1429H111.87C111.774 29.009 111.677 28.8758 111.579 28.7435H107.989V24.6254C107.263 23.9121 106.513 23.2257 105.74 22.5663V28.7482H85.6068V15.1576H94.5834C94.3305 15.0236 94.0777 14.8905 93.8248 14.7581H85.6068V11.0644C84.8571 10.7767 84.1074 10.4994 83.3578 10.2323V14.7498H54.6237L54.5552 14.6737L62.8673 5.49836C61.9513 5.38106 61.0333 5.27446 60.1133 5.17856L54.3568 11.5317V4.70779C53.6072 4.66182 52.8575 4.62219 52.1078 4.58891V11.9703L45.2811 4.43555C44.2718 4.43555 43.2628 4.44228 42.2541 4.45576L51.5118 14.6737L51.4434 14.7498H23.9002V5.7064C23.1505 5.81657 22.4009 5.941 21.6512 6.07969V14.7581H3.94947C3.85337 14.8889 3.76035 15.022 3.67039 15.1576H21.6491V28.7435H3.02226C3.08564 28.8778 3.15209 29.0122 3.22058 29.1429H21.6491V42.0619H12.5846C12.462 42.1998 12.3359 42.333 12.2064 42.4613H21.6491V55.6811C22.3988 55.8055 23.1485 55.9355 23.8981 56.071V42.4613H52.1058V59.0253C52.8555 59.0253 53.6051 59.0368 54.3548 59.0597V42.4613H83.3557V62.7392L83.4488 62.7511C84.1684 62.8446 84.8878 62.9321 85.6068 63.0138V42.4613H105.734V62.5002C105.906 62.4634 106.078 62.4241 106.245 62.3813C106.413 62.3385 106.564 62.3064 106.724 62.2624C107.144 62.1586 107.563 62.0485 107.982 61.932V42.4613H116.786C116.764 42.3282 116.741 42.1951 116.719 42.0619ZM52.1058 42.0619H23.9002V29.1429H52.1058V42.0619ZM52.1058 28.747H23.9002V15.1576H51.7061L52.1027 15.5214L52.1058 28.747ZM83.3557 42.0619H54.3568V29.1429H83.3557V42.0619ZM83.3557 28.747H54.3568V15.1576H83.3557V28.747ZM105.734 42.0619H85.6068V29.1429H105.734V42.0619Z" fill="#6C63FF"/>
<path d="M30.3804 60.3018C30.3804 60.315 30.3722 60.3283 30.3692 60.3416C30.3692 60.3283 30.3763 60.315 30.3814 60.3018H30.3804Z" fill="#EAECF0"/>
<path d="M30.914 59.7314H30.6329H30.6237H30.2823L29.8079 59.7386L29.7558 59.1122L29.7077 58.5179L29.4849 55.8069L29.4777 55.7237V55.6868L29.4154 54.9238L30.3702 54.5078L30.4867 55.6143L30.4949 55.6964V55.7059L30.731 57.9522L30.8036 58.6416L30.8455 59.0421L30.8813 59.3856V59.3975L30.914 59.7314Z" fill="#EAECF0"/>
<path d="M34.3417 60.3008L34.353 60.3406H34.2773L34.2661 60.3008H34.3417Z" fill="#3A3768"/>
<path d="M49.1484 44.6377C49.1484 44.6615 49.1484 44.6746 49.1484 44.6746V44.6889C49.1484 44.6889 48.2569 47.5218 47.9666 49.9399C47.9468 50.0984 47.9305 50.2569 47.9175 50.4155C47.9032 50.5831 47.892 50.7471 47.8858 50.9064C47.8777 51.0931 47.8756 51.2738 47.8797 51.4462C47.8797 51.4854 47.8797 51.5258 47.8797 51.565C47.8797 51.6447 47.8869 51.7267 47.891 51.8111C47.895 51.8955 47.9012 51.9799 47.9073 52.0679C47.9134 52.1559 47.9196 52.2332 47.9267 52.3176C48.1465 54.933 48.9817 58.7622 48.9817 58.7622C48.9817 58.7622 49.0093 58.8656 49.0451 59.0416H48.8141C47.3757 59.0689 45.9343 59.1165 44.4919 59.1735L44.2322 59.183H44.1464C41.0795 59.3091 38.0127 59.4767 34.9541 59.5968L34.2068 59.6253H34.0984C33.0352 59.6649 31.9731 59.6954 30.912 59.7168H30.6309C30.703 59.5986 30.7859 59.4897 30.8782 59.3923C30.9559 59.3086 31.0397 59.233 31.1287 59.1664C31.6145 58.8141 32.1437 58.5499 32.6979 58.383C32.8147 58.3458 32.9356 58.3286 33.0567 58.3318L33.7723 58.3485H33.8827L34.9806 58.3735L44.3978 58.591H44.4214L44.4878 58.5756C44.5971 58.5439 44.7036 58.5001 44.8057 58.4448C44.9826 58.358 45.1373 58.2196 45.2547 58.043C45.3722 57.8664 45.4485 57.6576 45.4763 57.4367C45.4763 57.3998 45.4845 57.3606 45.4866 57.3178C45.4896 57.26 45.4896 57.202 45.4866 57.1442C45.4866 57.1038 45.4866 57.061 45.4784 57.017C45.4702 56.973 45.4682 56.929 45.461 56.8839C45.2341 55.4085 44.8476 50.8672 44.8476 50.8672V50.8815C44.8476 50.8815 44.8476 50.6877 44.8568 50.362C44.8568 50.337 44.8568 50.3096 44.8568 50.2823V50.2122C44.8568 50.1396 44.864 50.0612 44.8681 49.9744C44.8681 49.9233 44.8742 49.871 44.8773 49.8163C44.8824 49.7366 44.8885 49.6546 44.8947 49.569C44.8942 49.5639 44.8942 49.5587 44.8947 49.5536C44.8988 49.4997 44.9028 49.445 44.9069 49.3895C44.9069 49.3895 44.9069 49.3776 44.9069 49.3717C45.0593 47.6181 45.5387 44.8422 47.0537 43.8139C47.7642 43.33 48.2344 43.2326 48.5442 43.3277C48.996 43.4656 49.1095 44.0124 49.134 44.3679C49.134 44.3917 49.134 44.4143 49.134 44.4368C49.1422 44.5034 49.1469 44.5705 49.1484 44.6377Z" fill="#3A3768"/>
<path opacity="0.1" d="M30.3804 60.3018C30.3804 60.315 30.3722 60.3283 30.3692 60.3416C30.3692 60.3283 30.3763 60.315 30.3814 60.3018H30.3804Z" fill="black"/>
<path opacity="0.1" d="M34.3417 60.3008L34.353 60.3406H34.2773L34.2661 60.3008H34.3417Z" fill="black"/>
<path opacity="0.1" d="M49.1483 44.6382C49.1483 44.662 49.1483 44.6751 49.1483 44.6751C49.1483 44.6751 48.4133 47.0111 48.0627 49.2509C48.0382 49.4094 48.0157 49.5628 47.9952 49.711C47.985 49.7871 47.9758 49.8631 47.9666 49.9392C47.9468 50.0977 47.9305 50.2562 47.9175 50.4147C47.9032 50.5824 47.892 50.7464 47.8858 50.9057C47.8777 51.0924 47.8756 51.2731 47.8797 51.4455C47.8797 51.4847 47.8797 51.5251 47.8797 51.5643C47.8797 51.644 47.8869 51.726 47.891 51.8104C47.895 51.8948 47.9012 51.9804 47.9073 52.0672C47.9134 52.154 47.9196 52.2325 47.9267 52.3169C47.9339 52.4013 47.941 52.4821 47.9492 52.5653C47.9819 52.9018 48.0228 53.2549 48.0699 53.6139C48.3898 56.0355 48.9817 58.7484 48.9817 58.7484C48.9817 58.7484 49.0114 58.8578 49.0471 59.0409H48.8161C47.3778 59.0682 45.9364 59.1158 44.4939 59.1728L44.2343 59.1823H44.1484C41.0816 59.3084 38.0148 59.476 34.9561 59.5961L34.2088 59.6246H34.1005C33.0373 59.6642 31.9751 59.6947 30.914 59.7161H30.6329H30.6237C30.698 59.5934 30.7837 59.4806 30.8793 59.3797C30.9567 59.2946 31.0409 59.2181 31.1307 59.1514C31.617 58.8001 32.146 58.536 32.6999 58.368C32.8169 58.3318 32.9377 58.315 33.0588 58.3181L33.7744 58.3347H33.8848L34.9857 58.3597L44.4101 58.576H44.4265C44.4265 58.576 44.4541 58.576 44.5001 58.5582C44.6104 58.5264 44.7176 58.4813 44.82 58.4239C44.993 58.3375 45.1444 58.2016 45.26 58.0289C45.3757 57.8561 45.4519 57.6522 45.4814 57.436C45.4814 57.3991 45.4896 57.3599 45.4917 57.3171C45.4948 57.2593 45.4948 57.2013 45.4917 57.1435C45.4917 57.1031 45.4917 57.0603 45.4835 57.0163C45.4753 56.9723 45.4733 56.92 45.4661 56.8701C45.2392 55.3947 44.8527 50.8534 44.8527 50.8534C44.8527 50.8534 44.8527 50.6596 44.8619 50.3339C44.8619 50.3089 44.8619 50.2816 44.8619 50.2543V50.1841C44.8619 50.1116 44.8691 50.0331 44.8732 49.9464C44.8732 49.8952 44.8793 49.8429 44.8824 49.7882C44.8875 49.7086 44.8936 49.6266 44.8998 49.541C44.8993 49.5358 44.8993 49.5306 44.8998 49.5255C44.9039 49.4716 44.908 49.4169 44.912 49.3615C44.912 49.3615 44.912 49.3496 44.912 49.3436C44.9304 49.1249 44.955 48.8895 44.9856 48.6434C45.1983 46.922 45.7299 44.6739 47.0547 43.7692C47.7468 43.2937 48.2099 43.1938 48.5207 43.2758C48.9991 43.4031 49.1126 43.9761 49.134 44.3375C49.134 44.3612 49.134 44.3838 49.134 44.4064C49.1433 44.4832 49.148 44.5607 49.1483 44.6382Z" fill="black"/>
<path d="M30.3804 60.3018C30.3804 60.315 30.3722 60.3283 30.3692 60.3416C30.3692 60.3283 30.3763 60.315 30.3814 60.3018H30.3804Z" fill="#3A3768"/>
<path d="M34.3417 60.3008L34.353 60.3406H34.2773L34.2661 60.3008H34.3417Z" fill="#3A3768"/>
<path d="M48.8867 44.5375C48.8867 44.5375 47.5526 48.7768 47.617 51.3138C47.6814 53.8507 48.7231 58.6179 48.7231 58.6179C48.7231 58.6179 48.7681 58.7855 48.8161 59.053C47.3778 59.0804 45.9364 59.1279 44.4939 59.185L44.2343 59.1945H44.1484C41.0816 59.3205 38.0148 59.4881 34.9561 59.6082L34.2088 59.6367H34.1005C33.0373 59.6764 31.9751 59.7069 30.914 59.7283H30.6329H30.6237H30.2823C30.4229 59.4538 30.6147 59.2194 30.8435 59.0423L30.8711 59.0197C31.3578 58.6742 31.8865 58.4157 32.4393 58.2529C32.5563 58.2168 32.677 58.2 32.7981 58.203L33.7427 58.2244H33.8531L34.9909 58.2506L44.1658 58.4634C44.297 58.4347 44.4245 58.3864 44.545 58.3195C44.5851 58.2981 44.624 58.2739 44.6616 58.247C44.7767 58.1699 44.8803 58.0715 44.9683 57.9557C45.1615 57.7001 45.2903 57.3197 45.2044 56.7669C44.9764 55.2916 44.591 50.7503 44.591 50.7503C44.591 50.7503 44.5256 45.2246 46.8033 43.6732C47.7233 43.0467 48.2406 43.0681 48.5299 43.3165C48.5385 43.3229 48.5467 43.33 48.5544 43.3379C48.9531 43.7112 48.8867 44.5375 48.8867 44.5375Z" fill="#3A3768"/>
<path d="M12.1767 54.9395L12.1399 55.3828L11.9171 58.1036C11.5688 58.0188 11.2213 57.9301 10.8744 57.8374L11.135 55.3638L11.223 54.5234L12.1767 54.9395Z" fill="#EAECF0"/>
<path d="M5.63418 54.06L11.2015 40.2803L33.6271 42.3144L35.6942 54.06H5.63418Z" fill="#EFC6CD"/>
<path d="M5.63418 55.2609V54.0596H35.6942V55.8158L5.63418 55.2609Z" fill="#D48A9B"/>
<path d="M14.1109 52.0462L27.5599 52.3648C27.5897 52.3656 27.6192 52.358 27.646 52.3428C27.6728 52.3276 27.696 52.3051 27.7137 52.2772C27.7315 52.2494 27.7432 52.217 27.7479 52.1828C27.7526 52.1486 27.7502 52.1136 27.7409 52.0807L25.6442 45.5046L16.5858 45.3037L13.9064 51.6824C13.8914 51.7219 13.8852 51.7652 13.8882 51.8082C13.8912 51.8512 13.9035 51.8927 13.9238 51.9288C13.9441 51.965 13.9718 51.9946 14.0045 52.0151C14.0372 52.0356 14.0738 52.0463 14.1109 52.0462Z" fill="#DFE6F5"/>
<path opacity="0.15" d="M14.1109 52.0462L27.5599 52.3648C27.5897 52.3656 27.6192 52.358 27.646 52.3428C27.6728 52.3276 27.696 52.3051 27.7137 52.2772C27.7315 52.2494 27.7432 52.217 27.7479 52.1828C27.7526 52.1486 27.7502 52.1136 27.7409 52.0807L25.6442 45.5046L16.5858 45.3037L13.9064 51.6824C13.8914 51.7219 13.8852 51.7652 13.8882 51.8082C13.8912 51.8512 13.9035 51.8927 13.9238 51.9288C13.9441 51.965 13.9718 51.9946 14.0045 52.0151C14.0372 52.0356 14.0738 52.0463 14.1109 52.0462Z" fill="black"/>
<path d="M14.0025 51.7713L27.5906 52.1041L25.7434 45.5982C25.7135 45.4928 25.6563 45.4007 25.5796 45.3347C25.5029 45.2687 25.4104 45.232 25.315 45.2297L16.5827 45.0371L14.0025 51.7713Z" fill="#DFE6F5"/>
<path d="M15.125 50.2985L16.7535 46.1326C16.7881 46.0448 16.8437 45.9703 16.9136 45.918C16.9836 45.8658 17.0649 45.838 17.1481 45.8379H21.1953C21.3099 45.8379 21.4199 45.8909 21.501 45.9851C21.5821 46.0794 21.6277 46.2073 21.6277 46.3406V50.8416C21.6276 50.9098 21.6157 50.9772 21.5925 51.0398C21.5694 51.1024 21.5356 51.1589 21.4932 51.2059C21.4508 51.2529 21.4006 51.2894 21.3457 51.3132C21.2908 51.337 21.2323 51.3476 21.1738 51.3444L15.4971 51.008C15.4267 51.0039 15.3583 50.9799 15.2977 50.938C15.2372 50.8961 15.1864 50.8376 15.1497 50.7676C15.113 50.6977 15.0916 50.6184 15.0873 50.5366C15.083 50.4549 15.0959 50.3731 15.125 50.2985Z" fill="#4C4C56"/>
<path d="M23.1069 49.771L23.1764 47.3937C23.1783 47.2986 23.212 47.2081 23.2705 47.1414C23.3289 47.0748 23.4074 47.0374 23.4892 47.0371H24.6853C24.7588 47.0375 24.8298 47.068 24.8859 47.1232C24.9419 47.1784 24.9795 47.2548 24.992 47.339L25.3436 49.7032C25.3514 49.7554 25.3492 49.8088 25.3374 49.8599C25.3256 49.911 25.3043 49.9584 25.2752 49.999C25.246 50.0396 25.2096 50.0724 25.1685 50.095C25.1273 50.1176 25.0825 50.1295 25.037 50.1299L23.4187 50.1466C23.3768 50.1465 23.3354 50.1365 23.2969 50.1175C23.2584 50.0984 23.2236 50.0705 23.1945 50.0355C23.1654 50.0004 23.1427 49.959 23.1276 49.9135C23.1126 49.8681 23.1055 49.8196 23.1069 49.771Z" fill="#D1D9EC"/>
<path d="M7.26164 34.3068L11.7709 33.8693C11.8368 33.8592 11.9037 33.8742 11.9616 33.9122C12.0195 33.9501 12.0652 34.0089 12.0919 34.0797L16.3558 45.3034L13.9759 51.5162C14.0506 51.3213 14.1058 52.8382 13.567 51.5234L6.79037 35.0831C6.69939 34.8631 7.05003 34.3377 7.26164 34.3068Z" fill="#4C4C56"/>
<path opacity="0.15" d="M7.26164 34.3068L11.7709 33.8693C11.8368 33.8592 11.9037 33.8742 11.9616 33.9122C12.0195 33.9501 12.0652 34.0089 12.0919 34.0797L16.3558 45.3034L13.9759 51.5162C14.0506 51.3213 14.1058 52.8382 13.567 51.5234L6.79037 35.0831C6.69939 34.8631 7.05003 34.3377 7.26164 34.3068Z" fill="black"/>
<path d="M7.26164 34.3074L11.9999 33.6036C12.0658 33.5935 12.1327 33.6086 12.1906 33.6465C12.2485 33.6845 12.2942 33.7433 12.3209 33.8141L16.5858 45.0378L14.0056 51.7725L7.01936 34.8174C6.99796 34.7661 6.98747 34.7095 6.98878 34.6524C6.99009 34.5953 7.00317 34.5394 7.02691 34.4895C7.05065 34.4395 7.08436 34.3969 7.12521 34.3652C7.16606 34.3335 7.21285 34.3137 7.26164 34.3074Z" fill="#4C4C56"/>
<path d="M8.44442 35.0966L11.8701 34.4761C11.9385 34.4635 12.0087 34.4782 12.069 34.518C12.1294 34.5577 12.1763 34.62 12.2023 34.6948L15.7905 44.9021C15.8052 44.9437 15.8122 44.9885 15.8112 45.0336C15.8101 45.0786 15.801 45.1229 15.7844 45.1636L14.1416 49.1557C14.1192 49.2112 14.0838 49.2581 14.0393 49.291C13.9949 49.3239 13.9433 49.3414 13.8906 49.3414C13.8379 49.3414 13.7863 49.3239 13.7418 49.291C13.6974 49.2581 13.6619 49.2112 13.6396 49.1557L8.21236 35.6031C8.19169 35.5527 8.18147 35.4974 8.18253 35.4415C8.1836 35.3857 8.19591 35.331 8.21848 35.2817C8.24106 35.2325 8.27326 35.1901 8.3125 35.1579C8.35174 35.1258 8.39693 35.1048 8.44442 35.0966Z" fill="#6C63FF"/>
<path d="M44.9959 58.0951C44.9959 58.0951 44.9253 58.2306 44.8221 58.4518L44.8129 58.472C44.7209 58.6622 44.6084 58.9118 44.4939 59.1853L44.2343 59.1948H44.1484C41.0816 59.3208 38.0147 59.4884 34.9561 59.6085L34.2088 59.637H34.1005C33.0373 59.6767 31.9751 59.7072 30.914 59.7286H30.6329H30.6237H30.2823L29.8079 59.7357C29.3152 59.7412 28.8235 59.7444 28.3328 59.7452H27.748C25.9468 59.7393 24.1527 59.6929 22.3698 59.5847L22.1715 59.5716C22.5222 58.6848 23.1488 57.2308 23.6579 56.766C24.0515 56.4094 26.8781 56.0135 29.4777 55.7234L29.7517 55.6925H29.7578L30.4836 55.614C31.4783 55.5082 32.381 55.4226 33.025 55.3644L33.0843 55.3584L32.749 54.0507L32.2634 52.1486L32.4014 50.5508L32.4127 50.4224H32.3973C32.2589 50.4395 32.119 50.4192 31.9884 50.363L27.1336 50.168H27.0457L25.1811 50.0907C24.1813 50.0491 23.4708 50.0182 23.4432 50.0123C23.4139 50.0066 23.3851 49.9974 23.3574 49.9849C23.3138 49.9657 23.2737 49.9375 23.2388 49.9017C23.198 49.8612 23.1634 49.813 23.1366 49.7591H23.1161H23.0711L22.8074 49.7793L22.6735 49.79C22.6683 49.7733 22.6643 49.7567 22.6591 49.7412C22.6469 49.6949 22.6346 49.6509 22.6234 49.6057H22.5528L21.6328 49.5831H21.6164C21.6164 49.5831 19.2427 49.7935 18.0027 49.2681C17.5478 49.0755 17.2452 48.7842 17.2687 48.3479C17.2738 48.2487 17.2918 48.1509 17.3218 48.0579C16.9232 47.1912 18.8706 45.6101 20.3549 46.0464C20.756 46.1797 21.1786 46.2001 21.5878 46.1058C21.8099 46.0499 22.0191 45.9393 22.2012 45.7812C22.2196 45.7658 22.2359 45.7503 22.2513 45.7349C22.2267 45.7171 22.2012 45.7016 22.1777 45.6873C22.0759 45.625 21.9667 45.5809 21.8536 45.5566L22.2564 45.4198H22.2625C22.2625 45.4198 23.6937 45.2677 24.625 45.2071H24.6311C24.9082 45.1904 25.1423 45.1797 25.2813 45.1845C25.8946 45.2047 27.0897 44.6947 27.1408 44.5377C27.1919 44.3808 27.7378 44.5377 27.7378 44.5377L28.2152 44.3214C28.6926 44.1062 28.9656 43.8126 28.9656 43.5962C28.9656 43.3798 29.3919 43.1456 29.3919 43.1456C29.584 42.77 29.9613 42.3669 30.3569 42.0103C30.6993 41.7024 31.0551 41.4278 31.3188 41.2364C31.4211 40.4662 31.5576 39.7028 31.7278 38.9491C31.9087 38.2465 32.4699 37.7258 32.6713 37.557L32.7449 37.4999C32.6885 37.2038 32.6133 36.9129 32.52 36.6297C32.5132 36.6059 32.505 36.5821 32.4955 36.5583C32.475 36.5025 32.4536 36.4478 32.4321 36.3967L32.4004 36.3253C32.3483 36.3372 32.2982 36.3479 32.243 36.3562C32.0737 36.3851 31.9029 36.3998 31.7318 36.4002C30.9653 36.4035 30.219 36.1147 29.607 35.578C28.9949 35.0412 28.551 34.2861 28.343 33.4282C28.343 33.4282 28.343 33.4282 28.343 33.421C28.261 33.0724 28.2197 32.7125 28.2203 32.3511C28.2199 32.0042 28.259 31.6588 28.3369 31.3239C28.3522 31.2526 28.3706 31.1825 28.39 31.1123C28.392 31.1042 28.3943 31.0963 28.3972 31.0885C28.4064 31.0565 28.4156 31.0232 28.4258 30.9911C28.2745 31.0178 28.1219 31.0333 27.9688 31.0374H27.8666C27.5747 31.0501 27.2837 30.9939 27.011 30.8722C26.9449 30.8394 26.8816 30.7996 26.8219 30.7533C26.8187 30.7516 26.8159 30.7492 26.8137 30.7462C26.736 30.6934 26.6651 30.6281 26.6031 30.5524C26.7169 30.4511 26.8122 30.3245 26.8836 30.18C26.955 30.0355 27.0011 29.876 27.0192 29.7107C27.0468 29.4539 27.01 29.1674 27.1418 28.9582C27.2093 28.8637 27.2902 28.7833 27.381 28.7204C27.9249 28.2889 28.3563 27.6968 28.848 27.1868C29.3397 26.6768 29.9347 26.2358 30.5961 26.212C31.4834 26.1799 32.2644 26.8979 33.1436 27.0335C33.4135 27.0751 33.6905 27.0608 33.9543 27.1393C34.2498 27.2467 34.5279 27.4107 34.7772 27.6243C35.0023 27.7732 35.2014 27.97 35.364 28.2045C35.4769 28.4078 35.5579 28.6328 35.6032 28.869C35.7171 29.3669 35.7856 29.8773 35.8077 30.3919C35.8312 30.9304 35.8077 31.4725 35.8567 32.0075C35.8915 32.4722 36.0265 32.9191 36.2493 33.3069H36.2626C36.3014 33.3703 36.3437 33.4306 36.3893 33.4876C36.3024 33.5197 36.2155 33.5482 36.1266 33.5732C35.9788 33.6172 35.8289 33.6518 35.6778 33.6766C35.6085 33.6899 35.5385 33.6967 35.4683 33.6968C35.4195 33.6983 35.3708 33.6931 35.3231 33.6814L35.4131 33.7515L35.6625 33.9465L35.7565 34.019L35.9457 34.1652C35.9886 34.019 36.0479 33.9798 36.1164 33.9893C36.2554 33.8371 36.4629 34.1664 36.4629 34.1664C36.5846 34.4375 36.9117 34.7073 37.201 34.9071C37.3711 35.0235 37.5461 35.1298 37.7254 35.2257C41.5457 37.8732 41.3034 41.8343 41.5283 42.1482C41.7532 42.462 41.7675 43.5986 41.7675 43.5986C41.7675 43.5986 42.3308 47.4611 42.5853 47.7951C42.8399 48.1292 42.6017 48.2457 42.8235 48.619C43.0454 48.9923 42.9943 49.9909 42.9943 49.9909C42.9943 49.9909 43.1476 52.3436 43.6935 52.8536C44.1832 53.3113 44.8374 57.1619 44.9672 57.9489L44.9959 58.0951Z" fill="url(#paint0_linear_381_179)"/>
<path d="M22.605 45.7031C22.605 45.7031 22.0744 46.6743 20.5717 46.2274C19.0689 45.7804 17.0806 47.4708 17.648 48.3053C18.2153 49.1397 21.874 48.0675 21.874 48.0675L23.2776 47.737L23.1856 46.3783L22.605 45.7031Z" fill="#D38884"/>
<path opacity="0.1" d="M22.605 45.7031C22.605 45.7031 22.0744 46.6743 20.5717 46.2274C19.0689 45.7804 17.0806 47.4708 17.648 48.3053C18.2153 49.1397 21.874 48.0675 21.874 48.0675L23.2776 47.737L23.1856 46.3783L22.605 45.7031Z" fill="black"/>
<path d="M23.0936 45.6506L22.4424 45.6113L22.0417 45.7469C22.0417 45.7469 23.3114 45.9609 22.9617 47.962L24.3306 47.8657L23.0936 45.6506Z" fill="#A36468"/>
<path opacity="0.1" d="M23.0936 45.6506L22.4424 45.6113L22.0417 45.7469C22.0417 45.7469 23.3114 45.9609 22.9617 47.962L24.3306 47.8657L23.0936 45.6506Z" fill="black"/>
<path d="M31.7134 41.1758C31.7134 41.1758 29.9265 42.3645 29.4246 43.3523C29.4246 43.3523 29.0075 43.5901 29.0075 43.7993C29.0075 44.0085 28.7396 44.3033 28.2725 44.5125L27.8043 44.7265C27.8043 44.7265 27.2696 44.5708 27.2195 44.7265C27.1694 44.8822 26.001 45.3863 25.3989 45.3672C24.7967 45.3482 22.4424 45.605 22.4424 45.605C22.8736 45.8326 23.2256 46.2235 23.441 46.7138C23.6564 47.2042 23.7224 47.765 23.6283 48.3046L29.1915 48.0336L31.2953 47.4891L32.5323 46.052L31.7134 41.1758Z" fill="#444053"/>
<path opacity="0.1" d="M31.7134 41.1758C31.7134 41.1758 29.9265 42.3645 29.4246 43.3523C29.4246 43.3523 29.0075 43.5901 29.0075 43.7993C29.0075 44.0085 28.7396 44.3033 28.2725 44.5125L27.8043 44.7265C27.8043 44.7265 27.2696 44.5708 27.2195 44.7265C27.1694 44.8822 26.001 45.3863 25.3989 45.3672C24.7967 45.3482 22.4424 45.605 22.4424 45.605C22.8736 45.8326 23.2256 46.2235 23.441 46.7138C23.6564 47.2042 23.7224 47.765 23.6283 48.3046L29.1915 48.0336L31.2953 47.4891L32.5323 46.052L31.7134 41.1758Z" fill="black"/>
<path d="M23.5158 49.7709L22.7287 49.7531L21.8086 49.7305C21.8086 49.7305 17.4639 50.1192 17.5488 48.5039C17.6336 46.8885 20.9755 46.3215 21.4406 46.7851C21.7933 47.1357 22.6091 47.4186 22.9812 47.5339C23.0998 47.5708 23.1723 47.591 23.1723 47.591L23.5158 49.7709Z" fill="#D38884"/>
<path opacity="0.1" d="M23.5158 49.7722L22.7287 49.7544C22.4148 48.5 22.7788 47.8092 22.9853 47.5381C23.1038 47.5749 23.1764 47.5952 23.1764 47.5952L23.5158 49.7722Z" fill="black"/>
<path d="M24.0464 49.8402L23.2286 49.9067L22.8401 49.9376C22.3054 48.1118 23.1693 47.3926 23.1693 47.3926H23.4248L23.8429 47.4508L24.0464 49.8402Z" fill="#A36468"/>
<path d="M33.9522 37.7184L32.9831 39.8581C32.9831 39.8581 32.8349 37.691 32.4035 36.6699C32.2931 36.4084 32.1643 36.2229 32.014 36.1671C31.6051 36.0173 33.9563 33.0205 33.9563 33.0205C34.035 33.0395 34.4848 33.3771 35.0358 33.8134C35.642 34.2889 36.372 34.869 36.8626 35.2399C37.7939 35.9305 33.9522 37.7184 33.9522 37.7184Z" fill="#D38884"/>
<path d="M32.7091 37.7598C32.7091 37.7598 31.9302 38.3411 31.7134 39.1958C31.4967 40.0505 31.2953 41.5851 31.2953 41.5851C31.2953 41.5851 31.647 45.2559 31.83 45.4306C32.013 45.6054 32.7091 49.2762 32.7091 49.2762L33.3838 48.752L32.4986 44.129C32.4986 44.129 33.0874 38.1889 32.7091 37.7598Z" fill="#444053"/>
<path opacity="0.1" d="M32.7091 37.7598C32.7091 37.7598 31.9302 38.3411 31.7134 39.1958C31.4967 40.0505 31.2953 41.5851 31.2953 41.5851C31.2953 41.5851 31.647 45.2559 31.83 45.4306C32.013 45.6054 32.7091 49.2762 32.7091 49.2762L33.3838 48.752L32.4986 44.129C32.4986 44.129 33.0874 38.1889 32.7091 37.7598Z" fill="black"/>
<path d="M36.099 45.9487H32.2052L32.8359 38.8057H36.099V45.9487Z" fill="#A36468"/>
<path d="M27.0774 60.3018H27.1245L27.0365 60.3416L27.0774 60.3018Z" fill="#67647E"/>
<path d="M34.4031 57.0476L33.6415 57.3876L33.5392 57.4315L30.7975 58.6569L29.7517 59.124L28.3287 59.7599H27.748C25.9468 59.7539 24.1527 59.7076 22.3699 59.5994C22.7154 58.7187 23.3195 57.3091 23.8123 56.8539C24.1967 56.4973 26.9466 56.1123 29.4849 55.8222C29.8018 55.7866 30.1146 55.7521 30.4192 55.72L30.4918 55.7117C31.4998 55.6047 32.4117 55.518 33.0475 55.4586L33.1497 55.449L33.9492 55.3777L34.033 55.2803L34.1352 55.789L34.2201 56.1955L34.4031 57.0476Z" fill="#67647E"/>
<path opacity="0.1" d="M27.0774 60.3018H27.1245L27.0365 60.3416L27.0774 60.3018Z" fill="black"/>
<path opacity="0.1" d="M34.4031 57.0476L33.6415 57.3876L33.5392 57.4315L30.7975 58.6569L29.7517 59.124L28.3287 59.7599H27.748C25.9468 59.7539 24.1527 59.7076 22.3699 59.5994C22.7154 58.7187 23.3195 57.3091 23.8123 56.8539C24.1967 56.4973 26.9466 56.1123 29.4849 55.8222C29.8018 55.7866 30.1146 55.7521 30.4192 55.72L30.4918 55.7117C31.4998 55.6047 32.4117 55.518 33.0475 55.4586L33.1497 55.449L33.9492 55.3777L34.033 55.2803L34.1352 55.789L34.2201 56.1955L34.4031 57.0476Z" fill="black"/>
<path d="M27.0774 60.3018H27.1245L27.0365 60.3416L27.0774 60.3018Z" fill="#67647E"/>
<path d="M30.3804 60.3018C30.3804 60.315 30.3722 60.3283 30.3692 60.3416C30.3692 60.3283 30.3763 60.315 30.3814 60.3018H30.3804Z" fill="#67647E"/>
<path d="M34.353 60.3406H34.2773L34.2661 60.3008H34.3417L34.353 60.3406Z" fill="#67647E"/>
<path d="M35.0542 55.8055L34.9909 58.2517V58.3836V58.3967L34.9592 59.6079L34.2119 59.6365H34.1035C33.0404 59.6761 31.9782 59.7066 30.9171 59.728H30.636H30.6268H30.2853L29.811 59.7351C29.3183 59.7407 28.8265 59.7438 28.3358 59.7446H27.748C28.2796 59.3619 28.9676 58.9399 29.7077 58.518C30.04 58.3278 30.3845 58.1388 30.73 57.9522C31.6501 57.4553 32.5814 56.9858 33.3409 56.6114L33.438 56.5638C33.7324 56.4188 33.9993 56.2893 34.2272 56.1799C34.72 55.9422 35.0328 55.7995 35.0542 55.79V55.8055Z" fill="#67647E"/>
<path opacity="0.1" d="M28.2265 45.7503C28.4176 46.2138 28.6149 46.6868 28.9308 47.048C28.9809 47.1051 29.0678 47.1574 29.1128 47.0944C29.1269 47.0681 29.1337 47.0374 29.1322 47.0064C29.1224 46.788 29.0585 46.5775 28.9482 46.4003C28.846 46.2173 28.7253 46.0509 28.6344 45.8608C28.5434 45.6706 28.4391 45.3046 28.2346 45.2547C27.9719 45.1905 28.1682 45.61 28.2265 45.7503Z" fill="black"/>
<path opacity="0.1" d="M35.0317 33.8104C35.0174 33.8698 35.0021 33.9293 34.9857 33.9863C34.7971 34.6583 34.4588 35.2603 34.0053 35.7311C33.5517 36.2019 32.9991 36.5247 32.4035 36.6667C32.2931 36.4052 32.1643 36.2198 32.014 36.1639C31.6051 36.0141 33.9563 33.0176 33.9563 33.0176C34.0309 33.0366 34.4807 33.3801 35.0317 33.8104Z" fill="black"/>
<path d="M35.1544 32.6673C35.1544 33.4587 34.9526 34.2323 34.5745 34.8903C34.1964 35.5483 33.659 36.0611 33.0303 36.364C32.4015 36.6668 31.7096 36.7461 31.0421 36.5917C30.3747 36.4373 29.7615 36.0562 29.2803 35.4966C28.7991 34.937 28.4714 34.2241 28.3386 33.4479C28.2058 32.6717 28.274 31.8672 28.5344 31.1361C28.7948 30.4049 29.2359 29.78 29.8017 29.3404C30.3676 28.9007 31.0329 28.666 31.7134 28.666C32.1656 28.6649 32.6135 28.7677 33.0314 28.9684C33.4493 29.1691 33.829 29.4638 34.1487 29.8355C34.4684 30.2073 34.7218 30.6488 34.8944 31.1348C35.067 31.6207 35.1554 32.1415 35.1544 32.6673Z" fill="#D38884"/>
<path d="M33.0332 38.6123C33.0332 38.6123 32.3176 39.6223 32.4321 40.283H33.3L33.9349 39.4512L33.0332 38.6123Z" fill="#67647E"/>
<path opacity="0.1" d="M35.5787 34.3447L32.8492 38.7079C32.8492 38.7079 33.5505 39.8738 33.8848 39.9321C34.219 39.9903 36.1256 34.7714 36.1256 34.7714L35.5787 34.3447Z" fill="black"/>
<path d="M35.6134 34.2666L32.8829 38.6357C32.8829 38.6357 33.5842 39.8004 33.9185 39.8587C34.2528 39.9169 36.1593 34.6992 36.1593 34.6992L35.6134 34.2666Z" fill="#A36468"/>
<path d="M32.5323 39.8564C32.5323 39.8564 32.3984 42.3029 32.2645 42.789C32.1305 43.2752 32.2645 47.7413 32.2645 47.7413L33.5178 47.1398L33.3 40.2832L32.5323 39.8564Z" fill="#67647E"/>
<path opacity="0.1" d="M34.3417 60.3008L34.353 60.3406H34.2773L34.2661 60.3008H34.3417Z" fill="black"/>
<path opacity="0.1" d="M44.6094 58.1942C44.6094 58.1942 44.5859 58.2394 44.5471 58.3131C44.5082 58.3868 44.4663 58.4783 44.4121 58.5949C44.4094 58.5993 44.407 58.6041 44.405 58.6091C44.3293 58.772 44.2394 58.9717 44.1484 59.1893C41.0816 59.3153 38.0147 59.4829 34.9561 59.603L34.2088 59.6315H34.1005L33.7795 58.3714V58.3583L33.7457 58.2251L33.5413 57.4334L33.3368 56.6285L33.1252 55.7702L33.0475 55.4587L33.0271 55.3803L32.6938 54.0607L32.242 52.2691L32.3881 50.5596L32.3984 50.43L32.5302 48.8988L32.5486 48.4447L32.5589 48.2069V48.1391L32.5814 47.5875L32.6488 45.9469L32.6836 45.1076L32.6897 44.9804L32.7592 43.2958L32.9565 42.6075L33.0588 42.2651L33.2857 41.4698L33.3348 41.2737C33.4063 40.9753 33.5505 40.3856 33.6854 39.8185L33.6977 39.7698L33.7069 39.7329L33.803 39.3299L33.9226 38.8128C33.9676 38.6143 33.9972 38.4728 34.0044 38.424C34.0156 38.3396 34.2088 37.9663 34.4623 37.473C34.9735 36.4898 35.7422 35.043 35.8301 34.558C35.8305 34.554 35.8305 34.55 35.8301 34.5461C35.8354 34.5166 35.8426 34.4876 35.8516 34.4593C35.8935 34.3143 35.9538 34.275 36.0172 34.2845C36.0461 34.29 36.0736 34.3025 36.098 34.3214C36.1596 34.3697 36.2136 34.43 36.2575 34.4997C36.3771 34.7672 36.697 35.0347 36.9802 35.2332L37.0354 35.2701L37.0681 35.2927C37.3032 35.4484 37.4934 35.5483 37.4934 35.5483C41.2349 38.1708 41.0018 42.0951 41.2186 42.4054C41.4353 42.7157 41.4527 43.8439 41.4527 43.8439C41.4527 43.8439 42.0037 47.6707 42.2541 48.0048C42.5046 48.3388 42.2715 48.4518 42.4882 48.8215C42.7049 49.1912 42.6549 50.1685 42.6549 50.1685C42.6549 50.1685 42.8051 52.4985 43.3398 53.0038C43.8744 53.5091 44.6094 58.1942 44.6094 58.1942Z" fill="black"/>
<path d="M44.7096 58.1561L44.6647 58.2465C44.6289 58.3202 44.5716 58.4367 44.5031 58.5829L44.496 58.5996C44.4183 58.7672 44.3263 58.9705 44.2353 59.194H44.1494C41.0826 59.32 38.0158 59.4876 34.9571 59.6077L34.2098 59.6362L33.8899 58.3713V58.3583L33.8561 58.2251L33.6445 57.3929L33.4401 56.5845L33.2356 55.7773L33.1549 55.4539L32.8052 54.0654L32.3432 52.2358L32.471 50.7486L32.4883 50.55L32.6294 48.8607L32.6836 47.5435L32.75 45.9517L32.7674 45.5344L32.7868 45.0517L32.795 44.8484L32.8615 43.2578L33.0588 42.5706L33.1436 42.2746L33.3419 41.5792L33.3838 41.4317C33.3838 41.4317 33.575 40.6507 33.76 39.8768C33.7672 39.8482 33.7744 39.8197 33.7805 39.7912C33.7968 39.7246 33.8122 39.658 33.8285 39.5926C33.8449 39.5261 33.8602 39.4607 33.8745 39.3953C33.9267 39.1789 33.9768 38.9768 34.0115 38.8104C34.0616 38.5928 34.0953 38.4347 34.1025 38.3836C34.1138 38.2992 34.307 37.9152 34.5697 37.4159C35.0532 36.4862 35.7586 35.1571 35.9078 34.6055C35.9159 34.577 35.9227 34.548 35.9283 34.5187C35.9374 34.4311 35.9683 34.3484 36.0172 34.2809C36.1542 34.1276 36.3576 34.4569 36.3576 34.4569C36.4773 34.7244 36.7972 34.9931 37.0804 35.1904C37.2458 35.3059 37.4164 35.4111 37.5915 35.5054C41.3331 38.128 41.1 42.0523 41.3167 42.3638C41.5334 42.6752 41.5508 43.8011 41.5508 43.8011C41.5508 43.8011 42.1018 47.6279 42.3523 47.962C42.6027 48.296 42.3696 48.409 42.5864 48.7775C42.8031 49.146 42.753 50.1375 42.753 50.1375C42.753 50.1375 42.9033 52.4688 43.4379 52.9741C43.9726 53.4793 44.7096 58.1561 44.7096 58.1561Z" fill="#444053"/>
<path opacity="0.1" d="M37.0804 35.2669C36.7134 35.8874 36.1154 36.9786 35.9559 37.7632C35.9559 37.7632 35.3711 38.4634 35.1534 38.4241C34.9357 38.3849 35.3579 38.9484 35.3579 38.9484L33.0608 42.6501L33.3869 41.5125C33.3869 41.5125 34.0718 38.7154 34.1025 38.4634C34.1332 38.2114 35.7964 35.3239 35.9283 34.5976C36.0305 34.0163 36.3576 34.5394 36.3576 34.5394C36.4762 34.8009 36.7962 35.0707 37.0804 35.2669Z" fill="black"/>
<path d="M37.0804 35.1894C36.7134 35.8087 36.1154 36.9011 35.9559 37.6797C35.9559 37.6797 35.3711 38.3787 35.1534 38.3407C34.9357 38.3026 35.3579 38.8649 35.3579 38.8649L33.0608 42.5666L33.3869 41.429C33.3869 41.429 34.0718 38.6319 34.1025 38.3787C34.1332 38.1255 35.7964 35.2405 35.9283 34.5142C36.0305 33.9317 36.3576 34.4559 36.3576 34.4559C36.4762 34.7234 36.7962 34.9908 37.0804 35.1894Z" fill="#444053"/>
<path opacity="0.1" d="M40.1656 42.86C40.183 43.7088 39.1137 44.8679 39.0636 44.9357C39.0135 45.0035 35.7392 48.1455 35.7392 48.1455L33.3879 50.2426C33.1229 50.4967 32.806 50.667 32.4679 50.7372L32.6284 48.8612L32.7868 45.057C33.1538 44.5814 33.5096 44.0821 33.5178 43.9228C33.5341 43.5935 34.1311 43.2428 34.1311 43.2428C34.1311 43.2428 34.5492 42.835 34.4818 42.602C34.4143 42.369 34.7036 41.2527 34.7036 41.2527C34.8539 38.0857 37.66 37.7754 37.66 37.7754C37.66 37.7754 39.0135 38.3971 39.9653 39.0569C40.917 39.7167 40.1493 42.0124 40.1656 42.86Z" fill="black"/>
<path opacity="0.1" d="M24.0464 49.8402L23.2286 49.9067C22.883 49.2232 23.3584 47.3926 23.3584 47.3926H23.4248L23.8429 47.4508L24.0464 49.8402Z" fill="black"/>
<path d="M37.66 37.582C37.66 37.582 34.8539 37.8935 34.7036 41.0593C34.7036 41.0593 34.4194 42.1673 34.4859 42.4003C34.5523 42.6334 34.1352 43.0411 34.1352 43.0411C34.1352 43.0411 33.5341 43.3906 33.5218 43.7211C33.5096 44.0516 31.9884 45.8539 31.9884 45.8539C31.9884 45.8539 31.3546 46.6932 29.8846 46.7812C28.4146 46.8691 27.7296 47.3922 27.7296 47.3922C27.7296 47.3922 27.014 46.8097 26.4927 46.9845C25.9713 47.1592 23.4361 47.3922 23.4361 47.3922C23.4361 47.3922 22.7624 49.9886 23.6027 50.1515C23.7049 50.1705 31.9751 50.501 31.9751 50.501C31.9751 50.501 32.5405 50.8113 33.392 50.054C34.2436 49.2967 35.7433 47.9557 35.7433 47.9557C35.7433 47.9557 39.0145 44.8089 39.0677 44.7459C39.1209 44.6829 40.1922 43.5178 40.1697 42.6702C40.1472 41.8226 40.9221 39.5293 39.9653 38.866C39.0084 38.2026 37.66 37.582 37.66 37.582Z" fill="#444053"/>
<path opacity="0.1" d="M35.1544 32.6672C35.1548 33.0882 35.0978 33.5066 34.9858 33.9069C34.9392 33.8429 34.8968 33.775 34.859 33.7036C34.6995 33.4184 34.5397 33.1331 34.3795 32.8479C34.2551 32.5911 34.0896 32.3644 33.8919 32.1799C33.6875 32.0111 33.3971 31.9422 33.1763 32.092C32.9821 32.2251 32.887 32.4973 32.8696 32.7587C32.8637 33.0212 32.8695 33.2838 32.887 33.5455C32.8952 33.6458 32.8732 33.7462 32.8247 33.8296C32.7521 33.9052 32.6583 33.9474 32.5609 33.9485L32.2542 33.9972C32.2265 34.0085 32.1972 34.0133 32.1679 34.0112C32.1385 34.0091 32.1099 34.0002 32.0836 33.985C32.0573 33.9698 32.0339 33.9487 32.0147 33.9228C31.9956 33.8969 31.9811 33.8669 31.9721 33.8344C31.7175 33.2983 31.5417 32.6327 31.0643 32.3748C30.7699 32.2156 30.3814 32.2263 30.1923 31.9196C30.0635 31.7104 30.0809 31.4264 30.1187 31.172C30.1603 30.8852 30.2201 30.6024 30.2976 30.3258C30.3518 30.1309 30.4724 29.7422 30.2046 29.703C30.0226 29.6757 29.7711 29.9003 29.6791 30.0596C29.5871 30.2188 29.5646 30.4316 29.4992 30.6134C29.3738 30.9263 29.1482 31.1699 28.8705 31.2921C28.7315 31.3585 28.5859 31.4044 28.4371 31.4288C28.6885 30.5209 29.2106 29.7474 29.9092 29.2476C30.6078 28.7478 31.4371 28.5547 32.2474 28.703C33.0577 28.8512 33.7958 29.3312 34.3286 30.0563C34.8615 30.7814 35.154 31.704 35.1534 32.6577L35.1544 32.6672Z" fill="black"/>
<path d="M29.6801 29.958C29.5871 30.1233 29.5656 30.3289 29.5002 30.5108C29.375 30.8235 29.1498 31.067 28.8725 31.1896C28.597 31.3095 28.305 31.3699 28.0108 31.3679C27.5344 31.3845 27.0028 31.3001 26.6961 30.8757C26.8079 30.7751 26.9016 30.6498 26.9718 30.507C27.0419 30.3642 27.0872 30.2067 27.105 30.0436C27.1316 29.7892 27.0958 29.5051 27.2257 29.2971C27.2918 29.2061 27.3706 29.1285 27.4587 29.0677C27.9924 28.6397 28.4135 28.0525 28.8961 27.5485C29.3786 27.0444 29.9602 26.6058 30.6084 26.582C31.4763 26.5511 32.244 27.262 33.1027 27.3963C33.3665 27.4379 33.6384 27.4237 33.896 27.5009C34.1859 27.6057 34.4586 27.7664 34.7026 27.9764C34.9234 28.1252 35.1185 28.3203 35.2781 28.5518C35.3883 28.7539 35.4675 28.9767 35.5122 29.2103C35.6252 29.7035 35.6937 30.2091 35.7167 30.7188C35.7402 31.2514 35.7167 31.7887 35.7657 32.3188C35.8148 32.849 35.96 33.3887 36.2718 33.781C36.0443 33.8646 35.8115 33.927 35.5756 33.9676C35.4281 34.0083 35.2732 33.9942 35.133 33.9272C35.0194 33.8432 34.9264 33.7265 34.8631 33.5884L34.3836 32.7325C34.2592 32.4757 34.0937 32.249 33.896 32.0645C33.6915 31.8957 33.4012 31.8267 33.1804 31.9765C32.9862 32.1096 32.8921 32.3818 32.8737 32.6434C32.8678 32.9059 32.8736 33.1685 32.8911 33.4303C32.8993 33.5306 32.8773 33.631 32.8287 33.7144C32.7559 33.7902 32.6617 33.8324 32.564 33.8333L32.2573 33.882C32.2296 33.8934 32.2002 33.8981 32.1709 33.896C32.1416 33.8939 32.113 33.885 32.0867 33.8699C32.0604 33.8547 32.0369 33.8335 32.0178 33.8076C31.9986 33.7818 31.9841 33.7517 31.9751 33.7192C31.7206 33.1819 31.5448 32.5174 31.0674 32.2594C30.773 32.1001 30.3845 32.1108 30.1954 31.8041C30.0666 31.5949 30.0839 31.3108 30.1218 31.0564C30.1634 30.7695 30.2232 30.4867 30.3007 30.21C30.3548 30.0151 30.4755 29.6264 30.2076 29.586C30.0236 29.5634 29.7721 29.788 29.6801 29.958Z" fill="#444053"/>
<path opacity="0.1" d="M37.4637 39.3581C37.7224 39.3165 37.9943 39.2891 38.2366 39.4045C37.6058 39.1037 36.5795 39.219 36.005 39.6328C36.0571 39.7719 37.2634 39.3902 37.4637 39.3581Z" fill="black"/>
<path opacity="0.1" d="M37.7653 40.3329C38.394 40.3816 39.0432 40.4838 39.6391 40.2461C39.1403 40.0465 38.5913 40.1725 38.0659 40.1119C37.6467 40.0631 37.2204 39.8944 36.8115 40.018C36.6408 40.0691 36.0121 40.4054 36.055 40.6513C36.5919 40.3752 37.1811 40.2655 37.7653 40.3329Z" fill="black"/>
<path opacity="0.1" d="M36.1 41.9315C36.2316 41.9153 36.3647 41.9315 36.4905 41.979C36.9621 42.1081 37.4455 42.1699 37.9299 42.1633C38.3 42.1633 38.6987 42.0979 38.9685 41.8066L36.1 41.9315Z" fill="black"/>
<path opacity="0.1" d="M34.0749 45.6504C34.5146 45.885 34.998 45.9872 35.4805 45.9475C35.9611 45.9063 36.4359 45.8003 36.8954 45.6314C37.0998 45.5613 37.3227 45.4734 37.4423 45.2666L34.0749 45.6504Z" fill="black"/>
<path opacity="0.1" d="M38.6005 46.1739C39.557 46.8096 40.6222 47.193 41.7205 47.2967C41.1664 47.0384 40.6083 46.7941 40.046 46.5636C39.4709 46.3294 38.8814 46.1459 38.2826 46.0146C38.3965 46.0432 38.5044 46.0973 38.6005 46.1739Z" fill="black"/>
<path opacity="0.1" d="M40.1452 45.4926C40.3373 45.5299 40.5324 45.5422 40.7268 45.5295C40.8291 45.5295 40.9507 45.5128 41.011 45.4106C40.5725 45.432 40.1401 45.3012 39.7117 45.1882C39.5901 45.1549 39.3713 45.0765 39.2691 45.1609C39.4633 45.3226 39.8998 45.4355 40.1452 45.4926Z" fill="black"/>
<path opacity="0.1" d="M42.7816 56.1119C43.0116 56.5707 43.2447 57.0343 43.5626 57.4194C43.7464 57.6294 43.9421 57.8248 44.1484 58.0042C43.7691 56.8798 43.3837 55.7458 42.7765 54.7628C42.6232 54.5156 42.3942 54.1614 42.1151 54.1162C42.0354 54.3908 42.2367 54.8769 42.3339 55.1349C42.4672 55.4701 42.6167 55.7963 42.7816 56.1119Z" fill="black"/>
<path opacity="0.1" d="M31.6051 47.7021C31.5877 47.8921 31.5744 48.1024 31.6695 48.258C31.7165 48.3348 31.7853 48.3899 31.8637 48.4137C31.8147 48.3994 31.7615 47.8411 31.7492 47.765C31.7267 47.6094 31.7492 47.3184 31.6542 47.2031C31.6296 47.3671 31.6204 47.5358 31.6051 47.7021Z" fill="black"/>
<path opacity="0.1" d="M32.1367 47.4837C32.1704 47.651 32.2332 47.8086 32.321 47.9469C32.4089 48.0852 32.5201 48.2012 32.6478 48.2879C32.4689 48.0313 32.4106 47.6939 32.2553 47.4124C32.2052 47.3221 32.1469 47.1926 32.0508 47.1748C32.075 47.2794 32.1037 47.3824 32.1367 47.4837Z" fill="black"/>
<path opacity="0.1" d="M31.6869 44.0607C31.536 44.1651 31.3683 44.2321 31.1942 44.2577C31.02 44.2833 30.8432 44.2668 30.6748 44.2093C30.5981 44.1832 30.4192 44.0904 30.4622 43.9596C30.5051 43.8289 30.7126 43.9192 30.7975 43.9311L31.2422 43.9965C31.324 44.0084 31.6204 44.1059 31.6869 44.0607Z" fill="black"/>
<path opacity="0.1" d="M30.1821 44.9065C30.3916 44.8756 30.5797 45.0444 30.776 45.1359C30.9932 45.2201 31.2222 45.2556 31.4507 45.2406C31.5652 45.2406 31.695 45.2299 31.7656 45.1217C31.233 44.9802 30.7351 44.8245 30.1821 44.9065Z" fill="black"/>
<path d="M32.7091 37.7588H32.7429L32.9933 38.8056L32.7091 39.1574V37.7588Z" fill="#A36468"/>
<g opacity="0.1">
<path d="M27.1705 29.4541C27.1394 29.6238 27.124 29.7968 27.1245 29.9703C27.1372 29.9158 27.1464 29.8603 27.1521 29.8042C27.1643 29.6902 27.1633 29.5704 27.1705 29.4541Z" fill="black"/>
<path d="M30.2199 29.5894C30.2447 29.5911 30.2689 29.5987 30.2911 29.6118C30.3132 29.6249 30.3327 29.6432 30.3485 29.6656C30.3642 29.6879 30.3758 29.7138 30.3826 29.7416C30.3893 29.7694 30.391 29.7985 30.3876 29.8271C30.4356 29.6298 30.4622 29.3874 30.2536 29.3517C30.0717 29.3256 29.8202 29.5502 29.7282 29.7142C29.6362 29.8782 29.6137 30.0862 29.5483 30.268C29.4233 30.5808 29.198 30.8244 28.9206 30.9466C28.6451 31.0665 28.353 31.1269 28.0588 31.1249C27.6254 31.1403 27.1459 31.0702 26.8321 30.7374C26.7945 30.7839 26.7538 30.8268 26.7104 30.8658C27.0171 31.2901 27.5487 31.3744 28.0261 31.3578C28.32 31.3598 28.6117 31.2993 28.8869 31.1795C29.1644 31.057 29.3899 30.8136 29.5156 30.5009C29.581 30.3191 29.6014 30.1135 29.6945 29.9483C29.7875 29.7831 30.0379 29.5632 30.2199 29.5894Z" fill="black"/>
<path d="M35.6196 33.7336C35.472 33.7744 35.3172 33.7602 35.1769 33.6932C35.0636 33.6089 34.9707 33.4922 34.907 33.3544C34.7476 33.069 34.5877 32.7836 34.4276 32.4983C34.3038 32.2413 34.1386 32.0144 33.941 31.83C33.7365 31.66 33.4452 31.5922 33.2254 31.742C33.0301 31.8752 32.9361 32.1475 32.9136 32.4091C32.9136 32.4198 32.9136 32.4305 32.9136 32.4412C32.9506 32.2493 33.0508 32.082 33.1927 31.9751C33.4104 31.8253 33.7038 31.8942 33.9083 32.0631C34.1057 32.248 34.2711 32.4747 34.3959 32.7313C34.5554 33.0167 34.7152 33.302 34.8753 33.5874C34.9384 33.7258 35.0314 33.8426 35.1452 33.9263C35.2852 33.9933 35.4396 34.0074 35.5868 33.9667C35.8231 33.9259 36.0562 33.8635 36.284 33.78C36.2391 33.7234 36.1974 33.6635 36.1593 33.6005C35.982 33.658 35.8017 33.7025 35.6196 33.7336Z" fill="black"/>
<path d="M32.8707 33.4805C32.7977 33.5553 32.7042 33.5974 32.6069 33.5993L32.3002 33.6481C32.2725 33.6594 32.2432 33.6641 32.2139 33.6621C32.1845 33.66 32.1559 33.6511 32.1296 33.6359C32.1033 33.6207 32.0799 33.5995 32.0607 33.5737C32.0416 33.5478 32.0271 33.5177 32.0181 33.4852C31.7635 32.9479 31.5877 32.2834 31.1103 32.0254C30.8159 31.8662 30.4284 31.8769 30.2393 31.5702C30.1433 31.383 30.1109 31.1608 30.1483 30.9473C30.1432 30.9841 30.1361 31.0198 30.131 31.0554C30.0942 31.3098 30.0758 31.5939 30.2056 31.8031C30.3947 32.1098 30.7832 32.0991 31.0766 32.2584C31.555 32.5164 31.7308 33.1809 31.9854 33.7182C32.0086 33.7857 32.0498 33.8428 32.1029 33.8811C32.156 33.9017 32.2131 33.9045 32.2675 33.8894L32.5742 33.8406C32.6716 33.8396 32.7654 33.7974 32.8379 33.7218C32.8869 33.6386 32.909 33.5379 32.9003 33.4377C32.8914 33.4528 32.8815 33.4671 32.8707 33.4805Z" fill="black"/>
</g>
<path d="M75.1816 61.513L74.5263 61.4072V50.1582L74.6602 50.2058L75.0692 50.352V50.7264V51.0081V51.4349L75.0743 51.9235L75.0835 52.9291V53.0302V53.1645V53.4498V53.6222V54.0394V54.3009L75.1325 59.3661V59.5016L75.1499 61.2847V61.3121L75.1816 61.513Z" fill="#EAECF0"/>
<path d="M75.5496 61.5724L75.1847 61.513V61.3097V61.2824L75.1673 59.4993V59.3637L75.1182 54.2986V54.037V53.6198V53.4474V53.1621V53.0278V52.9268L75.109 51.9211L75.1039 51.4325V51.0058V50.7241V50.3496H75.4975V50.7633V51.0462V51.3719V51.8034L75.5057 52.8899V53.1277V53.3761V53.5497V53.7625V54.0394L75.5435 59.3554V59.4921L75.5558 61.2598V61.2883L75.5496 61.5724Z" fill="#D3DAE1"/>
<path d="M115.316 48.7637V58.4732C115.122 58.6317 114.923 58.7874 114.719 58.9404L114.711 50.857V49.9988L115.316 48.7637Z" fill="#EAECF0"/>
<path d="M115.741 48.623V58.0972C115.602 58.2268 115.46 58.3516 115.316 58.4741V48.7633L115.741 48.623Z" fill="#D3DAE1"/>
<path d="M106.249 62.3832C105.997 62.4426 105.745 62.5021 105.492 62.5532L105.483 53.7673V53.3869L106.212 53.0303V53.8362L106.249 62.3832Z" fill="#EAECF0"/>
<path d="M106.729 52.752V62.2618C106.57 62.3022 106.41 62.3403 106.251 62.3807L106.217 53.8373V53.0313L106.265 53.0052L106.729 52.752Z" fill="#D3DAE1"/>
<path d="M63.3999 59.7504L62.7201 59.6708L62.6332 49.7639V49.481V49.292H63.3007V49.5476V49.8305L63.3999 59.7504Z" fill="#EAECF0"/>
<path d="M63.9059 59.8134L63.3948 59.7504L63.2925 49.8305V49.5476V49.292H63.8088V49.5999V49.8828L63.9059 59.8134Z" fill="#D3DAE1"/>
<path opacity="0.1" d="M106.26 53.0064L106.727 52.751V53.9498L106.272 54.1269L106.26 53.0064Z" fill="black"/>
<path opacity="0.1" d="M115.74 48.6211V50.4569L115.316 50.6222L114.71 50.8564L114.709 49.998L115.316 48.7626L115.74 48.6211Z" fill="black"/>
<path d="M115.74 45.0918V50.1736L106.272 53.8432L106.211 48.4084L115.74 45.0918Z" fill="#D48A9B"/>
<path d="M62.5074 44.7384L74.9506 41.9854L115.74 45.0915L106.211 48.4081L62.5074 44.7384Z" fill="#EFC6CD"/>
<path opacity="0.1" d="M63.8129 49.292L63.817 49.8812L63.3018 49.8289L62.6322 49.7624L62.6291 49.292H63.8129Z" fill="black"/>
<path opacity="0.1" d="M75.4719 51.0477L75.0784 51.0072L74.5263 50.9525V50.1582L75.0722 50.3508H75.4668L75.4719 51.0477Z" fill="black"/>
<path d="M62.5074 44.7393V49.468L106.272 53.8437L106.211 48.4089L62.5074 44.7393Z" fill="#D48A9B"/>
<path d="M97.2076 50.3627H91.491V47.9502L97.2076 48.4187V50.3627Z" fill="#D48A9B"/>
<path opacity="0.1" d="M97.2076 50.3627H91.491V47.9502L97.2076 48.4187V50.3627Z" fill="black"/>
<path opacity="0.1" d="M83.8127 47.4209V51.2314L105.756 53.1722V49.1146L97.1973 48.55L96.3468 49.4319L92.8568 49.1502L91.6126 48.0912L83.8127 47.4209Z" fill="black"/>
<path d="M83.691 47.2793V51.0909L105.634 53.0306V48.973L97.0757 48.4084L96.2262 49.2915L92.7351 49.0086L91.491 47.9496L83.691 47.2793Z" fill="white"/>
<path d="M70.1551 46.2559L75.3452 46.6803L75.2849 48.5982H71.896L69.6296 47.5626L70.1551 46.2559Z" fill="#D48A9B"/>
<path opacity="0.1" d="M70.1551 46.2559L75.3452 46.6803L75.2849 48.5982H71.896L69.6296 47.5626L70.1551 46.2559Z" fill="black"/>
<path opacity="0.1" d="M63.2363 45.7266V49.1496L83.1451 50.9847V47.3501L75.4668 46.82L74.647 47.526L71.5515 47.3145L70.2767 46.3969L63.2363 45.7266Z" fill="black"/>
<path d="M63.1147 45.5859V49.0089L83.0235 50.844V47.2095L75.3452 46.6806L74.5263 47.3854L71.4299 47.1738L70.1551 46.2563L63.1147 45.5859Z" fill="white"/>
<path opacity="0.1" d="M105.758 45.5986L108.549 45.8114L103.925 47.4205L101.57 47.2232L105.758 45.5986Z" fill="black"/>
<path d="M105.758 45.458L108.549 45.6696L103.925 47.2787L101.57 47.0814L105.758 45.458Z" fill="white"/>
<path d="M105.425 45.823C105.535 45.7669 105.653 45.8707 105.77 45.897C105.837 45.9125 105.906 45.897 105.975 45.9125C106.112 45.934 106.247 46.0402 106.377 45.9865L105.425 45.823Z" fill="#D3DAE1"/>
<path d="M105.28 45.9201C105.39 45.8652 105.507 45.969 105.625 45.9953C105.692 46.0096 105.762 45.9953 105.829 46.0096C105.965 46.0311 106.101 46.1384 106.232 46.0847L105.28 45.9201Z" fill="#D3DAE1"/>
<path d="M104.949 46.1145C105.059 46.0597 105.176 46.1623 105.294 46.1885C105.361 46.204 105.43 46.1885 105.498 46.204C105.635 46.2255 105.771 46.3329 105.901 46.278L104.949 46.1145Z" fill="#D3DAE1"/>
<path opacity="0.1" d="M86.9286 43.8174L93.1512 44.2917L91.8253 46.5063L84.9842 45.6563L86.9286 43.8174Z" fill="black"/>
<path d="M86.8069 43.6768L93.0295 44.1499L91.7036 46.3657L84.8615 45.5157L86.8069 43.6768Z" fill="#3A3768"/>
<path d="M87.0809 43.8389L92.5082 44.2253L91.352 46.0302L85.3849 45.337L87.0809 43.8389Z" fill="#D5E1F4"/>
<path d="M83.4416 61.9374C83.4416 61.9707 83.4416 62.0052 83.4365 62.0385C83.4314 62.0717 83.4365 62.0979 83.4283 62.1276C83.4065 62.3371 83.3565 62.5413 83.2801 62.7327C80.7091 62.3963 78.1319 61.9921 75.5517 61.5772L75.1867 61.5178L74.5314 61.412L73.9794 61.3228C73.3752 61.3051 72.7727 61.2396 72.1761 61.1266C71.8003 61.062 71.4281 60.9707 71.0618 60.8532C69.4262 60.5929 67.7814 60.342 66.1416 60.1138L65.928 60.084C65.9668 59.8819 65.9995 59.7595 65.9995 59.7595C65.9995 59.7595 66.3512 58.1522 66.6436 56.3559C66.708 55.9659 66.7693 55.5689 66.8225 55.1754C66.8654 54.8603 66.9042 54.5489 66.937 54.2493C66.9554 54.084 66.9707 53.9223 66.984 53.7642C66.9911 53.6858 66.9973 53.6073 67.0024 53.5265C67.0075 53.4456 67.0136 53.3577 67.0187 53.2756C67.0239 53.1936 67.0259 53.1211 67.029 53.0462V52.9344C67.029 52.7739 67.029 52.6063 67.0239 52.4339C66.9721 51.5753 66.8558 50.7237 66.6763 49.8887C66.6477 49.746 66.618 49.6033 66.5873 49.4642C66.5781 49.4191 66.5679 49.3751 66.5577 49.3311C66.2275 47.8439 65.8421 46.6289 65.8421 46.6289C65.8417 46.6222 65.8417 46.6154 65.8421 46.6087C65.8425 46.6039 65.8425 46.5992 65.8421 46.5944C65.8426 46.5845 65.8426 46.5746 65.8421 46.5647C65.8421 46.5267 65.8421 46.4684 65.8421 46.3983C65.8421 46.384 65.8421 46.3685 65.8421 46.3531C65.8496 46.2284 65.8681 46.1049 65.8973 45.9846C65.9084 45.9418 65.9214 45.8998 65.9362 45.8585C65.9727 45.7389 66.0336 45.6314 66.1137 45.5453C66.1939 45.4591 66.2908 45.3969 66.3962 45.364C66.6855 45.2772 67.123 45.364 67.7834 45.8193C67.891 45.8915 67.9935 45.9734 68.0901 46.0642C68.1392 46.1094 68.1923 46.1569 68.2332 46.2081C68.9897 47.0272 69.3925 48.3789 69.6071 49.6129C69.6153 49.6568 69.6225 49.7008 69.6296 49.7448C69.6552 49.897 69.6767 50.0456 69.6961 50.1918C69.7308 50.4486 69.7584 50.6959 69.7789 50.9253C69.7789 50.9871 69.7901 51.0442 69.7952 51.1072C69.8004 51.1702 69.8055 51.2261 69.8085 51.2832C69.8218 51.4686 69.831 51.6398 69.8372 51.7848C69.8545 52.17 69.8515 52.4066 69.8515 52.4066V52.4185C69.8515 52.4185 69.8515 52.4363 69.8464 52.4696C69.8458 52.4727 69.8458 52.476 69.8464 52.4791C69.8464 52.4934 69.8464 52.5112 69.8464 52.5314C69.8464 52.5516 69.8464 52.5659 69.8464 52.5861C69.8423 52.636 69.8372 52.6943 69.831 52.7609C69.8218 52.8631 69.8116 52.9832 69.7993 53.1175C69.7912 53.2174 69.7809 53.3256 69.7707 53.4397C69.7482 53.6775 69.7237 53.9533 69.6971 54.2433C69.691 54.298 69.6859 54.3527 69.6808 54.4074C69.6572 54.6558 69.6327 54.915 69.6071 55.1766C69.5795 55.4738 69.5489 55.771 69.5192 56.0646C69.5121 56.1288 69.5049 56.193 69.4988 56.256C69.4231 56.9693 69.3475 57.6172 69.2861 58.0202C69.2765 58.08 69.2697 58.1403 69.2657 58.2009C69.2647 58.2215 69.2647 58.2422 69.2657 58.2628C69.2626 58.3166 69.2626 58.3706 69.2657 58.4244C69.3158 59.4397 70.2594 59.6133 70.2594 59.6133L74.5437 59.5146L75.1796 59.5003L75.5496 59.492L78.8894 59.4147L79.1961 59.4076L80.8573 59.3696C80.97 59.3665 81.0826 59.3821 81.1916 59.4159C81.7045 59.5762 82.1938 59.825 82.6432 60.1542C82.7836 60.259 82.91 60.3871 83.0184 60.5346C83.0237 60.5404 83.0285 60.5467 83.0327 60.5536C83.2593 60.8695 83.3992 61.2571 83.4344 61.6664C83.4344 61.6937 83.4344 61.721 83.4344 61.7484C83.4426 61.8055 83.4426 61.8696 83.4416 61.9374Z" fill="#3A3768"/>
<path opacity="0.1" d="M83.4416 61.9377C83.4416 61.971 83.4416 62.0055 83.4365 62.0388C83.4314 62.0721 83.4365 62.0982 83.4283 62.1279C83.4039 62.3375 83.3522 62.5416 83.275 62.7331C80.7039 62.3966 78.1268 61.9924 75.5466 61.5775L75.1816 61.5181L74.5263 61.4123L73.9743 61.3231C73.3701 61.3055 72.7676 61.2399 72.171 61.127C71.7951 61.0623 71.423 60.971 71.0567 60.8535C69.4211 60.5932 67.7762 60.3423 66.1365 60.1141L65.9229 60.0844C65.9617 59.8751 65.9965 59.7479 65.9965 59.7479C65.9965 59.7479 66.2837 58.4402 66.5567 56.8555C66.5761 56.7461 66.5945 56.6368 66.6129 56.5262L66.6405 56.3586C66.7039 55.9698 66.7652 55.5704 66.8194 55.1781C66.8623 54.863 66.9012 54.5516 66.9339 54.252C66.9523 54.0867 66.9676 53.9251 66.9809 53.7669C66.9881 53.6885 66.9942 53.61 66.9993 53.5292C67.0044 53.4483 67.0106 53.3604 67.0157 53.2783C67.0208 53.1963 67.0228 53.1238 67.0259 53.0489V52.9371C67.0259 52.7766 67.0259 52.609 67.0208 52.4366C66.9706 51.5781 66.8553 50.7263 66.6763 49.8914C66.6477 49.7471 66.618 49.6056 66.5873 49.4669C66.5771 49.4218 66.5679 49.3778 66.5577 49.3338C66.2265 47.8418 65.8421 46.6197 65.8421 46.6197C65.8424 46.6169 65.8424 46.6142 65.8421 46.6114C65.8425 46.6066 65.8425 46.6019 65.8421 46.5971C65.8426 46.5872 65.8426 46.5773 65.8421 46.5674C65.8421 46.5294 65.8421 46.4711 65.8421 46.401C65.8421 46.3867 65.8421 46.3712 65.8421 46.3558C65.8486 46.2312 65.8661 46.1077 65.8942 45.9873C65.9055 45.9456 65.9178 45.9029 65.9321 45.8612C65.9689 45.7351 66.0326 45.6218 66.1174 45.5322C66.2022 45.4426 66.3051 45.3795 66.4166 45.3489C66.7059 45.2704 67.1383 45.3679 67.7844 45.8077C67.8964 45.8843 68.0031 45.9709 68.1034 46.0669C68.1514 46.1133 68.1974 46.1596 68.2424 46.2096C68.9928 47.0334 69.3925 48.3827 69.6051 49.6132C69.6133 49.6572 69.6204 49.7023 69.6276 49.7463C69.6531 49.8973 69.6746 50.0471 69.694 50.1921C69.7288 50.4489 69.7554 50.695 69.7758 50.9233C69.7809 50.9863 69.7871 51.0481 69.7912 51.1075C69.7952 51.167 69.8014 51.2264 69.8044 51.2835C69.8177 51.4689 69.8269 51.6401 69.8331 51.7852C69.8504 52.1703 69.8474 52.4069 69.8474 52.4069V52.4473C69.8474 52.4545 69.8474 52.4616 69.8474 52.4699C69.8468 52.4731 69.8468 52.4763 69.8474 52.4794C69.8474 52.4937 69.8474 52.5115 69.8474 52.5317C69.8474 52.552 69.8474 52.5662 69.8474 52.5864C69.8433 52.6364 69.8382 52.6946 69.832 52.7612C69.8228 52.8634 69.8126 52.9835 69.8004 53.1178C69.7901 53.2165 69.7809 53.3247 69.7707 53.44C69.7482 53.6778 69.7237 53.9536 69.6971 54.2437C69.691 54.2983 69.6859 54.353 69.6808 54.4077C69.6572 54.6562 69.6317 54.9177 69.6071 55.1793C69.5775 55.4765 69.5479 55.7737 69.5172 56.0661C69.51 56.1303 69.5039 56.1945 69.4967 56.2575C69.4221 56.9708 69.3475 57.6092 69.2861 58.0099C69.2761 58.0739 69.2692 58.1386 69.2657 58.2036C69.2647 58.2242 69.2647 58.2449 69.2657 58.2655C69.2626 58.3193 69.2626 58.3733 69.2657 58.4271C69.324 59.4305 70.2594 59.5981 70.2594 59.5981L74.5437 59.5006L75.1785 59.4852L75.5496 59.4769L78.8955 59.4008L79.2084 59.3936L80.8634 59.3556C80.9762 59.3514 81.0889 59.367 81.1977 59.402C81.7145 59.5577 82.2078 59.8043 82.6606 60.1331C82.8034 60.2393 82.9316 60.37 83.0409 60.5207C83.0462 60.5264 83.051 60.5328 83.0552 60.5397C83.2816 60.8569 83.4199 61.2466 83.4518 61.6572C83.4518 61.6845 83.4518 61.7119 83.4518 61.7392C83.4426 61.8058 83.4426 61.87 83.4416 61.9377Z" fill="black"/>
<path d="M83.4488 62.7505L83.2801 62.7279C80.7091 62.3915 78.1319 61.9873 75.5517 61.5724L75.1867 61.513L74.5314 61.4072L73.9794 61.318C73.3752 61.3003 72.7727 61.2348 72.1761 61.1218C71.8003 61.0572 71.4281 60.9659 71.0618 60.8484C69.4262 60.5881 67.7814 60.3372 66.1416 60.109C66.1683 59.9421 66.2024 59.7771 66.2439 59.6144C66.2439 59.6144 67.215 55.167 67.2753 52.8024C67.2968 51.9572 67.1527 50.911 66.9574 49.9136C66.9288 49.7697 66.9002 49.6271 66.8695 49.4868L66.8419 49.3536C66.4953 47.7903 66.0834 46.4826 66.0834 46.4826C66.0737 46.3208 66.0816 46.1583 66.1069 45.9988C66.1132 45.9559 66.1214 45.9135 66.1314 45.8716C66.1706 45.6723 66.2629 45.4926 66.3952 45.358C66.4012 45.3518 66.4077 45.3462 66.4146 45.3414C66.6834 45.1036 67.166 45.0869 68.0247 45.6718C68.1986 45.7912 68.3596 45.9345 68.5041 46.0986C68.545 46.1438 68.5859 46.1914 68.6247 46.2401C69.3148 47.1091 69.6807 48.4406 69.8729 49.6318L69.8944 49.7638C69.9169 49.9124 69.9363 50.0586 69.9547 50.2001C69.9547 50.2001 69.9547 50.2084 69.9547 50.212C69.9782 50.3998 69.9977 50.5793 70.014 50.7505C70.0619 51.2547 70.0864 51.7614 70.0876 52.2686C70.0876 52.2686 70.0477 52.7382 69.9854 53.4147C69.9619 53.6798 69.9343 53.977 69.9046 54.2908C69.9046 54.3063 69.9046 54.3218 69.9046 54.3384L69.8893 54.5048C69.8372 55.0529 69.7799 55.6378 69.7216 56.1799C69.7155 56.2465 69.7083 56.3118 69.7012 56.376C69.6358 56.9859 69.5703 57.528 69.5162 57.8811C69.3035 59.2578 70.4873 59.4694 70.4873 59.4694L74.5294 59.3766L75.1632 59.3624L75.5343 59.3529H75.6897H75.7398L78.9456 59.2792H79.2523L81.0924 59.2364C81.2052 59.233 81.3179 59.2491 81.4267 59.2839C81.9436 59.4396 82.4372 59.6857 82.8906 60.0139C83.0177 60.1093 83.1335 60.2236 83.2351 60.3539C83.2414 60.3612 83.2472 60.3692 83.2525 60.3776C83.4928 60.7006 83.6408 61.1025 83.6759 61.5277C83.7111 61.9528 83.6317 62.3802 83.4488 62.7505Z" fill="#3A3768"/>
<path d="M97.8996 41.2617L99.1499 44.3759H98.9403L97.4744 41.2986L97.8996 41.2617Z" fill="#4C4C56"/>
<path opacity="0.1" d="M97.8996 41.2617L99.1499 44.3759H98.9403L97.4744 41.2986L97.8996 41.2617Z" fill="black"/>
<path d="M97.8996 44.377H99.1499V44.7027L97.8996 44.7395V44.377Z" fill="#4C4C56"/>
<path opacity="0.1" d="M97.8996 44.377H99.1499V44.7027L97.8996 44.7395V44.377Z" fill="black"/>
<path d="M88.1747 29.8004V40.6769C88.1747 40.891 88.2479 41.0964 88.378 41.2477C88.5082 41.3991 88.6848 41.4842 88.8689 41.4842H104.459C104.55 41.4842 104.641 41.4629 104.726 41.4216C104.81 41.3803 104.887 41.3199 104.951 41.2437C105.015 41.1675 105.066 41.0772 105.1 40.9781C105.134 40.8789 105.15 40.7729 105.149 40.6663L104.972 29.7802C104.968 29.57 104.894 29.3699 104.765 29.2227C104.636 29.0755 104.462 28.9931 104.282 28.9932H88.8689C88.7777 28.9932 88.6874 29.014 88.6032 29.0546C88.519 29.0952 88.4425 29.1546 88.378 29.2296C88.3136 29.3045 88.2625 29.3935 88.2276 29.4915C88.1927 29.5894 88.1747 29.6944 88.1747 29.8004Z" fill="#4C4C56"/>
<path opacity="0.1" d="M88.1747 29.8004V40.6769C88.1747 40.891 88.2479 41.0964 88.378 41.2477C88.5082 41.3991 88.6848 41.4842 88.8689 41.4842H104.459C104.55 41.4842 104.641 41.4629 104.726 41.4216C104.81 41.3803 104.887 41.3199 104.951 41.2437C105.015 41.1675 105.066 41.0772 105.1 40.9781C105.134 40.8789 105.15 40.7729 105.149 40.6663L104.972 29.7802C104.968 29.57 104.894 29.3699 104.765 29.2227C104.636 29.0755 104.462 28.9931 104.282 28.9932H88.8689C88.7777 28.9932 88.6874 29.014 88.6032 29.0546C88.519 29.0952 88.4425 29.1546 88.378 29.2296C88.3136 29.3045 88.2625 29.3935 88.2276 29.4915C88.1927 29.5894 88.1747 29.6944 88.1747 29.8004Z" fill="black"/>
<path d="M87.6125 29.8004V40.677C87.6125 40.891 87.6856 41.0964 87.8158 41.2477C87.946 41.3991 88.1225 41.4842 88.3066 41.4842H103.896C103.988 41.4842 104.079 41.4629 104.163 41.4216C104.248 41.3803 104.324 41.3198 104.389 41.2436C104.453 41.1675 104.503 41.0772 104.537 40.978C104.571 40.8789 104.587 40.7729 104.585 40.6663L104.408 29.7802C104.405 29.5703 104.331 29.3703 104.202 29.2231C104.073 29.076 103.9 28.9935 103.719 28.9932H88.3107C88.2192 28.9926 88.1285 29.013 88.0438 29.0533C87.9591 29.0935 87.8821 29.1529 87.8172 29.2279C87.7523 29.3029 87.7008 29.3921 87.6657 29.4904C87.6306 29.5886 87.6125 29.694 87.6125 29.8004Z" fill="#4C4C56"/>
<path d="M88.2258 30.48V40.0552C88.2258 40.2693 88.299 40.4746 88.4292 40.626C88.5593 40.7773 88.7359 40.8624 88.92 40.8624H103.356C103.539 40.8624 103.714 40.7778 103.843 40.6274C103.973 40.4769 104.046 40.2728 104.046 40.06V30.4741C104.045 30.2615 103.972 30.0577 103.843 29.9074C103.714 29.7572 103.538 29.6729 103.356 29.6729H88.92C88.7359 29.6729 88.5593 29.7579 88.4292 29.9093C88.299 30.0606 88.2258 30.2659 88.2258 30.48Z" fill="#6C63FF"/>
<path d="M94.472 41.3055L95.8428 44.3757H98.9403L97.3916 40.8633L94.472 41.3055Z" fill="#4C4C56"/>
<path d="M93.3802 44.377L93.1512 44.7035H97.8996V44.377H93.3802Z" fill="#4C4C56"/>
<path d="M73.0366 31.5458C73.1204 32.0722 73.2042 32.5993 73.3579 33.1016C73.3579 33.1016 73.3579 33.1016 73.3579 33.1016C73.3587 33.1051 73.3598 33.1084 73.361 33.1121C73.3625 33.117 73.3643 33.1226 73.3661 33.1301C73.3467 33.122 73.329 33.1095 73.3139 33.0932C73.2838 33.0558 73.2617 33.0106 73.2495 32.9613C73.0934 32.4552 73.0082 31.9254 72.9233 31.3969C72.8196 30.7522 72.7163 30.1094 72.4849 29.5137C72.4178 29.3597 72.3594 29.2009 72.31 29.0381C72.3006 29.0038 72.2928 28.9689 72.2865 28.9335L72.31 28.9169L72.3356 28.905L72.3612 28.8967L72.3867 28.8895C72.3922 28.9947 72.408 29.0988 72.4337 29.1998C72.4828 29.3623 72.5405 29.5211 72.6065 29.6754C72.8331 30.267 72.9348 30.9058 73.0366 31.5458Z" fill="url(#paint1_linear_381_179)"/>
<path d="M76.7764 33.7263C76.6154 33.937 76.483 34.1751 76.3838 34.4323C76.3685 34.4715 76.3531 34.5095 76.3388 34.5511C75.887 35.7397 75.7336 37.4214 75.7336 37.4214C75.7336 37.4214 75.4535 37.2753 75.0569 37.0471C74.3178 36.6216 73.1769 35.9132 72.7159 35.3486C72.5114 35.0931 72.4378 34.8673 72.6075 34.7092C72.6443 34.6747 72.6821 34.6355 72.72 34.5903C72.8507 34.4384 72.9701 34.2738 73.0767 34.0983C73.224 33.8606 73.3691 33.5955 73.5061 33.3234C73.5869 33.1641 73.6635 33.0036 73.7351 32.8479L73.7637 32.7861C74.0704 32.1099 74.2943 31.5322 74.2943 31.5322C74.2943 31.5322 74.3965 31.5703 74.5621 31.638C75.3258 31.9553 77.4286 32.9193 76.7764 33.7263Z" fill="#EFB7B9"/>
<path d="M90.7693 61.2705C90.7693 61.2705 90.894 62.3475 91.0524 63.4839L90.6895 63.4625C89.7191 63.4039 88.7476 63.329 87.775 63.2379C87.223 61.7508 86.6505 59.9855 86.6505 59.9582C86.6505 59.9308 86.6331 59.3495 86.6137 58.7005C86.6076 58.4722 86.6004 58.2369 86.5943 58.0158C86.5841 57.6806 86.5749 57.3786 86.5698 57.1908C86.5698 57.0624 86.5636 56.9863 86.5636 56.9863C86.5636 56.9863 86.0382 57.0933 85.5659 57.1682L85.3563 57.2003C85.248 57.2158 85.1519 57.2276 85.065 57.2348C84.9901 57.2481 84.9139 57.2481 84.8391 57.2348C84.6775 57.1623 85.0128 55.3328 85.0128 55.3328L85.847 52.9851L86.0801 52.3313L86.1823 52.3015C86.2324 52.2873 86.2999 52.2706 86.3806 52.2528C87.177 52.0828 89.3044 51.8665 89.6652 54.3081C90.1119 57.3239 90.1764 58.0015 90.1764 58.0015L90.7693 61.2705Z" fill="#EFB7B9"/>
<path opacity="0.05" d="M90.7693 61.2705C90.7693 61.2705 90.894 62.3475 91.0524 63.4839L90.6895 63.4625C89.7191 63.4039 88.7476 63.329 87.775 63.2379C87.223 61.7508 86.6505 59.9855 86.6505 59.9582C86.6505 59.9308 86.6331 59.3495 86.6137 58.7005C86.6076 58.4722 86.6004 58.2369 86.5943 58.0158C86.5841 57.6806 86.5749 57.3786 86.5698 57.1908C86.5698 57.0624 86.5636 56.9863 86.5636 56.9863C86.5636 56.9863 86.0382 57.0933 85.5659 57.1682L85.3563 57.2003C85.248 57.2158 85.1519 57.2276 85.065 57.2348C84.9901 57.2481 84.9139 57.2481 84.8391 57.2348C84.6775 57.1623 85.0128 55.3328 85.0128 55.3328L85.847 52.9851L86.0801 52.3313L86.1823 52.3015C86.2324 52.2873 86.2999 52.2706 86.3806 52.2528C87.177 52.0828 89.3044 51.8665 89.6652 54.3081C90.1119 57.3239 90.1764 58.0015 90.1764 58.0015L90.7693 61.2705Z" fill="black"/>
<path d="M90.6895 63.4623C89.7191 63.4037 88.7476 63.3288 87.775 63.2377L87.407 63.2032L87.2445 63.1877C86.7865 61.9027 86.3796 60.6462 86.3796 60.6236C86.3796 60.601 86.3622 60.015 86.3428 59.366C86.3193 58.5552 86.2927 57.6518 86.2927 57.6518L86.2242 57.6649L86.1956 57.6708H86.1833H86.1588L85.9942 57.7029L85.9043 57.7196C85.7417 57.7505 85.5455 57.7849 85.3533 57.817L85.3103 57.8242L85.1979 57.8408L85.0956 57.8551C85.0169 57.867 84.9423 57.8765 84.8748 57.8836L84.792 57.8919C84.7172 57.9058 84.6409 57.9058 84.5661 57.8919C84.4046 57.8194 84.7399 55.99 84.7399 55.99L85.8072 52.9884L85.844 52.9765C85.9002 52.9599 86.0188 52.9278 86.1793 52.8957C86.2396 52.8838 86.306 52.8719 86.3776 52.8612C87.3038 52.7233 89.0662 52.7626 89.3923 54.9653C89.839 57.9811 89.9034 58.6587 89.9034 58.6587L90.4994 61.9372C90.4994 61.9372 90.5771 62.6148 90.6895 63.4623Z" fill="#EFB7B9"/>
<path opacity="0.1" d="M86.3428 59.3671C86.3193 58.5562 86.2927 57.6514 86.2927 57.6514C86.2927 57.6514 85.2704 57.8594 84.7941 57.8999L84.8902 57.5218C84.8902 57.5218 86.6403 56.9593 86.6771 57.2768C86.7037 57.4992 86.4788 58.681 86.3428 59.3671Z" fill="black"/>
<path opacity="0.1" d="M86.3796 52.2461V53.1054C86.3796 53.1054 86.2927 54.6505 85.6098 57.0145C85.5955 57.0656 85.5802 57.1155 85.5638 57.1655C85.4922 57.3929 85.4075 57.6145 85.3103 57.8287C85.1181 57.8596 84.9321 57.8857 84.7941 57.8976C84.7192 57.9109 84.643 57.9109 84.5681 57.8976C84.4066 57.8251 84.7409 55.9959 84.7409 55.9959L85.8082 52.9961L85.846 52.9842L86.078 52.3293C86.078 52.3293 86.1925 52.2865 86.3796 52.2461Z" fill="black"/>
<path d="M86.1813 52.1113V53.1063C86.1813 53.1063 86.0944 54.6516 85.4115 57.0172C85.3941 57.079 85.3747 57.1361 85.3553 57.1991C85.3359 57.2621 85.3103 57.337 85.2848 57.4036C85.2285 57.5617 85.1651 57.715 85.0987 57.8624C84.5641 59.0404 83.7493 59.8832 83.232 60.3469C83.1564 60.4146 83.0858 60.474 83.0276 60.524H83.0225C82.9202 60.6048 82.8466 60.6631 82.7996 60.6975C82.7526 60.732 82.7485 60.7344 82.7485 60.7344C82.2639 60.3885 80.8869 60.3302 80.8869 60.3302L77.6729 61.009C76.9703 61.1497 76.2614 61.2433 75.5496 61.2895L75.1847 61.3097C74.9741 61.3192 74.7553 61.3252 74.5314 61.3264C74.3505 61.3264 74.1665 61.3264 73.9794 61.318C73.3752 61.3004 72.7727 61.2349 72.1761 61.1219C71.848 61.0593 71.5231 60.9755 71.2029 60.8711C70.9746 60.7975 70.7498 60.7102 70.5292 60.6096C68.2802 59.5825 68.866 57.1468 69.2453 56.0924C69.2657 56.0365 69.2851 55.9854 69.3035 55.9379C69.3874 55.7227 69.4497 55.5967 69.4497 55.5967L69.599 55.1771L69.8433 54.4888L69.8975 54.3378L69.9128 54.2938L70.0937 53.7839L72.6494 53.3987L74.5274 53.1158L75.0988 53.0302L75.4863 52.972L76.2254 52.8602L76.5034 52.8186C76.6749 52.7877 76.8482 52.7718 77.0217 52.7711C77.1155 52.766 77.2092 52.7821 77.2977 52.8186C77.5022 52.9268 79.0601 52.6308 79.0601 52.6308C79.0601 52.6308 80.2756 52.1981 81.3429 52.3419C81.8707 52.3843 82.4002 52.3883 82.9284 52.3538L83.0593 52.3467L83.229 52.3384H83.2658C84.6479 52.2635 86.1813 52.1113 86.1813 52.1113Z" fill="#444053"/>
<path opacity="0.1" d="M76.9859 55.0973C76.9859 55.0973 75.7592 58.3432 75.7081 58.4003C75.657 58.4573 75.659 59.47 75.7081 59.4105C75.7572 59.3511 77.4582 54.9678 77.4582 54.9678L76.9859 55.0973Z" fill="black"/>
<path opacity="0.1" d="M82.9294 52.3512C82.9294 52.3512 82.3089 52.8172 82.1229 53.1928C81.9368 53.5684 80.2368 57.3046 79.8156 57.8526C79.4658 58.3429 79.1503 58.8648 78.872 59.4134C78.823 59.5121 78.823 60.1326 79.1204 59.5406C79.4179 58.9486 79.3443 58.8488 79.927 58.1142C80.5097 57.3795 81.1537 55.7189 81.4032 55.3872C81.6526 55.0555 81.9992 54.0594 82.4336 53.4674L83.2658 52.3369L82.9294 52.3512Z" fill="black"/>
<path opacity="0.1" d="M83.0787 58.7626C83.0787 58.7626 82.6442 58.4172 82.2353 59.0071C81.8264 59.5969 83.0787 58.7626 83.0787 58.7626Z" fill="black"/>
<path opacity="0.1" d="M83.6123 58.9404C83.6123 58.9404 83.2525 59.6702 83.0787 59.7284C82.9049 59.7867 83.6123 58.9404 83.6123 58.9404Z" fill="black"/>
<path opacity="0.1" d="M83.0787 59.123C83.0787 59.123 82.7935 59.6998 82.5451 59.6416L83.0787 59.123Z" fill="black"/>
<path d="M81.0699 43.5242C81.0699 43.5242 83.7002 43.3946 83.9609 43.2936C84.2216 43.1926 86.5289 42.8467 86.5289 42.8467C86.5289 42.8467 93.3658 43.4089 91.4184 44.0876C89.471 44.7663 86.8274 44.4763 86.8274 44.4763C86.8274 44.4763 84.2461 45.256 83.8495 45.6649C83.4528 46.0738 80.524 46.0833 80.524 46.0833L81.0699 43.5242Z" fill="#EFB7B9"/>
<path opacity="0.05" d="M81.0699 43.5242C81.0699 43.5242 83.7002 43.3946 83.9609 43.2936C84.2216 43.1926 86.5289 42.8467 86.5289 42.8467C86.5289 42.8467 93.3658 43.4089 91.4184 44.0876C89.471 44.7663 86.8274 44.4763 86.8274 44.4763C86.8274 44.4763 84.2461 45.256 83.8495 45.6649C83.4528 46.0738 80.524 46.0833 80.524 46.0833L81.0699 43.5242Z" fill="black"/>
<path d="M71.713 36.5552C71.713 36.5552 69.3056 37.5062 70.472 39.9312C71.6384 42.3563 73.1401 43.4974 73.1401 43.4974L77.0115 46.6143C77.0115 46.6143 78.6369 47.696 79.3811 47.2491L80.5966 47.1302L80.8011 43.4214C80.8011 43.4214 79.7788 44.345 78.6665 43.0647C77.5543 41.7845 76.1845 40.9143 76.073 40.2225C75.9616 39.5306 73.1146 35.9633 71.713 36.5552Z" fill="#A36468"/>
<path d="M79.3188 44.4052C79.3188 44.4052 80.5721 44.9246 80.523 44.9531C80.4739 44.9817 79.3188 45.4868 79.3188 45.4868L79.4057 47.4633L81.1057 47.3552C81.1057 47.3552 81.7262 43.7563 81.1926 43.395L79.3188 43.2939V44.4052Z" fill="#67647E"/>
<path opacity="0.1" d="M79.3188 44.4052C79.3188 44.4052 80.5721 44.9246 80.523 44.9531C80.4739 44.9817 79.3188 45.4868 79.3188 45.4868L79.4057 47.4633L81.1057 47.3552C81.1057 47.3552 81.7262 43.7563 81.1926 43.395L79.3188 43.2939V44.4052Z" fill="black"/>
<path opacity="0.1" d="M76.7764 33.727C76.6154 33.9378 76.483 34.1759 76.3838 34.4331C76.3685 34.4723 76.3531 34.5103 76.3388 34.5519C75.4259 34.5519 74.7696 33.727 74.2094 32.9888C74.1072 32.8521 73.8486 33.0589 73.7637 32.9056C73.7545 32.8877 73.7453 32.8699 73.7351 32.8521L73.7637 32.7902C74.0704 32.1139 74.2943 31.5361 74.2943 31.5361C74.2943 31.5361 74.3965 31.5742 74.5621 31.6419C75.3258 31.9558 77.4286 32.9198 76.7764 33.727Z" fill="black"/>
<path d="M79.4343 30.8555C79.434 31.7985 79.1137 32.7033 78.5428 33.3731C77.972 34.0429 77.1968 34.4236 76.3859 34.4324H76.3562C75.9194 34.4327 75.4876 34.3247 75.0896 34.1156C74.6915 33.9066 74.3364 33.6012 74.0479 33.2199C73.9447 33.0836 73.8504 32.9386 73.7658 32.786C73.5074 32.3179 73.3464 31.7862 73.2956 31.2331C73.2447 30.68 73.3055 30.1207 73.4729 29.5997C73.6404 29.0787 73.9099 28.6102 74.2603 28.2314C74.6106 27.8527 75.032 27.5741 75.4911 27.4177C75.9501 27.2614 76.4342 27.2316 76.9049 27.3308C77.3756 27.4299 77.8199 27.6553 78.2026 27.9889C78.5854 28.3226 78.8959 28.7554 79.1097 29.253C79.3235 29.7506 79.4347 30.2992 79.4343 30.8555Z" fill="#EFB7B9"/>
<path opacity="0.1" d="M76.3041 53.0479C76.3041 53.0479 76.07 53.3807 75.8113 53.6909C75.6161 53.9286 75.4075 54.1462 75.2736 54.202C74.9669 54.3328 73.5613 55.5725 73.5613 55.5725C73.5613 55.5725 72.445 56.4533 72.1598 56.7124C71.8746 56.9715 70.8441 56.8135 70.8441 56.8135C70.8441 56.8135 69.8525 56.5615 69.2381 56.1003C69.2978 55.9309 69.3661 55.7658 69.4426 55.6058L70.0876 53.7872L72.6433 53.4033L76.3041 53.0479Z" fill="black"/>
<path d="M76.254 52.8174C76.254 52.8174 76.0209 53.1502 75.7623 53.4604C75.567 53.6982 75.3534 53.9157 75.2246 53.9715C74.9179 54.1011 73.5122 55.342 73.5122 55.342C73.5122 55.342 72.3949 56.2228 72.1097 56.4819C71.8245 56.7411 70.795 56.583 70.795 56.583C70.795 56.583 69.3802 56.2264 68.8834 55.5726C68.5358 55.1174 68.8956 54.2735 69.141 53.8087C69.2432 53.6102 69.3301 53.4806 69.3301 53.4806L76.254 52.8174Z" fill="#67647E"/>
<path d="M78.091 41.6326C77.2466 41.5458 74.467 37.5915 74.467 37.5915L74.5304 37.4905L75.1131 36.5527H76.4758L76.6261 37.418C77.6627 39.1081 78.273 40.2836 78.4386 40.9563C78.5582 41.446 78.4447 41.6694 78.091 41.6326Z" fill="#67647E"/>
<path opacity="0.1" d="M78.091 41.6333C77.2466 41.5465 74.467 37.5922 74.467 37.5922L74.5304 37.4912C75.0286 38.0228 75.4968 38.5914 75.932 39.1932C77.9663 41.9768 78.3691 41.1995 78.4386 40.957C78.5582 41.4467 78.4447 41.6701 78.091 41.6333Z" fill="black"/>
<path opacity="0.1" d="M76.254 52.8174C76.254 52.8174 76.0209 53.1501 75.7623 53.4603C75.6259 53.5218 75.482 53.5579 75.336 53.5673C75.0129 53.553 74.2687 54.1449 74.2687 54.1449C74.2687 54.1449 72.9541 54.0581 72.7057 54.2162C72.4572 54.3742 71.5014 54.404 71.5014 54.404C69.7523 54.9839 69.2688 54.1033 69.141 53.8097C69.2432 53.6113 69.3301 53.4817 69.3301 53.4817L76.254 52.8174Z" fill="black"/>
<path d="M79.2922 44.2246C79.2922 44.2805 79.283 44.3363 79.2769 44.3898C79.2707 44.4433 79.2646 44.498 79.2574 44.5491C79.2244 44.8428 79.1487 45.1278 79.0336 45.392C78.8107 45.8248 78.1278 47.5129 78.1278 47.5129L78.0818 47.8244L78.0583 47.9872L78.0338 48.1477L77.8671 49.2854L77.7925 50.5991C77.7925 50.5991 77.3836 51.2624 77.2098 51.5501C77.036 51.8378 77.0606 52.2575 77.1229 52.5606C77.1853 52.8638 76.5525 52.9066 76.5525 52.9066C76.5525 52.9066 75.659 53.4118 75.336 53.3976C75.0129 53.3833 74.2687 53.973 74.2687 53.973C74.2687 53.973 72.9541 53.8862 72.7057 54.0455C72.4573 54.2048 71.5014 54.2333 71.5014 54.2333C69.6286 54.8527 69.2064 53.7994 69.1195 53.583C69.0326 53.3667 69.4916 52.4869 69.4916 52.4869C69.4916 52.4869 69.5939 51.3754 69.7891 51.2886C69.9844 51.2018 70.2236 49.7312 70.2236 49.7312C70.2236 49.7312 70.149 49.2831 70.3105 49.0382C70.472 48.7933 70.4597 48.1002 70.6703 47.7685C70.8809 47.4368 70.4475 46.3253 70.5221 46.0364C70.5967 45.7475 70.2859 44.5789 70.3105 44.2757C70.335 43.9726 70.2491 43.7277 70.0498 43.1214C69.8801 42.6042 69.9281 40.3062 69.9476 39.6476C69.9476 39.5359 69.9527 39.4717 69.9527 39.4717C69.9527 39.4717 70.1265 38.8214 70.5855 37.5232C70.933 36.54 71.7151 36.1679 72.0739 36.0467C72.1354 36.0251 72.1979 36.0072 72.261 35.9932C72.351 36.0082 72.4393 36.0341 72.5247 36.0704C72.8866 36.2119 73.6104 36.6125 74.6429 37.7348C75.0997 38.2326 75.5309 38.7613 75.934 39.3183C78.2617 42.4996 78.4519 41.0148 78.4519 41.0148C78.4519 41.0148 78.5541 41.2858 79.0336 42.3677C79.2901 42.943 79.3372 43.6302 79.2922 44.2246Z" fill="#A36468"/>
<path opacity="0.1" d="M75.4597 36.3774L73.1248 34.2119C73.1248 34.2119 72.2835 34.3308 71.9359 35.9733L74.3393 38.4205L75.4597 36.3774Z" fill="black"/>
<path d="M75.4597 36.3772L75.0508 37.0416L74.6357 37.7226L74.3229 38.2563L72.4041 36.3772L72.0739 36.0444L71.8889 35.8614C72.0759 34.9735 72.4082 34.5302 72.6729 34.3163C72.7932 34.2094 72.9332 34.1365 73.0819 34.1035L75.4597 36.3772Z" fill="#67647E"/>
<path d="M91.5166 44.9528C89.5681 45.6304 86.9255 45.3427 86.9255 45.3427C86.9255 45.3427 84.3443 46.1213 83.9476 46.5314C83.6921 46.7917 82.3866 46.8879 81.4942 46.9272C80.9984 46.9486 80.6273 46.9498 80.6273 46.9498L81.1721 44.3906L81.487 44.374C82.1934 44.3359 83.8587 44.2385 84.0631 44.1588C84.3238 44.0578 86.6311 43.7119 86.6311 43.7119C86.6311 43.7119 93.464 44.2741 91.5166 44.9528Z" fill="#EFB7B9"/>
<path opacity="0.1" d="M79.2574 44.5424C79.2244 44.8361 79.1487 45.1211 79.0335 45.3852C78.8107 45.8179 78.1278 47.5059 78.1278 47.5059L78.0338 48.1466C77.7169 48.0097 77.4093 47.8452 77.1137 47.6545L73.2393 44.5341C73.2393 44.5341 71.7376 43.3941 70.5712 40.9679C69.4047 38.5417 71.8122 37.5919 71.8122 37.5919C73.2137 36.9975 76.0557 40.5637 76.1671 41.2568C76.2785 41.9498 77.6443 42.8152 78.7606 44.099C78.9078 44.2728 79.075 44.422 79.2574 44.5424Z" fill="black"/>
<path opacity="0.1" d="M79.2922 44.2243C79.283 44.3372 79.2717 44.4454 79.2574 44.5488C79.2244 44.8424 79.1487 45.1274 79.0335 45.3916C78.8107 45.8243 78.1278 47.5123 78.1278 47.5123L78.0818 47.8237C77.7468 47.6832 77.422 47.5114 77.1106 47.3102L73.2393 44.1886C73.2393 44.1886 71.7376 43.0486 70.5712 40.6224C69.4047 38.1962 71.8122 37.2452 71.8122 37.2452C73.2137 36.6509 76.0557 40.217 76.1671 40.9101C76.2785 41.6031 77.6443 42.4685 78.7606 43.7535C78.9165 43.9405 79.0957 44.0992 79.2922 44.2243Z" fill="black"/>
<path d="M80.8951 44.2889L80.6968 47.9966L79.4803 48.1155C79.4536 48.1317 79.4259 48.1457 79.3975 48.1571C78.6226 48.4875 77.1106 47.4807 77.1106 47.4807L73.2393 44.3603C73.2393 44.3603 71.7376 43.2203 70.5712 40.7941C69.4047 38.3679 71.8122 37.4181 71.8122 37.4181C73.2137 36.8237 76.0557 40.3899 76.1671 41.0829C76.2785 41.776 77.6443 42.6414 78.7606 43.9252C78.9242 44.1165 79.1125 44.277 79.3188 44.4007C79.5652 44.5512 79.8425 44.6204 80.1204 44.6007C80.3982 44.581 80.6662 44.4732 80.8951 44.2889Z" fill="#A36468"/>
<path opacity="0.1" d="M80.8951 44.29L80.6968 47.9974L79.4803 48.1163C79.4536 48.1325 79.4259 48.1465 79.3975 48.1579L79.3188 46.3559C79.3188 46.3559 80.4729 45.8507 80.523 45.8222C80.5731 45.7937 79.3188 45.2742 79.3188 45.2742V44.4125C79.5661 44.5615 79.8437 44.6288 80.1216 44.6073C80.3996 44.5857 80.6671 44.476 80.8951 44.29Z" fill="black"/>
<path opacity="0.1" d="M81.489 46.9215C80.9932 46.9429 80.6222 46.9441 80.6222 46.9441L81.1721 44.3907L81.487 44.374C81.6894 44.7794 81.6025 45.9705 81.489 46.9215Z" fill="black"/>
<path d="M79.4179 45.2705C79.4179 45.2705 80.6712 45.7899 80.6222 45.8184C80.5731 45.8469 79.4179 46.352 79.4179 46.352L79.5048 48.3286L81.2049 48.2204C81.2049 48.2204 81.8254 44.6215 81.2918 44.2602L79.4179 44.1592V45.2705Z" fill="#67647E"/>
<path opacity="0.1" d="M71.986 47.6377C71.986 47.6377 71.5638 48.0986 71.2162 48.2209L71.986 47.6377Z" fill="black"/>
<path opacity="0.1" d="M70.9811 49.0093C70.9811 49.0093 72.0105 48.9652 72.1342 48.7197C72.2579 48.4742 70.9811 49.0093 70.9811 49.0093Z" fill="black"/>
<path opacity="0.1" d="M70.472 50.725C70.5344 50.725 71.7744 50.5228 71.8245 50.335L70.472 50.725Z" fill="black"/>
<path opacity="0.1" d="M70.0876 51.8214C70.5344 51.806 71.2908 51.2441 71.2908 51.2441L70.0876 51.8214Z" fill="black"/>
<path opacity="0.1" d="M72.9786 52.1098C72.9786 52.1098 75.6713 52.1098 75.795 51.5334C75.9187 50.9571 72.9786 52.1098 72.9786 52.1098Z" fill="black"/>
<path opacity="0.1" d="M75.0007 44.0438C75.0508 44.0438 77.1229 44.0438 77.3212 43.712C77.5196 43.3803 75.0007 44.0438 75.0007 44.0438Z" fill="black"/>
<path opacity="0.1" d="M72.719 34.5945C72.7358 34.7124 72.7446 34.8316 72.7455 34.9511C72.7456 35.0838 72.7353 35.2163 72.7149 35.3469C72.6739 35.5948 72.6094 35.8368 72.5227 36.0683L72.5012 36.1266C72.4705 36.2098 72.4378 36.2906 72.4041 36.3714C72.2522 36.7316 72.0729 37.0752 71.8684 37.3983C71.4018 38.1187 70.8623 38.7712 70.2614 39.3416C70.1571 39.4438 70.0518 39.5448 69.9455 39.6446C69.9455 39.5329 69.9506 39.4687 69.9506 39.4687C69.9506 39.4687 70.1244 38.8186 70.5834 37.5207C70.931 36.5378 71.713 36.1658 72.0718 36.0445L71.8868 35.8615C72.0739 34.9737 72.4061 34.5303 72.6709 34.3164C72.6873 34.4044 72.7067 34.4971 72.719 34.5945Z" fill="black"/>
<path opacity="0.1" d="M78.9845 28.9971C78.953 29.0062 78.9228 29.0202 78.8945 29.0387C78.7003 29.1635 78.6441 29.4595 78.4856 29.6461C78.3026 29.8659 78.0164 29.8992 77.7557 29.9373C77.495 29.9753 77.2037 30.0502 77.0657 30.3105C76.9634 30.5042 76.9726 30.7478 76.9358 30.9713C76.9319 31.0114 76.918 31.0494 76.896 31.0806C76.8608 31.1138 76.8164 31.1307 76.7713 31.1282C76.2601 31.1698 75.888 30.9653 75.4096 30.8215C75.1847 30.755 74.923 30.7633 74.7512 30.9404C74.5959 31.1032 74.5529 31.3694 74.557 31.6131V31.6345C74.579 31.8713 74.5852 32.1097 74.5754 32.3476C74.5519 32.5316 74.4911 32.7065 74.3982 32.858C74.3053 33.0094 74.1828 33.1331 74.0408 33.2188C73.9214 33.2933 73.7896 33.3371 73.6543 33.3472C73.6022 33.3535 73.5494 33.3446 73.501 33.321C73.592 33.1404 73.6789 32.9645 73.7586 32.785C73.5368 32.3863 73.3855 31.9403 73.3134 31.4729C73.2413 31.0055 73.25 30.5261 73.3388 30.0627C73.4277 29.5992 73.595 29.161 73.831 28.7734C74.067 28.3859 74.367 28.0569 74.7134 27.8055C75.0599 27.5541 75.4459 27.3853 75.849 27.3091C76.2522 27.2329 76.6643 27.2507 77.0614 27.3615C77.4585 27.4723 77.8327 27.6739 78.1622 27.9545C78.4917 28.2351 78.7698 28.5891 78.9804 28.9959L78.9845 28.9971Z" fill="black"/>
<path d="M79.8268 28.5409C79.7894 28.6383 79.7305 28.7223 79.6561 28.7846C79.423 28.9606 79.0887 28.7668 78.8454 28.9237C78.6502 29.0486 78.595 29.3446 78.4365 29.5312C78.2546 29.7512 77.9683 29.7844 77.7066 29.8225C77.4449 29.8605 77.1556 29.9354 77.0166 30.1958C76.9144 30.3896 76.9246 30.6321 76.8868 30.8568C76.8833 30.8971 76.8694 30.9352 76.8469 30.9661C76.8116 30.999 76.7673 31.0159 76.7222 31.0137C76.211 31.0553 75.8389 30.8496 75.3605 30.707C75.1366 30.6404 74.8749 30.6487 74.7032 30.8258C74.5314 31.003 74.5049 31.2562 74.5079 31.4999C74.5292 31.7432 74.5357 31.9879 74.5274 32.2322C74.492 32.4944 74.3822 32.7352 74.2154 32.9164C74.0487 33.0976 73.8346 33.2087 73.6073 33.232C73.5742 33.2378 73.5404 33.2359 73.5079 33.2263C73.4754 33.2167 73.4449 33.1997 73.4182 33.1762C73.3887 33.139 73.3673 33.0942 73.3558 33.0454C73.0154 31.9326 73.0185 30.6975 72.6055 29.618C72.5389 29.4641 72.4812 29.3053 72.4327 29.1425C72.4245 29.1092 72.4164 29.0747 72.4102 29.0402C72.398 28.9716 72.3898 28.9021 72.3857 28.8322C72.3434 28.8392 72.3034 28.8584 72.2691 28.8881C72.257 28.9001 72.246 28.9136 72.2364 28.9285C72.1779 29.0422 72.1482 29.1728 72.1506 29.3053C72.0742 30.7916 72.1984 32.2826 72.5186 33.7242C72.6163 34.0841 72.6757 34.4566 72.6954 34.8334C72.684 35.2408 72.6005 35.641 72.4501 36.0091C71.8091 37.7282 70.5211 38.9871 69.2402 40.1248C69.3718 39.9608 69.4734 39.7673 69.5387 39.5562C69.6041 39.3451 69.6319 39.1208 69.6204 38.8968C69.5984 38.9823 69.5564 39.0591 69.4993 39.1186C69.4421 39.1782 69.3719 39.2183 69.2964 39.2344C69.1449 39.2643 68.99 39.2615 68.8394 39.2261C69.0357 39.1512 69.1124 38.8825 69.1614 38.6495C69.2616 38.174 69.3546 37.6941 69.4405 37.2098C69.532 36.7476 69.5922 36.2778 69.6204 35.8047C69.6358 35.4028 69.6092 34.9998 69.5949 34.5968C69.5645 33.4918 69.5987 32.3856 69.6971 31.2859C69.7728 30.3349 69.9097 29.3065 70.5098 28.6574C70.7688 28.4029 71.058 28.1931 71.3685 28.0345C71.3685 27.9156 72.1179 27.6778 72.217 27.6612C72.2582 27.6519 72.2999 27.6463 72.3417 27.6446C72.3953 27.6355 72.4499 27.6464 72.4979 27.6756C72.5458 27.7049 72.5845 27.751 72.6085 27.8074C72.6453 27.7301 72.6862 27.6541 72.7292 27.5815C72.7882 27.4817 72.8531 27.3868 72.9234 27.2974C73.3129 26.7981 73.8179 26.4462 74.2687 26.023C74.4342 25.8504 74.6136 25.6967 74.8044 25.5641C75.0539 25.4182 75.3277 25.3371 75.6069 25.3263C76.0684 25.296 76.5301 25.3803 76.9614 25.5736C77.5829 25.8518 78.1258 26.3511 78.7688 26.5532C78.9275 26.5932 79.0842 26.6436 79.238 26.7042C79.3855 26.7721 79.5191 26.8751 79.6304 27.0066C79.7416 27.1382 79.8279 27.2953 79.8837 27.468C79.9396 27.6407 79.9637 27.825 79.9546 28.0092C79.9455 28.1933 79.9034 28.3733 79.8309 28.5374L79.8268 28.5409Z" fill="#444053"/>
<g opacity="0.1">
<path d="M69.4742 39.1895C69.5488 38.9664 69.5806 38.7271 69.5673 38.4883C69.5449 38.5738 69.5028 38.6505 69.4454 38.71C69.3881 38.7696 69.3178 38.8096 69.2422 38.8258C69.2033 38.8367 69.1636 38.8435 69.1236 38.846C69.0725 39.0362 68.9917 39.2192 68.8353 39.2787C68.9858 39.3144 69.1407 39.3177 69.2923 39.2882C69.3579 39.2696 69.4198 39.2361 69.4742 39.1895Z" fill="black"/>
<path d="M79.9004 27.5938C79.8929 27.7817 79.851 27.9656 79.7778 28.1333C79.739 28.2284 79.6799 28.3103 79.606 28.3711C79.374 28.547 79.0387 28.3544 78.7954 28.5101C78.6011 28.6349 78.5449 28.932 78.3864 29.1175C78.2035 29.3373 77.9172 29.3718 77.6565 29.4087C77.3959 29.4455 77.1045 29.5275 76.9665 29.7819C76.8643 29.9756 76.8735 30.2192 76.8367 30.4427C76.8359 30.4661 76.8309 30.4891 76.8219 30.5101C76.813 30.5311 76.8004 30.5496 76.7848 30.5645C76.7693 30.5795 76.7512 30.5904 76.7318 30.5966C76.7124 30.6029 76.692 30.6043 76.6721 30.6008C76.161 30.6424 75.7888 30.4367 75.3104 30.2929C75.0855 30.2264 74.8238 30.2347 74.6521 30.4118C74.4967 30.5758 74.4538 30.8408 74.4578 31.0857C74.4793 31.3285 74.4854 31.5728 74.4762 31.8166C74.4421 32.0795 74.3327 32.3212 74.1657 32.5028C73.9988 32.6844 73.784 32.7952 73.5562 32.8174C73.5231 32.823 73.4893 32.8209 73.4569 32.8114C73.4244 32.8018 73.3939 32.7848 73.3671 32.7615C73.3376 32.7239 73.3162 32.6787 73.3047 32.6296C72.9643 31.5171 72.9663 30.2822 72.5533 29.2042C72.4877 29.05 72.4303 28.8913 72.3816 28.7288C72.3556 28.6278 72.3394 28.5238 72.3336 28.4186C72.2749 28.4266 72.2212 28.4612 72.1843 28.5149C72.1268 28.6291 72.0971 28.7593 72.0984 28.8916C72.0508 29.8441 72.0851 30.7996 72.2007 31.7441C72.1268 30.9492 72.11 30.1486 72.1506 29.3504C72.1482 29.2179 72.1779 29.0874 72.2364 28.9736C72.2543 28.9466 72.2768 28.9241 72.3025 28.9075C72.3282 28.891 72.3565 28.8807 72.3857 28.8774C72.3913 28.9825 72.4071 29.0866 72.4327 29.1876C72.4816 29.3501 72.5393 29.5089 72.6055 29.663C73.0144 30.7422 73.0144 31.9759 73.3558 33.0884C73.3678 33.1375 73.3895 33.1827 73.4192 33.2203C73.4451 33.2455 73.4751 33.2644 73.5074 33.2756C73.5398 33.2868 73.5738 33.2903 73.6073 33.2857C73.8346 33.2623 74.0487 33.1513 74.2154 32.9701C74.3822 32.789 74.492 32.5482 74.5274 32.2861C74.5357 32.0418 74.5292 31.7972 74.5079 31.554C74.5079 31.3091 74.5478 31.0441 74.7032 30.8801C74.8749 30.6994 75.1366 30.6923 75.3605 30.7612C75.8389 30.9038 76.209 31.1095 76.7222 31.0679C76.7673 31.07 76.8116 31.0532 76.8469 31.0203C76.8693 30.9889 76.8832 30.9504 76.8868 30.9098C76.9246 30.6863 76.9133 30.4427 77.0166 30.2501C77.1556 29.9898 77.446 29.9138 77.7066 29.8757C77.9673 29.8377 78.2546 29.8056 78.4376 29.5857C78.5919 29.3991 78.6471 29.1032 78.8465 28.9772C79.0887 28.8215 79.4241 29.0152 79.6571 28.8393C79.7315 28.7771 79.7904 28.693 79.8279 28.5957C79.9623 28.2851 79.9883 27.9261 79.9004 27.5938Z" fill="black"/>
<path d="M72.6464 34.4278C72.6351 34.835 72.5519 35.2351 72.402 35.6033C71.8286 37.1401 70.7368 38.3096 69.5969 39.352C69.5487 39.6629 69.4253 39.9515 69.2412 40.1839C70.5211 39.0477 71.8112 37.789 72.4511 36.0704C72.6015 35.7024 72.6851 35.3022 72.6965 34.8949C72.694 34.721 72.6765 34.5478 72.6443 34.3779C72.6453 34.3898 72.6464 34.4088 72.6464 34.4278Z" fill="black"/>
</g>
<path opacity="0.1" d="M72.7741 27.5811C72.6821 28.073 72.5554 28.7123 72.4603 29.0414C72.4486 28.9727 72.4404 28.9033 72.4358 28.8335C72.3939 28.8405 72.3541 28.8597 72.3203 28.8893C72.3203 28.5435 72.356 28.029 72.3867 27.644C72.4404 27.6349 72.4952 27.6457 72.5433 27.675C72.5914 27.7042 72.6303 27.7504 72.6545 27.8068C72.6873 27.7308 72.7312 27.6547 72.7741 27.5811Z" fill="black"/>
<path d="M72.7251 27.5811C72.6331 28.073 72.5063 28.7123 72.4112 29.0414C72.3991 28.9728 72.3909 28.9034 72.3867 28.8335C72.3445 28.8405 72.3044 28.8597 72.2702 28.8893C72.2702 28.5435 72.306 28.029 72.3376 27.644C72.3912 27.635 72.4459 27.6459 72.4938 27.6751C72.5417 27.7043 72.5804 27.7504 72.6045 27.8068C72.6413 27.7308 72.6873 27.6547 72.7251 27.5811Z" fill="#67647E"/>
<g opacity="0.7">
<path d="M93.5417 0.899414H110.478V20.0562H93.5417V0.899414Z" fill="#2E001E"/>
<path d="M92.776 0V20.9519H111.252V0H92.776ZM93.5458 0.896374H110.482V20.0567H93.5417L93.5458 0.896374Z" fill="#FF2BC2"/>
<path d="M106.193 8.80424C106.052 8.73672 105.899 8.70589 105.747 8.71389C104.778 8.71389 104.13 9.58286 104.13 11.0236C104.13 12.6712 104.793 13.3333 105.655 13.3333C105.836 13.3396 106.016 13.3062 106.186 13.2346V8.80424H106.193ZM102.742 11.0961C102.742 9.00989 103.896 7.38014 105.791 7.38014C105.924 7.37678 106.058 7.38313 106.19 7.39916V5.07162C106.19 5.04766 106.198 5.02468 106.213 5.00774C106.228 4.9908 106.247 4.98128 106.268 4.98128H107.507C107.568 4.98128 107.584 5.00862 107.584 5.05379V13.2346C107.579 13.5278 107.592 13.8209 107.622 14.1119C107.622 14.1749 107.623 14.1844 107.577 14.2106C106.961 14.5518 106.288 14.7292 105.606 14.7301C103.935 14.7301 102.743 13.5306 102.743 11.0961H102.742ZM100.117 9.64586L102.275 14.503C102.314 14.5743 102.29 14.6457 102.229 14.6457H100.89C100.855 14.6507 100.82 14.6416 100.791 14.6199C100.761 14.5983 100.739 14.5653 100.728 14.5268C100.236 13.3452 99.7326 12.1188 99.2194 10.8477H99.2041C98.742 12.0471 98.2339 13.3547 97.7412 14.5327C97.7288 14.5632 97.7091 14.5887 97.6844 14.6063C97.6597 14.6238 97.6311 14.6325 97.6022 14.6314H96.3243C96.2476 14.6314 96.2405 14.5589 96.2783 14.5054L98.3873 9.78851L96.3478 5.11204C96.3383 5.10042 96.3321 5.08574 96.3299 5.06992C96.3277 5.0541 96.3296 5.03787 96.3355 5.02336C96.3413 5.00885 96.3508 4.99674 96.3627 4.98859C96.3745 4.98045 96.3883 4.97665 96.402 4.97771H97.7259C97.8025 4.97771 97.8414 4.99554 97.8639 5.07638C98.3494 6.26511 98.8422 7.43957 99.3042 8.64257H99.3196C99.7653 7.46097 100.258 6.26511 100.728 5.09778C100.766 5.02526 100.79 4.9789 100.866 4.9789H102.106C102.168 4.9789 102.19 5.03239 102.152 5.11323L100.12 9.6518L100.117 9.64586Z" fill="#FF2BC2"/>
</g>
<g opacity="0.7">
<path d="M23.3431 8.61426L29.1312 21.7876L19.4032 8.61426H23.3431Z" fill="#EA6C00"/>
<path d="M34.9203 8.61426L29.1322 21.7876L38.8602 8.61426H34.9203Z" fill="#EA6C00"/>
<path d="M23.3431 8.61426H34.9183L29.1312 21.7876L23.3431 8.61426Z" fill="#FDAD00"/>
<path d="M29.1312 1.31348L23.6477 1.98749L23.341 8.61347L29.1312 1.31348Z" fill="#FDD231"/>
<path d="M29.1312 1.31348L34.6136 1.98749L34.9203 8.61347L29.1312 1.31348Z" fill="#FDD231"/>
<path d="M38.8602 8.61329L34.6157 1.9873L34.9224 8.61329H38.8602Z" fill="#FDAD00"/>
<path d="M19.4032 8.61329L23.6477 1.9873L23.341 8.61329H19.4032Z" fill="#FDAD00"/>
<path d="M29.1312 1.31348L23.3431 8.61347H34.9183L29.1312 1.31348Z" fill="#FEEEB7"/>
</g>
<defs>
<linearGradient id="paint0_linear_381_179" x1="17.2615" y1="42.9899" x2="44.9959" y2="42.9899" gradientUnits="userSpaceOnUse">
<stop stop-color="#808080" stop-opacity="0.25"/>
<stop offset="0.54" stop-color="#808080" stop-opacity="0.12"/>
<stop offset="1" stop-color="#808080" stop-opacity="0.1"/>
</linearGradient>
<linearGradient id="paint1_linear_381_179" x1="80.3237" y1="63.4975" x2="80.3237" y2="25.1459" gradientUnits="userSpaceOnUse">
<stop stop-color="#808080" stop-opacity="0.25"/>
<stop offset="0.54" stop-color="#808080" stop-opacity="0.12"/>
<stop offset="1" stop-color="#808080" stop-opacity="0.1"/>
</linearGradient>
</defs>
</svg>
