<svg width="121" height="112" viewBox="0 0 121 112" fill="none" xmlns="http://www.w3.org/2000/svg">
<path d="M30.1679 98.9072L28.7639 90.0572H29.8199L31.0139 98.4692L30.8579 98.4632L32.7479 90.0572H34.1039L35.9879 98.4632L35.8319 98.4692L37.0259 90.0572H38.0879L36.6719 98.9072H35.0939L33.3659 90.9212H33.4859L31.7519 98.9072H30.1679ZM42.0571 99.0212C41.4171 99.0212 40.8511 98.8792 40.3591 98.5952C39.8711 98.3072 39.4871 97.9152 39.2071 97.4192C38.9311 96.9192 38.7931 96.3512 38.7931 95.7152C38.7931 95.0792 38.9311 94.5152 39.2071 94.0232C39.4871 93.5312 39.8711 93.1452 40.3591 92.8652C40.8511 92.5852 41.4171 92.4452 42.0571 92.4452C42.6971 92.4452 43.2611 92.5852 43.7491 92.8652C44.2411 93.1452 44.6251 93.5312 44.9011 94.0232C45.1811 94.5152 45.3211 95.0792 45.3211 95.7152C45.3211 96.3512 45.1811 96.9192 44.9011 97.4192C44.6251 97.9152 44.2411 98.3072 43.7491 98.5952C43.2611 98.8792 42.6971 99.0212 42.0571 99.0212ZM42.0571 98.0852C42.4971 98.0852 42.8851 97.9872 43.2211 97.7912C43.5571 97.5952 43.8191 97.3192 44.0071 96.9632C44.1991 96.6072 44.2951 96.1912 44.2951 95.7152C44.2951 95.2392 44.1991 94.8272 44.0071 94.4792C43.8191 94.1272 43.5571 93.8572 43.2211 93.6692C42.8851 93.4772 42.4971 93.3812 42.0571 93.3812C41.6211 93.3812 41.2331 93.4772 40.8931 93.6692C40.5571 93.8572 40.2931 94.1272 40.1011 94.4792C39.9131 94.8272 39.8191 95.2392 39.8191 95.7152C39.8191 96.1912 39.9131 96.6072 40.1011 96.9632C40.2931 97.3192 40.5571 97.5952 40.8931 97.7912C41.2331 97.9872 41.6211 98.0852 42.0571 98.0852ZM46.9141 98.9072V92.5352H47.9341V94.4912L47.5981 94.3712C47.6221 94.1352 47.6821 93.9032 47.7781 93.6752C47.8741 93.4432 48.0061 93.2352 48.1741 93.0512C48.3461 92.8632 48.5601 92.7152 48.8161 92.6072C49.0721 92.4952 49.3721 92.4392 49.7161 92.4392C49.9721 92.4392 50.1801 92.4612 50.3401 92.5052C50.5041 92.5452 50.6061 92.5772 50.6461 92.6012L50.3821 93.6032C50.3421 93.5752 50.2601 93.5392 50.1361 93.4952C50.0161 93.4512 49.8441 93.4292 49.6201 93.4292C49.2881 93.4292 49.0121 93.4892 48.7921 93.6092C48.5761 93.7292 48.4041 93.8892 48.2761 94.0892C48.1521 94.2852 48.0641 94.4992 48.0121 94.7312C47.9601 94.9632 47.9341 95.1932 47.9341 95.4212V98.9072H46.9141ZM54.253 99.0272C53.729 99.0272 53.249 98.9012 52.813 98.6492C52.377 98.3932 52.029 98.0192 51.769 97.5272C51.509 97.0312 51.379 96.4272 51.379 95.7152C51.379 95.0152 51.511 94.4212 51.775 93.9332C52.039 93.4452 52.389 93.0752 52.825 92.8232C53.261 92.5672 53.737 92.4392 54.253 92.4392C54.745 92.4392 55.205 92.5572 55.633 92.7932C56.065 93.0252 56.413 93.3492 56.677 93.7652C56.941 94.1812 57.073 94.6632 57.073 95.2112C57.073 95.2232 57.073 95.2352 57.073 95.2472C57.073 95.2592 57.073 95.2712 57.073 95.2832L56.341 95.3132C56.341 95.3012 56.341 95.2892 56.341 95.2772C56.341 95.2612 56.341 95.2472 56.341 95.2352C56.341 94.8872 56.249 94.5732 56.065 94.2932C55.885 94.0132 55.647 93.7912 55.351 93.6272C55.055 93.4592 54.737 93.3752 54.397 93.3752C53.829 93.3752 53.359 93.5672 52.987 93.9512C52.615 94.3312 52.429 94.9192 52.429 95.7152C52.429 96.5072 52.615 97.0972 52.987 97.4852C53.363 97.8692 53.833 98.0612 54.397 98.0612C54.753 98.0612 55.077 97.9752 55.369 97.8032C55.665 97.6312 55.901 97.4012 56.077 97.1132C56.253 96.8212 56.341 96.4952 56.341 96.1352L57.073 96.1532C57.073 96.6972 56.947 97.1872 56.695 97.6232C56.443 98.0552 56.103 98.3972 55.675 98.6492C55.251 98.9012 54.777 99.0272 54.253 99.0272ZM56.341 98.9072V89.5292H57.367V98.9072H56.341ZM59.1602 101.529V92.5352H60.1802V101.529H59.1602ZM62.2742 99.0272C61.7822 99.0272 61.3222 98.9072 60.8942 98.6672C60.4662 98.4232 60.1182 98.0892 59.8502 97.6652C59.5862 97.2412 59.4542 96.7572 59.4542 96.2132C59.4542 96.2012 59.4542 96.1912 59.4542 96.1832C59.4542 96.1752 59.4542 96.1652 59.4542 96.1532L60.1862 96.1352C60.1862 96.1432 60.1862 96.1532 60.1862 96.1652C60.1862 96.1732 60.1862 96.1812 60.1862 96.1892C60.1862 96.5332 60.2762 96.8472 60.4562 97.1312C60.6402 97.4152 60.8802 97.6412 61.1762 97.8092C61.4722 97.9772 61.7902 98.0612 62.1302 98.0612C62.6942 98.0612 63.1622 97.8692 63.5342 97.4852C63.9102 97.0972 64.0982 96.5072 64.0982 95.7152C64.0982 94.9192 63.9122 94.3312 63.5402 93.9512C63.1682 93.5672 62.6982 93.3752 62.1302 93.3752C61.7902 93.3752 61.4722 93.4592 61.1762 93.6272C60.8802 93.7912 60.6402 94.0132 60.4562 94.2932C60.2762 94.5732 60.1862 94.8872 60.1862 95.2352L59.4542 95.2112C59.4542 94.6632 59.5862 94.1812 59.8502 93.7652C60.1182 93.3492 60.4662 93.0252 60.8942 92.7932C61.3222 92.5572 61.7822 92.4392 62.2742 92.4392C62.7902 92.4392 63.2662 92.5672 63.7022 92.8232C64.1382 93.0752 64.4882 93.4452 64.7522 93.9332C65.0162 94.4212 65.1482 95.0152 65.1482 95.7152C65.1482 96.4272 65.0182 97.0312 64.7582 97.5272C64.4982 98.0192 64.1502 98.3932 63.7142 98.6492C63.2782 98.9012 62.7982 99.0272 62.2742 99.0272ZM66.7422 98.9072V92.5352H67.7622V94.4912L67.4262 94.3712C67.4502 94.1352 67.5102 93.9032 67.6062 93.6752C67.7022 93.4432 67.8342 93.2352 68.0022 93.0512C68.1742 92.8632 68.3882 92.7152 68.6442 92.6072C68.9002 92.4952 69.2002 92.4392 69.5442 92.4392C69.8002 92.4392 70.0082 92.4612 70.1682 92.5052C70.3322 92.5452 70.4342 92.5772 70.4742 92.6012L70.2102 93.6032C70.1702 93.5752 70.0882 93.5392 69.9642 93.4952C69.8442 93.4512 69.6722 93.4292 69.4482 93.4292C69.1162 93.4292 68.8402 93.4892 68.6202 93.6092C68.4042 93.7292 68.2322 93.8892 68.1042 94.0892C67.9802 94.2852 67.8922 94.4992 67.8402 94.7312C67.7882 94.9632 67.7622 95.1932 67.7622 95.4212V98.9072H66.7422ZM71.7832 96.1292V95.2172H76.7092L76.5292 95.5172C76.5292 95.4932 76.5292 95.4712 76.5292 95.4512C76.5292 95.4272 76.5292 95.4052 76.5292 95.3852C76.5292 95.0172 76.4512 94.6812 76.2952 94.3772C76.1432 94.0692 75.9152 93.8232 75.6112 93.6392C75.3072 93.4552 74.9312 93.3632 74.4832 93.3632C74.0312 93.3632 73.6332 93.4592 73.2892 93.6512C72.9452 93.8432 72.6772 94.1152 72.4852 94.4672C72.2932 94.8152 72.1972 95.2312 72.1972 95.7152C72.1972 96.2072 72.2892 96.6312 72.4732 96.9872C72.6612 97.3432 72.9272 97.6172 73.2712 97.8092C73.6152 98.0012 74.0232 98.0972 74.4952 98.0972C74.8312 98.0972 75.1232 98.0632 75.3712 97.9952C75.6192 97.9232 75.8232 97.8292 75.9832 97.7132C76.1472 97.5932 76.2712 97.4632 76.3552 97.3232C76.4392 97.1832 76.4892 97.0432 76.5052 96.9032H77.5252C77.5052 97.1592 77.4252 97.4132 77.2852 97.6652C77.1452 97.9172 76.9472 98.1472 76.6912 98.3552C76.4352 98.5592 76.1212 98.7232 75.7492 98.8472C75.3772 98.9712 74.9492 99.0332 74.4652 99.0332C73.8252 99.0332 73.2612 98.8932 72.7732 98.6132C72.2852 98.3332 71.9012 97.9452 71.6212 97.4492C71.3452 96.9532 71.2072 96.3832 71.2072 95.7392C71.2072 95.0872 71.3472 94.5152 71.6272 94.0232C71.9072 93.5272 72.2932 93.1392 72.7852 92.8592C73.2772 92.5792 73.8392 92.4392 74.4712 92.4392C75.1152 92.4392 75.6732 92.5792 76.1452 92.8592C76.6172 93.1392 76.9812 93.5232 77.2372 94.0112C77.4932 94.4952 77.6212 95.0472 77.6212 95.6672C77.6212 95.7312 77.6192 95.8152 77.6152 95.9192C77.6112 96.0232 77.6052 96.0932 77.5972 96.1292H71.7832ZM81.647 99.0272C81.263 99.0272 80.907 98.9872 80.579 98.9072C80.255 98.8232 79.971 98.7032 79.727 98.5472C79.487 98.3872 79.299 98.1912 79.163 97.9592C79.031 97.7272 78.965 97.4612 78.965 97.1612C78.965 97.1292 78.965 97.0972 78.965 97.0652C78.965 97.0292 78.965 96.9992 78.965 96.9752H79.991C79.991 96.9992 79.991 97.0192 79.991 97.0352C79.991 97.0512 79.991 97.0752 79.991 97.1072C79.991 97.4312 80.141 97.6792 80.441 97.8512C80.741 98.0192 81.151 98.1032 81.671 98.1032C81.991 98.1032 82.277 98.0712 82.529 98.0072C82.781 97.9432 82.979 97.8452 83.123 97.7132C83.271 97.5812 83.345 97.4152 83.345 97.2152C83.345 96.8832 83.189 96.6472 82.877 96.5072C82.569 96.3632 82.107 96.2392 81.491 96.1352C81.167 96.0792 80.859 96.0072 80.567 95.9192C80.275 95.8272 80.015 95.7092 79.787 95.5652C79.563 95.4212 79.385 95.2432 79.253 95.0312C79.125 94.8152 79.061 94.5572 79.061 94.2572C79.061 93.8692 79.175 93.5412 79.403 93.2732C79.635 93.0012 79.947 92.7952 80.339 92.6552C80.731 92.5112 81.167 92.4392 81.647 92.4392C82.111 92.4392 82.539 92.5132 82.931 92.6612C83.323 92.8092 83.637 93.0252 83.873 93.3092C84.113 93.5892 84.233 93.9352 84.233 94.3472C84.233 94.3632 84.233 94.3832 84.233 94.4072C84.233 94.4272 84.233 94.4472 84.233 94.4672H83.213C83.213 94.4472 83.213 94.4312 83.213 94.4192C83.213 94.4072 83.213 94.3932 83.213 94.3772C83.213 94.1452 83.139 93.9552 82.991 93.8072C82.843 93.6552 82.651 93.5432 82.415 93.4712C82.179 93.3952 81.927 93.3572 81.659 93.3572C81.407 93.3572 81.159 93.3852 80.915 93.4412C80.671 93.4932 80.469 93.5812 80.309 93.7052C80.149 93.8292 80.069 93.9992 80.069 94.2152C80.069 94.4312 80.143 94.6052 80.291 94.7372C80.443 94.8652 80.655 94.9712 80.927 95.0552C81.203 95.1352 81.527 95.2092 81.899 95.2772C82.231 95.3372 82.545 95.4132 82.841 95.5052C83.137 95.5932 83.397 95.7072 83.621 95.8472C83.849 95.9872 84.027 96.1652 84.155 96.3812C84.287 96.5932 84.353 96.8532 84.353 97.1612C84.353 97.4732 84.281 97.7452 84.137 97.9772C83.997 98.2092 83.801 98.4032 83.549 98.5592C83.301 98.7152 83.013 98.8312 82.685 98.9072C82.361 98.9872 82.015 99.0272 81.647 99.0272ZM88.3735 99.0272C87.9895 99.0272 87.6335 98.9872 87.3055 98.9072C86.9815 98.8232 86.6975 98.7032 86.4535 98.5472C86.2135 98.3872 86.0255 98.1912 85.8895 97.9592C85.7575 97.7272 85.6915 97.4612 85.6915 97.1612C85.6915 97.1292 85.6915 97.0972 85.6915 97.0652C85.6915 97.0292 85.6915 96.9992 85.6915 96.9752H86.7175C86.7175 96.9992 86.7175 97.0192 86.7175 97.0352C86.7175 97.0512 86.7175 97.0752 86.7175 97.1072C86.7175 97.4312 86.8675 97.6792 87.1675 97.8512C87.4675 98.0192 87.8775 98.1032 88.3975 98.1032C88.7175 98.1032 89.0035 98.0712 89.2555 98.0072C89.5075 97.9432 89.7055 97.8452 89.8495 97.7132C89.9975 97.5812 90.0715 97.4152 90.0715 97.2152C90.0715 96.8832 89.9155 96.6472 89.6035 96.5072C89.2955 96.3632 88.8335 96.2392 88.2175 96.1352C87.8935 96.0792 87.5855 96.0072 87.2935 95.9192C87.0015 95.8272 86.7415 95.7092 86.5135 95.5652C86.2895 95.4212 86.1115 95.2432 85.9795 95.0312C85.8515 94.8152 85.7875 94.5572 85.7875 94.2572C85.7875 93.8692 85.9015 93.5412 86.1295 93.2732C86.3615 93.0012 86.6735 92.7952 87.0655 92.6552C87.4575 92.5112 87.8935 92.4392 88.3735 92.4392C88.8375 92.4392 89.2655 92.5132 89.6575 92.6612C90.0495 92.8092 90.3635 93.0252 90.5995 93.3092C90.8395 93.5892 90.9595 93.9352 90.9595 94.3472C90.9595 94.3632 90.9595 94.3832 90.9595 94.4072C90.9595 94.4272 90.9595 94.4472 90.9595 94.4672H89.9395C89.9395 94.4472 89.9395 94.4312 89.9395 94.4192C89.9395 94.4072 89.9395 94.3932 89.9395 94.3772C89.9395 94.1452 89.8655 93.9552 89.7175 93.8072C89.5695 93.6552 89.3775 93.5432 89.1415 93.4712C88.9055 93.3952 88.6535 93.3572 88.3855 93.3572C88.1335 93.3572 87.8855 93.3852 87.6415 93.4412C87.3975 93.4932 87.1955 93.5812 87.0355 93.7052C86.8755 93.8292 86.7955 93.9992 86.7955 94.2152C86.7955 94.4312 86.8695 94.6052 87.0175 94.7372C87.1695 94.8652 87.3815 94.9712 87.6535 95.0552C87.9295 95.1352 88.2535 95.2092 88.6255 95.2772C88.9575 95.3372 89.2715 95.4132 89.5675 95.5052C89.8635 95.5932 90.1235 95.7072 90.3475 95.8472C90.5755 95.9872 90.7535 96.1652 90.8815 96.3812C91.0135 96.5932 91.0795 96.8532 91.0795 97.1612C91.0795 97.4732 91.0075 97.7452 90.8635 97.9772C90.7235 98.2092 90.5275 98.4032 90.2755 98.5592C90.0275 98.7152 89.7395 98.8312 89.4115 98.9072C89.0875 98.9872 88.7415 99.0272 88.3735 99.0272Z" fill="#391400" fill-opacity="0.6"/>
<path d="M100.184 11.4482H51.8954V21.5957H100.184V11.4482Z" stroke="#3F3D56" stroke-miterlimit="10"/>
<path d="M23.079 25.8641C24.456 23.6664 27.0631 22.1836 30.0526 22.1836C34.4778 22.1836 38.0651 25.4325 38.0651 29.4402C38.0651 32.0025 36.5987 34.2547 34.3844 35.5458" stroke="#3F3D56" stroke-miterlimit="10"/>
<path d="M96.7654 13.4121H48.4768V23.5596H96.7654V13.4121Z" fill="#6C63FF"/>
<path d="M17.9513 3.72718C18.3644 3.72718 18.6992 3.38535 18.6992 2.96369C18.6992 2.54202 18.3644 2.2002 17.9513 2.2002C17.5383 2.2002 17.2035 2.54202 17.2035 2.96369C17.2035 3.38535 17.5383 3.72718 17.9513 3.72718Z" fill="#6C63FF"/>
<path d="M20.5153 3.72718C20.9283 3.72718 21.2631 3.38535 21.2631 2.96369C21.2631 2.54202 20.9283 2.2002 20.5153 2.2002C20.1023 2.2002 19.7675 2.54202 19.7675 2.96369C19.7675 3.38535 20.1023 3.72718 20.5153 3.72718Z" fill="#6C63FF"/>
<path d="M23.0793 3.72718C23.4923 3.72718 23.8272 3.38535 23.8272 2.96369C23.8272 2.54202 23.4923 2.2002 23.0793 2.2002C22.6663 2.2002 22.3315 2.54202 22.3315 2.96369C22.3315 3.38535 22.6663 3.72718 23.0793 3.72718Z" fill="#6C63FF"/>
<path d="M105.661 1H15.9215V60.5802H105.661V1Z" stroke="#3F3D56" stroke-miterlimit="10"/>
<path d="M15.9215 4.31055H105.661" stroke="#3F3D56" stroke-miterlimit="10"/>
<path d="M18.165 3.40003C18.578 3.40003 18.9129 3.0582 18.9129 2.63654C18.9129 2.21487 18.578 1.87305 18.165 1.87305C17.752 1.87305 17.4172 2.21487 17.4172 2.63654C17.4172 3.0582 17.752 3.40003 18.165 3.40003Z" stroke="#3F3D56" stroke-miterlimit="10"/>
<path d="M20.729 3.40003C21.142 3.40003 21.4768 3.0582 21.4768 2.63654C21.4768 2.21487 21.142 1.87305 20.729 1.87305C20.316 1.87305 19.9811 2.21487 19.9811 2.63654C19.9811 3.0582 20.316 3.40003 20.729 3.40003Z" stroke="#3F3D56" stroke-miterlimit="10"/>
<path d="M23.293 3.40003C23.706 3.40003 24.0408 3.0582 24.0408 2.63654C24.0408 2.21487 23.706 1.87305 23.293 1.87305C22.88 1.87305 22.5452 2.21487 22.5452 2.63654C22.5452 3.0582 22.88 3.40003 23.293 3.40003Z" stroke="#3F3D56" stroke-miterlimit="10"/>
<path d="M4.38838 23.2646C4.71552 23.1169 5.00458 22.8936 5.23279 22.6123C5.461 22.331 5.62211 21.9995 5.70343 21.6438C5.78476 21.2881 5.78406 20.9179 5.7014 20.5626C5.61875 20.2072 5.45639 19.8763 5.22713 19.5959C4.99786 19.3155 4.70796 19.0933 4.38027 18.9469C4.05258 18.8004 3.69606 18.7337 3.33881 18.752C2.98156 18.7702 2.63335 18.873 2.32162 19.0521C2.00989 19.2312 1.74316 19.4818 1.54246 19.7842L2.40747 20.619L1.29617 20.2663C1.07762 20.8477 1.09408 21.494 1.34191 22.0631C1.428 22.2631 1.54142 22.4497 1.67878 22.6172C2.00008 23.0113 2.43841 23.2877 2.92736 23.4045C3.41631 23.5213 3.92923 23.4722 4.38838 23.2646Z" fill="#57B894"/>
<path d="M15.9449 31.4564C15.1015 30.852 15.1013 29.583 15.3108 28.5526C15.5203 27.5222 15.8401 26.3981 15.3646 25.4645C14.6811 24.1228 12.8845 24.0421 11.4104 23.8987C10.3166 23.7922 9.23906 23.5536 8.20026 23.188C7.78379 23.0413 7.36672 22.87 7.02567 22.5852C6.53452 22.175 6.24642 21.5701 5.97739 20.9833C5.08117 19.0283 4.23045 17.0524 3.42523 15.0557" stroke="#3F3D56" stroke-miterlimit="10"/>
<path d="M4.24501 22.9726C4.57215 22.8249 4.86121 22.6016 5.08942 22.3203C5.31763 22.039 5.47874 21.7075 5.56006 21.3518C5.64138 20.9961 5.64069 20.6259 5.55803 20.2706C5.47537 19.9152 5.31302 19.5843 5.08375 19.3039C4.85449 19.0235 4.56459 18.8013 4.2369 18.6549C3.90921 18.5084 3.55269 18.4417 3.19544 18.46C2.83819 18.4782 2.48998 18.581 2.17825 18.7601C1.86652 18.9392 1.59979 19.1899 1.39908 19.4922L2.2641 20.327L1.1528 19.9743C0.934253 20.5557 0.950705 21.202 1.19854 21.7711C1.28463 21.9711 1.39805 22.1577 1.53541 22.3253C1.85671 22.7193 2.29504 22.9957 2.78399 23.1125C3.27294 23.2294 3.78586 23.1802 4.24501 22.9726V22.9726Z" stroke="#3F3D56" stroke-miterlimit="10"/>
<path d="M1.42995 16.4295C1.27301 16.0681 1.20768 15.6721 1.23997 15.2781C1.27227 14.8841 1.40116 14.5048 1.61476 14.175L2.53464 14.873L1.96692 13.7493C2.32506 13.4085 2.78001 13.1926 3.26609 13.133C3.75217 13.0734 4.24423 13.1731 4.67122 13.4177C5.0982 13.6623 5.43803 14.0391 5.64163 14.4937C5.84523 14.9484 5.90207 15.4574 5.80394 15.9471C5.70582 16.4369 5.4578 16.8822 5.0957 17.2187C4.7336 17.5552 4.27616 17.7654 3.78942 17.8191C3.30268 17.8728 2.81182 17.7671 2.38772 17.5173C1.96362 17.2676 1.62822 16.8867 1.42995 16.4295Z" fill="#57B894"/>
<path d="M1.23885 16.0399C1.08191 15.6785 1.01658 15.2825 1.04887 14.8885C1.08117 14.4945 1.21006 14.1151 1.42366 13.7854L2.34354 14.4833L1.77582 13.3597C2.13396 13.0188 2.58891 12.803 3.07499 12.7434C3.56107 12.6838 4.05313 12.7835 4.48012 13.028C4.90711 13.2726 5.24693 13.6494 5.45053 14.1041C5.65413 14.5587 5.71097 15.0677 5.61285 15.5575C5.51472 16.0473 5.2667 16.4926 4.90461 16.829C4.54251 17.1655 4.08506 17.3758 3.59832 17.4294C3.11158 17.4831 2.62072 17.3775 2.19662 17.1277C1.77252 16.8779 1.43713 16.497 1.23885 16.0399L1.23885 16.0399Z" stroke="#3F3D56" stroke-miterlimit="10"/>
<path d="M11.1339 24.2009C11.6524 23.9663 12.0682 23.5451 12.3021 23.0175C12.5361 22.4899 12.5717 21.8929 12.4023 21.3402C12.2328 20.7875 11.8702 20.3178 11.3834 20.0207C10.8966 19.7235 10.3198 19.6196 9.76283 19.7288L10.1991 20.5923L9.26863 19.8859C9.26664 19.8866 9.2647 19.8874 9.26284 19.8884C8.98555 20.0139 8.73517 20.1939 8.526 20.4181C8.31683 20.6424 8.15297 20.9065 8.04376 21.1955C7.82322 21.779 7.8387 22.4281 8.08681 23C8.33492 23.5718 8.79534 24.0196 9.36677 24.2449C9.9382 24.4701 10.5738 24.4543 11.1339 24.2009Z" fill="#57B894"/>
<path d="M10.9268 23.8191C11.4453 23.5845 11.8612 23.1632 12.0951 22.6357C12.329 22.1081 12.3647 21.5111 12.1952 20.9584C12.0258 20.4057 11.6631 19.936 11.1763 19.6388C10.6896 19.3417 10.1127 19.2378 9.55579 19.347L9.99209 20.2105L9.06159 19.5041C9.0596 19.5048 9.05766 19.5056 9.0558 19.5066C8.77841 19.632 8.52792 19.8119 8.31865 20.0362C8.10938 20.2604 7.94542 20.5246 7.83614 20.8136C7.72686 21.1026 7.67441 21.4107 7.68177 21.7204C7.68913 22.0301 7.75617 22.3352 7.87905 22.6185C8.00193 22.9017 8.17825 23.1574 8.39793 23.371C8.61761 23.5847 8.87635 23.752 9.15938 23.8635C9.4424 23.975 9.74417 24.0284 10.0474 24.0208C10.3507 24.0132 10.6495 23.9446 10.9268 23.8191V23.8191Z" stroke="#3F3D56" stroke-miterlimit="10"/>
<path d="M12.0558 28.7283C12.4831 29.0477 13.0051 29.2073 13.534 29.1804C14.0629 29.1535 14.5667 28.9416 14.9609 28.5804C15.355 28.2192 15.6155 27.7306 15.6988 27.1965C15.782 26.6624 15.6829 26.1154 15.418 25.6471C15.1531 25.1788 14.7386 24.8177 14.244 24.6244C13.7494 24.4312 13.2048 24.4174 12.7014 24.5856C12.1981 24.7537 11.7666 25.0934 11.4795 25.5479C11.1923 26.0023 11.0669 26.5437 11.1242 27.0813L12.9392 27.4944L11.3556 27.8833C11.5193 28.2181 11.7595 28.508 12.0558 28.7283Z" fill="#57B894"/>
<path d="M11.9125 28.4353C12.3398 28.7547 12.8617 28.9143 13.3907 28.8874C13.9196 28.8605 14.4234 28.6487 14.8175 28.2875C15.2117 27.9262 15.4722 27.4376 15.5555 26.9035C15.6387 26.3695 15.5396 25.8224 15.2747 25.3541C15.0098 24.8858 14.5953 24.5247 14.1007 24.3315C13.6061 24.1382 13.0614 24.1245 12.5581 24.2926C12.0547 24.4607 11.6233 24.8005 11.3362 25.2549C11.049 25.7093 10.9236 26.2507 10.9809 26.7883L12.7959 27.2014L11.2123 27.5903C11.376 27.9252 11.6162 28.215 11.9125 28.4353V28.4353Z" stroke="#3F3D56" stroke-miterlimit="10"/>
<path d="M112.219 50.9641C112.523 51.1294 112.861 51.2203 113.205 51.2297C113.549 51.2391 113.891 51.1668 114.203 51.0183C114.515 50.8699 114.789 50.6495 115.004 50.3744C115.218 50.0993 115.367 49.7771 115.439 49.4332C115.511 49.0893 115.503 48.733 115.417 48.3926C115.331 48.0521 115.169 47.7367 114.943 47.4712C114.717 47.2057 114.434 46.9974 114.116 46.8627C113.798 46.728 113.454 46.6705 113.11 46.6949L113.005 47.86L112.606 46.7909C112.045 46.9673 111.575 47.3639 111.301 47.8937C111.203 48.0792 111.132 48.2778 111.09 48.4836C110.988 48.9662 111.044 49.4695 111.247 49.9171C111.451 50.3647 111.792 50.7323 112.219 50.9641Z" fill="#57B894"/>
<path d="M113.012 64.7725C112.959 63.7608 113.9 63.0067 114.788 62.5567C115.677 62.1066 116.701 61.6861 117.11 60.7635C117.699 59.4375 116.692 57.9996 115.922 56.7739C115.351 55.8643 114.888 54.8888 114.542 53.8679C114.403 53.4585 114.283 53.0341 114.291 52.601C114.304 51.9773 114.581 51.395 114.856 50.8382C115.774 48.9832 116.734 47.1511 117.736 45.3418" stroke="#3F3D56" stroke-miterlimit="10"/>
<path d="M112.351 50.6799C112.655 50.8452 112.993 50.9361 113.337 50.9455C113.681 50.955 114.023 50.8826 114.335 50.7342C114.647 50.5857 114.921 50.3653 115.136 50.0902C115.35 49.8151 115.499 49.4929 115.571 49.149C115.643 48.8051 115.635 48.4489 115.549 48.1084C115.463 47.7679 115.301 47.4525 115.075 47.187C114.849 46.9215 114.566 46.7132 114.248 46.5785C113.93 46.4438 113.586 46.3864 113.242 46.4107L113.137 47.5758L112.738 46.5067C112.177 46.6831 111.707 47.0798 111.433 47.6096C111.335 47.795 111.264 47.9936 111.222 48.1994C111.12 48.682 111.176 49.1853 111.379 49.6329C111.583 50.0806 111.924 50.4481 112.351 50.6799V50.6799Z" stroke="#3F3D56" stroke-miterlimit="10"/>
<path d="M115.531 44.6155C115.705 44.2793 115.96 43.9935 116.272 43.7844C116.583 43.5753 116.941 43.4496 117.313 43.4189L117.342 44.5452L117.838 43.4384C118.303 43.513 118.734 43.7366 119.067 44.0772C119.4 44.4178 119.618 44.8576 119.69 45.3332C119.763 45.8088 119.685 46.2956 119.469 46.7232C119.253 47.1508 118.909 47.4971 118.487 47.7122C118.066 47.9273 117.588 48 117.123 47.9199C116.658 47.8397 116.231 47.6107 115.902 47.2661C115.573 46.9215 115.359 46.4791 115.293 46.0026C115.226 45.5262 115.309 45.0404 115.531 44.6155Z" fill="#57B894"/>
<path d="M115.707 44.2356C115.881 43.8995 116.136 43.6137 116.448 43.4046C116.759 43.1955 117.117 43.0698 117.489 43.0391L117.518 44.1653L118.014 43.0586C118.479 43.1331 118.91 43.3568 119.243 43.6973C119.576 44.0379 119.794 44.4778 119.866 44.9533C119.939 45.4289 119.861 45.9157 119.645 46.3433C119.428 46.7709 119.085 47.1173 118.663 47.3324C118.241 47.5475 117.764 47.6202 117.299 47.54C116.834 47.4598 116.407 47.2309 116.078 46.8863C115.749 46.5416 115.535 46.0992 115.469 45.6227C115.402 45.1463 115.485 44.6605 115.707 44.2356Z" stroke="#3F3D56" stroke-miterlimit="10"/>
<path d="M115.533 56.7396C116.015 57.0013 116.574 57.0727 117.105 56.9402C117.635 56.8077 118.099 56.4806 118.408 56.0212C118.718 55.5617 118.851 55.0022 118.782 54.4491C118.713 53.896 118.447 53.3881 118.035 53.0222L117.654 53.8727L117.625 52.7332C117.624 52.7321 117.622 52.7311 117.62 52.7302C117.362 52.59 117.08 52.5031 116.789 52.4744C116.498 52.4457 116.205 52.4758 115.926 52.5629C115.646 52.65 115.386 52.7925 115.161 52.9822C114.936 53.1719 114.749 53.4051 114.612 53.6685C114.475 53.9319 114.39 54.2203 114.362 54.5172C114.334 54.8141 114.364 55.1137 114.449 55.3989C114.535 55.6841 114.674 55.9493 114.86 56.1794C115.046 56.4094 115.275 56.5998 115.533 56.7396V56.7396Z" fill="#57B894"/>
<path d="M115.693 56.3527C116.175 56.6144 116.735 56.6858 117.265 56.5533C117.795 56.4208 118.26 56.0937 118.569 55.6343C118.878 55.1748 119.011 54.6153 118.942 54.0622C118.874 53.5091 118.608 53.0012 118.196 52.6353L117.815 53.4858L117.786 52.3463C117.784 52.3452 117.782 52.3442 117.781 52.3433C117.523 52.2032 117.24 52.1163 116.95 52.0877C116.659 52.059 116.366 52.0891 116.086 52.1763C115.807 52.2634 115.547 52.4059 115.322 52.5956C115.096 52.7853 114.91 53.0185 114.773 53.2818C114.636 53.5451 114.551 53.8335 114.523 54.1304C114.495 54.4272 114.525 54.7268 114.61 55.012C114.695 55.2972 114.835 55.5624 115.021 55.7924C115.207 56.0225 115.435 56.2129 115.693 56.3527V56.3527Z" stroke="#3F3D56" stroke-miterlimit="10"/>
<path d="M112.723 60.1428C112.74 60.6632 112.932 61.1617 113.266 61.5548C113.6 61.948 114.057 62.2118 114.559 62.3021C115.061 62.3924 115.578 62.3036 116.024 62.0507C116.47 61.7978 116.816 61.3961 117.007 60.9129C117.197 60.4298 117.218 59.8947 117.068 59.3973C116.917 58.8998 116.604 58.4704 116.18 58.1809C115.756 57.8915 115.248 57.7596 114.74 57.8075C114.232 57.8553 113.756 58.08 113.392 58.4437L114.163 60.0931L112.934 59.0992C112.783 59.4248 112.711 59.7827 112.723 60.1428Z" fill="#57B894"/>
<path d="M112.855 59.8577C112.872 60.378 113.064 60.8766 113.398 61.2697C113.732 61.6628 114.189 61.9267 114.691 62.017C115.193 62.1072 115.71 62.0185 116.156 61.7655C116.602 61.5126 116.948 61.1109 117.138 60.6278C117.328 60.1447 117.35 59.6095 117.2 59.1121C117.049 58.6147 116.736 58.1852 116.312 57.8958C115.888 57.6063 115.38 57.4745 114.872 57.5223C114.364 57.5702 113.888 57.7948 113.524 58.1586L114.295 59.8079L113.066 58.814C112.915 59.1396 112.843 59.4976 112.855 59.8577Z" stroke="#3F3D56" stroke-miterlimit="10"/>
<path d="M13.2555 13.8808C13.5826 13.7331 13.8717 13.5098 14.0999 13.2285C14.3281 12.9472 14.4892 12.6157 14.5706 12.26C14.6519 11.9043 14.6512 11.5342 14.5685 11.1788C14.4859 10.8234 14.3235 10.4925 14.0943 10.2121C13.865 9.93171 13.5751 9.70954 13.2474 9.56309C12.9197 9.41665 12.5632 9.34992 12.2059 9.36818C11.8487 9.38644 11.5005 9.48918 11.1887 9.66831C10.877 9.84744 10.6103 10.0981 10.4096 10.4004L11.2746 11.2352L10.1633 10.8825C9.94475 11.464 9.9612 12.1102 10.209 12.6793C10.2951 12.8793 10.4085 13.0659 10.5459 13.2335C10.8672 13.6275 11.3055 13.9039 11.7945 14.0207C12.2834 14.1376 12.7964 14.0884 13.2555 13.8808Z" fill="#57B894"/>
<path d="M15.8928 13.1998C15.4016 12.7897 15.1135 12.1848 14.8445 11.598C13.9483 9.6432 13.0976 7.66748 12.2924 5.6709" stroke="#3F3D56" stroke-miterlimit="10"/>
<path d="M13.1121 13.5879C13.4393 13.4401 13.7283 13.2168 13.9565 12.9356C14.1848 12.6543 14.3459 12.3227 14.4272 11.967C14.5085 11.6113 14.5078 11.2412 14.4252 10.8858C14.3425 10.5304 14.1801 10.1995 13.9509 9.91912C13.7216 9.63874 13.4317 9.41657 13.104 9.27013C12.7763 9.12368 12.4198 9.05696 12.0626 9.07521C11.7053 9.09347 11.3571 9.19622 11.0454 9.37534C10.7336 9.55447 10.4669 9.80509 10.2662 10.1074L11.1312 10.9422L10.0199 10.5895C9.80138 11.171 9.81783 11.8173 10.0657 12.3863C10.1518 12.5864 10.2652 12.7729 10.4025 12.9405C10.7238 13.3346 11.1622 13.611 11.6511 13.7278C12.1401 13.8446 12.653 13.7955 13.1121 13.5879V13.5879Z" stroke="#3F3D56" stroke-miterlimit="10"/>
<path d="M10.2971 7.04575C10.1402 6.68431 10.0749 6.28834 10.1072 5.89434C10.1395 5.50034 10.2683 5.12098 10.4819 4.79121L11.4018 5.4892L10.8341 4.36553C11.1922 4.02467 11.6472 3.80886 12.1333 3.74925C12.6194 3.68964 13.1114 3.78932 13.5384 4.03389C13.9654 4.27847 14.3052 4.65529 14.5088 5.10994C14.7124 5.5646 14.7693 6.07356 14.6711 6.56335C14.573 7.05315 14.325 7.49842 13.9629 7.83489C13.6008 8.17136 13.1434 8.38162 12.6566 8.4353C12.1699 8.48898 11.679 8.38331 11.2549 8.13355C10.8308 7.88379 10.4954 7.50286 10.2971 7.04576V7.04575Z" fill="#57B894"/>
<path d="M10.106 6.65513C9.94903 6.29369 9.8837 5.89772 9.916 5.50372C9.9483 5.10972 10.0772 4.73036 10.2908 4.40059L11.2107 5.09858L10.6429 3.9749C11.0011 3.63405 11.456 3.41823 11.9421 3.35862C12.4282 3.29901 12.9203 3.39869 13.3472 3.64327C13.7742 3.88784 14.1141 4.26466 14.3177 4.71932C14.5213 5.17397 14.5781 5.68294 14.48 6.17273C14.3818 6.66252 14.1338 7.1078 13.7717 7.44427C13.4096 7.78074 12.9522 7.99099 12.4655 8.04468C11.9787 8.09836 11.4879 7.99269 11.0638 7.74293C10.6397 7.49317 10.3043 7.11224 10.106 6.65514L10.106 6.65513Z" stroke="#3F3D56" stroke-miterlimit="10"/>
<path d="M44.0963 4.31055V60.6652" stroke="#3F3D56" stroke-miterlimit="10"/>
<path d="M69.8968 32.0176H54.1924V34.2004H69.8968V32.0176Z" fill="#F2F2F2"/>
<path d="M94.5752 32.0176H78.8708V34.2004H94.5752V32.0176Z" fill="#F2F2F2"/>
<path d="M70.7515 30.9268H55.0471V33.1095H70.7515V30.9268Z" stroke="#3F3D56" stroke-miterlimit="10"/>
<path d="M69.8968 48.9316H54.1924V51.1144H69.8968V48.9316Z" fill="#F2F2F2"/>
<path d="M70.7515 47.8398H55.0471V50.0226H70.7515V47.8398Z" stroke="#3F3D56" stroke-miterlimit="10"/>
<path d="M94.6287 40.2568H54.2458V42.4396H94.6287V40.2568Z" fill="#F2F2F2"/>
<path d="M95.4834 39.3838H55.1005V41.5666H95.4834V39.3838Z" stroke="#3F3D56" stroke-miterlimit="10"/>
<path d="M95.4299 30.9268H79.7255V33.1095H95.4299V30.9268Z" stroke="#3F3D56" stroke-miterlimit="10"/>
<path d="M100.415 24.5357C100.449 24.6534 100.492 24.7681 100.544 24.8786C101.121 26.2637 101.146 27.8242 100.613 29.2278C100.997 29.2033 101.38 29.2666 101.763 29.2969C102.145 29.3272 102.542 29.3222 102.898 29.1691C103.254 29.0161 103.564 28.6882 103.616 28.2836C103.686 27.7374 103.296 27.261 102.955 26.8464C102.606 26.424 102.27 25.958 102.167 25.4071C102.054 24.8014 102.215 24.0913 101.84 23.6195C101.807 23.5741 101.765 23.537 101.716 23.511C101.514 23.4168 100.99 23.4199 100.788 23.5365C100.476 23.716 100.339 24.1895 100.415 24.5357Z" fill="#3F3D56"/>
<path d="M111.024 64.0522C111 64.2345 110.958 64.4139 110.898 64.5876C110.898 64.5876 110.51 65.4998 108.914 65.2538C107.871 65.0929 107.878 64.5937 108.051 64.2073C108.129 64.0464 108.225 63.8947 108.336 63.7548C108.491 63.5407 108.475 62.7236 108.53 61.9784C108.584 61.2327 108.914 61.1947 108.914 61.1947L108.933 62.0336C109.555 61.2009 109.99 62.1764 109.99 62.1764C109.99 62.1764 110.874 62.1951 110.766 61.7324C110.651 61.2395 110.479 60.459 110.479 60.459C110.479 60.459 110.906 60.6617 110.984 60.8045C111.062 60.9472 110.968 62.8587 110.898 63.041C110.829 63.2233 110.898 63.7153 111 63.8581C111.028 63.9184 111.037 63.9865 111.024 64.0522Z" fill="#3F3D56"/>
<path d="M110.729 61.6834C110.729 61.8723 110.67 62.0563 110.561 62.2086C110.451 62.3609 110.297 62.4737 110.121 62.5305C109.95 62.5858 109.768 62.6001 109.591 62.5725C109.413 62.5449 109.244 62.476 109.097 62.3711C109.008 62.3075 108.937 62.2205 108.893 62.1191C108.848 62.0178 108.831 61.906 108.844 61.7957L108.869 61.5849L108.958 60.8163L109.081 59.7574C109.081 59.7574 110.404 59.0693 110.316 59.3291C110.283 59.4262 110.356 59.8631 110.461 60.3723C110.535 60.7364 110.626 61.1371 110.706 61.4769C110.721 61.5445 110.729 61.6138 110.729 61.6834Z" fill="#FBBEBE"/>
<path opacity="0.1" d="M108.763 61.6259C108.763 61.6259 109.908 60.2522 110.846 61.7508L110.689 62.7109H108.763V61.6259Z" fill="black"/>
<path d="M108.763 61.7207C108.763 61.7207 109.908 60.3469 110.846 61.8455L110.689 62.8056H108.763V61.7207Z" fill="#3F3D56"/>
<path d="M110.252 62.5689C110.316 62.5689 110.368 62.5155 110.368 62.4495C110.368 62.3836 110.316 62.3301 110.252 62.3301C110.187 62.3301 110.135 62.3836 110.135 62.4495C110.135 62.5155 110.187 62.5689 110.252 62.5689Z" fill="#F2F2F2"/>
<path d="M108.763 62.3785C108.827 62.3785 108.879 62.325 108.879 62.2591C108.879 62.1931 108.827 62.1396 108.763 62.1396C108.698 62.1396 108.646 62.1931 108.646 62.2591C108.646 62.325 108.698 62.3785 108.763 62.3785Z" fill="#F2F2F2"/>
<path d="M109.85 63.3756C109.914 63.3756 109.966 63.3221 109.966 63.2562C109.966 63.1902 109.914 63.1367 109.85 63.1367C109.786 63.1367 109.733 63.1902 109.733 63.2562C109.733 63.3221 109.786 63.3756 109.85 63.3756Z" fill="#F2F2F2"/>
<path d="M108.833 63.2359C108.898 63.2359 108.95 63.1825 108.95 63.1165C108.95 63.0505 108.898 62.9971 108.833 62.9971C108.769 62.9971 108.717 63.0505 108.717 63.1165C108.717 63.1825 108.769 63.2359 108.833 63.2359Z" fill="#F2F2F2"/>
<path d="M110.075 62.9977C110.14 62.9977 110.192 62.9442 110.192 62.8782C110.192 62.8123 110.14 62.7588 110.075 62.7588C110.011 62.7588 109.959 62.8123 109.959 62.8782C109.959 62.9442 110.011 62.9977 110.075 62.9977Z" fill="#F2F2F2"/>
<path d="M108.763 62.8072C108.827 62.8072 108.879 62.7538 108.879 62.6878C108.879 62.6218 108.827 62.5684 108.763 62.5684C108.698 62.5684 108.646 62.6218 108.646 62.6878C108.646 62.7538 108.698 62.8072 108.763 62.8072Z" fill="#F2F2F2"/>
<path d="M109.734 63.818C109.798 63.818 109.85 63.7645 109.85 63.6985C109.85 63.6326 109.798 63.5791 109.734 63.5791C109.669 63.5791 109.617 63.6326 109.617 63.6985C109.617 63.7645 109.669 63.818 109.734 63.818Z" fill="#F2F2F2"/>
<path d="M108.833 63.6647C108.898 63.6647 108.95 63.6112 108.95 63.5452C108.95 63.4793 108.898 63.4258 108.833 63.4258C108.769 63.4258 108.717 63.4793 108.717 63.5452C108.717 63.6112 108.769 63.6647 108.833 63.6647Z" fill="#F2F2F2"/>
<path d="M101.089 65.4925L99.5049 66.0398C99.5049 66.0398 98.6661 65.1832 98.8991 64.9214C98.9984 64.8096 99.085 64.4384 99.1512 64.0491C99.1726 63.9263 99.1918 63.8011 99.2085 63.6822C99.2635 63.2953 99.2952 62.9702 99.2952 62.9702C99.2952 62.9702 101.136 62.066 100.833 62.9702C100.758 63.2264 100.728 63.4943 100.746 63.7612C100.759 64.0273 100.792 64.292 100.844 64.5531C100.906 64.8713 100.988 65.1851 101.089 65.4925Z" fill="#FBBEBE"/>
<path opacity="0.1" d="M101.089 65.493L99.5049 66.0402C99.5049 66.0402 98.6661 65.1837 98.8991 64.922C98.9984 64.8102 99.085 64.439 99.1512 64.0498C99.2412 64.2138 99.3037 64.392 99.3362 64.577C100.705 65.3445 100.728 64.8863 100.728 64.8863C100.744 64.7684 100.783 64.655 100.844 64.5537C100.906 64.8719 100.988 65.1856 101.089 65.493Z" fill="black"/>
<path d="M101.439 66.7417C101.439 66.7417 101.165 66.9497 100.361 66.9797C100.151 66.9878 99.9416 67.0119 99.7347 67.0518C98.8876 67.2199 98.0192 67.2438 97.1645 67.1226C96.9443 67.0923 96.726 67.0485 96.5109 66.9916C95.6837 66.7594 96.3128 66.2244 96.3128 66.2244C96.3128 66.2244 96.3524 66.1892 96.4209 66.1364C96.5961 66.0022 96.9596 65.7547 97.3324 65.6948C97.8506 65.6115 98.3282 64.6716 98.3282 64.6716L98.6544 64.0705C99.161 63.6246 99.3362 64.6716 99.3362 64.6716C100.705 65.4392 100.728 64.9809 100.728 64.9809C100.804 64.5702 100.944 64.5702 100.944 64.5702C100.944 64.5702 101.285 65.5082 101.408 65.7424C101.417 65.7594 101.427 65.7754 101.439 65.7899C101.52 65.8732 101.439 66.7417 101.439 66.7417Z" fill="#3F3D56"/>
<path d="M99.3302 65.1842C99.3945 65.1842 99.4466 65.1307 99.4466 65.0647C99.4466 64.9988 99.3945 64.9453 99.3302 64.9453C99.2658 64.9453 99.2137 64.9988 99.2137 65.0647C99.2137 65.1307 99.2658 65.1842 99.3302 65.1842Z" fill="#F2F2F2"/>
<path d="M98.663 65.5182C98.7273 65.5182 98.7794 65.4647 98.7794 65.3987C98.7794 65.3328 98.7273 65.2793 98.663 65.2793C98.5986 65.2793 98.5464 65.3328 98.5464 65.3987C98.5464 65.4647 98.5986 65.5182 98.663 65.5182Z" fill="#F2F2F2"/>
<path d="M99.0216 65.3473C99.086 65.3473 99.1381 65.2938 99.1381 65.2278C99.1381 65.1619 99.086 65.1084 99.0216 65.1084C98.9573 65.1084 98.9051 65.1619 98.9051 65.2278C98.9051 65.2938 98.9573 65.3473 99.0216 65.3473Z" fill="#F2F2F2"/>
<path d="M98.2875 65.7145C98.3518 65.7145 98.404 65.661 98.404 65.595C98.404 65.5291 98.3518 65.4756 98.2875 65.4756C98.2232 65.4756 98.171 65.5291 98.171 65.595C98.171 65.661 98.2232 65.7145 98.2875 65.7145Z" fill="#F2F2F2"/>
<path opacity="0.1" d="M100.833 62.97C100.758 63.226 100.728 63.4938 100.746 63.7605C100.333 63.6188 99.6554 63.6435 99.2085 63.6815C99.2635 63.2949 99.2952 62.97 99.2952 62.97C99.2952 62.97 101.136 62.0663 100.833 62.97Z" fill="black"/>
<path opacity="0.1" d="M110.461 60.3719C109.888 60.9452 109.341 60.9809 108.958 60.8158L109.081 59.7573C109.081 59.7573 110.404 59.0694 110.316 59.3291C110.283 59.4262 110.356 59.8629 110.461 60.3719Z" fill="black"/>
<path d="M100.414 40.8379C100.414 40.8379 99.5049 41.3615 99.3418 42.3848C99.1787 43.4082 98.8991 44.7171 98.6894 44.9551C98.4797 45.1931 97.8273 45.9546 98.0836 46.3592C98.3399 46.7638 98.3865 48.1441 98.3865 48.1441C98.3865 48.1441 98.2933 49.3817 98.5496 49.7862C98.8059 50.1908 99.0156 52.7611 98.4564 53.5226C98.4564 53.5226 98.27 55.2837 98.3399 55.4503C98.4098 55.6169 98.037 56.0453 98.1535 56.4023C98.27 56.7593 98.8292 63.3277 98.7593 63.5895C98.7593 63.5895 100.53 63.3277 100.996 63.7561C100.996 63.7561 101.089 63.0422 100.996 62.5424C100.903 62.0426 101.066 60.0673 101.276 59.5675C101.485 59.0678 101.532 57.1639 101.462 56.9735C101.462 56.9735 101.835 55.2837 101.695 54.9506C101.555 54.6174 102.301 51.5473 102.301 51.5473C102.301 51.5473 102.674 50.8096 102.58 50.7144C102.58 50.7144 103.186 50.3098 103.116 50.0004C103.046 49.691 103.676 49.3341 103.676 49.3341C103.676 49.3341 104.235 50.7382 104.421 50.9524C104.608 51.1666 104.615 52.5469 104.844 52.8325C105.074 53.1181 105.376 54.6174 105.679 55.022C105.982 55.4265 107.194 56.4975 107.38 57.7112C107.38 57.7112 108.475 59.4485 108.429 59.9959C108.382 60.5433 109.664 61.5428 110.898 59.6865C110.692 59.5299 110.525 59.3251 110.411 59.0891C110.298 58.8531 110.241 58.5928 110.246 58.33C110.246 57.4018 109.267 54.427 109.267 54.427C109.267 54.427 108.708 53.594 108.918 53.1895C109.128 52.7849 108.941 51.5949 108.941 51.5949L109.384 50.8572C109.384 50.8572 109.454 50.1432 109.524 49.4055C109.594 48.6677 109.104 47.8585 109.337 47.5016C109.57 47.1446 109.244 45.361 109.244 45.361C109.244 45.361 108.954 42.2865 108.522 42.0992C108.09 41.912 100.414 40.8379 100.414 40.8379Z" fill="#3F3D56"/>
<path d="M102.537 36.5291C102.537 36.5291 102.058 36.5848 101.477 36.641C100.636 36.7219 99.5809 36.8037 99.455 36.7195C99.2425 36.5767 99.455 34.7681 99.455 34.7681C99.455 34.7681 99.5282 32.793 99.4583 31.4128C99.4015 30.2929 100.127 29.4705 100.403 29.2002C100.467 29.1373 100.507 29.1045 100.507 29.1045L100.74 29.2949L102.068 31.6032L102.537 36.5291Z" fill="#FBBEBE"/>
<path d="M107.73 28.9376L106.425 29.7467L104.281 31.4125C104.281 31.4125 102.068 30.2226 102.627 29.5325C102.731 29.3961 102.801 29.2359 102.832 29.0656C103 28.2708 102.627 27.129 102.627 27.129C102.627 27.129 105.543 23.1069 105.376 26.2248C105.309 27.4774 105.676 28.1613 106.139 28.5316C106.828 29.0828 107.73 28.9376 107.73 28.9376Z" fill="#FBBEBE"/>
<path opacity="0.1" d="M107.73 28.9376L106.425 29.7467L104.281 31.4125C104.281 31.4125 102.068 30.2226 102.627 29.5325C102.731 29.3961 102.801 29.2359 102.832 29.0656C103 28.2708 102.627 27.129 102.627 27.129C102.627 27.129 105.543 23.1069 105.376 26.2248C105.309 27.4774 105.676 28.1613 106.139 28.5316C106.828 29.0828 107.73 28.9376 107.73 28.9376Z" fill="black"/>
<path opacity="0.1" d="M103.726 28.2801C105.217 28.2801 106.425 26.973 106.425 25.3607C106.425 23.7484 105.217 22.4414 103.726 22.4414C102.236 22.4414 101.028 23.7484 101.028 25.3607C101.028 26.973 102.236 28.2801 103.726 28.2801Z" fill="black"/>
<path d="M103.726 28.1844C105.217 28.1844 106.425 26.8773 106.425 25.265C106.425 23.6527 105.217 22.3457 103.726 22.3457C102.236 22.3457 101.028 23.6527 101.028 25.265C101.028 26.8773 102.236 28.1844 103.726 28.1844Z" fill="#FBBEBE"/>
<path opacity="0.1" d="M107.73 28.9382L106.425 29.7473L104.281 31.4131C104.281 31.4131 102.068 30.2232 102.627 29.5331C102.731 29.3967 102.801 29.2365 102.832 29.0662C105.273 31.1984 106.015 28.9915 106.139 28.5322C106.828 29.0834 107.73 28.9382 107.73 28.9382Z" fill="black"/>
<path opacity="0.1" d="M102.537 36.5291C102.537 36.5291 102.058 36.5848 101.477 36.641C101.454 36.1289 101.378 35.5496 101.392 35.1965C101.415 34.6016 101.415 34.5302 101.229 34.197C101.043 33.8639 101.066 33.6021 101.089 33.1738C101.112 32.7635 101.005 32.6807 100.627 32.0253C100.611 31.9968 100.594 31.9673 100.577 31.9363C100.391 31.6098 100.338 31.0192 100.336 30.4614C100.337 30.4594 100.337 30.4572 100.336 30.4552C100.336 30.3224 100.338 30.1915 100.343 30.0668C100.343 30.0616 100.343 30.0564 100.343 30.0511C100.357 29.6742 100.387 29.3529 100.403 29.2002C100.467 29.1373 100.507 29.1045 100.507 29.1045L100.74 29.2949L102.068 31.6032L102.537 36.5291Z" fill="black"/>
<path d="M109.425 29.2898C109.423 29.2889 109.706 29.5076 109.705 29.5071C108.861 29.1354 108.383 31.0079 108.254 31.5971C108.231 31.7057 108.219 31.7704 108.219 31.7704C108.219 31.7704 108.234 31.9284 108.253 32.1797C108.315 33.0213 108.424 34.9056 108.172 35.364C108.147 35.4124 108.126 35.4637 108.112 35.5168C108.033 35.7952 108.042 36.2136 108.083 36.6201C108.129 37.038 108.197 37.453 108.289 37.8629C108.289 37.8629 108.848 39.3146 108.615 40.2666C108.538 40.6207 108.515 40.9848 108.547 41.3461C108.571 41.6778 108.62 42.007 108.695 42.3309C108.717 42.4256 108.732 42.4798 108.732 42.4798C108.38 42.6026 108.037 42.7045 107.701 42.7854C107.048 42.9455 106.38 43.0378 105.709 43.061C102.558 43.1633 100.46 41.6212 99.9648 41.2009C99.9257 41.1676 99.8963 41.1414 99.8777 41.1233C99.5515 40.8139 100.181 40.5759 100.111 40.3618C100.041 40.1476 100.429 39.6716 100.429 39.6716C100.429 39.6716 100.344 38.8862 100.693 38.7196C101.043 38.5531 101.299 37.9819 101.496 37.5059C101.693 37.0299 101.462 35.7924 101.485 35.1974C101.509 34.6025 101.509 34.5311 101.322 34.1979C101.136 33.8647 101.159 33.6029 101.182 33.1745C101.205 32.7642 101.099 32.6814 100.721 32.026C100.704 31.9974 100.688 31.9679 100.67 31.937C100.484 31.6105 100.773 31.048 100.772 30.4902C100.772 30.4883 100.879 30.4921 100.878 30.4902C100.878 30.3574 100.66 30.1784 100.665 30.0537C100.665 30.0485 100.558 29.9498 100.558 29.9446C100.574 29.6636 100.556 29.3817 100.507 29.1049C102.371 28.1292 102.813 29.1459 102.813 29.1459C105.54 31.5424 106.158 28.5476 106.158 28.5476C107.642 28.0297 109.594 29.4248 109.705 29.5057C109.708 29.5081 109.425 29.2898 109.425 29.2898Z" fill="#55536E"/>
<path d="M99.4233 36.2871C99.4233 36.2871 99.1901 37.5583 99.8646 38.2675C99.9763 38.3844 100.121 38.4622 100.279 38.4899C100.436 38.5175 100.599 38.4936 100.742 38.4215C100.966 38.309 101.217 38.1421 101.311 37.9279C101.496 37.5057 100.915 35.4421 99.4233 36.2871Z" fill="#FBBEBE"/>
<path opacity="0.1" d="M108.172 35.3635C108.147 35.4118 108.126 35.4631 108.112 35.5162L108.219 32.7341L108.253 32.1797C108.315 33.0211 108.424 34.9052 108.172 35.3635Z" fill="black"/>
<path opacity="0.1" d="M108.615 40.2663C108.538 40.6204 108.515 40.9845 108.547 41.3457C108.396 41.6251 108.267 41.8621 108.183 42.0163C108.117 42.1362 108.079 42.2057 108.079 42.2057C107.939 42.3885 107.812 42.5822 107.701 42.7849C107.615 42.9277 107.561 43.0886 107.543 43.2556C107.543 43.6216 107.182 46.0608 105.47 45.454C104.364 45.0623 105.07 43.862 105.709 43.0605C105.921 42.7942 106.149 42.5406 106.39 42.3009C106.39 42.3009 106.588 42.0439 106.777 41.775C106.907 41.6053 107.019 41.4228 107.112 41.23C107.194 40.9921 107.732 39.945 107.732 39.945C107.732 39.945 108.266 38.7909 108.149 38.2554C108.084 37.9556 108.077 37.2146 108.083 36.6201C108.129 37.038 108.197 37.4529 108.289 37.8628C108.289 37.8628 108.848 39.3144 108.615 40.2663Z" fill="black"/>
<path d="M109.71 29.5092C109.71 29.5092 110.549 30.1042 110.526 31.6511C110.502 33.1981 110.223 35.8754 110.223 35.8754L110.048 37.5413C110.048 37.5413 109.827 38.2196 109.862 38.4219C109.897 38.6242 108.033 42.0155 108.033 42.0155C108.033 42.0155 107.497 42.6999 107.497 43.0657C107.497 43.4315 107.136 45.8709 105.423 45.264C103.71 44.6572 106.343 42.1107 106.343 42.1107C106.343 42.1107 106.984 41.2777 107.066 41.0398C107.147 40.8018 107.685 39.7546 107.685 39.7546C107.685 39.7546 108.219 38.6004 108.102 38.0649C107.986 37.5294 108.056 35.5853 108.056 35.5853L108.172 32.5436L108.219 31.7701C108.219 31.7701 108.65 29.1999 109.71 29.5092Z" fill="#FBBEBE"/>
<path d="M100.813 35.1872L102.084 34.7156C102.189 34.6767 102.302 34.6684 102.412 34.6915C102.521 34.7146 102.622 34.7682 102.703 34.8465L104.39 36.4737C104.39 36.4737 104.483 36.7349 104.359 36.7232C104.235 36.7116 102.417 34.8559 102.417 34.8559L100.616 35.4744C100.616 35.4117 100.634 35.3505 100.67 35.2991C100.705 35.2477 100.755 35.2086 100.813 35.1872Z" fill="#6C63FF"/>
<path d="M102.612 37.3709L104.359 36.7242L102.417 34.8564L100.616 35.4751L102.612 37.3709Z" fill="#4B4B5B"/>
<path d="M99.9864 42.7185C100.072 42.7185 100.142 42.6473 100.142 42.5595C100.142 42.4716 100.072 42.4004 99.9864 42.4004C99.9006 42.4004 99.8311 42.4716 99.8311 42.5595C99.8311 42.6473 99.9006 42.7185 99.9864 42.7185Z" fill="#F2F2F2"/>
<path d="M98.9302 44.7566C99.016 44.7566 99.0855 44.6854 99.0855 44.5975C99.0855 44.5097 99.016 44.4385 98.9302 44.4385C98.8444 44.4385 98.7748 44.5097 98.7748 44.5975C98.7748 44.6854 98.8444 44.7566 98.9302 44.7566Z" fill="#F2F2F2"/>
<path d="M107.368 45.4978C107.454 45.4978 107.523 45.4266 107.523 45.3388C107.523 45.2509 107.454 45.1797 107.368 45.1797C107.282 45.1797 107.213 45.2509 107.213 45.3388C107.213 45.4266 107.282 45.4978 107.368 45.4978Z" fill="#F2F2F2"/>
<path d="M108.246 48.3787C108.332 48.3787 108.402 48.3075 108.402 48.2196C108.402 48.1318 108.332 48.0605 108.246 48.0605C108.161 48.0605 108.091 48.1318 108.091 48.2196C108.091 48.3075 108.161 48.3787 108.246 48.3787Z" fill="#F2F2F2"/>
<path d="M107.904 47.5681C107.99 47.5681 108.06 47.4969 108.06 47.4091C108.06 47.3212 107.99 47.25 107.904 47.25C107.819 47.25 107.749 47.3212 107.749 47.4091C107.749 47.4969 107.819 47.5681 107.904 47.5681Z" fill="#F2F2F2"/>
<path d="M107.607 46.533C107.693 46.533 107.763 46.4618 107.763 46.3739C107.763 46.2861 107.693 46.2148 107.607 46.2148C107.522 46.2148 107.452 46.2861 107.452 46.3739C107.452 46.4618 107.522 46.533 107.607 46.533Z" fill="#F2F2F2"/>
<path d="M99.4233 43.6834C99.5091 43.6834 99.5786 43.6122 99.5786 43.5243C99.5786 43.4365 99.5091 43.3652 99.4233 43.3652C99.3375 43.3652 99.2679 43.4365 99.2679 43.5243C99.2679 43.6122 99.3375 43.6834 99.4233 43.6834Z" fill="#F2F2F2"/>
<path d="M98.314 45.8152C98.3998 45.8152 98.4694 45.744 98.4694 45.6561C98.4694 45.5683 98.3998 45.4971 98.314 45.4971C98.2282 45.4971 98.1587 45.5683 98.1587 45.6561C98.1587 45.744 98.2282 45.8152 98.314 45.8152Z" fill="#F2F2F2"/>
<path d="M109.705 29.5055L109.705 29.507C108.861 29.1353 108.383 31.0075 108.254 31.5966L106.93 29.6602C106.93 29.6602 106.386 30.5482 104.631 30.6834C102.875 30.8181 102.449 29.319 102.449 29.319C102.208 29.2999 101.117 31.3054 100.721 32.0254C100.704 31.9969 100.688 31.9674 100.67 31.9364C100.484 31.61 100.431 31.0194 100.429 30.4616C100.43 30.4596 100.43 30.4575 100.429 30.4554C100.431 30.326 100.433 30.1961 100.436 30.0671C100.436 30.0619 100.436 30.0566 100.436 30.0514C100.456 29.5231 100.507 29.1048 100.507 29.1048C102.371 28.1292 102.813 29.1458 102.813 29.1458C105.54 31.5419 106.158 28.5475 106.158 28.5475C107.642 28.0298 109.594 29.4246 109.705 29.5055Z" fill="#6C63FF"/>
<path opacity="0.1" d="M99.3651 46.9062C99.3884 46.9657 101.346 49.274 102.068 49.393C102.79 49.512 99.3651 46.9062 99.3651 46.9062Z" fill="black"/>
<path opacity="0.1" d="M100.767 43.3652C100.767 43.3652 100.786 44.9923 100.297 45.3598C99.8078 45.7272 100.767 43.3652 100.767 43.3652Z" fill="black"/>
<path opacity="0.1" d="M101.672 43.9434C101.672 43.9434 101.625 45.8595 102.324 46.3117C102.324 46.3117 101.043 45.0383 101.672 43.9434Z" fill="black"/>
<path opacity="0.1" d="M100.81 53.7842C100.81 53.7842 99.5049 54.7711 99.1437 54.8425C98.7826 54.9138 100.81 53.7842 100.81 53.7842Z" fill="black"/>
<path opacity="0.1" d="M100.484 23.5633C100.203 23.8052 100.304 24.3075 100.591 24.5418C100.878 24.7762 101.271 24.8122 101.639 24.8218C102.346 24.8405 103.065 24.7986 103.751 24.9763C104.053 25.0403 104.333 25.1868 104.561 25.4002C104.772 25.643 104.917 25.9379 104.982 26.2557C105.102 26.7233 105.151 27.2071 105.126 27.6899C105.109 28.0144 105.059 28.3409 105.105 28.6625C105.162 28.9644 105.262 29.256 105.402 29.5278C105.942 30.6968 106.543 31.8353 107.202 32.9383C107.254 33.0467 107.336 33.1376 107.437 33.2004C107.605 33.2834 107.803 33.1993 107.971 33.1158C107.873 32.78 107.817 32.4326 107.806 32.0824C107.893 32.1059 107.985 32.1022 108.071 32.0718C108.156 32.0414 108.23 31.9857 108.284 31.9118C108.389 31.7619 108.463 31.5918 108.502 31.4117L108.815 30.3083C108.912 29.9671 109.056 29.5755 109.39 29.4751C109.509 29.4576 109.627 29.4296 109.742 29.3912C109.818 29.3454 109.878 29.2781 109.917 29.1975C109.956 29.1168 109.971 29.0264 109.96 28.9373C109.934 28.7591 109.862 28.5915 109.749 28.4528C109.278 27.8046 108.491 27.4202 108.123 26.7054C107.807 26.0916 107.862 25.353 107.966 24.6677C108.07 23.9823 108.215 23.2777 108.055 22.6038C107.892 21.989 107.525 21.4513 107.016 21.0836C106.508 20.7202 105.928 20.4765 105.316 20.3699C105.034 20.2966 104.739 20.2987 104.457 20.3759C104.246 20.449 104.064 20.5934 103.857 20.6803C103.388 20.8779 102.846 20.7599 102.353 20.8856C101.9 21.0185 101.506 21.3089 101.241 21.7067C100.978 22.1025 100.781 22.5398 100.658 23.0009C100.567 23.3035 100.713 23.4246 100.448 23.5891" fill="black"/>
<path d="M100.531 23.4676C100.249 23.7095 100.351 24.2118 100.638 24.4461C100.925 24.6805 101.318 24.7165 101.685 24.7261C102.393 24.7448 103.111 24.7029 103.797 24.8806C104.1 24.9446 104.38 25.0911 104.607 25.3045C104.818 25.5473 104.964 25.8422 105.028 26.16C105.149 26.6276 105.197 27.1114 105.172 27.5942C105.156 27.9187 105.106 28.2452 105.152 28.5668C105.208 28.8687 105.308 29.1603 105.449 29.4321C105.988 30.6011 106.589 31.7396 107.249 32.8426C107.301 32.951 107.382 33.0419 107.483 33.1047C107.651 33.1877 107.849 33.1036 108.017 33.0201C107.919 32.6843 107.864 32.3369 107.853 31.9867C107.94 32.0102 108.032 32.0065 108.117 31.9761C108.202 31.9457 108.277 31.89 108.331 31.8161C108.436 31.6662 108.51 31.4961 108.548 31.316L108.862 30.2126C108.959 29.8714 109.103 29.4798 109.436 29.3794C109.556 29.3619 109.674 29.3339 109.789 29.2955C109.864 29.2497 109.925 29.1824 109.964 29.1018C110.002 29.0211 110.017 28.9307 110.006 28.8416C109.981 28.6634 109.908 28.4958 109.796 28.3571C109.324 27.7089 108.538 27.3245 108.169 26.6097C107.853 25.9959 107.908 25.2573 108.012 24.572C108.117 23.8866 108.262 23.182 108.101 22.5081C107.939 21.8933 107.572 21.3556 107.062 20.9879C106.555 20.6245 105.974 20.3808 105.363 20.2742C105.081 20.2009 104.785 20.203 104.504 20.2802C104.292 20.3533 104.111 20.4977 103.904 20.5846C103.434 20.7822 102.893 20.6642 102.4 20.7899C101.947 20.9228 101.553 21.2132 101.287 21.611C101.025 22.0068 100.828 22.4441 100.705 22.9052C100.614 23.2078 100.759 23.3289 100.495 23.4934" fill="#3F3D56"/>
<path d="M100.239 36.4344C100.239 36.4344 102.371 34.9825 102.977 35.8751C103.582 36.7677 101.101 37.8626 101.101 37.8626L100.239 36.4344Z" fill="#FBBEBE"/>
<path d="M100.936 29.5364C100.928 29.6764 100.902 29.848 100.825 29.8734C101.024 29.8685 101.22 30.018 101.418 29.9734C101.565 29.9401 101.703 29.7944 101.792 29.5793C101.801 29.5472 101.818 29.5181 101.842 29.4953C101.862 29.4829 101.885 29.4953 101.906 29.5078C102.291 29.743 102.651 30.0203 102.978 30.3348C103.087 30.4387 103.209 30.5513 103.328 30.497C103.334 30.1028 103.256 29.7121 103.099 29.3517C102.973 29.0627 102.759 28.8232 102.489 28.6691C102.264 28.5571 102.02 28.4922 101.77 28.4781C101.663 28.4759 101.557 28.449 101.461 28.3995C101.355 28.3359 101.017 27.9231 100.941 28.2237C100.904 28.3688 100.952 28.678 100.953 28.8386C100.954 29.0715 100.949 29.3046 100.936 29.5364Z" fill="#3F3D56"/>
<g opacity="0.1">
<path d="M107.683 32.8666C107.582 32.8038 107.5 32.7129 107.448 32.6045C106.789 31.5017 106.188 30.3633 105.648 29.1943C105.508 28.9225 105.408 28.6309 105.351 28.3291C105.306 28.0075 105.355 27.681 105.372 27.3566C105.397 26.8738 105.348 26.3901 105.228 25.9225C105.163 25.6048 105.018 25.3098 104.807 25.067C104.579 24.8537 104.299 24.7072 103.997 24.6432C103.311 24.4655 102.592 24.5074 101.885 24.4887C101.517 24.4791 101.125 24.4431 100.837 24.2087C100.726 24.1169 100.644 23.9934 100.601 23.8538C100.559 23.7143 100.558 23.565 100.598 23.4248C100.58 23.4426 100.56 23.4589 100.539 23.4734C100.264 23.7171 100.366 24.2139 100.651 24.4467C100.938 24.6811 101.331 24.717 101.698 24.7267C102.406 24.7453 103.124 24.7034 103.81 24.8811C104.113 24.9452 104.393 25.0916 104.62 25.305C104.831 25.5478 104.977 25.8427 105.042 26.1605C105.162 26.6281 105.21 27.1118 105.186 27.5945C105.169 27.919 105.119 28.2455 105.165 28.5671C105.221 28.8689 105.322 29.1605 105.462 29.4323C106.001 30.6012 106.602 31.7396 107.262 32.8425C107.314 32.9509 107.395 33.0418 107.496 33.1046C107.665 33.1876 107.862 33.1034 108.03 33.02C108.016 32.9722 108.004 32.924 107.991 32.8757C107.891 32.9122 107.781 32.909 107.683 32.8666Z" fill="black"/>
<path d="M100.508 23.4944C100.519 23.4871 100.529 23.4801 100.539 23.473C100.541 23.4714 100.543 23.4694 100.545 23.4678L100.508 23.4944Z" fill="black"/>
<path d="M100.725 23.2346C100.715 23.2414 100.706 23.2483 100.694 23.2553L100.73 23.2295C100.728 23.2311 100.727 23.2329 100.725 23.2346C100.946 23.0802 100.817 22.9569 100.904 22.6673C101.026 22.2148 101.218 21.7851 101.473 21.3945C101.411 21.4635 101.354 21.5359 101.3 21.6114C101.038 22.0071 100.841 22.4442 100.718 22.9052C100.69 23.0319 100.675 23.1611 100.672 23.2908C100.688 23.2705 100.706 23.2517 100.725 23.2346Z" fill="black"/>
<path d="M109.988 29.0576C109.873 29.0959 109.755 29.124 109.636 29.1414C109.465 29.2012 109.325 29.3277 109.246 29.493C109.305 29.4411 109.375 29.4024 109.449 29.3795C109.569 29.362 109.687 29.3339 109.802 29.2956C109.848 29.2703 109.889 29.2359 109.922 29.1944C109.955 29.1529 109.98 29.105 109.995 29.0537C109.992 29.0549 109.99 29.0564 109.988 29.0576Z" fill="black"/>
<path d="M108.052 31.7489C108.055 31.8317 108.06 31.9142 108.068 31.9967C108.176 31.9683 108.273 31.9052 108.344 31.8165C108.38 31.771 108.411 31.7215 108.436 31.6689C108.384 31.7137 108.321 31.7444 108.254 31.7583C108.187 31.7723 108.118 31.769 108.052 31.7489Z" fill="black"/>
</g>
<path opacity="0.1" d="M99.7232 36.1519C99.7232 36.1519 100.285 35.9186 100.616 35.9704L99.7232 36.1519Z" fill="black"/>
<path opacity="0.1" d="M101.344 38.7666C101.344 38.7666 101.629 39.2186 103.072 39.4089C104.514 39.5992 101.344 38.7666 101.344 38.7666Z" fill="black"/>
<path opacity="0.1" d="M100.825 40.457C100.825 40.457 102.123 41.6229 104.204 41.1946C106.285 40.7663 100.825 40.457 100.825 40.457Z" fill="black"/>
<path d="M95.0026 67.6996L116.369 64.3174" stroke="#3F3D56" stroke-miterlimit="10"/>
<path d="M20.3165 30.9676C20.3165 33.8191 22.1507 36.2832 24.8103 37.4511L21.0069 28.0358C20.5542 28.944 20.3177 29.9485 20.3165 30.9676ZM33.6727 30.604C33.6727 29.7137 33.3187 29.0972 33.0151 28.6173C32.6109 28.0239 32.2323 27.5213 32.2323 26.928C32.2323 26.2657 32.788 25.6493 33.571 25.6493C33.6064 25.6493 33.6399 25.6533 33.6745 25.6551C32.1442 24.4144 30.2437 23.747 28.29 23.764C25.5044 23.764 23.0537 25.0552 21.628 27.011C21.8151 27.0161 21.9915 27.0195 22.1411 27.0195C22.9751 27.0195 24.2661 26.9281 24.2661 26.9281C24.6959 26.9052 24.7466 27.4756 24.3174 27.5215C24.3174 27.5215 23.8853 27.5674 23.4046 27.5902L26.3082 35.3932L28.0533 30.665L26.8109 27.59C26.3815 27.5673 25.9747 27.5214 25.9747 27.5214C25.5451 27.4986 25.5954 26.9051 26.0251 26.928C26.0251 26.928 27.3419 27.0194 28.1254 27.0194C28.9592 27.0194 30.2503 26.928 30.2503 26.928C30.6805 26.9051 30.731 27.4754 30.3015 27.5214C30.3015 27.5214 29.8686 27.5673 29.3889 27.59L32.2703 35.3339L33.0655 32.9328C33.4104 31.9364 33.6727 31.2207 33.6727 30.604H33.6727Z" fill="#6C63FF"/>
<path d="M28.4299 31.5968L26.0376 37.8767C27.6497 38.304 29.3465 38.2643 30.9378 37.762C30.9158 37.7309 30.8968 37.6977 30.8811 37.6628L28.4299 31.5968ZM35.2864 27.5107C35.3226 27.7559 35.3406 28.0035 35.3401 28.2514C35.3401 28.9824 35.189 29.8041 34.7338 30.8315L32.2983 37.1931C34.6688 35.9443 36.2632 33.6242 36.2632 30.9667C36.2612 29.744 35.9227 28.5465 35.2864 27.5107L35.2864 27.5107Z" fill="#6C63FF"/>
</svg>
