<svg width="80" height="80" viewBox="0 0 80 80" fill="none" xmlns="http://www.w3.org/2000/svg">
<circle cx="40" cy="40" r="40" fill="#EF6C57"/>
<path fill-rule="evenodd" clip-rule="evenodd" d="M37 27C35.3431 27 34 28.3431 34 30V31H27C25.3431 31 24 32.3431 24 34V36.768L39.228 40.828C39.7339 40.9627 40.2661 40.9627 40.772 40.828L56 36.768V34C56 32.3431 54.6569 31 53 31H46V30C46 28.3431 44.6569 27 43 27H37ZM37 29H43C43.5523 29 44 29.4477 44 30V31H36V30C36 29.4477 36.4477 29 37 29ZM27 53C25.3431 53 24 51.6569 24 50V38.7L39.742 42.894C39.911 42.9391 40.089 42.9391 40.258 42.894L56 38.7V50C56 51.6569 54.6569 53 53 53H27Z" fill="white"/>
</svg>
