<svg width="100" height="100" viewBox="0 0 100 100" fill="none" xmlns="http://www.w3.org/2000/svg">
<path d="M77.4064 13.7019L77.4619 13.6779H77.4896L50 0L22.5243 13.6779H22.4965L22.5936 13.7139L0 25V75L50 100L100 75V25L77.4064 13.7019ZM45.9362 89.8558L26.0888 79.9279V63.149L8.11373 54.3029V33.2812L45.9362 52.1875V89.8558ZM12.025 27.1034L30.7073 17.7524L49.9723 27.3317L69.2649 17.7284L88.0166 27.1034L50.0277 46.0938L12.025 27.1034ZM91.8863 54.363L74.0222 63.149V79.8678L54.0638 89.8438V52.2115L91.8863 33.3053V54.363Z" fill="#545454"/>
</svg>
