<svg width="1182" height="542" viewBox="0 0 1182 542" fill="none" xmlns="http://www.w3.org/2000/svg">
<g filter="url(#filter0_b_213_3544)">
<rect x="1182" width="542" height="1182" rx="16" transform="rotate(90 1182 0)" fill="url(#paint0_linear_213_3544)" fill-opacity="0.5"/>
</g>
<path d="M88.5205 142L82.6405 100.7H92.9165L96.8925 140.18L95.4925 140.096L101.876 100.7H114.196L120.552 140.096L119.152 140.18L123.128 100.7H133.404L127.524 142H112.236L107.532 107.364H108.54L103.836 142H88.5205ZM139.731 129.988V123.744H158.351L157.511 125.2C157.511 125.051 157.511 124.901 157.511 124.752C157.511 124.584 157.511 124.435 157.511 124.304C157.511 123.464 157.297 122.633 156.867 121.812C156.438 120.972 155.757 120.281 154.823 119.74C153.89 119.18 152.667 118.9 151.155 118.9C149.662 118.9 148.393 119.217 147.347 119.852C146.321 120.468 145.537 121.383 144.995 122.596C144.473 123.791 144.211 125.237 144.211 126.936C144.211 128.709 144.463 130.231 144.967 131.5C145.49 132.751 146.283 133.712 147.347 134.384C148.411 135.037 149.774 135.364 151.435 135.364C152.462 135.364 153.339 135.28 154.067 135.112C154.814 134.944 155.411 134.729 155.859 134.468C156.326 134.188 156.671 133.889 156.895 133.572C157.138 133.236 157.287 132.909 157.343 132.592H167.199C167.087 133.88 166.639 135.131 165.855 136.344C165.071 137.539 163.989 138.621 162.607 139.592C161.245 140.544 159.583 141.3 157.623 141.86C155.682 142.42 153.479 142.7 151.015 142.7C147.637 142.7 144.697 142.047 142.195 140.74C139.694 139.415 137.753 137.585 136.371 135.252C135.009 132.919 134.327 130.231 134.327 127.188C134.327 124.089 135.027 121.383 136.427 119.068C137.827 116.735 139.778 114.924 142.279 113.636C144.799 112.329 147.711 111.676 151.015 111.676C154.431 111.676 157.381 112.339 159.863 113.664C162.346 114.971 164.259 116.819 165.603 119.208C166.947 121.597 167.619 124.407 167.619 127.636C167.619 128.14 167.61 128.597 167.591 129.008C167.573 129.419 167.545 129.745 167.507 129.988H139.731ZM218.307 100.7V142H208.283V122.54L212.791 125.228H189.999L194.507 122.68V142H184.483V100.7H194.507V120.3L189.999 117.668H212.791L208.283 120.272V100.7H218.307ZM227.567 129.988V123.744H246.187L245.347 125.2C245.347 125.051 245.347 124.901 245.347 124.752C245.347 124.584 245.347 124.435 245.347 124.304C245.347 123.464 245.133 122.633 244.703 121.812C244.274 120.972 243.593 120.281 242.659 119.74C241.726 119.18 240.503 118.9 238.991 118.9C237.498 118.9 236.229 119.217 235.183 119.852C234.157 120.468 233.373 121.383 232.831 122.596C232.309 123.791 232.047 125.237 232.047 126.936C232.047 128.709 232.299 130.231 232.803 131.5C233.326 132.751 234.119 133.712 235.183 134.384C236.247 135.037 237.61 135.364 239.271 135.364C240.298 135.364 241.175 135.28 241.903 135.112C242.65 134.944 243.247 134.729 243.695 134.468C244.162 134.188 244.507 133.889 244.731 133.572C244.974 133.236 245.123 132.909 245.179 132.592H255.035C254.923 133.88 254.475 135.131 253.691 136.344C252.907 137.539 251.825 138.621 250.443 139.592C249.081 140.544 247.419 141.3 245.459 141.86C243.518 142.42 241.315 142.7 238.851 142.7C235.473 142.7 232.533 142.047 230.031 140.74C227.53 139.415 225.589 137.585 224.207 135.252C222.845 132.919 222.163 130.231 222.163 127.188C222.163 124.089 222.863 121.383 224.263 119.068C225.663 116.735 227.614 114.924 230.115 113.636C232.635 112.329 235.547 111.676 238.851 111.676C242.267 111.676 245.217 112.339 247.699 113.664C250.182 114.971 252.095 116.819 253.439 119.208C254.783 121.597 255.455 124.407 255.455 127.636C255.455 128.14 255.446 128.597 255.427 129.008C255.409 129.419 255.381 129.745 255.343 129.988H227.567ZM269.426 98.236V142H259.598V98.236H269.426ZM274.749 154.236V112.264H284.745V154.236H274.749ZM293.733 142.7C291.381 142.7 289.225 142.056 287.265 140.768C285.323 139.461 283.774 137.716 282.617 135.532C281.459 133.329 280.881 130.875 280.881 128.168C280.881 128.093 280.881 128.019 280.881 127.944C280.881 127.851 280.881 127.757 280.881 127.664L284.745 127.58C284.745 127.636 284.745 127.701 284.745 127.776C284.745 127.832 284.745 127.879 284.745 127.916C284.745 129.223 285.043 130.352 285.641 131.304C286.257 132.237 287.041 132.956 287.993 133.46C288.963 133.945 289.962 134.188 290.989 134.188C292.65 134.188 294.125 133.609 295.413 132.452C296.701 131.295 297.345 129.465 297.345 126.964C297.345 124.463 296.701 122.661 295.413 121.56C294.143 120.44 292.669 119.88 290.989 119.88C289.981 119.88 288.991 120.123 288.021 120.608C287.069 121.075 286.285 121.765 285.669 122.68C285.053 123.576 284.745 124.687 284.745 126.012L280.881 125.76C280.881 123.035 281.459 120.617 282.617 118.508C283.774 116.399 285.323 114.737 287.265 113.524C289.225 112.292 291.381 111.676 293.733 111.676C296.141 111.676 298.399 112.264 300.509 113.44C302.637 114.616 304.354 116.343 305.661 118.62C306.986 120.897 307.649 123.679 307.649 126.964C307.649 130.417 307.005 133.311 305.717 135.644C304.429 137.977 302.73 139.741 300.621 140.936C298.511 142.112 296.215 142.7 293.733 142.7ZM112.376 172.26H98.1805L102.464 167.64V206H92.4965V167.64L96.8365 172.26H82.6125V164.7H112.376V172.26ZM127.772 206.672C124.486 206.672 121.593 206.019 119.092 204.712C116.609 203.387 114.658 201.557 113.24 199.224C111.84 196.891 111.14 194.203 111.14 191.16C111.14 188.099 111.84 185.411 113.24 183.096C114.658 180.763 116.609 178.943 119.092 177.636C121.593 176.329 124.486 175.676 127.772 175.676C131.057 175.676 133.941 176.329 136.424 177.636C138.925 178.943 140.876 180.763 142.276 183.096C143.694 185.411 144.404 188.099 144.404 191.16C144.404 194.203 143.694 196.891 142.276 199.224C140.876 201.557 138.925 203.387 136.424 204.712C133.941 206.019 131.057 206.672 127.772 206.672ZM127.772 198.972C129.116 198.972 130.273 198.645 131.244 197.992C132.214 197.339 132.961 196.433 133.484 195.276C134.006 194.1 134.268 192.728 134.268 191.16C134.268 189.573 134.006 188.201 133.484 187.044C132.961 185.887 132.214 184.991 131.244 184.356C130.273 183.721 129.116 183.404 127.772 183.404C126.446 183.404 125.289 183.721 124.3 184.356C123.329 184.991 122.582 185.887 122.06 187.044C121.537 188.201 121.276 189.573 121.276 191.16C121.276 192.728 121.537 194.1 122.06 195.276C122.582 196.433 123.329 197.339 124.3 197.992C125.289 198.645 126.446 198.972 127.772 198.972ZM178.487 164.7C181.474 164.7 183.91 165.12 185.795 165.96C187.68 166.8 189.062 167.976 189.939 169.488C190.835 171 191.283 172.745 191.283 174.724C191.283 176.721 190.891 178.439 190.107 179.876C189.323 181.295 188.334 182.405 187.139 183.208C185.963 183.992 184.759 184.431 183.527 184.524C184.778 184.561 186.084 184.897 187.447 185.532C188.81 186.167 189.967 187.184 190.919 188.584C191.871 189.984 192.347 191.86 192.347 194.212C192.347 196.396 191.908 198.384 191.031 200.176C190.154 201.949 188.698 203.368 186.663 204.432C184.647 205.477 181.912 206 178.459 206H161.295V164.7H178.487ZM170.815 183.74L167.539 181.052H175.687C177.628 181.052 179.047 180.623 179.943 179.764C180.858 178.905 181.315 177.795 181.315 176.432C181.315 175.517 181.119 174.752 180.727 174.136C180.354 173.52 179.766 173.053 178.963 172.736C178.16 172.419 177.143 172.26 175.911 172.26H166.307L170.815 167.64V183.74ZM176.499 198.412C178.403 198.412 179.822 197.964 180.755 197.068C181.688 196.172 182.155 195.015 182.155 193.596C182.155 192.849 182.024 192.168 181.763 191.552C181.52 190.936 181.147 190.404 180.643 189.956C180.158 189.508 179.551 189.163 178.823 188.92C178.095 188.677 177.264 188.556 176.331 188.556H167.539L170.815 185.868V203.032L166.307 198.412H176.499ZM207.102 206.588C204.993 206.588 203.257 206.252 201.894 205.58C200.55 204.908 199.496 204.003 198.73 202.864C197.984 201.707 197.452 200.419 197.134 199C196.836 197.563 196.686 196.079 196.686 194.548C196.686 193.876 196.686 193.176 196.686 192.448C196.686 191.701 196.686 190.936 196.686 190.152V176.264H206.654V188.5C206.654 189.135 206.654 189.741 206.654 190.32C206.654 190.88 206.654 191.403 206.654 191.888C206.654 193.027 206.766 194.081 206.99 195.052C207.214 196.023 207.653 196.807 208.306 197.404C208.978 197.983 209.94 198.272 211.19 198.272C212.441 198.272 213.486 197.927 214.326 197.236C215.166 196.527 215.801 195.631 216.23 194.548C216.678 193.447 216.902 192.299 216.902 191.104L219.198 193.344C219.198 195.304 218.918 197.096 218.358 198.72C217.798 200.325 216.996 201.716 215.95 202.892C214.905 204.068 213.636 204.983 212.142 205.636C210.668 206.271 208.988 206.588 207.102 206.588ZM216.902 206V176.264H226.87V206H216.902ZM231.22 206V176.264H241.104V206H231.22ZM236.148 172.092C234.655 172.092 233.339 171.7 232.2 170.916C231.08 170.132 230.52 169.021 230.52 167.584C230.52 166.128 231.08 165.017 232.2 164.252C233.339 163.468 234.655 163.076 236.148 163.076C237.66 163.076 238.976 163.468 240.096 164.252C241.216 165.017 241.776 166.128 241.776 167.584C241.776 169.04 241.216 170.16 240.096 170.944C238.976 171.709 237.66 172.092 236.148 172.092ZM255.958 162.236V206H246.13V162.236H255.958ZM273.74 206.7C271.257 206.7 268.952 206.112 266.824 204.936C264.715 203.741 263.016 201.977 261.728 199.644C260.44 197.311 259.796 194.417 259.796 190.964C259.796 187.679 260.459 184.897 261.784 182.62C263.109 180.343 264.836 178.616 266.964 177.44C269.092 176.264 271.351 175.676 273.74 175.676C276.111 175.676 278.267 176.292 280.208 177.524C282.149 178.737 283.699 180.399 284.856 182.508C286.013 184.617 286.592 187.035 286.592 189.76C286.592 189.853 286.592 189.947 286.592 190.04C286.592 190.133 286.592 190.236 286.592 190.348L282.728 190.376C282.728 190.32 282.728 190.264 282.728 190.208C282.728 190.133 282.728 190.068 282.728 190.012C282.728 188.687 282.411 187.576 281.776 186.68C281.16 185.765 280.376 185.075 279.424 184.608C278.472 184.123 277.483 183.88 276.456 183.88C274.795 183.88 273.32 184.44 272.032 185.56C270.744 186.661 270.1 188.463 270.1 190.964C270.1 193.465 270.744 195.295 272.032 196.452C273.32 197.609 274.795 198.188 276.456 198.188C277.52 198.188 278.528 197.936 279.48 197.432C280.432 196.928 281.207 196.209 281.804 195.276C282.42 194.324 282.728 193.195 282.728 191.888L286.592 192.112C286.592 194.819 286.013 197.273 284.856 199.476C283.717 201.679 282.177 203.433 280.236 204.74C278.295 206.047 276.129 206.7 273.74 206.7ZM282.728 206V162.236H292.724V206H282.728ZM343.164 164.7L331.04 191.804V206H321.072V191.804L309.032 164.7H319.588L328.044 187.016H324.096L332.552 164.7H343.164ZM357.1 206.672C353.815 206.672 350.921 206.019 348.42 204.712C345.937 203.387 343.987 201.557 342.568 199.224C341.168 196.891 340.468 194.203 340.468 191.16C340.468 188.099 341.168 185.411 342.568 183.096C343.987 180.763 345.937 178.943 348.42 177.636C350.921 176.329 353.815 175.676 357.1 175.676C360.385 175.676 363.269 176.329 365.752 177.636C368.253 178.943 370.204 180.763 371.604 183.096C373.023 185.411 373.732 188.099 373.732 191.16C373.732 194.203 373.023 196.891 371.604 199.224C370.204 201.557 368.253 203.387 365.752 204.712C363.269 206.019 360.385 206.672 357.1 206.672ZM357.1 198.972C358.444 198.972 359.601 198.645 360.572 197.992C361.543 197.339 362.289 196.433 362.812 195.276C363.335 194.1 363.596 192.728 363.596 191.16C363.596 189.573 363.335 188.201 362.812 187.044C362.289 185.887 361.543 184.991 360.572 184.356C359.601 183.721 358.444 183.404 357.1 183.404C355.775 183.404 354.617 183.721 353.628 184.356C352.657 184.991 351.911 185.887 351.388 187.044C350.865 188.201 350.604 189.573 350.604 191.16C350.604 192.728 350.865 194.1 351.388 195.276C351.911 196.433 352.657 197.339 353.628 197.992C354.617 198.645 355.775 198.972 357.1 198.972ZM387.899 206.588C385.79 206.588 384.054 206.252 382.691 205.58C381.347 204.908 380.293 204.003 379.527 202.864C378.781 201.707 378.249 200.419 377.931 199C377.633 197.563 377.483 196.079 377.483 194.548C377.483 193.876 377.483 193.176 377.483 192.448C377.483 191.701 377.483 190.936 377.483 190.152V176.264H387.451V188.5C387.451 189.135 387.451 189.741 387.451 190.32C387.451 190.88 387.451 191.403 387.451 191.888C387.451 193.027 387.563 194.081 387.787 195.052C388.011 196.023 388.45 196.807 389.103 197.404C389.775 197.983 390.737 198.272 391.987 198.272C393.238 198.272 394.283 197.927 395.123 197.236C395.963 196.527 396.598 195.631 397.027 194.548C397.475 193.447 397.699 192.299 397.699 191.104L399.995 193.344C399.995 195.304 399.715 197.096 399.155 198.72C398.595 200.325 397.793 201.716 396.747 202.892C395.702 204.068 394.433 204.983 392.939 205.636C391.465 206.271 389.785 206.588 387.899 206.588ZM397.699 206V176.264H407.667V206H397.699ZM412.577 206V176.264H422.573V186.904L420.697 185.56C420.958 184.085 421.369 182.741 421.929 181.528C422.489 180.296 423.208 179.251 424.085 178.392C424.981 177.515 426.017 176.843 427.193 176.376C428.388 175.909 429.732 175.676 431.225 175.676C432.438 175.676 433.362 175.76 433.997 175.928C434.65 176.096 435.061 176.227 435.229 176.32L433.745 185.14C433.577 185.047 433.204 184.907 432.625 184.72C432.046 184.515 431.328 184.412 430.469 184.412C428.994 184.412 427.744 184.655 426.717 185.14C425.709 185.607 424.897 186.241 424.281 187.044C423.684 187.847 423.245 188.743 422.965 189.732C422.704 190.721 422.573 191.711 422.573 192.7V206H412.577ZM84.0685 270V228.7H98.4325C101.195 228.7 103.715 229.204 105.992 230.212C108.288 231.22 110.267 232.648 111.928 234.496C113.59 236.325 114.868 238.5 115.764 241.02C116.66 243.521 117.108 246.275 117.108 249.28C117.108 252.267 116.66 255.029 115.764 257.568C114.868 260.088 113.59 262.281 111.928 264.148C110.267 265.996 108.288 267.433 105.992 268.46C103.715 269.487 101.195 270 98.4325 270H84.0685ZM94.0925 267.06L89.5845 262.44H97.0885C98.9178 262.44 100.57 261.908 102.044 260.844C103.538 259.78 104.732 258.268 105.628 256.308C106.524 254.329 106.972 251.987 106.972 249.28C106.972 246.555 106.524 244.221 105.628 242.28C104.732 240.339 103.538 238.855 102.044 237.828C100.57 236.783 98.9178 236.26 97.0885 236.26H89.5845L94.0925 231.64V267.06ZM121.319 270V240.264H131.315V250.904L129.439 249.56C129.7 248.085 130.111 246.741 130.671 245.528C131.231 244.296 131.95 243.251 132.827 242.392C133.723 241.515 134.759 240.843 135.935 240.376C137.13 239.909 138.474 239.676 139.967 239.676C141.18 239.676 142.104 239.76 142.739 239.928C143.392 240.096 143.803 240.227 143.971 240.32L142.487 249.14C142.319 249.047 141.946 248.907 141.367 248.72C140.788 248.515 140.07 248.412 139.211 248.412C137.736 248.412 136.486 248.655 135.459 249.14C134.451 249.607 133.639 250.241 133.023 251.044C132.426 251.847 131.987 252.743 131.707 253.732C131.446 254.721 131.315 255.711 131.315 256.7V270H121.319ZM150.489 257.988V251.744H169.109L168.269 253.2C168.269 253.051 168.269 252.901 168.269 252.752C168.269 252.584 168.269 252.435 168.269 252.304C168.269 251.464 168.054 250.633 167.625 249.812C167.196 248.972 166.514 248.281 165.581 247.74C164.648 247.18 163.425 246.9 161.913 246.9C160.42 246.9 159.15 247.217 158.105 247.852C157.078 248.468 156.294 249.383 155.753 250.596C155.23 251.791 154.969 253.237 154.969 254.936C154.969 256.709 155.221 258.231 155.725 259.5C156.248 260.751 157.041 261.712 158.105 262.384C159.169 263.037 160.532 263.364 162.193 263.364C163.22 263.364 164.097 263.28 164.825 263.112C165.572 262.944 166.169 262.729 166.617 262.468C167.084 262.188 167.429 261.889 167.653 261.572C167.896 261.236 168.045 260.909 168.101 260.592H177.957C177.845 261.88 177.397 263.131 176.613 264.344C175.829 265.539 174.746 266.621 173.365 267.592C172.002 268.544 170.341 269.3 168.381 269.86C166.44 270.42 164.237 270.7 161.773 270.7C158.394 270.7 155.454 270.047 152.953 268.74C150.452 267.415 148.51 265.585 147.129 263.252C145.766 260.919 145.085 258.231 145.085 255.188C145.085 252.089 145.785 249.383 147.185 247.068C148.585 244.735 150.536 242.924 153.037 241.636C155.557 240.329 158.469 239.676 161.773 239.676C165.189 239.676 168.138 240.339 170.621 241.664C173.104 242.971 175.017 244.819 176.361 247.208C177.705 249.597 178.377 252.407 178.377 255.636C178.377 256.14 178.368 256.597 178.349 257.008C178.33 257.419 178.302 257.745 178.265 257.988H150.489ZM192.068 270.644C189.922 270.644 188.008 270.308 186.328 269.636C184.648 268.945 183.323 267.947 182.352 266.64C181.382 265.333 180.896 263.747 180.896 261.88C180.896 259.733 181.503 257.997 182.716 256.672C183.93 255.328 185.507 254.311 187.448 253.62C189.39 252.911 191.443 252.453 193.608 252.248C196.744 251.949 198.882 251.688 200.02 251.464C201.178 251.221 201.756 250.811 201.756 250.232C201.756 250.213 201.756 250.204 201.756 250.204C201.756 250.185 201.756 250.176 201.756 250.176C201.756 249.28 201.28 248.552 200.328 247.992C199.395 247.432 198.107 247.152 196.464 247.152C194.728 247.152 193.412 247.469 192.516 248.104C191.639 248.72 191.2 249.663 191.2 250.932H181.344C181.344 248.487 182.016 246.433 183.36 244.772C184.723 243.092 186.552 241.823 188.848 240.964C191.144 240.105 193.711 239.676 196.548 239.676C199.236 239.676 201.728 240.077 204.024 240.88C206.339 241.683 208.206 242.905 209.624 244.548C211.062 246.191 211.78 248.281 211.78 250.82C211.78 251.212 211.78 251.604 211.78 251.996C211.78 252.388 211.78 252.78 211.78 253.172V263.028C211.78 263.812 211.799 264.577 211.836 265.324C211.874 266.052 211.976 266.724 212.144 267.34C212.35 268.012 212.602 268.581 212.9 269.048C213.218 269.515 213.47 269.832 213.656 270H203.884C203.735 269.851 203.511 269.561 203.212 269.132C202.932 268.703 202.69 268.208 202.484 267.648C202.242 266.901 202.064 266.183 201.952 265.492C201.84 264.783 201.784 263.943 201.784 262.972L203.912 264.428C203.39 265.716 202.531 266.827 201.336 267.76C200.16 268.693 198.77 269.412 197.164 269.916C195.559 270.401 193.86 270.644 192.068 270.644ZM194.924 263.392C196.082 263.392 197.192 263.159 198.256 262.692C199.32 262.225 200.198 261.479 200.888 260.452C201.579 259.425 201.924 258.053 201.924 256.336V254.292L204.444 256.532C203.212 256.961 201.812 257.325 200.244 257.624C198.676 257.904 197.146 258.119 195.652 258.268C194.066 258.436 192.88 258.707 192.096 259.08C191.312 259.453 190.92 260.069 190.92 260.928C190.92 261.749 191.256 262.365 191.928 262.776C192.619 263.187 193.618 263.392 194.924 263.392ZM235.241 270V259.024C235.241 257.96 235.241 257.027 235.241 256.224C235.241 255.403 235.241 254.731 235.241 254.208C235.241 253.443 235.203 252.705 235.129 251.996C235.054 251.268 234.886 250.605 234.625 250.008C234.363 249.411 233.962 248.935 233.421 248.58C232.898 248.225 232.179 248.048 231.265 248.048C230.462 248.048 229.762 248.225 229.165 248.58C228.586 248.935 228.101 249.429 227.709 250.064C227.317 250.68 227.027 251.417 226.841 252.276C226.654 253.116 226.561 254.021 226.561 254.992L224.293 252.78C224.293 250.148 224.741 247.852 225.637 245.892C226.551 243.932 227.849 242.411 229.529 241.328C231.227 240.227 233.243 239.676 235.577 239.676C238.115 239.676 240.075 240.227 241.457 241.328C242.838 242.411 243.799 243.848 244.341 245.64C244.882 247.432 245.153 249.392 245.153 251.52C245.153 252.341 245.153 253.471 245.153 254.908C245.153 256.327 245.153 258.053 245.153 260.088V270H235.241ZM216.593 270V240.264H226.561V270H216.593ZM253.777 270V259.052C253.777 257.969 253.777 257.027 253.777 256.224C253.777 255.403 253.777 254.721 253.777 254.18C253.777 253.34 253.73 252.556 253.637 251.828C253.543 251.081 253.366 250.428 253.105 249.868C252.843 249.289 252.442 248.841 251.901 248.524C251.378 248.207 250.678 248.048 249.801 248.048C248.998 248.048 248.298 248.225 247.701 248.58C247.122 248.935 246.646 249.429 246.273 250.064C245.899 250.68 245.619 251.408 245.433 252.248C245.246 253.088 245.153 253.975 245.153 254.908L242.885 252.696C242.885 250.083 243.333 247.805 244.229 245.864C245.125 243.923 246.413 242.411 248.093 241.328C249.773 240.227 251.789 239.676 254.141 239.676C256.661 239.676 258.611 240.217 259.993 241.3C261.393 242.383 262.373 243.811 262.933 245.584C263.493 247.357 263.773 249.308 263.773 251.436C263.773 252.295 263.773 253.415 263.773 254.796C263.773 256.177 263.773 257.885 263.773 259.92V270H253.777ZM291.858 270H281.834V228.7H296.814C299.969 228.7 302.685 229.316 304.962 230.548C307.258 231.78 309.022 233.46 310.254 235.588C311.505 237.697 312.13 240.077 312.13 242.728C312.13 245.379 311.505 247.796 310.254 249.98C309.003 252.164 307.23 253.909 304.934 255.216C302.657 256.523 299.95 257.176 296.814 257.176H291.858V270ZM291.858 254.208L287.35 249.644H295.778C296.973 249.644 298.037 249.383 298.97 248.86C299.922 248.319 300.669 247.535 301.21 246.508C301.77 245.481 302.05 244.221 302.05 242.728C302.05 241.216 301.779 239.984 301.238 239.032C300.697 238.08 299.95 237.38 298.998 236.932C298.065 236.484 296.991 236.26 295.778 236.26H287.35L291.858 231.64V254.208ZM316.132 270V240.264H326.128V250.904L324.252 249.56C324.513 248.085 324.924 246.741 325.484 245.528C326.044 244.296 326.762 243.251 327.64 242.392C328.536 241.515 329.572 240.843 330.748 240.376C331.942 239.909 333.286 239.676 334.78 239.676C335.993 239.676 336.917 239.76 337.552 239.928C338.205 240.096 338.616 240.227 338.784 240.32L337.3 249.14C337.132 249.047 336.758 248.907 336.18 248.72C335.601 248.515 334.882 248.412 334.024 248.412C332.549 248.412 331.298 248.655 330.272 249.14C329.264 249.607 328.452 250.241 327.836 251.044C327.238 251.847 326.8 252.743 326.52 253.732C326.258 254.721 326.128 255.711 326.128 256.7V270H316.132ZM356.53 270.672C353.244 270.672 350.351 270.019 347.85 268.712C345.367 267.387 343.416 265.557 341.998 263.224C340.598 260.891 339.898 258.203 339.898 255.16C339.898 252.099 340.598 249.411 341.998 247.096C343.416 244.763 345.367 242.943 347.85 241.636C350.351 240.329 353.244 239.676 356.53 239.676C359.815 239.676 362.699 240.329 365.182 241.636C367.683 242.943 369.634 244.763 371.034 247.096C372.452 249.411 373.162 252.099 373.162 255.16C373.162 258.203 372.452 260.891 371.034 263.224C369.634 265.557 367.683 267.387 365.182 268.712C362.699 270.019 359.815 270.672 356.53 270.672ZM356.53 262.972C357.874 262.972 359.031 262.645 360.002 261.992C360.972 261.339 361.719 260.433 362.242 259.276C362.764 258.1 363.026 256.728 363.026 255.16C363.026 253.573 362.764 252.201 362.242 251.044C361.719 249.887 360.972 248.991 360.002 248.356C359.031 247.721 357.874 247.404 356.53 247.404C355.204 247.404 354.047 247.721 353.058 248.356C352.087 248.991 351.34 249.887 350.818 251.044C350.295 252.201 350.034 253.573 350.034 255.16C350.034 256.728 350.295 258.1 350.818 259.276C351.34 260.433 352.087 261.339 353.058 261.992C354.047 262.645 355.204 262.972 356.53 262.972ZM372.797 282.88C372.237 282.88 371.696 282.861 371.173 282.824C370.632 282.805 370.184 282.787 369.829 282.768V275.432C370.165 275.488 370.604 275.535 371.145 275.572C371.668 275.628 372.218 275.656 372.797 275.656C373.581 275.656 374.225 275.553 374.729 275.348C375.233 275.143 375.616 274.872 375.877 274.536C376.157 274.2 376.353 273.836 376.465 273.444C376.577 273.071 376.633 272.697 376.633 272.324V240.264H386.573V272.548C386.573 273.78 386.405 275.003 386.069 276.216C385.752 277.429 385.117 278.54 384.165 279.548C383.232 280.556 381.85 281.359 380.021 281.956C378.192 282.572 375.784 282.88 372.797 282.88ZM381.701 236.092C380.189 236.092 378.873 235.7 377.753 234.916C376.633 234.132 376.073 233.021 376.073 231.584C376.073 230.128 376.633 229.017 377.753 228.252C378.873 227.468 380.189 227.076 381.701 227.076C383.194 227.076 384.501 227.468 385.621 228.252C386.741 229.017 387.301 230.128 387.301 231.584C387.301 233.021 386.741 234.132 385.621 234.916C384.501 235.7 383.194 236.092 381.701 236.092ZM395.255 257.988V251.744H413.875L413.035 253.2C413.035 253.051 413.035 252.901 413.035 252.752C413.035 252.584 413.035 252.435 413.035 252.304C413.035 251.464 412.82 250.633 412.391 249.812C411.961 248.972 411.28 248.281 410.347 247.74C409.413 247.18 408.191 246.9 406.679 246.9C405.185 246.9 403.916 247.217 402.871 247.852C401.844 248.468 401.06 249.383 400.519 250.596C399.996 251.791 399.735 253.237 399.735 254.936C399.735 256.709 399.987 258.231 400.491 259.5C401.013 260.751 401.807 261.712 402.871 262.384C403.935 263.037 405.297 263.364 406.959 263.364C407.985 263.364 408.863 263.28 409.591 263.112C410.337 262.944 410.935 262.729 411.383 262.468C411.849 262.188 412.195 261.889 412.419 261.572C412.661 261.236 412.811 260.909 412.867 260.592H422.723C422.611 261.88 422.163 263.131 421.379 264.344C420.595 265.539 419.512 266.621 418.131 267.592C416.768 268.544 415.107 269.3 413.147 269.86C411.205 270.42 409.003 270.7 406.539 270.7C403.16 270.7 400.22 270.047 397.719 268.74C395.217 267.415 393.276 265.585 391.895 263.252C390.532 260.919 389.851 258.231 389.851 255.188C389.851 252.089 390.551 249.383 391.951 247.068C393.351 244.735 395.301 242.924 397.803 241.636C400.323 240.329 403.235 239.676 406.539 239.676C409.955 239.676 412.904 240.339 415.387 241.664C417.869 242.971 419.783 244.819 421.127 247.208C422.471 249.597 423.143 252.407 423.143 255.636C423.143 256.14 423.133 256.597 423.115 257.008C423.096 257.419 423.068 257.745 423.031 257.988H395.255ZM442.126 270.7C438.71 270.7 435.742 270.028 433.222 268.684C430.721 267.34 428.789 265.492 427.426 263.14C426.063 260.788 425.382 258.081 425.382 255.02C425.382 251.94 426.063 249.252 427.426 246.956C428.789 244.66 430.721 242.877 433.222 241.608C435.742 240.32 438.71 239.676 442.126 239.676C444.665 239.676 446.905 240.04 448.846 240.768C450.787 241.496 452.402 242.467 453.69 243.68C454.997 244.875 455.986 246.191 456.658 247.628C457.33 249.047 457.666 250.456 457.666 251.856C457.666 251.893 457.666 251.94 457.666 251.996C457.666 252.033 457.666 252.071 457.666 252.108H447.782C447.782 251.996 447.773 251.893 447.754 251.8C447.754 251.707 447.735 251.604 447.698 251.492C447.549 250.857 447.269 250.241 446.858 249.644C446.447 249.028 445.85 248.524 445.066 248.132C444.301 247.721 443.293 247.516 442.042 247.516C440.754 247.516 439.615 247.805 438.626 248.384C437.655 248.963 436.89 249.812 436.33 250.932C435.789 252.033 435.518 253.396 435.518 255.02C435.518 256.588 435.789 257.969 436.33 259.164C436.89 260.34 437.655 261.255 438.626 261.908C439.615 262.543 440.754 262.86 442.042 262.86C443.33 262.86 444.375 262.664 445.178 262.272C445.999 261.861 446.615 261.32 447.026 260.648C447.437 259.957 447.679 259.192 447.754 258.352H457.666C457.666 259.771 457.33 261.208 456.658 262.664C456.005 264.101 455.025 265.427 453.718 266.64C452.43 267.853 450.815 268.833 448.874 269.58C446.933 270.327 444.683 270.7 442.126 270.7ZM476.871 270.672C475.658 270.672 474.389 270.569 473.063 270.364C471.738 270.177 470.506 269.785 469.367 269.188C468.229 268.591 467.305 267.695 466.595 266.5C465.886 265.305 465.531 263.719 465.531 261.74C465.531 261.311 465.531 260.891 465.531 260.48C465.531 260.051 465.531 259.621 465.531 259.192V247.824H458.783V240.264H459.819C461.107 240.264 462.134 240.208 462.899 240.096C463.665 239.984 464.234 239.704 464.607 239.256C464.981 238.808 465.223 238.117 465.335 237.184C465.466 236.232 465.531 234.916 465.531 233.236V230.492H475.555V240.264H483.955V247.824H475.555V257.26C475.555 257.577 475.555 257.885 475.555 258.184C475.555 258.464 475.555 258.753 475.555 259.052C475.555 260.228 475.695 261.208 475.975 261.992C476.255 262.776 476.983 263.168 478.159 263.168C478.813 263.168 479.429 263.103 480.007 262.972C480.586 262.841 481.015 262.72 481.295 262.608V269.944C480.885 270.112 480.297 270.271 479.531 270.42C478.766 270.588 477.879 270.672 476.871 270.672Z" fill="#3F3D56"/>
<path d="M81.7965 326V314.2H84.2445V326H81.7965ZM92.1787 326V322.392C92.1787 322.189 92.1787 322.005 92.1787 321.84C92.1787 321.675 92.1787 321.525 92.1787 321.392C92.1787 321.04 92.1334 320.72 92.0427 320.432C91.9521 320.139 91.7894 319.904 91.5547 319.728C91.3201 319.552 90.9814 319.464 90.5387 319.464C90.1547 319.464 89.8214 319.552 89.5387 319.728C89.2614 319.904 89.0481 320.149 88.8987 320.464C88.7494 320.779 88.6747 321.141 88.6747 321.552L87.9867 321.056C87.9867 320.32 88.1467 319.675 88.4667 319.12C88.7867 318.565 89.2187 318.131 89.7627 317.816C90.3121 317.501 90.9201 317.344 91.5867 317.344C92.2854 317.344 92.8587 317.485 93.3067 317.768C93.7601 318.045 94.0961 318.435 94.3147 318.936C94.5387 319.432 94.6507 320.013 94.6507 320.68C94.6507 320.952 94.6507 321.256 94.6507 321.592C94.6507 321.928 94.6507 322.272 94.6507 322.624V326H92.1787ZM86.1947 326V317.504H88.6747V326H86.1947ZM103.854 317.504L101.278 326H97.9341L95.3021 317.504H97.8621L99.7981 325.248H99.4141L101.286 317.504H103.854ZM105.662 322.496V320.856H111.294L111.054 321.272C111.054 321.229 111.054 321.189 111.054 321.152C111.054 321.109 111.054 321.069 111.054 321.032C111.054 320.728 110.982 320.437 110.838 320.16C110.694 319.877 110.47 319.648 110.166 319.472C109.868 319.291 109.484 319.2 109.014 319.2C108.545 319.2 108.14 319.301 107.798 319.504C107.462 319.701 107.204 319.987 107.022 320.36C106.846 320.733 106.758 321.184 106.758 321.712C106.758 322.256 106.844 322.723 107.014 323.112C107.19 323.496 107.449 323.792 107.79 324C108.137 324.208 108.566 324.312 109.078 324.312C109.409 324.312 109.694 324.283 109.934 324.224C110.174 324.16 110.369 324.08 110.518 323.984C110.673 323.888 110.79 323.781 110.87 323.664C110.95 323.547 110.998 323.432 111.014 323.32H113.462C113.43 323.677 113.308 324.029 113.094 324.376C112.881 324.717 112.585 325.027 112.206 325.304C111.828 325.576 111.366 325.792 110.822 325.952C110.284 326.112 109.668 326.192 108.974 326.192C108.036 326.192 107.217 326.005 106.518 325.632C105.82 325.253 105.278 324.733 104.894 324.072C104.51 323.405 104.318 322.637 104.318 321.768C104.318 320.888 104.513 320.117 104.902 319.456C105.297 318.789 105.844 318.272 106.542 317.904C107.246 317.531 108.06 317.344 108.982 317.344C109.926 317.344 110.742 317.533 111.43 317.912C112.118 318.285 112.649 318.811 113.022 319.488C113.396 320.16 113.582 320.944 113.582 321.84C113.582 321.973 113.58 322.101 113.574 322.224C113.569 322.347 113.561 322.437 113.55 322.496H105.662ZM118.668 326.192C118.162 326.192 117.674 326.133 117.204 326.016C116.735 325.899 116.314 325.725 115.94 325.496C115.572 325.267 115.279 324.981 115.06 324.64C114.847 324.293 114.74 323.891 114.74 323.432C114.74 323.411 114.74 323.387 114.74 323.36C114.74 323.328 114.74 323.304 114.74 323.288H117.204C117.204 323.304 117.204 323.323 117.204 323.344C117.204 323.36 117.204 323.379 117.204 323.4C117.204 323.709 117.34 323.936 117.612 324.08C117.89 324.224 118.263 324.296 118.732 324.296C118.978 324.296 119.212 324.272 119.436 324.224C119.666 324.171 119.852 324.088 119.996 323.976C120.146 323.859 120.22 323.712 120.22 323.536C120.22 323.253 120.063 323.053 119.748 322.936C119.439 322.819 118.94 322.701 118.252 322.584C117.863 322.52 117.468 322.429 117.068 322.312C116.668 322.195 116.3 322.04 115.964 321.848C115.628 321.651 115.359 321.403 115.156 321.104C114.954 320.8 114.852 320.432 114.852 320C114.852 319.424 115.026 318.939 115.372 318.544C115.724 318.149 116.191 317.851 116.772 317.648C117.354 317.445 117.994 317.344 118.692 317.344C119.359 317.344 119.98 317.456 120.556 317.68C121.132 317.899 121.599 318.216 121.956 318.632C122.314 319.043 122.492 319.539 122.492 320.12C122.492 320.131 122.492 320.147 122.492 320.168C122.492 320.189 122.492 320.211 122.492 320.232H120.052C120.052 320.211 120.052 320.192 120.052 320.176C120.052 320.16 120.052 320.147 120.052 320.136C120.052 319.923 119.983 319.749 119.844 319.616C119.711 319.483 119.54 319.384 119.332 319.32C119.124 319.251 118.908 319.216 118.684 319.216C118.482 319.216 118.271 319.24 118.052 319.288C117.839 319.331 117.658 319.405 117.508 319.512C117.359 319.613 117.284 319.757 117.284 319.944C117.284 320.125 117.364 320.275 117.524 320.392C117.684 320.504 117.908 320.597 118.196 320.672C118.484 320.741 118.818 320.808 119.196 320.872C119.554 320.931 119.93 321.013 120.324 321.12C120.724 321.221 121.098 321.368 121.444 321.56C121.796 321.747 122.079 321.995 122.292 322.304C122.511 322.608 122.62 322.995 122.62 323.464C122.62 323.949 122.508 324.365 122.284 324.712C122.06 325.059 121.756 325.341 121.372 325.56C120.994 325.773 120.57 325.931 120.1 326.032C119.636 326.139 119.159 326.192 118.668 326.192ZM128.277 326.176C127.952 326.176 127.616 326.147 127.269 326.088C126.928 326.035 126.608 325.925 126.309 325.76C126.016 325.589 125.778 325.341 125.597 325.016C125.416 324.691 125.325 324.261 125.325 323.728C125.325 323.611 125.325 323.491 125.325 323.368C125.325 323.245 125.325 323.123 125.325 323V319.424H123.365V317.504H123.917C124.237 317.504 124.49 317.491 124.677 317.464C124.869 317.437 125.01 317.371 125.101 317.264C125.197 317.152 125.258 316.979 125.285 316.744C125.312 316.509 125.325 316.187 125.325 315.776V314.704H127.813V317.504H130.285V319.424H127.813V322.48C127.813 322.576 127.813 322.669 127.813 322.76C127.813 322.851 127.813 322.939 127.813 323.024C127.813 323.392 127.856 323.691 127.941 323.92C128.032 324.149 128.253 324.264 128.605 324.264C128.781 324.264 128.946 324.248 129.101 324.216C129.261 324.184 129.381 324.152 129.461 324.12V325.984C129.349 326.032 129.192 326.075 128.989 326.112C128.786 326.155 128.549 326.176 128.277 326.176ZM135.692 326V317.504H138.148V326H135.692ZM136.916 316.12C136.532 316.12 136.196 316.019 135.908 315.816C135.626 315.613 135.484 315.328 135.484 314.96C135.484 314.587 135.626 314.299 135.908 314.096C136.196 313.893 136.532 313.792 136.916 313.792C137.306 313.792 137.642 313.893 137.924 314.096C138.212 314.299 138.356 314.587 138.356 314.96C138.356 315.333 138.212 315.621 137.924 315.824C137.642 316.021 137.306 316.12 136.916 316.12ZM145.96 326V322.392C145.96 322.189 145.96 322.005 145.96 321.84C145.96 321.675 145.96 321.525 145.96 321.392C145.96 321.04 145.915 320.72 145.824 320.432C145.733 320.139 145.571 319.904 145.336 319.728C145.101 319.552 144.763 319.464 144.32 319.464C143.936 319.464 143.603 319.552 143.32 319.728C143.043 319.904 142.829 320.149 142.68 320.464C142.531 320.779 142.456 321.141 142.456 321.552L141.768 321.056C141.768 320.32 141.928 319.675 142.248 319.12C142.568 318.565 143 318.131 143.544 317.816C144.093 317.501 144.701 317.344 145.368 317.344C146.067 317.344 146.64 317.485 147.088 317.768C147.541 318.045 147.877 318.435 148.096 318.936C148.32 319.432 148.432 320.013 148.432 320.68C148.432 320.952 148.432 321.256 148.432 321.592C148.432 321.928 148.432 322.272 148.432 322.624V326H145.96ZM139.976 326V317.504H142.456V326H139.976ZM154.992 329.672C154.726 329.672 154.486 329.661 154.272 329.64C154.064 329.624 153.934 329.605 153.88 329.584V327.704C153.95 327.736 154.07 327.76 154.24 327.776C154.416 327.797 154.603 327.808 154.8 327.808C155.062 327.808 155.296 327.755 155.504 327.648C155.718 327.547 155.899 327.4 156.048 327.208C156.203 327.021 156.323 326.8 156.408 326.544L156.552 326.112L153.624 317.504H156.208L158.056 324.472H157.768L159.544 317.504H162.096L159.176 326.424C158.958 327.096 158.688 327.675 158.368 328.16C158.048 328.645 157.622 329.019 157.088 329.28C156.555 329.541 155.856 329.672 154.992 329.672ZM167.201 326.184C166.283 326.184 165.475 325.995 164.777 325.616C164.078 325.237 163.531 324.717 163.137 324.056C162.747 323.389 162.553 322.621 162.553 321.752C162.553 320.888 162.747 320.125 163.137 319.464C163.531 318.797 164.078 318.28 164.777 317.912C165.475 317.539 166.283 317.352 167.201 317.352C168.118 317.352 168.926 317.539 169.625 317.912C170.323 318.28 170.867 318.797 171.257 319.464C171.651 320.125 171.849 320.888 171.849 321.752C171.849 322.621 171.651 323.389 171.257 324.056C170.867 324.717 170.323 325.237 169.625 325.616C168.926 325.995 168.118 326.184 167.201 326.184ZM167.201 324.216C167.633 324.216 168.009 324.115 168.329 323.912C168.649 323.709 168.897 323.424 169.073 323.056C169.249 322.683 169.337 322.248 169.337 321.752C169.337 321.256 169.249 320.827 169.073 320.464C168.897 320.096 168.649 319.813 168.329 319.616C168.009 319.419 167.633 319.32 167.201 319.32C166.774 319.32 166.398 319.419 166.073 319.616C165.753 319.813 165.505 320.096 165.329 320.464C165.153 320.827 165.065 321.256 165.065 321.752C165.065 322.248 165.153 322.683 165.329 323.056C165.505 323.424 165.753 323.709 166.073 323.912C166.398 324.115 166.774 324.216 167.201 324.216ZM176.414 326.16C175.811 326.16 175.315 326.064 174.926 325.872C174.537 325.675 174.23 325.411 174.006 325.08C173.782 324.749 173.625 324.381 173.534 323.976C173.443 323.571 173.398 323.16 173.398 322.744C173.398 322.552 173.398 322.349 173.398 322.136C173.398 321.923 173.398 321.704 173.398 321.48V317.504H175.878V321.088C175.878 321.269 175.878 321.445 175.878 321.616C175.878 321.787 175.878 321.944 175.878 322.088C175.878 322.445 175.918 322.773 175.998 323.072C176.078 323.371 176.225 323.611 176.438 323.792C176.657 323.973 176.966 324.064 177.366 324.064C177.755 324.064 178.086 323.955 178.358 323.736C178.63 323.512 178.838 323.227 178.982 322.88C179.126 322.533 179.198 322.176 179.198 321.808L179.894 322.376C179.894 322.909 179.811 323.405 179.646 323.864C179.486 324.323 179.257 324.725 178.958 325.072C178.659 325.413 178.294 325.68 177.862 325.872C177.435 326.064 176.953 326.16 176.414 326.16ZM179.198 326V317.504H181.678V326H179.198ZM183.538 326V317.504H186.026V320.432L185.514 320.112C185.573 319.712 185.68 319.344 185.834 319.008C185.989 318.672 186.189 318.381 186.434 318.136C186.68 317.885 186.97 317.691 187.306 317.552C187.648 317.413 188.037 317.344 188.474 317.344C188.816 317.344 189.082 317.371 189.274 317.424C189.472 317.472 189.594 317.509 189.642 317.536L189.234 319.76C189.186 319.733 189.08 319.691 188.914 319.632C188.749 319.573 188.536 319.544 188.274 319.544C187.848 319.544 187.49 319.616 187.202 319.76C186.914 319.904 186.682 320.096 186.506 320.336C186.336 320.571 186.213 320.832 186.138 321.12C186.064 321.408 186.026 321.699 186.026 321.992V326H183.538ZM194.802 326V317.504H197.258V326H194.802ZM196.026 316.12C195.642 316.12 195.306 316.019 195.018 315.816C194.735 315.613 194.594 315.328 194.594 314.96C194.594 314.587 194.735 314.299 195.018 314.096C195.306 313.893 195.642 313.792 196.026 313.792C196.415 313.792 196.751 313.893 197.034 314.096C197.322 314.299 197.466 314.587 197.466 314.96C197.466 315.333 197.322 315.621 197.034 315.824C196.751 316.021 196.415 316.12 196.026 316.12ZM202.637 326.192C201.928 326.192 201.275 326.024 200.677 325.688C200.08 325.347 199.6 324.843 199.237 324.176C198.875 323.509 198.693 322.688 198.693 321.712C198.693 320.779 198.877 319.987 199.245 319.336C199.619 318.685 200.104 318.192 200.701 317.856C201.304 317.515 201.949 317.344 202.637 317.344C203.309 317.344 203.923 317.515 204.477 317.856C205.037 318.197 205.485 318.664 205.821 319.256C206.157 319.843 206.325 320.52 206.325 321.288C206.325 321.315 206.325 321.341 206.325 321.368C206.325 321.389 206.325 321.413 206.325 321.44L205.253 321.456C205.253 321.44 205.253 321.424 205.253 321.408C205.253 321.387 205.253 321.368 205.253 321.352C205.253 320.952 205.157 320.608 204.965 320.32C204.773 320.032 204.525 319.811 204.221 319.656C203.917 319.496 203.6 319.416 203.269 319.416C202.72 319.416 202.245 319.6 201.845 319.968C201.445 320.331 201.245 320.912 201.245 321.712C201.245 322.512 201.445 323.101 201.845 323.48C202.251 323.853 202.725 324.04 203.269 324.04C203.611 324.04 203.933 323.96 204.237 323.8C204.541 323.635 204.787 323.403 204.973 323.104C205.16 322.805 205.253 322.453 205.253 322.048L206.325 322.104C206.325 322.867 206.16 323.557 205.829 324.176C205.504 324.789 205.061 325.28 204.501 325.648C203.947 326.011 203.325 326.192 202.637 326.192ZM205.253 326V313.496H207.741V326H205.253ZM210.584 322.496V320.856H216.216L215.976 321.272C215.976 321.229 215.976 321.189 215.976 321.152C215.976 321.109 215.976 321.069 215.976 321.032C215.976 320.728 215.904 320.437 215.76 320.16C215.616 319.877 215.392 319.648 215.088 319.472C214.79 319.291 214.406 319.2 213.936 319.2C213.467 319.2 213.062 319.301 212.72 319.504C212.384 319.701 212.126 319.987 211.944 320.36C211.768 320.733 211.68 321.184 211.68 321.712C211.68 322.256 211.766 322.723 211.936 323.112C212.112 323.496 212.371 323.792 212.712 324C213.059 324.208 213.488 324.312 214 324.312C214.331 324.312 214.616 324.283 214.856 324.224C215.096 324.16 215.291 324.08 215.44 323.984C215.595 323.888 215.712 323.781 215.792 323.664C215.872 323.547 215.92 323.432 215.936 323.32H218.384C218.352 323.677 218.23 324.029 218.016 324.376C217.803 324.717 217.507 325.027 217.128 325.304C216.75 325.576 216.288 325.792 215.744 325.952C215.206 326.112 214.59 326.192 213.896 326.192C212.958 326.192 212.139 326.005 211.44 325.632C210.742 325.253 210.2 324.733 209.816 324.072C209.432 323.405 209.24 322.637 209.24 321.768C209.24 320.888 209.435 320.117 209.824 319.456C210.219 318.789 210.766 318.272 211.464 317.904C212.168 317.531 212.982 317.344 213.904 317.344C214.848 317.344 215.664 317.533 216.352 317.912C217.04 318.285 217.571 318.811 217.944 319.488C218.318 320.16 218.504 320.944 218.504 321.84C218.504 321.973 218.502 322.101 218.496 322.224C218.491 322.347 218.483 322.437 218.472 322.496H210.584ZM222.934 326.176C222.315 326.176 221.763 326.077 221.278 325.88C220.798 325.683 220.422 325.397 220.15 325.024C219.878 324.651 219.742 324.197 219.742 323.664C219.742 323.061 219.907 322.571 220.238 322.192C220.569 321.813 221.006 321.525 221.55 321.328C222.099 321.125 222.694 320.992 223.334 320.928C224.267 320.837 224.91 320.755 225.262 320.68C225.619 320.605 225.798 320.475 225.798 320.288C225.798 320.283 225.798 320.277 225.798 320.272C225.798 319.957 225.646 319.709 225.342 319.528C225.043 319.347 224.625 319.256 224.086 319.256C223.515 319.256 223.078 319.36 222.774 319.568C222.475 319.771 222.326 320.083 222.326 320.504H219.886C219.886 319.821 220.07 319.245 220.438 318.776C220.811 318.307 221.315 317.952 221.95 317.712C222.585 317.467 223.302 317.344 224.102 317.344C224.849 317.344 225.539 317.459 226.174 317.688C226.809 317.912 227.318 318.251 227.702 318.704C228.091 319.157 228.286 319.733 228.286 320.432C228.286 320.544 228.286 320.656 228.286 320.768C228.286 320.875 228.286 320.984 228.286 321.096V324.104C228.286 324.323 228.291 324.533 228.302 324.736C228.318 324.933 228.35 325.115 228.398 325.28C228.451 325.467 228.518 325.621 228.598 325.744C228.678 325.867 228.745 325.952 228.798 326H226.358C226.321 325.963 226.262 325.885 226.182 325.768C226.107 325.651 226.043 325.515 225.99 325.36C225.926 325.173 225.878 324.987 225.846 324.8C225.819 324.608 225.806 324.384 225.806 324.128L226.318 324.48C226.169 324.832 225.926 325.136 225.59 325.392C225.259 325.643 224.865 325.837 224.406 325.976C223.953 326.109 223.462 326.176 222.934 326.176ZM223.598 324.32C223.987 324.32 224.35 324.251 224.686 324.112C225.027 323.968 225.305 323.744 225.518 323.44C225.731 323.136 225.838 322.739 225.838 322.248V321.392L226.454 321.992C226.102 322.12 225.694 322.227 225.23 322.312C224.771 322.392 224.313 322.456 223.854 322.504C223.31 322.557 222.902 322.651 222.63 322.784C222.363 322.912 222.23 323.131 222.23 323.44C222.23 323.733 222.345 323.955 222.574 324.104C222.803 324.248 223.145 324.32 223.598 324.32ZM233.637 326.192C233.13 326.192 232.642 326.133 232.173 326.016C231.704 325.899 231.282 325.725 230.909 325.496C230.541 325.267 230.248 324.981 230.029 324.64C229.816 324.293 229.709 323.891 229.709 323.432C229.709 323.411 229.709 323.387 229.709 323.36C229.709 323.328 229.709 323.304 229.709 323.288H232.173C232.173 323.304 232.173 323.323 232.173 323.344C232.173 323.36 232.173 323.379 232.173 323.4C232.173 323.709 232.309 323.936 232.581 324.08C232.858 324.224 233.232 324.296 233.701 324.296C233.946 324.296 234.181 324.272 234.405 324.224C234.634 324.171 234.821 324.088 234.965 323.976C235.114 323.859 235.189 323.712 235.189 323.536C235.189 323.253 235.032 323.053 234.717 322.936C234.408 322.819 233.909 322.701 233.221 322.584C232.832 322.52 232.437 322.429 232.037 322.312C231.637 322.195 231.269 322.04 230.933 321.848C230.597 321.651 230.328 321.403 230.125 321.104C229.922 320.8 229.821 320.432 229.821 320C229.821 319.424 229.994 318.939 230.341 318.544C230.693 318.149 231.16 317.851 231.741 317.648C232.322 317.445 232.962 317.344 233.661 317.344C234.328 317.344 234.949 317.456 235.525 317.68C236.101 317.899 236.568 318.216 236.925 318.632C237.282 319.043 237.461 319.539 237.461 320.12C237.461 320.131 237.461 320.147 237.461 320.168C237.461 320.189 237.461 320.211 237.461 320.232H235.021C235.021 320.211 235.021 320.192 235.021 320.176C235.021 320.16 235.021 320.147 235.021 320.136C235.021 319.923 234.952 319.749 234.813 319.616C234.68 319.483 234.509 319.384 234.301 319.32C234.093 319.251 233.877 319.216 233.653 319.216C233.45 319.216 233.24 319.24 233.021 319.288C232.808 319.331 232.626 319.405 232.477 319.512C232.328 319.613 232.253 319.757 232.253 319.944C232.253 320.125 232.333 320.275 232.493 320.392C232.653 320.504 232.877 320.597 233.165 320.672C233.453 320.741 233.786 320.808 234.165 320.872C234.522 320.931 234.898 321.013 235.293 321.12C235.693 321.221 236.066 321.368 236.413 321.56C236.765 321.747 237.048 321.995 237.261 322.304C237.48 322.608 237.589 322.995 237.589 323.464C237.589 323.949 237.477 324.365 237.253 324.712C237.029 325.059 236.725 325.341 236.341 325.56C235.962 325.773 235.538 325.931 235.069 326.032C234.605 326.139 234.128 326.192 233.637 326.192ZM247.308 326.176C246.983 326.176 246.647 326.147 246.3 326.088C245.959 326.035 245.639 325.925 245.34 325.76C245.047 325.589 244.81 325.341 244.628 325.016C244.447 324.691 244.356 324.261 244.356 323.728C244.356 323.611 244.356 323.491 244.356 323.368C244.356 323.245 244.356 323.123 244.356 323V319.424H242.396V317.504H242.948C243.268 317.504 243.522 317.491 243.708 317.464C243.9 317.437 244.042 317.371 244.132 317.264C244.228 317.152 244.29 316.979 244.316 316.744C244.343 316.509 244.356 316.187 244.356 315.776V314.704H246.844V317.504H249.316V319.424H246.844V322.48C246.844 322.576 246.844 322.669 246.844 322.76C246.844 322.851 246.844 322.939 246.844 323.024C246.844 323.392 246.887 323.691 246.972 323.92C247.063 324.149 247.284 324.264 247.636 324.264C247.812 324.264 247.978 324.248 248.132 324.216C248.292 324.184 248.412 324.152 248.492 324.12V325.984C248.38 326.032 248.223 326.075 248.02 326.112C247.818 326.155 247.58 326.176 247.308 326.176ZM254.873 326.184C253.955 326.184 253.147 325.995 252.449 325.616C251.75 325.237 251.203 324.717 250.809 324.056C250.419 323.389 250.225 322.621 250.225 321.752C250.225 320.888 250.419 320.125 250.809 319.464C251.203 318.797 251.75 318.28 252.449 317.912C253.147 317.539 253.955 317.352 254.873 317.352C255.79 317.352 256.598 317.539 257.297 317.912C257.995 318.28 258.539 318.797 258.929 319.464C259.323 320.125 259.521 320.888 259.521 321.752C259.521 322.621 259.323 323.389 258.929 324.056C258.539 324.717 257.995 325.237 257.297 325.616C256.598 325.995 255.79 326.184 254.873 326.184ZM254.873 324.216C255.305 324.216 255.681 324.115 256.001 323.912C256.321 323.709 256.569 323.424 256.745 323.056C256.921 322.683 257.009 322.248 257.009 321.752C257.009 321.256 256.921 320.827 256.745 320.464C256.569 320.096 256.321 319.813 256.001 319.616C255.681 319.419 255.305 319.32 254.873 319.32C254.446 319.32 254.07 319.419 253.745 319.616C253.425 319.813 253.177 320.096 253.001 320.464C252.825 320.827 252.737 321.256 252.737 321.752C252.737 322.248 252.825 322.683 253.001 323.056C253.177 323.424 253.425 323.709 253.745 323.912C254.07 324.115 254.446 324.216 254.873 324.216ZM264.622 326.192C263.912 326.192 263.259 326.024 262.662 325.688C262.064 325.347 261.584 324.843 261.222 324.176C260.859 323.509 260.678 322.688 260.678 321.712C260.678 320.779 260.862 319.987 261.23 319.336C261.603 318.685 262.088 318.192 262.686 317.856C263.288 317.515 263.934 317.344 264.622 317.344C265.294 317.344 265.907 317.515 266.462 317.856C267.022 318.197 267.47 318.664 267.806 319.256C268.142 319.843 268.31 320.52 268.31 321.288C268.31 321.315 268.31 321.341 268.31 321.368C268.31 321.389 268.31 321.413 268.31 321.44L267.238 321.456C267.238 321.44 267.238 321.424 267.238 321.408C267.238 321.387 267.238 321.368 267.238 321.352C267.238 320.952 267.142 320.608 266.95 320.32C266.758 320.032 266.51 319.811 266.206 319.656C265.902 319.496 265.584 319.416 265.254 319.416C264.704 319.416 264.23 319.6 263.83 319.968C263.43 320.331 263.23 320.912 263.23 321.712C263.23 322.512 263.43 323.101 263.83 323.48C264.235 323.853 264.71 324.04 265.254 324.04C265.595 324.04 265.918 323.96 266.222 323.8C266.526 323.635 266.771 323.403 266.958 323.104C267.144 322.805 267.238 322.453 267.238 322.048L268.31 322.104C268.31 322.867 268.144 323.557 267.814 324.176C267.488 324.789 267.046 325.28 266.486 325.648C265.931 326.011 265.31 326.192 264.622 326.192ZM267.238 326V313.496H269.726V326H267.238ZM274.497 326.176C273.878 326.176 273.326 326.077 272.841 325.88C272.361 325.683 271.985 325.397 271.713 325.024C271.441 324.651 271.305 324.197 271.305 323.664C271.305 323.061 271.47 322.571 271.801 322.192C272.131 321.813 272.569 321.525 273.113 321.328C273.662 321.125 274.257 320.992 274.897 320.928C275.83 320.837 276.473 320.755 276.825 320.68C277.182 320.605 277.361 320.475 277.361 320.288C277.361 320.283 277.361 320.277 277.361 320.272C277.361 319.957 277.209 319.709 276.905 319.528C276.606 319.347 276.187 319.256 275.649 319.256C275.078 319.256 274.641 319.36 274.337 319.568C274.038 319.771 273.889 320.083 273.889 320.504H271.449C271.449 319.821 271.633 319.245 272.001 318.776C272.374 318.307 272.878 317.952 273.513 317.712C274.147 317.467 274.865 317.344 275.665 317.344C276.411 317.344 277.102 317.459 277.737 317.688C278.371 317.912 278.881 318.251 279.265 318.704C279.654 319.157 279.849 319.733 279.849 320.432C279.849 320.544 279.849 320.656 279.849 320.768C279.849 320.875 279.849 320.984 279.849 321.096V324.104C279.849 324.323 279.854 324.533 279.865 324.736C279.881 324.933 279.913 325.115 279.961 325.28C280.014 325.467 280.081 325.621 280.161 325.744C280.241 325.867 280.307 325.952 280.361 326H277.921C277.883 325.963 277.825 325.885 277.745 325.768C277.67 325.651 277.606 325.515 277.553 325.36C277.489 325.173 277.441 324.987 277.409 324.8C277.382 324.608 277.369 324.384 277.369 324.128L277.881 324.48C277.731 324.832 277.489 325.136 277.153 325.392C276.822 325.643 276.427 325.837 275.969 325.976C275.515 326.109 275.025 326.176 274.497 326.176ZM275.161 324.32C275.55 324.32 275.913 324.251 276.249 324.112C276.59 323.968 276.867 323.744 277.081 323.44C277.294 323.136 277.401 322.739 277.401 322.248V321.392L278.017 321.992C277.665 322.12 277.257 322.227 276.793 322.312C276.334 322.392 275.875 322.456 275.417 322.504C274.873 322.557 274.465 322.651 274.193 322.784C273.926 322.912 273.793 323.131 273.793 323.44C273.793 323.733 273.907 323.955 274.137 324.104C274.366 324.248 274.707 324.32 275.161 324.32ZM282.102 329.672C281.835 329.672 281.595 329.661 281.382 329.64C281.174 329.624 281.043 329.605 280.99 329.584V327.704C281.059 327.736 281.179 327.76 281.35 327.776C281.526 327.797 281.713 327.808 281.91 327.808C282.171 327.808 282.406 327.755 282.614 327.648C282.827 327.547 283.009 327.4 283.158 327.208C283.313 327.021 283.433 326.8 283.518 326.544L283.662 326.112L280.734 317.504H283.318L285.166 324.472H284.878L286.654 317.504H289.206L286.286 326.424C286.067 327.096 285.798 327.675 285.478 328.16C285.158 328.645 284.731 329.019 284.198 329.28C283.665 329.541 282.966 329.672 282.102 329.672ZM290.953 326.24C290.585 326.24 290.273 326.112 290.017 325.856C289.761 325.6 289.633 325.288 289.633 324.92C289.633 324.557 289.761 324.248 290.017 323.992C290.273 323.736 290.585 323.608 290.953 323.608C291.316 323.608 291.625 323.736 291.881 323.992C292.137 324.248 292.265 324.557 292.265 324.92C292.265 325.288 292.137 325.6 291.881 325.856C291.625 326.112 291.316 326.24 290.953 326.24Z" fill="#3F3D56"/>
<ellipse cx="873.872" cy="311" rx="160.631" ry="159" fill="#F38472"/>
<path fill-rule="evenodd" clip-rule="evenodd" d="M818.549 246.819C826.393 241.815 834.236 236.812 842.136 231.896C842.837 231.458 843.386 232.578 842.715 233.021L842.565 233.12C839.706 235.003 836.851 236.884 833.976 238.741C823.688 245.376 813.401 252.012 803.115 258.65C802.807 258.797 802.44 258.75 802.18 258.53C801.92 258.31 801.816 257.959 801.916 257.635C802.673 256.015 803.419 254.389 804.165 252.764C805.005 250.932 805.846 249.1 806.702 247.276C812.086 235.812 817.469 224.349 822.851 212.886C823.657 212.543 824.465 212.203 825.274 211.866L823.881 210.691C823.538 211.422 823.194 212.154 822.851 212.886C820.894 213.717 818.944 214.562 817.001 215.422C807.343 219.7 797.875 224.344 788.597 229.352C788.169 229.553 787.658 229.453 787.339 229.106C787.021 228.758 786.971 228.245 787.216 227.843L792.199 218.87C797.618 209.179 803.037 199.49 808.456 189.803C809.31 189.525 810.165 189.251 811.021 188.982L809.856 187.3C809.389 188.134 808.923 188.969 808.456 189.803C806.657 190.389 804.865 190.993 803.078 191.618C793.855 194.85 784.806 198.555 775.97 202.716C775.501 202.937 774.941 202.828 774.593 202.447C774.244 202.067 774.189 201.505 774.458 201.065C779.32 193.094 784.181 185.123 789.041 177.152C790.148 176.747 791.251 176.328 792.348 175.894L790.824 174.227C790.229 175.202 789.635 176.177 789.041 177.152C783.412 179.206 777.648 180.879 771.788 182.158C771.322 182.243 770.85 182.048 770.583 181.662C770.315 181.277 770.302 180.771 770.549 180.371C773.708 176.476 776.415 172.246 778.623 167.76C779.212 167.79 779.801 167.82 780.39 167.849L779.32 166.298C779.094 166.788 778.861 167.276 778.623 167.76C776.153 167.636 773.684 167.513 771.215 167.391L769.017 167.285C768.397 167.32 767.774 167.278 767.164 167.159C766.52 166.774 765.98 166.239 765.591 165.601L764.38 164.17C762.72 162.193 761.104 160.18 759.533 158.13C757.502 155.473 755.541 152.77 753.651 150.02C753.697 150.593 753.74 151.166 753.784 151.739C753.817 152.181 753.851 152.622 753.885 153.063C753.898 153.227 753.908 153.391 753.919 153.555C753.942 153.907 753.966 154.259 754.003 154.609C754.123 155.178 754.057 155.765 753.816 156.28C753.66 156.521 753.387 156.657 753.098 156.638C752.809 156.618 752.546 156.447 752.407 156.186C752.134 155.65 752.015 155.052 752.064 154.462L751.965 152.918C751.945 152.591 751.924 152.263 751.902 151.936C751.851 151.148 751.801 150.36 751.756 149.572L751.608 146.989C751.215 146.394 750.825 145.796 750.438 145.196C750.264 144.85 750.262 144.444 750.432 144.096C750.601 143.747 750.924 143.495 751.306 143.413C751.379 143.397 751.452 143.382 751.526 143.368C751.538 143.211 751.552 143.055 751.568 142.899L751.572 142.903C751.569 142.958 751.572 143.015 751.583 143.071C751.592 143.166 751.597 143.26 751.597 143.354C751.732 143.328 751.867 143.304 752.002 143.282L751.572 142.903C751.59 142.616 751.793 142.371 752.083 142.315C752.429 142.248 752.773 142.475 752.86 142.826C752.888 142.937 752.914 143.049 752.939 143.162C755.476 142.924 758.04 143.388 760.341 144.516C760.925 144.892 761.095 145.663 760.722 146.247C760.331 146.812 759.562 146.979 758.969 146.627C757.309 145.85 755.488 145.5 753.672 145.595C753.527 145.373 753.382 145.151 753.237 144.929C753.263 145.159 753.285 145.39 753.302 145.62C753.425 145.61 753.549 145.601 753.672 145.595C758.08 152.311 762.903 158.752 768.114 164.881C767.945 164.872 767.775 164.863 767.605 164.854L768.417 165.236C768.316 165.118 768.215 164.999 768.114 164.881C771.466 165.056 774.82 165.213 778.174 165.369C778.96 165.405 779.746 165.442 780.532 165.479C780.901 165.504 781.239 165.695 781.448 165.997C781.657 166.3 781.713 166.681 781.602 167.03C779.658 171.295 777.276 175.348 774.495 179.126C773.437 179.381 772.376 179.624 771.311 179.853L772.551 181.642C773.219 180.818 773.867 179.979 774.495 179.126C780.206 177.744 785.814 175.971 791.279 173.819C791.753 173.599 792.316 173.71 792.666 174.093C793.017 174.476 793.074 175.041 792.805 175.485C788.008 183.34 783.209 191.196 778.411 199.053C777.24 199.579 776.073 200.113 774.911 200.658L776.422 202.31C777.085 201.225 777.748 200.139 778.411 199.053C779.797 198.431 781.189 197.821 782.585 197.22C791.731 193.285 801.072 189.811 810.573 186.813C811.01 186.738 811.451 186.922 811.702 187.284C811.953 187.646 811.967 188.12 811.739 188.497C810.067 191.481 808.395 194.464 806.721 197.446C801.435 206.905 796.131 216.355 790.81 225.795C789.747 226.35 788.687 226.909 787.63 227.472L789.013 228.981C789.612 227.919 790.211 226.857 790.81 225.795C792.408 224.961 794.011 224.138 795.621 223.324C805.042 218.562 814.627 214.161 824.376 210.121C825.074 209.829 826.167 210.45 825.767 211.294L820.886 221.623C815.508 232.953 810.129 244.281 804.75 255.609C803.946 256.12 803.143 256.631 802.339 257.142L803.54 258.156C803.944 257.307 804.347 256.458 804.75 255.609C806.88 254.254 809.01 252.898 811.14 251.541C813.611 249.969 816.08 248.394 818.549 246.819Z" fill="#FFD5CE"/>
<path fill-rule="evenodd" clip-rule="evenodd" d="M805.415 410.861C800.85 406.467 796.668 401.697 792.915 396.602L792.916 396.602C792.52 396.079 791.545 396.544 791.868 397.159C795.387 403.605 800.014 409.397 805.54 414.269C815.226 423.02 826.755 429.51 839.27 433.255C845.55 435.16 852.022 436.347 858.56 436.792C862.074 436.998 865.591 436.991 869.094 436.773L869.158 436.744C870.713 436.041 872.268 435.343 873.827 434.653C874.553 435.181 875.584 434.641 875.576 433.883C876.204 433.609 876.833 433.336 877.463 433.065L878.104 435.739C875.12 436.241 872.113 436.585 869.094 436.773L865.253 438.517C865.501 438.495 865.749 438.602 865.901 438.81C866.088 439.064 866.086 439.407 865.898 439.656C865.205 440.474 864.451 441.197 863.689 441.928C863.432 442.174 863.174 442.421 862.917 442.674L860.917 440.599C860.429 440.978 860.227 441.642 860.459 442.249C860.739 442.979 861.547 443.366 862.291 443.124C863.721 442.617 865.11 442.002 866.443 441.284L870.399 439.46C873.097 438.22 875.783 436.953 878.457 435.659C879.098 435.406 879.457 434.727 879.304 434.055C879.147 433.379 878.51 432.921 877.816 432.985C877.024 433.138 876.23 433.279 875.434 433.406C875.408 433.363 875.379 433.319 875.346 433.276C874.112 431.651 872.708 430.159 871.157 428.826C870.345 428.143 869.486 427.516 868.587 426.95C867.89 426.376 867.041 426.015 866.141 425.91C865.863 425.938 865.615 426.092 865.467 426.327C865.32 426.562 865.291 426.851 865.388 427.11C865.873 427.829 866.52 428.427 867.28 428.856C867.975 429.374 868.647 429.925 869.321 430.476C869.377 430.522 869.433 430.567 869.489 430.613C870.699 431.598 871.853 432.649 872.946 433.76C867.488 434.442 861.959 434.506 856.465 433.95C843.796 432.729 831.532 428.733 820.559 422.25C815.104 419.023 810.024 415.203 805.415 410.861ZM863.551 439.235C864.035 439.018 864.525 438.813 865.021 438.622L865.253 438.517C865.197 438.522 865.142 438.534 865.088 438.552C864.559 438.76 864.051 438.991 863.551 439.235ZM863.551 439.235C862.647 439.641 861.764 440.092 860.906 440.587L860.917 440.599C861.017 440.522 861.129 440.456 861.252 440.405C861.565 440.247 861.875 440.088 862.183 439.928C862.638 439.693 863.091 439.459 863.551 439.235Z" fill="#FFD5CE"/>
<path fill-rule="evenodd" clip-rule="evenodd" d="M1091.08 219C1091.08 151.069 1035.44 95.9998 966.815 95.9998C898.188 95.9998 842.554 151.069 842.554 219V391.4C842.554 394.76 842.554 396.44 843.208 397.724C843.783 398.853 844.701 399.771 845.83 400.346C847.113 401 848.794 401 852.154 401H1081.48C1084.84 401 1086.52 401 1087.8 400.346C1088.93 399.771 1089.85 398.853 1090.42 397.724C1091.08 396.44 1091.08 394.76 1091.08 391.4V219Z" fill="#F7CC47"/>
<mask id="mask0_213_3544" style="mask-type:alpha" maskUnits="userSpaceOnUse" x="842" y="95" width="250" height="306">
<path fill-rule="evenodd" clip-rule="evenodd" d="M1091.08 219C1091.08 151.069 1035.44 95.9998 966.815 95.9998C898.188 95.9998 842.554 151.069 842.554 219V391.4C842.554 394.76 842.554 396.44 843.208 397.724C843.783 398.853 844.701 399.771 845.83 400.346C847.113 401 848.794 401 852.154 401H1081.48C1084.84 401 1086.52 401 1087.8 400.346C1088.93 399.771 1089.85 398.853 1090.42 397.724C1091.08 396.44 1091.08 394.76 1091.08 391.4V219Z" fill="white"/>
</mask>
<g mask="url(#mask0_213_3544)">
</g>
<rect x="656.667" y="254" width="216.195" height="112" rx="6" fill="white"/>
<ellipse cx="696.572" cy="294.5" rx="22.7308" ry="22.5" fill="#F7CC47"/>
<rect x="740.518" y="281" width="62.6359" height="14" rx="2" fill="#FFE4DF"/>
<rect x="740.518" y="319" width="6.06154" height="29" rx="3" fill="#FFE4DF"/>
<rect x="757.692" y="314" width="6.06154" height="34" rx="3" fill="#FFE4DF"/>
<rect x="775.877" y="310" width="6.06154" height="38" rx="3" fill="#FFE4DF"/>
<rect x="793.051" y="317" width="6.06154" height="31" rx="3" fill="#FFE4DF"/>
<rect x="810.226" y="323" width="6.06154" height="25" rx="3" fill="#FFE4DF"/>
<rect x="828.41" y="319" width="6.06154" height="29" rx="3" fill="#FFE4DF"/>
<rect x="845.585" y="327" width="6.06154" height="21" rx="3" fill="#FFE4DF"/>
<path d="M724.027 163.051L698.675 193.024L708.065 155.054L671.544 169.931L697.685 140.63L658.363 137.003L695.266 123.083L662.151 101.784L701.363 106.433L682.041 72.3407L714.578 94.4954L713.475 55.4194L731.884 90.0038L749.253 54.8964L749.316 93.9875L781.179 70.8913L762.882 105.534L801.938 99.7401L769.472 121.998L806.775 134.834L767.578 139.608L794.582 168.133L757.634 154.329L768.152 192.009L741.916 162.79L733.54 200.992L724.027 163.051Z" fill="#F094E3"/>
<path fill-rule="evenodd" clip-rule="evenodd" d="M740.518 119C740.518 123.418 736.899 127 732.436 127C727.972 127 724.354 123.418 724.354 119C724.354 114.581 727.972 111 732.436 111C736.899 111 740.518 114.581 740.518 119ZM716.272 140.333C716.272 143 718.966 143 718.966 143H745.906C745.906 143 748.6 143 748.6 140.333C748.6 137.666 745.906 129.666 732.436 129.666C718.966 129.666 716.272 137.666 716.272 140.333Z" fill="white"/>
<g clip-path="url(#clip0_213_3544)">
<path d="M1036.98 344.603L1036.98 344.709L1042.41 401H1002.77L997.635 366.428L995.374 400.113L954.672 399.67L958.996 355.444L962.672 334.945V334.94L963.224 331.855H1035.9L1035.99 332.972L1036.98 344.603Z" fill="#2F2E41"/>
<path d="M932.237 377.235C936.435 377.984 940.812 373.351 942.014 366.886C942.54 364.056 942.37 361.344 941.661 359.127L942.305 355.4L953.106 305.266C953.106 305.266 972.995 266.272 972.995 259.503C972.994 252.733 967.241 249.413 967.241 249.413L959.456 249.485L935.043 307.924L930.646 351.108L929.935 357.033C928.473 358.863 927.339 361.342 926.813 364.172C925.611 370.637 928.04 376.485 932.237 377.235Z" fill="#FFB6B6"/>
<path d="M1011.43 225.257L1004.19 208.857L980.676 212.847L979.093 232.141L1011.43 225.257Z" fill="#FFB6B6"/>
<path opacity="0.1" d="M1011.43 225.257L1004.19 208.857L980.676 212.847L979.093 232.141L1011.43 225.257Z" fill="black"/>
<path d="M1062.53 259.386C1062.53 259.386 1045.8 228.803 1042.63 225.7C1041.22 224.319 1039.01 224.3 1036.98 224.703L1013.69 216.836L1005.79 212.488L1005.27 220.76L979.354 225.319C979.498 220.275 980.224 218.356 980.224 218.356L970.727 229.246L952.185 238.111L952.195 238.191C950.834 238.656 949.544 239.453 948.567 240.77C944.949 245.646 935 305.04 935 305.04L956.255 309.472L959.148 291.681L961.23 307.699L962.813 337.617C962.813 337.617 991.756 361.995 1005.78 353.131C1019.79 344.266 1036.98 344.709 1036.98 344.709L1037.41 330.841C1037.71 330.363 1037.88 330.082 1037.88 330.082L1037.43 280.89V267.801C1040.88 272.505 1045.03 276.55 1049.87 278.445C1065.7 284.651 1062.53 259.386 1062.53 259.386V259.386Z" fill="#E6E6E6"/>
<path d="M989.976 215.732C1001.92 215.732 1011.61 206.239 1011.61 194.528C1011.61 182.818 1001.92 173.325 989.976 173.325C978.028 173.325 968.342 182.818 968.342 194.528C968.342 206.239 978.028 215.732 989.976 215.732Z" fill="#FFB6B6"/>
<path d="M1005.5 200.521C1005.5 200.521 1007.38 194.067 1011.61 194.528C1015.84 194.989 1016.78 191.302 1015.84 189.458C1014.9 187.614 1013.02 178.395 1013.02 178.395C1013.02 178.395 1013.96 171.942 1008.32 171.02C1002.67 170.098 1000.79 169.176 999.853 167.332C998.912 165.488 984.803 163.645 980.1 166.41C975.396 169.176 971.634 174.482 968.342 175.978C965.05 177.473 962.228 180.239 964.109 184.848C965.99 189.458 968.719 198.473 968.719 198.473C968.719 198.473 973.515 196.833 974.456 199.599C975.396 202.364 971.634 198.677 976.337 191.302C981.04 183.926 981.04 176.551 988.565 179.317C996.09 182.083 1004.56 181.161 1003.62 186.692C1002.67 192.224 1005.5 200.521 1005.5 200.521V200.521Z" fill="#2F2E41"/>
<path d="M1024.22 217.364C1036.39 217.364 1046.25 207.898 1046.25 196.222C1046.25 184.545 1036.39 175.08 1024.22 175.08C1012.05 175.08 1002.18 184.545 1002.18 196.222C1002.18 207.898 1012.05 217.364 1024.22 217.364Z" fill="#6C63FF"/>
<path d="M1031.7 185.558C1028.76 190.793 1025.83 196.029 1022.9 201.264C1021.03 198.027 1019.17 194.783 1017.29 191.548C1016.65 190.43 1014.88 191.435 1015.53 192.556C1017.71 196.306 1019.86 200.069 1022.03 203.819C1022.4 204.461 1023.42 204.475 1023.79 203.819C1027.01 198.068 1030.23 192.317 1033.46 186.565C1034.09 185.438 1032.33 184.43 1031.7 185.558Z" fill="white"/>
<path d="M1054.64 251.95L1032.68 241.657C1032.68 241.657 1031.8 234.767 1027.68 232.31C1026.98 230.673 1026.18 228.875 1025.45 227.451C1023.64 223.927 1026.35 217.279 1024.09 217.279C1021.83 217.279 1018.49 224.271 1018.66 226.144C1018.8 227.581 1020.01 230.091 1020.26 232.287C1017.51 233.306 1015.28 235.053 1013.82 236.444C1012.55 237.648 1012.08 239.444 1012.58 241.103C1014.01 245.911 1017.59 255.84 1022.73 255.84C1029.52 255.84 1031.33 254.511 1031.33 254.511C1031.33 254.511 1045.35 271.797 1055.75 273.127C1066.15 274.456 1054.64 251.95 1054.64 251.95V251.95Z" fill="#FFB6B6"/>
</g>
<defs>
<filter id="filter0_b_213_3544" x="-42.0001" y="-42" width="1266" height="626" filterUnits="userSpaceOnUse" color-interpolation-filters="sRGB">
<feFlood flood-opacity="0" result="BackgroundImageFix"/>
<feGaussianBlur in="BackgroundImage" stdDeviation="21"/>
<feComposite in2="SourceAlpha" operator="in" result="effect1_backgroundBlur_213_3544"/>
<feBlend mode="normal" in="SourceGraphic" in2="effect1_backgroundBlur_213_3544" result="shape"/>
</filter>
<linearGradient id="paint0_linear_213_3544" x1="1182" y1="0" x2="2069.47" y2="797.611" gradientUnits="userSpaceOnUse">
<stop stop-color="#EF6C57"/>
<stop offset="1" stop-color="#151515" stop-opacity="0"/>
</linearGradient>
<clipPath id="clip0_213_3544">
<rect width="231.349" height="236" fill="white" transform="translate(831.441 165)"/>
</clipPath>
</defs>
</svg>
