<svg width="570" height="616" viewBox="0 0 570 616" fill="none" xmlns="http://www.w3.org/2000/svg">
<circle cx="285" cy="299" r="185" fill="#32334C"/>
<path fill-rule="evenodd" clip-rule="evenodd" d="M471.33 120.475C473.038 114.91 476.97 110.306 482.189 107.761C486.926 105.727 492.413 106.683 496.19 110.201C498.291 111.913 498.993 114.822 497.907 117.309C497.127 118.08 496.054 118.475 494.963 118.393C493.872 118.31 492.869 117.759 492.214 116.879C490.572 114.273 490.548 110.957 492.151 108.328C493.343 105.704 495.006 103.324 497.058 101.306C500.896 97.1605 506.577 95.2669 512.124 96.2847C517.246 97.3371 521.211 101.418 522.13 106.584C522.576 109.341 521.399 112.109 519.105 113.692C517.157 114.802 514.682 114.124 513.565 112.175C513.16 110.655 513.34 109.038 514.07 107.645C514.555 106.447 515.181 105.311 515.934 104.262C517.509 102.104 519.515 100.3 521.824 98.964C526.412 96.182 531.84 95.1393 537.128 96.0245C542.073 96.7088 546.395 99.7225 548.759 104.135C550.44 109.26 548.09 114.843 543.256 117.207C542.096 117.936 540.836 118.493 539.515 118.858C538.429 119.312 537.182 119.133 536.265 118.391C535.724 116.981 536.083 115.382 537.176 114.342C537.939 113.293 538.82 112.334 539.8 111.486C543.83 107.961 549.168 106.33 554.471 107.002C559.677 107.799 564.158 111.114 566.457 115.868C568.875 120.408 568.81 125.875 566.285 130.356C563.655 134.56 559.184 137.253 554.25 137.607C553.081 137.686 551.906 137.607 550.758 137.371C549.46 137.243 548.237 136.703 547.266 135.83C546.778 134.968 546.792 133.909 547.303 133.061C547.81 131.986 548.628 131.089 549.65 130.487C553.894 128.374 558.982 128.977 562.619 132.023C566.605 135.088 568.549 140.132 567.655 145.091C566.594 150.602 563.301 155.423 558.562 158.403C554.099 161.279 548.663 162.214 543.5 160.996C541.007 160.393 538.731 159.105 536.926 157.277C535.312 155.708 534.537 153.463 534.839 151.228C535.162 150.174 536.006 149.363 537.07 149.085C538.133 148.808 539.264 149.102 540.059 149.865C542.058 151.907 542.917 154.812 542.353 157.618C541.75 162.929 538.874 167.714 534.475 170.728C530.361 173.788 525.011 174.623 520.166 172.962C515.772 171.152 512.332 167.581 510.681 163.112C509.84 160.97 509.472 158.67 509.603 156.371C509.685 155.19 509.927 154.025 510.321 152.91C510.502 151.687 511.283 150.637 512.4 150.116C513.569 150.096 514.604 150.871 514.916 152.002C515.263 153.537 515.164 155.14 514.63 156.62C513.9 159.288 512.707 161.807 511.107 164.06C508.098 168.495 503.412 171.502 498.138 172.381C493.081 173.029 488.001 171.378 484.283 167.878C480.8 164.55 479.469 159.544 480.838 154.917C481.451 152.682 482.622 150.641 484.239 148.986C485.016 148.201 485.904 147.536 486.875 147.01C487.349 146.754 487.845 146.54 488.356 146.368C488.905 146.066 489.543 145.971 490.156 146.1C490.638 146.969 490.604 148.033 490.069 148.869C489.529 150.123 488.851 151.313 488.046 152.415C486.419 154.65 484.315 156.492 481.888 157.808C479.507 159.126 476.828 159.808 474.109 159.788C471.496 159.718 468.954 158.922 466.765 157.489C462.236 154.795 459.711 149.68 460.318 144.433C461.347 139.313 465.404 135.353 470.533 134.462C473.13 133.858 475.834 134.879 477.392 137.05C478.881 139.836 474.527 140.697 472.68 140.678C467.475 140.802 462.939 137.143 461.94 132.015C460.942 126.888 463.772 121.784 468.64 119.933C471.086 118.777 473.962 119.024 476.175 120.582C477.033 121.264 477.551 122.288 477.595 123.385C477.638 124.482 477.203 125.543 476.403 126.292C475.441 126.723 474.344 126.738 473.37 126.332C472.397 125.926 471.633 125.136 471.26 124.147C470.483 121.245 471.314 118.148 473.438 116.029C474.144 115.209 472.957 114.008 472.246 114.833C469.524 117.284 468.377 121.044 469.265 124.604C470.312 127.436 473.262 129.076 476.21 128.467C477.507 127.957 478.545 126.946 479.091 125.66C479.638 124.375 479.646 122.923 479.114 121.631C477.782 118.641 474.662 116.872 471.422 117.268C465.175 117.901 460.256 122.898 459.703 129.174C459.365 135.481 463.648 141.097 469.802 142.417C472.758 143.298 475.955 142.717 478.415 140.852C479.6 139.692 479.928 137.91 479.235 136.401C478.526 134.965 477.332 133.828 475.866 133.192C471.416 131.876 466.606 132.87 463.036 135.841C459.465 138.813 457.604 143.374 458.071 148.005C458.496 151.076 459.84 153.947 461.923 156.237C466.221 161.112 472.941 163.056 479.165 161.223C482.198 160.295 484.969 158.658 487.25 156.448C488.445 155.297 489.499 154.008 490.39 152.606C491.265 151.338 491.922 149.932 492.336 148.446C492.798 147.097 492.48 145.601 491.509 144.559C490.039 143.757 488.25 143.817 486.837 144.716C484.324 145.814 482.195 147.639 480.722 149.958C477.504 154.797 477.231 161.03 480.014 166.134C483.258 171.298 488.845 174.51 494.925 174.706C501.217 174.858 507.23 172.107 511.242 167.24C513.35 164.787 514.989 161.964 516.076 158.913C517.791 155.858 517.584 152.081 515.545 149.233C514.373 148.042 512.603 147.676 511.057 148.303C509.656 149.169 508.645 150.549 508.239 152.15C507.293 154.827 507.069 157.707 507.588 160.499C508.607 166.112 512.018 170.999 516.927 173.878C522.234 176.804 528.686 176.698 533.895 173.599C539.387 170.512 543.188 165.091 544.228 158.86C544.923 155.556 544.24 152.109 542.337 149.323C541.401 148.046 539.982 147.212 538.415 147.016C536.847 146.821 535.268 147.281 534.049 148.289C532.235 150.537 531.987 153.674 533.427 156.18C534.802 158.803 537.037 160.868 539.754 162.029C545.574 164.525 552.203 164.264 557.81 161.319C563.629 158.356 567.852 152.972 569.353 146.6C570.047 143.601 569.889 140.468 568.894 137.556C567.899 134.908 566.195 132.588 563.969 130.851C559.746 127.122 553.706 126.298 548.644 128.761C545.937 130.094 544.471 133.096 545.081 136.06C545.769 137.508 547.086 138.556 548.648 138.899C550.049 139.367 551.514 139.615 552.991 139.637C558.842 139.649 564.31 136.723 567.561 131.843C570.681 126.703 570.817 120.28 567.915 115.013C565.155 109.539 559.814 105.846 553.734 105.206C547.518 104.683 541.4 107.019 537.103 111.558C535.205 113.591 532.371 117.619 535.327 120.023C538.23 121.341 541.631 120.857 544.053 118.779C546.818 117.178 549 114.732 550.283 111.799C551.368 109.126 551.344 106.13 550.218 103.475C547.502 98.2831 542.373 94.8032 536.56 94.2086C530.394 93.3973 524.153 94.9712 519.102 98.6107C516.571 100.4 514.492 102.759 513.032 105.5C511.005 108.169 511.022 111.872 513.073 114.523C515.3 116.373 518.513 116.412 520.784 114.615C523.154 112.468 524.244 109.24 523.664 106.089C522.46 100.08 517.65 95.4625 511.615 94.5211C505.189 93.7413 498.812 96.3062 494.702 101.323C492.335 103.871 490.593 106.939 489.614 110.281C488.486 113.419 489.485 116.929 492.095 118.995C493.163 119.839 494.522 120.221 495.871 120.055C497.22 119.89 498.447 119.191 499.281 118.115C500.643 115.258 500.047 111.849 497.797 109.628C493.68 105.26 487.296 103.91 481.772 106.24C476.033 108.919 471.769 114.007 470.122 120.14C470.042 120.471 470.238 120.806 470.565 120.896C470.892 120.987 471.232 120.8 471.331 120.475H471.33Z" fill="#8082A5"/>
<path fill-rule="evenodd" clip-rule="evenodd" d="M5.60245 411.115C2.90367 416.309 1.93378 422.222 2.83296 428H0.409655C-0.136552 425.038 -0.136552 422.002 0.409655 419.041C1.2322 412.854 4.16545 407.136 8.71813 402.845C12.3688 399.544 16.8035 397.261 21.5739 396.192C21.598 397.056 21.6635 397.92 21.7704 398.781C20.5185 399.006 19.2797 399.327 18.0652 399.744C12.7379 402.022 8.34423 406.03 5.60245 411.115ZM24.4824 398.445C23.5744 398.507 22.6691 398.619 21.7704 398.781C21.9846 400.504 22.3651 402.211 22.9118 403.879C24.2342 409.457 27.7186 414.287 32.605 417.318C35.6759 418.75 39.2273 418.75 42.2982 417.318C44.5801 416.422 46.4357 414.698 47.491 412.494C48.3742 407.877 46.4827 403.17 42.6444 400.433C37.8186 396.463 31.5305 394.711 25.3351 395.609C25.1875 395.622 25.0401 395.636 24.893 395.651C25.017 395.059 25.1644 394.47 25.3351 393.886C25.9941 388.634 28.0231 383.644 31.2203 379.414C39.5909 370.64 50.6904 364.934 62.7233 363.218C69.7185 361.975 76.851 362.369 83.5771 364.3C81.9187 366.025 80.4899 367.976 79.3402 370.11C76.7858 375.451 76.7858 381.654 79.3402 386.995C81.4876 392.179 86.2266 395.847 91.8029 396.643C97.1331 397.254 102.393 395.029 105.65 390.785C109.307 385.493 109.307 378.504 105.65 373.211C101.374 368.123 95.9041 364.32 89.8415 362.051C94.1283 359.619 98.9553 358.239 103.919 358.05C115.144 356.807 126.393 360.166 135.076 367.353C136.611 368.331 138.035 369.467 139.324 370.742L129.191 372.522H140.961H142C141.666 371.995 141.32 371.477 140.961 370.97V370.455L140.633 370.512C134.293 361.813 124.448 356.232 113.613 355.293C106.566 354.461 99.4226 355.409 92.8415 358.05C90.8223 358.862 88.9254 359.912 87.1861 361.167C82.6831 359.849 77.9148 359.352 73.1089 359.773C58.9654 359.289 45.1066 363.805 33.9898 372.522C29.1911 376.399 25.3929 381.361 22.9118 386.995C21.9335 389.98 21.4875 393.091 21.5739 396.192C22.6645 395.947 23.7726 395.766 24.893 395.651C24.6994 396.575 24.5626 397.508 24.4824 398.445ZM140.633 370.512L139.324 370.742C139.897 371.309 140.444 371.903 140.961 372.522V370.97C140.853 370.816 140.744 370.664 140.633 370.512ZM85.6403 364.945C84.9573 364.714 84.2694 364.499 83.5771 364.3C84.6829 363.151 85.8908 362.102 87.1861 361.167C88.0823 361.429 88.9681 361.724 89.8415 362.051C88.8491 362.614 87.8858 363.234 86.9563 363.908C86.5024 364.237 86.0636 364.583 85.6403 364.945ZM85.6403 364.945C88.7368 365.993 91.7325 367.374 94.5724 369.076C99.3907 372.144 102.568 377.205 103.227 382.86C103.568 387.771 100.381 392.241 95.611 393.542C91.2028 394.965 86.3648 393.762 83.1483 390.44C79.6551 386.886 77.9959 381.931 78.6478 377.002C79.5382 372.293 82.014 368.046 85.6403 364.945ZM24.4824 398.445C27.7995 398.216 31.1513 398.65 34.3359 399.744C38.7102 400.277 42.5023 403.01 44.3754 406.98C44.7764 409.086 44.3033 411.264 43.064 413.017C41.8246 414.77 39.9248 415.949 37.7978 416.284C34.9127 416.135 32.1914 414.904 30.1817 412.838C28.1926 411.224 26.5452 409.233 25.3351 406.98C24.5219 404.199 24.2377 401.305 24.4824 398.445ZM141.139 364.66C141.058 363.528 141.058 362.392 141.139 361.26V361.94V364.66ZM141.139 364.66V365C141.083 366.019 141.083 367.041 141.139 368.06C141.228 369.078 141.228 370.102 141.139 371.12C140.679 368.991 140.679 366.789 141.139 364.66Z" fill="#8082A5"/>
<path fill-rule="evenodd" clip-rule="evenodd" d="M330.329 569.983C325.101 566.456 320.188 562.485 315.645 558.113L315.646 558.113C315.169 557.666 314.284 558.307 314.705 558.859C319.24 564.616 324.761 569.52 331.015 573.345C342.015 580.26 354.457 584.59 367.418 586.013C373.926 586.752 380.504 586.742 387.026 585.984C390.524 585.543 393.992 584.891 397.411 584.031L397.469 583.99C398.887 583.005 400.307 582.024 401.733 581.051C402.622 581.668 403.752 580.763 403.406 579.915C403.953 579.545 404.501 579.177 405.05 578.81L406.125 581.349C403.265 582.395 400.356 583.29 397.411 584.031L393.911 586.469C394.152 586.401 394.414 586.462 394.599 586.64C394.825 586.858 394.88 587.2 394.735 587.481C394.187 588.421 393.563 589.278 392.932 590.144C392.719 590.436 392.506 590.729 392.294 591.027L389.98 589.333C389.561 589.8 389.472 590.496 389.801 591.056C390.197 591.73 391.058 591.966 391.752 591.589C393.078 590.823 394.346 589.957 395.542 588.998L399.142 586.46C401.598 584.733 404.037 582.981 406.46 581.205C407.051 580.835 407.292 580.095 407.03 579.455C406.764 578.813 406.059 578.474 405.386 578.665C404.634 578.962 403.878 579.246 403.118 579.517C401.635 578.132 400.01 576.906 398.27 575.862C397.359 575.329 396.413 574.86 395.438 574.456C394.66 574.011 393.769 573.802 392.874 573.852C392.608 573.928 392.392 574.122 392.289 574.379C392.187 574.635 392.208 574.925 392.348 575.163C392.946 575.789 393.681 576.266 394.495 576.558C395.263 576.949 396.014 577.375 396.766 577.803C396.829 577.838 396.891 577.874 396.954 577.909C398.258 578.645 399.522 579.45 400.74 580.321C395.461 582.005 390.01 583.088 384.49 583.545C371.794 584.659 359.039 582.941 347.147 578.516C341.233 576.312 335.592 573.45 330.329 569.983ZM392.351 587.494C392.793 587.189 393.242 586.897 393.7 586.616L393.911 586.469C393.857 586.484 393.804 586.505 393.754 586.534C393.267 586.837 392.804 587.16 392.351 587.494ZM392.351 587.494C391.526 588.063 390.73 588.674 389.966 589.323L389.98 589.333C390.065 589.238 390.165 589.152 390.277 589.079C390.56 588.865 390.839 588.649 391.117 588.434C391.527 588.117 391.935 587.801 392.351 587.494Z" fill="#8082A5"/>
<path fill-rule="evenodd" clip-rule="evenodd" d="M246 143C246 75.069 190.931 20 123 20C55.069 20 0 75.069 0 143V315.4C0 318.76 0 320.44 0.653961 321.724C1.2292 322.853 2.14708 323.771 3.27606 324.346C4.55953 325 6.23969 325 9.60001 325H236.4C239.76 325 241.44 325 242.724 324.346C243.853 323.771 244.771 322.853 245.346 321.724C246 320.44 246 318.76 246 315.4V143Z" fill="white" fill-opacity="0.295743"/>
<path d="M43.3345 318.113L48.4836 318.112L50.9333 301.487L43.3333 301.488L43.3345 318.113Z" fill="#FFB6B6"/>
<path d="M43.3336 322.959L58.5333 322.958V322.796C58.5332 321.474 57.9099 320.205 56.8004 319.27C55.6909 318.334 54.1862 317.809 52.6172 317.809H52.6168L49.8404 316.033L44.6602 317.809L43.3333 317.809L43.3336 322.959Z" fill="black"/>
<path d="M51.5667 298.221L55.5099 300.794L69.3 289.35L63.4801 285.554L51.5667 298.221Z" fill="#FFB6B6"/>
<path d="M47.7667 301.559L60.2618 309.8L60.3856 309.667C61.3959 308.581 61.8525 307.202 61.6549 305.832C61.4573 304.463 60.6217 303.215 59.332 302.364L59.3317 302.364L58.4057 299.401L52.7908 298.05L51.7 297.331L47.7667 301.559Z" fill="black"/>
<path d="M75.7938 222.517C75.7938 222.517 82.6199 228.464 79.5861 242.269L82.1331 265.907L82.7904 267.001C83.1821 267.654 83.3189 268.393 83.1812 269.114C83.0436 269.835 82.6385 270.502 82.0237 271.018L81.4822 272.429L80.9766 275.19L62.1415 298.978L54.9361 292.606L66.5659 270.305L63.4056 264.57L56.0738 244.605L51.0174 281.137L52.0287 312.571H42.3509L36.3539 277.526L30.0334 228.251L33.321 222.517H75.7938Z" fill="black"/>
<path d="M31.7556 232.907L31.6868 232.826C28.0153 228.496 33.5373 218.091 34.3702 216.583C33.3812 216.312 32.534 215.762 31.973 215.024C31.4119 214.287 31.1717 213.408 31.2932 212.539L31.6522 209.968L32.0264 207.446L29.3454 205.188L29.3378 205.131L27.7949 193.759L25.5516 186.206C24.7063 183.351 24.7783 180.357 25.7603 177.533C26.7422 174.709 28.5987 172.156 31.1391 170.136L36.3246 169.442L42.6266 164.327H52.7893L56.2738 167.132C62.7787 168.092 63.8962 167.779 69.4837 173.427L66.9448 190.987L66.3114 193.402L66.3133 196.679L67.9235 198.186C68.5036 198.729 68.9251 199.379 69.1544 200.083C69.3837 200.788 69.4146 201.528 69.2445 202.244L69.0328 203.136C70.6935 203.735 72.2782 214.39 72.6568 215.878L73.2224 218.101C73.7063 218.639 76.9 222.226 76.9 223.206C76.9 223.353 76.771 223.496 76.4941 223.654C74.3176 224.895 65.6403 233.702 60.316 231.907C54.6446 229.997 32.0999 232.862 31.8727 232.892L31.7556 232.907Z" fill="#3F3D56"/>
<path d="M30.3829 212.622C30.3829 212.622 33.001 200.18 30.3634 195.501L19.9 196.129L21.4924 213.879L30.6394 233.587C30.4997 234.194 30.5537 234.821 30.7957 235.405C31.0377 235.989 31.4591 236.509 32.0173 236.912C32.5754 237.315 33.2503 237.586 33.9735 237.699C34.6967 237.811 35.4424 237.761 36.1349 237.553C36.8275 237.344 37.4422 236.986 37.9166 236.513C38.3911 236.041 38.7084 235.471 38.8364 234.862C38.9644 234.253 38.8984 233.626 38.6453 233.046C38.3921 232.465 37.9608 231.951 37.395 231.556L30.3829 212.622Z" fill="#FFB6B6"/>
<path d="M19.8607 188.796L20.5056 182.941C20.7483 180.737 21.5112 178.595 22.7503 176.638C23.9895 174.681 25.6805 172.948 27.7261 171.537C28.997 170.668 30.5344 170.112 32.1645 169.932C33.7945 169.753 35.4523 169.957 36.9504 170.522C38.975 171.299 40.5701 172.689 41.4132 174.409C42.2563 176.129 42.2846 178.052 41.4922 179.789C39.0839 185.055 39.9535 190.625 35.2576 191.304L35.7678 193.327L31.1505 205.891L18 204.621L19.8607 188.796Z" fill="#3F3D56"/>
<path d="M89.1071 206.785C89.1071 206.785 81.5527 196.167 76.005 194.114L68.6667 200.186L83.4248 212.48L105.325 222.177C105.685 222.701 106.205 223.137 106.832 223.44C107.459 223.743 108.171 223.902 108.896 223.901C109.621 223.901 110.333 223.74 110.959 223.436C111.586 223.132 112.105 222.695 112.463 222.17C112.821 221.645 113.006 221.05 113 220.445C112.993 219.841 112.795 219.249 112.425 218.73C112.055 218.21 111.527 217.781 110.894 217.487C110.261 217.192 109.545 217.043 108.821 217.053L89.1071 206.785Z" fill="#FFB6B6"/>
<path d="M63.0281 194.861L59.0226 190.035C57.5151 188.219 56.4409 186.165 55.862 183.991C55.2831 181.817 55.2108 179.566 55.6493 177.369C55.9267 176.008 56.6422 174.741 57.7148 173.711C58.7874 172.681 60.1744 171.929 61.7191 171.539C63.8171 171.024 66.0651 171.211 68.0084 172.063C69.9517 172.915 71.4453 174.369 72.1874 176.13C74.4327 181.472 82.6227 190.252 79.6568 193.343L81.5854 194.61L84.5 201.734L73.7656 207.968L63.0281 194.861Z" fill="#3F3D56"/>
<path d="M46.8167 162.249C52.9378 162.249 57.9 158.063 57.9 152.898C57.9 147.733 52.9378 143.546 46.8167 143.546C40.6955 143.546 35.7333 147.733 35.7333 152.898C35.7333 158.063 40.6955 162.249 46.8167 162.249Z" fill="#FFB6B6"/>
<path d="M56.2939 142.752C55.7342 141.982 54.959 141.343 54.0382 140.893C53.4089 140.632 52.7475 140.432 52.0664 140.296L50.2837 139.88C49.3703 139.638 48.4306 139.477 47.479 139.397C46.1575 139.341 44.8436 139.597 43.6806 140.136C42.5177 140.676 41.5505 141.478 40.8847 142.455C40.3461 143.272 39.9141 144.289 38.8746 144.588C38.0364 144.829 37.1219 144.489 36.241 144.555C35.7248 144.619 35.235 144.791 34.8151 145.055C34.3951 145.32 34.0579 145.669 33.8334 146.071C33.3944 146.881 33.1783 147.766 33.2018 148.658C33.1672 150.684 33.6298 152.694 34.5597 154.558C35.4896 156.421 36.8662 158.098 38.6006 159.479C38.8914 158.824 38.4125 158.116 38.034 157.49C37.651 156.856 37.4143 155.972 38.0558 155.515C38.7696 155.007 39.9132 155.5 40.7574 155.168C41.0275 155.036 41.255 154.848 41.4195 154.622C41.584 154.396 41.6805 154.138 41.7003 153.873C41.782 153.346 41.6967 152.811 41.7354 152.281C41.7737 151.755 41.9334 151.242 42.2053 150.769C42.4772 150.297 42.8559 149.875 43.3195 149.529C43.7831 149.182 44.3224 148.917 44.9063 148.75C45.4903 148.582 46.1072 148.516 46.7215 148.553C48.6431 148.67 50.5079 149.793 52.357 149.331C53.225 149.114 53.9653 148.562 54.8631 148.47C55.8573 148.367 56.7925 148.846 57.6367 149.307C57.9435 148.194 57.9826 147.038 57.7518 145.912C57.521 144.785 57.025 143.71 56.2939 142.752Z" fill="black"/>
<path d="M95.3796 317.327L92.5169 313.492L91.9451 315.683C91.8448 316.067 91.7446 316.457 91.6518 316.844C90.8386 316.265 89.9735 315.73 89.127 315.216C86.5279 313.643 83.93 312.069 81.3333 310.492L82.1465 314.423C82.6477 316.844 83.1713 319.314 84.4114 321.528C84.5488 321.778 84.6973 322.026 84.857 322.268H96.9391C97.0363 322.043 97.1036 321.811 97.1396 321.574C97.1427 321.559 97.1439 321.543 97.1433 321.528C97.3327 320.026 96.3376 318.612 95.3796 317.327Z" fill="#F0F0F0"/>
<rect x="56" y="445" width="214" height="112" rx="6" fill="white"/>
<circle cx="95.5" cy="485.5" r="22.5" fill="#EF6D58"/>
<rect x="139" y="472" width="94" height="14" rx="2" fill="#DFE0E9"/>
<rect x="139" y="502" width="78" height="6" rx="3" fill="#DFE0E9"/>
<rect x="139" y="516" width="94" height="6" rx="3" fill="#DFE0E9"/>
<rect x="139" y="530" width="62" height="6" rx="3" fill="#DFE0E9"/>
<circle cx="360" cy="110" r="56" fill="#EF6D58"/>
<path fill-rule="evenodd" clip-rule="evenodd" d="M373.999 82C373.783 82 373.59 82.137 373.52 82.3413V82.3448L372.62 85.0503C372.218 86.2613 371.269 87.2098 370.058 87.6123L367.35 88.5153C367.145 88.5861 367.008 88.7786 367.008 88.9948C367.008 89.211 367.145 89.4035 367.35 89.4743L370.055 90.3773C371.265 90.7798 372.214 91.7293 372.617 92.9393L373.52 95.6483C373.59 95.8526 373.783 95.9896 373.999 95.9896C374.215 95.9896 374.408 95.8526 374.478 95.6483L375.381 92.9393C375.784 91.7293 376.733 90.7798 377.943 90.3773L380.652 89.4743C380.856 89.4035 380.993 89.211 380.993 88.9948C380.993 88.7786 380.856 88.5861 380.652 88.5153L377.943 87.6123C376.732 87.2098 375.784 86.2613 375.381 85.0503L374.478 82.3413C374.408 82.137 374.215 82 373.999 82ZM348.781 86.0128C348.884 85.7019 349.174 85.492 349.502 85.492C349.829 85.492 350.12 85.7019 350.223 86.0128L351.577 90.0798C352.182 91.8928 353.603 93.3138 355.416 93.9193L359.483 95.2738C359.793 95.3768 360.003 95.6674 360.003 95.9948C360.003 96.3223 359.793 96.6129 359.483 96.7158L355.416 98.0703C353.603 98.6743 352.181 100.097 351.577 101.91L350.223 105.977C350.12 106.288 349.829 106.498 349.502 106.498C349.174 106.498 348.884 106.288 348.781 105.977L347.426 101.91C346.822 100.097 345.4 98.6743 343.587 98.0703L339.521 96.7158C339.21 96.6129 339 96.3223 339 95.9948C339 95.6674 339.21 95.3768 339.521 95.2738L343.587 93.9193C345.4 93.3153 346.822 91.8927 347.426 90.0798L348.781 86.0128ZM362.3 103.859C362.685 102.704 364.316 102.704 364.7 103.859L366.958 110.639C367.965 113.66 370.337 116.031 373.359 117.037L380.134 119.294C381.289 119.679 381.289 121.31 380.134 121.695L373.355 123.953C370.334 124.96 367.963 127.332 366.958 130.354L364.7 137.13C364.53 137.649 364.046 138 363.5 138C362.954 138 362.47 137.649 362.3 137.13L360.042 130.351C359.036 127.33 356.666 124.96 353.645 123.953L346.866 121.695C346.348 121.525 345.997 121.041 345.997 120.495C345.997 119.949 346.348 119.465 346.866 119.294L353.645 117.037C356.666 116.03 359.036 113.66 360.042 110.639L362.3 103.859Z" fill="white"/>
<path d="M100.558 250.859V280.805C100.569 281.743 100.396 282.675 100.051 283.545C99.7066 284.415 99.1963 285.207 98.5501 285.873C97.9039 286.539 97.1347 287.068 96.2873 287.427C95.4399 287.787 94.5311 287.97 93.6138 287.967C89.7508 287.967 86 284.763 86 280.805V250.859C86 246.954 89.7388 243.751 93.6138 243.751C95.4534 243.758 97.2155 244.51 98.5162 245.841C99.817 247.173 100.551 248.976 100.558 250.859ZM103.287 291.445C103.285 292.451 103.477 293.446 103.852 294.375C104.227 295.305 104.777 296.149 105.472 296.86C106.166 297.57 106.991 298.134 107.898 298.518C108.806 298.901 109.779 299.098 110.761 299.096H115.786L115.862 314.893C115.862 324.43 129.803 324.356 129.803 314.893V299.1H139.197V314.897C139.197 324.385 153.222 324.409 153.222 314.897V299.1H158.323C159.302 299.096 160.27 298.896 161.172 298.51C162.075 298.124 162.894 297.559 163.584 296.849C164.273 296.138 164.819 295.296 165.191 294.369C165.562 293.443 165.752 292.451 165.749 291.449V245.055H103.287V291.445ZM165.917 242.561H103.003C103.003 231.486 109.467 221.878 119.064 216.866L114.255 207.739C113.55 206.471 115.341 205.688 115.946 206.758L120.847 215.963C125.159 214.032 129.815 213.035 134.522 213.035C139.229 213.035 143.885 214.032 148.197 215.963L153.07 206.787C153.703 205.675 155.474 206.504 154.761 207.767L149.952 216.866C159.453 221.878 165.917 231.498 165.917 242.561ZM122.807 228.204C122.807 227.484 122.527 226.793 122.03 226.284C121.532 225.774 120.858 225.488 120.154 225.488C119.469 225.516 118.821 225.813 118.345 226.319C117.87 226.825 117.604 227.5 117.604 228.202C117.604 228.904 117.87 229.578 118.345 230.084C118.821 230.59 119.469 230.888 120.154 230.915C120.855 230.915 121.528 230.631 122.026 230.124C122.523 229.618 122.804 228.93 122.807 228.212V228.204ZM151.447 228.204C151.439 227.675 151.278 227.161 150.984 226.726C150.691 226.29 150.278 225.954 149.798 225.759C149.318 225.564 148.792 225.519 148.287 225.63C147.782 225.741 147.32 226.002 146.96 226.382C146.6 226.761 146.358 227.241 146.265 227.761C146.171 228.281 146.23 228.818 146.435 229.303C146.639 229.789 146.98 230.202 147.413 230.489C147.847 230.777 148.354 230.927 148.87 230.919C149.56 230.903 150.217 230.611 150.699 230.104C151.18 229.598 151.449 228.919 151.447 228.212V228.204ZM175.386 243.742C174.473 243.74 173.569 243.922 172.725 244.278C171.882 244.634 171.115 245.158 170.47 245.819C169.824 246.479 169.313 247.264 168.965 248.128C168.617 248.991 168.439 249.917 168.442 250.851V280.796C168.438 281.733 168.615 282.662 168.962 283.529C169.309 284.396 169.819 285.185 170.464 285.85C171.109 286.515 171.876 287.044 172.72 287.406C173.565 287.767 174.471 287.955 175.386 287.958C179.277 287.958 183 284.755 183 280.796V250.851C182.988 246.881 179.249 243.751 175.386 243.751V243.742Z" fill="white"/>
<path d="M80.2491 69.2818C93.2211 59.7668 111.087 63.4638 123.726 73.5455C127.85 76.8806 131.639 80.7224 135.022 85.0012C136.995 87.461 138.865 90.0432 140.655 92.7144C141.095 93.3697 141.534 94.0316 141.964 94.7001C142.259 95.152 142.55 95.6071 142.84 96.0653C146.468 101.798 149.795 107.828 153.051 113.804C161.181 128.722 169.522 144.084 181.909 154.557C184.461 156.715 188.021 158.657 190.636 156.597C192.905 154.808 193.002 151.047 192.485 147.964C190.566 136.543 183.641 127.078 176.285 118.998C168.928 110.919 160.784 103.512 155.226 93.7487C149.667 83.9858 147.128 70.952 151.997 60.727C156.193 51.9156 165.22 46.9731 174.032 46.7429C182.843 46.5149 191.404 50.4078 198.859 55.7533C206.313 61.1011 212.868 67.8865 219.708 74.2046C223.832 78.0164 229.589 81.7986 234.083 78.5713C237.879 75.8439 238.175 69.2966 235.913 64.8883C233.651 60.4799 229.613 57.7094 225.742 55.1258C213.725 47.1014 201.707 39.0777 189.688 31.0547C186.001 28.5954 182.234 26.0574 179.512 22.3073C176.79 18.5593 175.279 13.2917 176.779 8.74045C178.259 4.25531 182.394 1.40729 186.577 0.812925C190.757 0.219935 194.974 1.53739 198.884 3.32193C213.538 10.0111 248.044 53.7725 257.24 61.2544C263.151 66.0597 269.359 72.1432 269.957 80.374C270.701 90.6207 261.731 99.1241 252.727 100.118C243.725 101.115 234.999 96.6658 226.955 91.9619C218.911 87.258 210.702 82.0717 201.673 81.4187C192.644 80.7659 182.515 86.2514 180.374 96.2416C178.513 104.934 183.245 113.905 189.408 119.467C194.233 123.822 199.895 126.722 205.364 129.983C206.883 130.885 208.385 131.819 209.851 132.817C213.604 135.377 217.111 138.374 220.318 141.76C223.683 145.309 226.704 149.258 229.329 153.54C231.424 156.951 233.251 160.564 234.791 164.338C235.025 164.915 235.253 165.499 235.474 166.092C235.683 166.658 235.886 167.232 236.079 167.812C238.589 175.328 239.567 183.75 236.36 190.767C233.161 197.764 226.232 201.908 219.314 202.482C215.312 202.754 211.302 202.151 207.499 200.708C204.703 199.676 201.996 198.353 199.412 196.758C187.434 189.45 177.951 177.863 169.291 165.95C160.632 154.039 152.479 141.497 142.2 131.385C131.922 121.272 119.041 113.625 105.446 113.742C91.8513 113.856 77.8368 123.27 73.9756 138.085C68.3477 127.063 64.542 114.498 65.0445 101.768C65.5469 89.0377 70.8289 76.193 80.2491 69.2818Z" fill="#3F3D56"/>
<path d="M133.333 110.241C134.172 110.241 134.852 109.498 134.852 108.581C134.852 107.664 134.172 106.921 133.333 106.921C132.495 106.921 131.815 107.664 131.815 108.581C131.815 109.498 132.495 110.241 133.333 110.241Z" fill="#6C63FF"/>
<path d="M76.3889 112.894C77.6469 112.894 78.6667 111.705 78.6667 110.239C78.6667 108.772 77.6469 107.583 76.3889 107.583C75.1309 107.583 74.1111 108.772 74.1111 110.239C74.1111 111.705 75.1309 112.894 76.3889 112.894Z" fill="#FF6584"/>
<path d="M243.426 89.6537C243.845 89.6537 244.185 89.2079 244.185 88.6579C244.185 88.1079 243.845 87.6621 243.426 87.6621C243.007 87.6621 242.667 88.1079 242.667 88.6579C242.667 89.2079 243.007 89.6537 243.426 89.6537Z" fill="#FF6584"/>
<path d="M226.343 37.8558C226.972 37.8558 227.481 37.41 227.481 36.86C227.481 36.3101 226.972 35.8643 226.343 35.8643C225.714 35.8643 225.204 36.3101 225.204 36.86C225.204 37.41 225.714 37.8558 226.343 37.8558Z" fill="#FF6584"/>
<path d="M204.455 132.413C204.702 131.621 205.033 130.865 205.444 130.162C206.988 131.062 208.516 131.992 210.006 132.987C213.822 135.539 217.388 138.526 220.648 141.901C219.336 143.888 217.428 145.284 215.271 145.837C213.113 146.39 210.849 146.063 208.89 144.915C206.931 143.767 205.406 141.874 204.592 139.58C203.778 137.287 203.73 134.744 204.455 132.413L204.455 132.413Z" fill="#FF6584"/>
<path d="M95.3704 100.943C95.7897 100.943 96.1296 100.497 96.1296 99.947C96.1296 99.397 95.7897 98.9512 95.3704 98.9512C94.9511 98.9512 94.6111 99.397 94.6111 99.947C94.6111 100.497 94.9511 100.943 95.3704 100.943Z" fill="#F0F0F0"/>
<path d="M202.426 27.2308C202.845 27.2308 203.185 26.785 203.185 26.235C203.185 25.6851 202.845 25.2393 202.426 25.2393C202.007 25.2393 201.667 25.6851 201.667 26.235C201.667 26.785 202.007 27.2308 202.426 27.2308Z" fill="#F0F0F0"/>
<path d="M194.833 9.30005C195.253 9.30005 195.593 9.0029 195.593 8.63635C195.593 8.2698 195.253 7.97266 194.833 7.97266C194.414 7.97266 194.074 8.2698 194.074 8.63635C194.074 9.0029 194.414 9.30005 194.833 9.30005Z" fill="#F0F0F0"/>
<path d="M256.333 75.7084C256.753 75.7084 257.093 75.2625 257.093 74.7126C257.093 74.1626 256.753 73.7168 256.333 73.7168C255.914 73.7168 255.574 74.1626 255.574 74.7126C255.574 75.2625 255.914 75.7084 256.333 75.7084Z" fill="#F0F0F0"/>
<path d="M210.778 77.0365C211.197 77.0365 211.537 76.5907 211.537 76.0407C211.537 75.4908 211.197 75.0449 210.778 75.0449C210.358 75.0449 210.018 75.4908 210.018 76.0407C210.018 76.5907 210.358 77.0365 210.778 77.0365Z" fill="#F0F0F0"/>
<path d="M186.481 171.334C186.901 171.334 187.241 170.889 187.241 170.339C187.241 169.789 186.901 169.343 186.481 169.343C186.062 169.343 185.722 169.789 185.722 170.339C185.722 170.889 186.062 171.334 186.481 171.334Z" fill="#F0F0F0"/>
<path d="M158.769 78.3646C159.398 78.3646 159.907 77.9188 159.907 77.3688C159.907 76.8189 159.398 76.373 158.769 76.373C158.14 76.373 157.63 76.8189 157.63 77.3688C157.63 77.9188 158.14 78.3646 158.769 78.3646Z" fill="#F0F0F0"/>
<path d="M157.63 59.7699C158.049 59.7699 158.389 59.3241 158.389 58.7741C158.389 58.2241 158.049 57.7783 157.63 57.7783C157.21 57.7783 156.87 58.2241 156.87 58.7741C156.87 59.3241 157.21 59.7699 157.63 59.7699Z" fill="#F0F0F0"/>
<path d="M205.479 174.662C206.904 169.916 209.289 165.627 212.438 162.15C212.854 161.692 213.282 161.249 213.721 160.822C218.075 156.586 223.457 153.995 229.136 153.404C231.211 156.825 233.022 160.448 234.547 164.233C234.779 164.811 235.005 165.397 235.224 165.991C235.431 166.559 235.632 167.135 235.823 167.716C238.309 175.253 239.278 183.698 236.101 190.734C232.932 197.751 226.068 201.906 219.214 202.482C215.25 202.754 211.277 202.15 207.51 200.703C205.47 196.539 204.27 191.9 204.001 187.13C203.967 186.53 203.95 185.929 203.945 185.325C203.923 181.696 204.442 178.09 205.479 174.662Z" fill="#6C63FF"/>
<path d="M193.681 168.351C195.082 163.712 200.322 160.981 208.439 160.658C210.063 160.592 211.85 161.368 213.538 160.753C221.73 157.766 229.162 159.718 235.229 165.963C235.438 166.535 235.641 167.115 235.833 167.701C235.753 167.667 235.671 167.634 235.59 167.602C227.392 164.331 219.254 162.422 212.244 162.091C210.949 162.031 209.404 161.169 208.481 162.072C201.071 169.322 196.059 166.284 194.844 168.815C193.069 172.512 196.217 178.273 201.915 183.82C202.479 184.37 203.066 184.913 203.676 185.451C203.681 186.06 203.698 186.666 203.733 187.271C202.814 186.49 201.943 185.7 201.12 184.901C194.922 178.867 192.281 172.989 193.681 168.351Z" fill="#E4E4E4"/>
<path d="M224.444 201.216C224.864 201.216 225.204 200.77 225.204 200.22C225.204 199.67 224.864 199.225 224.444 199.225C224.025 199.225 223.685 199.67 223.685 200.22C223.685 200.77 224.025 201.216 224.444 201.216Z" fill="#F0F0F0"/>
<path d="M209.259 187.936C209.679 187.936 210.019 187.49 210.019 186.94C210.019 186.39 209.679 185.944 209.259 185.944C208.84 185.944 208.5 186.39 208.5 186.94C208.5 187.49 208.84 187.936 209.259 187.936Z" fill="#F0F0F0"/>
<path d="M221.028 190.592C225.85 190.592 229.759 186.281 229.759 180.963C229.759 175.645 225.85 171.334 221.028 171.334C216.206 171.334 212.296 175.645 212.296 180.963C212.296 186.281 216.206 190.592 221.028 190.592Z" fill="#F0F0F0"/>
<path opacity="0.3" d="M87.7778 74.3799C89.7474 74.4886 93.821 75.6372 98.2353 77.1223C102.647 78.6088 107.432 80.4224 112.156 82.2162C120.426 85.3538 128.696 88.4904 136.965 91.6261C138.102 92.0565 139.242 92.4907 140.385 92.9288C140.823 93.6011 141.258 94.2802 141.685 94.966C140.68 94.5488 139.672 94.1453 138.666 93.7607C134.369 92.1206 130.64 91.039 126.469 89.5469C120.051 87.2526 113.28 84.2395 106.713 81.4337C100.146 78.6257 92.6125 75.6031 87.7778 74.3799Z" fill="#F0F0F0"/>
<path opacity="0.3" d="M236.057 55.0807L254.815 90.3177L237.115 54.3799C237.095 54.2658 237.05 54.1588 236.986 54.068C236.921 53.9772 236.839 53.905 236.745 53.8576C236.651 53.8101 236.548 53.7887 236.445 53.795C236.343 53.8014 236.243 53.8355 236.154 53.8943C236.065 53.9531 235.99 54.0351 235.935 54.1334C235.879 54.2317 235.846 54.3434 235.836 54.4594C235.827 54.5754 235.842 54.6923 235.88 54.8003C235.919 54.9084 235.979 55.0045 236.057 55.0807Z" fill="#F0F0F0"/>
<path d="M226.722 159.381C227.142 159.381 227.481 158.935 227.481 158.385C227.481 157.835 227.142 157.39 226.722 157.39C226.303 157.39 225.963 157.835 225.963 158.385C225.963 158.935 226.303 159.381 226.722 159.381Z" fill="#F0F0F0"/>
<g clip-path="url(#clip0_122_3059)">
<path d="M422.962 286.568C422.391 285.604 419.918 286.636 419.463 285.761C419.01 284.89 421.308 283.562 422.62 280.528C422.857 279.981 424.349 276.533 423.245 275.469C421.151 273.452 411.573 281.774 408.221 279.051C407.485 278.453 406.972 277.26 404.745 275.323C403.859 274.553 403.324 274.205 402.805 274.334C402.07 274.518 402.012 275.502 401.223 277.438C400.04 280.341 399.341 280.165 398.652 282.481C398.14 284.2 398.257 285.2 397.655 285.395C396.803 285.67 396.019 283.847 394.94 284.01C393.838 284.177 393.172 286.3 392.961 287.89C392.567 290.873 393.662 292.841 394.269 294.911C394.929 297.161 395.321 300.582 393.797 305.425L378.715 347.922C382.045 339.201 391.686 315.297 395.737 306.414C396.906 303.849 398.197 301.248 400.849 300.222C403.401 299.233 406.907 299.823 411.376 298.747C411.898 298.621 413.347 298.252 413.529 297.4C413.68 296.696 412.828 296.303 412.959 295.643C413.134 294.758 414.81 294.747 416.869 293.726C418.321 293.006 419.225 292.15 420.003 291.414C420.238 291.192 423.723 287.851 422.962 286.568H422.962L422.962 286.568Z" fill="#F2F2F2"/>
<path d="M363.625 308.94C362.987 308.942 362.78 310.454 362.22 310.425C361.661 310.396 361.673 308.885 360.562 307.365C360.362 307.091 359.101 305.364 358.26 305.599C356.666 306.045 357.987 313.147 355.683 314.007C355.177 314.195 354.444 314.103 352.851 314.637C352.217 314.85 351.891 315.012 351.805 315.304C351.683 315.718 352.15 316.031 352.872 316.976C353.955 318.394 353.668 318.687 354.605 319.694C355.301 320.441 355.826 320.672 355.748 321.024C355.637 321.521 354.516 321.38 354.284 321.957C354.048 322.546 354.898 323.485 355.618 324.047C356.968 325.102 358.25 325.132 359.441 325.431C360.735 325.756 362.527 326.551 364.464 328.696L380.969 348.361C377.65 344.211 368.7 332.581 365.509 328.03C364.588 326.716 363.684 325.331 363.946 323.734C364.197 322.196 365.498 320.645 366.259 318.141C366.348 317.848 366.585 317.031 366.22 316.696C365.917 316.418 365.479 316.723 365.193 316.469C364.809 316.127 365.287 315.301 365.38 313.996C365.446 313.076 365.287 312.385 365.15 311.791C365.108 311.612 364.475 308.937 363.625 308.94V308.94H363.625Z" fill="#F2F2F2"/>
<path d="M376.353 311.797L375.969 308.365L376.144 308.105C376.957 306.902 377.371 305.727 377.376 304.612C377.377 304.435 377.369 304.258 377.36 304.077C377.327 303.361 377.286 302.472 377.75 301.434C378.01 300.856 378.74 299.517 379.839 299.683C380.135 299.724 380.358 299.86 380.528 300.019C380.553 299.98 380.579 299.94 380.606 299.897C380.948 299.375 381.219 299.151 381.48 298.936C381.68 298.77 381.887 298.599 382.212 298.195C382.355 298.018 382.466 297.862 382.559 297.731C382.843 297.335 383.215 296.863 383.869 296.871C384.568 296.904 384.934 297.483 385.177 297.865C385.61 298.548 385.807 299.04 385.937 299.367C385.984 299.486 386.038 299.62 386.065 299.661C386.29 299.993 388.122 299.683 388.812 299.57C390.362 299.312 391.703 299.088 392.256 300.066C392.652 300.765 392.358 301.69 391.355 302.888C391.043 303.26 390.711 303.544 390.416 303.766C390.66 303.912 390.879 304.135 390.968 304.486C391.176 305.318 390.461 306.152 388.844 306.967C388.442 307.171 387.901 307.442 387.143 307.573C386.786 307.635 386.464 307.65 386.189 307.658C386.184 307.817 386.146 307.989 386.049 308.167C385.765 308.688 385.174 308.937 384.282 308.877C383.302 308.826 382.494 308.639 381.781 308.475C381.159 308.332 380.623 308.211 380.203 308.239C379.422 308.302 378.821 308.927 378.115 309.737L376.353 311.797H376.353L376.353 311.797V311.797Z" fill="#F2F2F2"/>
<path d="M378.136 291.366L374.914 292.608L374.618 292.504C373.249 292.023 372.007 291.921 370.928 292.199C370.756 292.243 370.587 292.296 370.414 292.35C369.73 292.563 368.88 292.829 367.759 292.643C367.134 292.538 365.654 292.171 365.535 291.066C365.5 290.77 365.575 290.519 365.686 290.314C365.641 290.3 365.596 290.286 365.547 290.27C364.956 290.072 364.671 289.866 364.396 289.669C364.185 289.517 363.967 289.36 363.494 289.148C363.286 289.055 363.108 288.987 362.957 288.93C362.502 288.755 361.951 288.516 361.793 287.881C361.648 287.196 362.114 286.695 362.423 286.363C362.973 285.771 363.4 285.456 363.682 285.248C363.786 285.172 363.902 285.086 363.935 285.049C364.198 284.747 363.434 283.054 363.15 282.415C362.507 280.981 361.95 279.74 362.756 278.958C363.332 278.397 364.301 278.447 365.714 279.113C366.153 279.321 366.512 279.57 366.801 279.799C366.88 279.526 367.041 279.257 367.358 279.082C368.11 278.67 369.097 279.15 370.296 280.508C370.595 280.845 370.995 281.299 371.314 281.999C371.464 282.329 371.56 282.636 371.638 282.9C371.793 282.866 371.969 282.858 372.165 282.907C372.742 283.049 373.133 283.558 373.301 284.436C373.5 285.398 373.524 286.226 373.546 286.957C373.566 287.595 373.585 288.144 373.719 288.544C373.978 289.283 374.734 289.707 375.697 290.184L378.136 291.366L378.136 291.366H378.136V291.366Z" fill="#F2F2F2"/>
<path d="M376.353 281.257L375.969 277.825L376.144 277.565C376.957 276.362 377.371 275.187 377.376 274.072C377.377 273.895 377.369 273.718 377.36 273.537C377.327 272.821 377.286 271.932 377.75 270.894C378.01 270.316 378.74 268.977 379.839 269.143C380.135 269.184 380.358 269.32 380.528 269.479C380.553 269.44 380.579 269.4 380.606 269.357C380.948 268.835 381.219 268.611 381.48 268.396C381.68 268.23 381.887 268.059 382.212 267.655C382.355 267.478 382.466 267.322 382.559 267.191C382.843 266.795 383.215 266.323 383.869 266.331C384.568 266.364 384.934 266.943 385.177 267.325C385.61 268.008 385.807 268.5 385.937 268.826C385.984 268.946 386.038 269.08 386.065 269.121C386.29 269.453 388.122 269.143 388.812 269.03C390.362 268.772 391.703 268.548 392.256 269.526C392.652 270.225 392.358 271.149 391.355 272.347C391.043 272.72 390.711 273.004 390.416 273.226C390.66 273.371 390.879 273.595 390.968 273.946C391.176 274.778 390.461 275.612 388.844 276.427C388.442 276.631 387.901 276.902 387.143 277.033C386.786 277.095 386.464 277.11 386.189 277.118C386.184 277.277 386.146 277.449 386.049 277.626C385.765 278.148 385.174 278.397 384.282 278.337C383.302 278.286 382.494 278.099 381.781 277.935C381.159 277.792 380.623 277.671 380.203 277.699C379.422 277.762 378.821 278.387 378.115 279.197L376.353 281.257H376.353L376.353 281.257Z" fill="#F2F2F2"/>
<path d="M379.864 347.865L379.145 347.415L378.971 346.585L379.145 347.415L378.306 347.511C378.293 347.433 378.248 347.254 378.179 346.974C377.804 345.44 376.659 340.77 375.705 333.417C375.039 328.284 374.662 323.006 374.584 317.729C374.506 312.444 374.757 308.442 374.957 305.226C375.109 302.8 375.293 300.49 375.473 298.24C375.954 292.229 376.407 286.551 376.07 280.264C375.995 278.861 375.839 275.94 374.132 272.831C373.142 271.029 371.779 269.428 370.079 268.076L371.136 266.747C373.012 268.242 374.521 270.015 375.62 272.016C377.512 275.463 377.683 278.645 377.765 280.175C378.108 286.572 377.649 292.305 377.164 298.375C376.985 300.616 376.801 302.916 376.65 305.332C376.452 308.518 376.204 312.485 376.281 317.703C376.357 322.917 376.73 328.13 377.387 333.198C378.33 340.459 379.457 345.059 379.827 346.57C380.024 347.377 380.066 347.546 379.864 347.865V347.865H379.864Z" fill="#F2F2F2"/>
<path d="M366.967 270.772C366.898 270.772 366.827 270.77 366.756 270.765C365.311 270.687 363.973 269.822 362.779 268.195C362.219 267.43 361.932 266.556 361.361 264.815C361.272 264.547 360.841 263.185 360.579 261.311C360.408 260.086 360.43 259.574 360.672 259.122C360.941 258.618 361.377 258.267 361.868 258.03C361.846 257.868 361.863 257.7 361.934 257.53C362.223 256.822 362.992 256.915 363.408 256.96C363.618 256.986 363.881 257.021 364.164 257.006C364.61 256.984 364.849 256.852 365.212 256.653C365.559 256.462 365.991 256.226 366.631 256.095C367.893 255.831 368.951 256.189 369.3 256.307C371.135 256.918 372.04 258.345 373.087 259.997C373.295 260.328 374.012 261.534 374.485 263.188C374.826 264.381 374.778 264.911 374.675 265.305C374.467 266.116 373.974 266.58 372.722 267.604C371.415 268.676 370.759 269.213 370.195 269.539C368.884 270.296 368.061 270.772 366.967 270.772V270.772H366.967H366.967Z" fill="#F2F2F2"/>
<path d="M437.536 484.046C437.536 484.273 437.718 484.455 437.945 484.455H522.935C523.162 484.455 523.344 484.273 523.344 484.046C523.344 483.936 523.303 483.839 523.234 483.767H492.399C491.742 483.767 491.099 483.723 490.467 483.637H437.945C437.718 483.637 437.536 483.819 437.536 484.046Z" fill="#3F3D56"/>
<path d="M396.474 411.683H443.789C451.805 411.683 458.303 418.181 458.303 426.198V464.155C458.303 472.171 451.805 478.67 443.789 478.67H396.474C388.459 478.67 381.961 472.171 381.961 464.155V426.198C381.961 418.181 388.459 411.683 396.474 411.683Z" fill="white"/>
<path d="M381.617 464.155V426.198C381.617 418.005 388.282 411.339 396.474 411.339H443.789C451.981 411.339 458.646 418.005 458.646 426.198V464.155C458.646 472.348 451.981 479.013 443.789 479.013H396.474C388.282 479.013 381.617 472.348 381.617 464.155ZM396.474 412.026C388.661 412.026 382.304 418.383 382.304 426.198V464.155C382.304 471.969 388.661 478.326 396.474 478.326H443.789C451.602 478.326 457.959 471.969 457.959 464.155V426.198C457.959 418.383 451.602 412.026 443.789 412.026H396.474Z" fill="#3F3D56"/>
<path d="M414.164 428.302H424.762L413.76 460.901C413.528 461.588 412.884 462.05 412.159 462.051H403.912C402.98 462.051 402.225 461.295 402.225 460.364C402.225 460.18 402.254 459.998 402.313 459.824L412.563 429.452C412.795 428.764 413.439 428.302 414.164 428.302V428.302L414.164 428.302H414.164Z" fill="url(#paint0_linear_122_3059)"/>
<path d="M429.564 450.167H412.759C412.329 450.167 411.98 450.514 411.98 450.944C411.98 451.16 412.069 451.367 412.227 451.514L423.026 461.594C423.341 461.887 423.755 462.05 424.185 462.05H433.7L429.564 450.167Z" fill="#0078D4"/>
<path d="M414.164 428.302C413.43 428.299 412.78 428.774 412.559 429.474L402.326 459.796C402.011 460.672 402.467 461.637 403.343 461.951C403.527 462.017 403.721 462.051 403.916 462.05H412.377C413.018 461.936 413.548 461.485 413.765 460.87L415.805 454.855L423.095 461.655C423.4 461.907 423.784 462.047 424.18 462.05H433.66L429.502 450.167L417.381 450.17L424.8 428.302H414.164L414.164 428.302L414.164 428.302Z" fill="url(#paint1_linear_122_3059)"/>
<path d="M427.7 429.45C427.468 428.764 426.825 428.302 426.101 428.302H414.29C415.014 428.302 415.657 428.764 415.889 429.45L426.139 459.823C426.437 460.706 425.963 461.664 425.08 461.962C424.906 462.021 424.724 462.051 424.54 462.051H436.352C437.284 462.05 438.039 461.294 438.039 460.362C438.039 460.179 438.009 459.997 437.95 459.823L427.7 429.45V429.45Z" fill="url(#paint2_linear_122_3059)"/>
<path d="M353.857 327.13H401.172C409.188 327.13 415.686 333.628 415.686 341.645V379.602C415.686 387.618 409.188 394.117 401.172 394.117H353.857C345.842 394.117 339.344 387.618 339.344 379.602V341.645C339.344 333.628 345.842 327.13 353.857 327.13V327.13Z" fill="white"/>
<path d="M339 379.602V341.645C339 333.452 345.665 326.786 353.857 326.786H401.172C409.364 326.786 416.03 333.452 416.03 341.645V379.602C416.03 387.795 409.364 394.46 401.172 394.46H353.857C345.665 394.46 339 387.795 339 379.602ZM353.857 327.474C346.044 327.474 339.687 333.831 339.687 341.645V379.602C339.687 387.416 346.044 393.773 353.857 393.773H401.172C408.986 393.773 415.342 387.416 415.342 379.602V341.645C415.342 333.831 408.986 327.474 401.172 327.474H353.857V327.474Z" fill="#3F3D56"/>
<path d="M368.065 361.204C368.065 361.737 368.123 362.169 368.223 362.486C368.339 362.803 368.483 363.148 368.684 363.523C368.756 363.638 368.785 363.753 368.785 363.854C368.785 363.998 368.699 364.142 368.512 364.287L367.604 364.892C367.474 364.978 367.345 365.021 367.23 365.021C367.085 365.021 366.941 364.949 366.797 364.82C366.596 364.603 366.423 364.373 366.279 364.142C366.135 363.898 365.991 363.624 365.832 363.293C364.709 364.618 363.297 365.28 361.597 365.28C360.387 365.28 359.422 364.935 358.717 364.243C358.011 363.552 357.651 362.63 357.651 361.477C357.651 360.253 358.083 359.259 358.961 358.51C359.84 357.761 361.007 357.386 362.49 357.386C362.98 357.386 363.484 357.429 364.017 357.501C364.55 357.574 365.098 357.689 365.674 357.818V356.767C365.674 355.672 365.443 354.908 364.997 354.462C364.536 354.015 363.758 353.799 362.649 353.799C362.145 353.799 361.626 353.857 361.093 353.987C360.56 354.116 360.042 354.275 359.538 354.476C359.307 354.577 359.134 354.635 359.033 354.664C358.933 354.692 358.861 354.707 358.803 354.707C358.601 354.707 358.5 354.563 358.5 354.26V353.554C358.5 353.324 358.529 353.151 358.601 353.05C358.673 352.949 358.803 352.848 359.005 352.748C359.509 352.488 360.114 352.272 360.82 352.099C361.525 351.912 362.274 351.826 363.067 351.826C364.781 351.826 366.034 352.215 366.841 352.993C367.633 353.77 368.036 354.952 368.036 356.536V361.204H368.065L368.065 361.204L368.065 361.204ZM362.217 363.393C362.692 363.393 363.182 363.307 363.7 363.134C364.219 362.961 364.68 362.644 365.069 362.212C365.299 361.938 365.472 361.636 365.559 361.29C365.645 360.944 365.703 360.527 365.703 360.037V359.432C365.285 359.331 364.838 359.245 364.377 359.187C363.917 359.129 363.47 359.101 363.023 359.101C362.058 359.101 361.353 359.288 360.877 359.677C360.402 360.066 360.171 360.613 360.171 361.333C360.171 362.01 360.344 362.515 360.704 362.86C361.05 363.22 361.554 363.393 362.217 363.393L362.217 363.393H362.217ZM373.784 364.949C373.524 364.949 373.351 364.906 373.236 364.805C373.121 364.719 373.02 364.517 372.934 364.243L369.549 353.108C369.462 352.82 369.419 352.632 369.419 352.532C369.419 352.301 369.534 352.171 369.765 352.171H371.176C371.45 352.171 371.637 352.215 371.738 352.315C371.853 352.402 371.94 352.604 372.026 352.877L374.446 362.414L376.693 352.877C376.765 352.589 376.852 352.402 376.967 352.315C377.082 352.229 377.284 352.171 377.543 352.171H378.695C378.969 352.171 379.156 352.215 379.272 352.315C379.387 352.402 379.488 352.604 379.545 352.877L381.821 362.529L384.313 352.877C384.4 352.589 384.5 352.402 384.601 352.315C384.716 352.229 384.904 352.171 385.163 352.171H386.503C386.733 352.171 386.863 352.287 386.863 352.532C386.863 352.604 386.848 352.676 386.834 352.762C386.819 352.848 386.791 352.964 386.733 353.122L383.262 364.258C383.175 364.546 383.074 364.733 382.959 364.82C382.844 364.906 382.657 364.964 382.412 364.964H381.173C380.899 364.964 380.712 364.92 380.597 364.82C380.482 364.719 380.381 364.531 380.323 364.243L378.09 354.952L375.872 364.229C375.8 364.517 375.714 364.704 375.598 364.805C375.483 364.906 375.282 364.949 375.022 364.949H373.784L373.784 364.949H373.784ZM392.293 365.338C391.544 365.338 390.795 365.252 390.075 365.079C389.355 364.906 388.793 364.719 388.418 364.503C388.188 364.373 388.029 364.229 387.972 364.099C387.914 363.97 387.885 363.826 387.885 363.696V362.961C387.885 362.659 388.001 362.515 388.217 362.515C388.303 362.515 388.39 362.529 388.476 362.558C388.562 362.587 388.692 362.644 388.836 362.702C389.326 362.918 389.859 363.091 390.421 363.206C390.997 363.321 391.559 363.379 392.135 363.379C393.042 363.379 393.748 363.22 394.238 362.904C394.728 362.587 394.987 362.126 394.987 361.535C394.987 361.132 394.857 360.8 394.598 360.527C394.339 360.253 393.849 360.008 393.143 359.778L391.054 359.129C390.003 358.798 389.225 358.308 388.75 357.66C388.274 357.026 388.029 356.32 388.029 355.571C388.029 354.966 388.159 354.433 388.418 353.972C388.678 353.511 389.023 353.108 389.456 352.791C389.888 352.46 390.377 352.215 390.954 352.042C391.53 351.869 392.135 351.797 392.769 351.797C393.085 351.797 393.417 351.811 393.734 351.855C394.065 351.898 394.367 351.955 394.67 352.013C394.958 352.085 395.232 352.157 395.491 352.243C395.75 352.33 395.952 352.416 396.096 352.503C396.298 352.618 396.442 352.733 396.528 352.863C396.614 352.978 396.658 353.137 396.658 353.338V354.015C396.658 354.318 396.542 354.476 396.326 354.476C396.211 354.476 396.024 354.419 395.779 354.303C394.958 353.929 394.036 353.742 393.013 353.742C392.192 353.742 391.544 353.871 391.098 354.145C390.651 354.419 390.421 354.836 390.421 355.427C390.421 355.83 390.565 356.176 390.853 356.45C391.141 356.724 391.674 356.997 392.437 357.242L394.483 357.89C395.52 358.222 396.269 358.683 396.715 359.273C397.162 359.864 397.378 360.541 397.378 361.29C397.378 361.91 397.248 362.471 397.003 362.961C396.744 363.451 396.398 363.883 395.952 364.229C395.505 364.589 394.972 364.848 394.353 365.036C393.705 365.237 393.028 365.338 392.293 365.338H392.293L392.293 365.338Z" fill="#252F3E"/>
<path fill-rule="evenodd" clip-rule="evenodd" d="M395.016 372.339C390.277 375.84 383.391 377.698 377.471 377.698C369.174 377.698 361.698 374.63 356.052 369.53C355.605 369.127 356.009 368.579 356.541 368.896C362.649 372.44 370.182 374.587 377.975 374.587C383.233 374.587 389.009 373.492 394.324 371.245C395.116 370.884 395.793 371.763 395.016 372.339L395.016 372.339Z" fill="#FF9900"/>
<path fill-rule="evenodd" clip-rule="evenodd" d="M396.989 370.092C396.384 369.314 392.985 369.717 391.443 369.905C390.982 369.962 390.91 369.559 391.328 369.256C394.036 367.355 398.487 367.902 399.006 368.536C399.524 369.184 398.862 373.636 396.326 375.768C395.937 376.099 395.563 375.926 395.736 375.494C396.312 374.068 397.594 370.855 396.989 370.092H396.989H396.989Z" fill="#FF9900"/>
<path d="M486.245 352.408C485.901 352.065 483.152 344.847 483.152 344.847L476.622 344.503L473.634 351.548L486.245 352.408Z" fill="#FFB6B6"/>
<path d="M476.98 347.828C481.835 347.828 485.77 343.893 485.77 339.038C485.77 334.183 481.835 330.247 476.98 330.247C472.126 330.247 468.191 334.183 468.191 339.038C468.191 343.893 472.126 347.828 476.98 347.828Z" fill="#FFB6B6"/>
<path d="M493.634 400.013L496.727 410.324L488.479 470.13H482.894L479.887 425.104L476.45 440.571L493.978 462.912L489.51 468.068L464.249 443.492L464.764 405.512L466.827 399.669L493.634 400.013Z" fill="#2F2E41" fill-opacity="0.4"/>
<path d="M484.35 346.259L483.663 346.292C483.663 346.292 483.049 340.817 482.689 340.49C482.329 340.164 481.676 340.884 481.676 340.884C481.676 340.884 478.845 339.303 478.761 337.587C478.676 335.87 478.609 334.497 477.579 334.548C476.549 334.598 470.781 336.259 469.408 336.327C468.035 336.394 465.857 334.093 468.158 331.915C470.46 329.736 472.486 328.948 472.812 328.588C473.138 328.228 475.287 326.746 477.164 328.03C479.042 329.314 481.444 329.195 481.444 329.195C481.444 329.195 485.958 330.005 485.373 332.099C484.787 334.193 487.05 338.211 486.122 340.321C485.193 342.432 484.35 346.259 484.35 346.259L484.35 346.259Z" fill="#2F2E41" fill-opacity="0.4"/>
<path d="M482.636 469.099L488.822 469.786L489.51 481.129C489.51 481.129 489.166 486.628 483.323 485.941C477.481 485.253 479.199 479.754 479.199 479.754L482.636 469.099Z" fill="#2F2E41" fill-opacity="0.4"/>
<path d="M490.713 461.022C490.713 461.022 495.18 458.96 495.868 461.366L497.243 466.178C497.243 466.178 497.243 470.99 497.586 471.333C497.93 471.677 504.46 480.613 498.617 485.425C498.617 485.425 495.524 485.769 493.806 480.957C492.087 476.145 486.932 471.333 486.932 471.333C486.932 471.333 485.933 468.927 487.636 469.099C489.338 469.271 491.744 465.146 491.056 463.772C490.369 462.397 490.713 461.022 490.713 461.022Z" fill="#2F2E41" fill-opacity="0.4"/>
<path d="M433.97 416.117C432.371 415.444 431.933 412.861 432.991 410.347C433.4 409.337 434.045 408.44 434.872 407.731L436.107 404.897L436.063 404.867L439.615 390.712C440.44 387.421 442.714 384.645 445.836 383.317C447.694 382.527 449.456 382.384 449.969 384.277C450.819 387.417 445.28 397.534 441.94 403.226L439.338 409.612C439.408 410.699 439.217 411.788 438.781 412.787C437.723 415.3 435.569 416.791 433.97 416.117V416.117Z" fill="#FFB6B6"/>
<path d="M473.872 350.346L485.214 350.689L496.212 355.501L494.493 384.03C494.493 384.03 496.555 390.56 495.524 391.591C494.493 392.622 495.524 397.245 494.837 397.34C494.149 397.434 494.837 402.406 494.837 402.406C494.837 402.406 485.214 399.153 476.965 401.215C468.717 403.277 465.967 399.84 465.967 399.84C465.967 399.84 463.905 391.591 463.905 389.873V354.73L473.872 350.346Z" fill="#6C63FF"/>
<path d="M465.796 354.643C465.796 354.643 460.984 353.268 458.578 356.705C456.172 360.142 454.798 360.142 454.798 364.61C454.798 364.61 440.707 384.546 441.394 386.608L438.129 391.935L446.377 396.404C446.377 396.404 449.299 393.482 449.299 390.732C449.299 387.983 457.547 380.421 457.547 380.421C457.547 380.421 464.764 371.141 465.108 367.704C465.452 364.267 465.796 354.643 465.796 354.643Z" fill="#6C63FF"/>
<path d="M508.172 417.869H555.486C563.502 417.869 570 424.368 570 432.384V470.341C570 478.358 563.502 484.856 555.486 484.856H508.172C500.156 484.856 493.658 478.358 493.658 470.341V432.384C493.658 424.368 500.156 417.869 508.172 417.869Z" fill="white"/>
<path d="M492.97 469.997V432.04C492.97 423.847 499.636 417.182 507.828 417.182H555.143C563.335 417.182 570 423.847 570 432.04V469.997C570 478.19 563.335 484.856 555.143 484.856H507.828C499.636 484.856 492.97 478.19 492.97 469.997ZM507.828 417.869C500.014 417.869 493.658 424.226 493.658 432.04V469.997C493.658 477.811 500.014 484.168 507.828 484.168H555.143C562.956 484.168 569.313 477.811 569.313 469.997V432.04C569.313 424.226 562.956 417.869 555.143 417.869H507.828Z" fill="#3F3D56"/>
<path d="M537.852 444.407H539.019L542.347 441.079L542.51 439.666C536.317 434.2 526.866 434.789 521.4 440.983C519.881 442.703 518.779 444.75 518.178 446.964C518.549 446.812 518.96 446.788 519.346 446.894L526.001 445.797C526.001 445.797 526.34 445.236 526.515 445.271C529.475 442.02 534.457 441.641 537.875 444.407H537.852V444.407Z" fill="#EA4335"/>
<path d="M547.087 446.964C546.322 444.147 544.752 441.615 542.569 439.678L537.898 444.348C539.87 445.96 540.994 448.387 540.946 450.934V451.763C543.241 451.763 545.102 453.624 545.102 455.92C545.102 458.216 543.241 460.077 540.946 460.077H532.633L531.804 460.917V465.903L532.633 466.732H540.946C546.917 466.779 551.795 461.976 551.841 456.004C551.869 452.385 550.085 448.992 547.087 446.964V446.964Z" fill="#4285F4"/>
<path d="M524.308 466.685H532.621V460.03H524.308C523.716 460.03 523.13 459.902 522.592 459.656L521.424 460.018L518.073 463.346L517.781 464.514C519.66 465.933 521.953 466.696 524.308 466.685Z" fill="#34A853"/>
<path d="M524.308 445.096C518.337 445.131 513.526 450.001 513.561 455.973C513.581 459.307 515.138 462.446 517.781 464.479L522.603 459.656C520.511 458.711 519.582 456.249 520.527 454.157C521.472 452.065 523.934 451.135 526.026 452.08C526.948 452.497 527.686 453.235 528.103 454.157L532.925 449.334C530.873 446.652 527.685 445.084 524.308 445.096L524.308 445.096Z" fill="#FBBC05"/>
<path d="M503.114 423.894C504.846 423.803 506.135 421.523 505.992 418.799C505.95 417.71 505.648 416.647 505.111 415.699L504.911 412.615L504.962 412.602L506.425 398.082C506.766 394.705 505.569 391.322 503.083 389.013C501.604 387.639 499.994 386.907 498.87 388.513C497.004 391.179 498.781 402.576 499.991 409.063L500.272 415.953C499.836 416.952 499.647 418.041 499.719 419.129C499.861 421.852 501.381 423.985 503.114 423.894Z" fill="#FFB6B6"/>
<path d="M494.039 355.267C494.039 355.267 499.032 355.606 500.128 359.656C501.225 363.706 502.518 364.172 501.002 368.376C501.002 368.376 507.491 391.91 506.145 393.617L507.408 399.736L498.133 401.14C498.133 401.14 496.376 397.4 497.309 394.814C498.242 392.227 493.05 382.315 493.05 382.315C493.05 382.315 489.41 371.136 490.253 367.786C491.096 364.436 494.039 355.267 494.039 355.267V355.267Z" fill="#6C63FF"/>
</g>
<defs>
<linearGradient id="paint0_linear_122_3059" x1="418.026" y1="430.803" x2="407.019" y2="463.32" gradientUnits="userSpaceOnUse">
<stop stop-color="#114A8B"/>
<stop offset="1" stop-color="#0669BC"/>
</linearGradient>
<linearGradient id="paint1_linear_122_3059" x1="421.464" y1="445.956" x2="418.918" y2="446.817" gradientUnits="userSpaceOnUse">
<stop stop-opacity="0.3"/>
<stop offset="0.071" stop-opacity="0.2"/>
<stop offset="0.321" stop-opacity="0.1"/>
<stop offset="0.623" stop-opacity="0.05"/>
<stop offset="1" stop-opacity="0"/>
</linearGradient>
<linearGradient id="paint2_linear_122_3059" x1="420.143" y1="429.825" x2="432.227" y2="462.013" gradientUnits="userSpaceOnUse">
<stop stop-color="#3CCBF4"/>
<stop offset="1" stop-color="#2892DF"/>
</linearGradient>
<clipPath id="clip0_122_3059">
<rect width="231" height="230" fill="white" transform="translate(339 256)"/>
</clipPath>
</defs>
</svg>
