<svg width="14" height="10" viewBox="0 0 14 10" fill="none" xmlns="http://www.w3.org/2000/svg">
<path fill-rule="evenodd" clip-rule="evenodd" d="M0 4.99966C0 4.72351 0.223858 4.49966 0.5 4.49966H12.293L9.146 1.35366C8.95049 1.15815 8.95049 0.841164 9.146 0.645655C9.34151 0.450146 9.65849 0.450146 9.854 0.645655L13.854 4.64566C13.948 4.73946 14.0009 4.86683 14.0009 4.99966C14.0009 5.13248 13.948 5.25985 13.854 5.35365L9.854 9.35365C9.65849 9.54916 9.34151 9.54916 9.146 9.35365C8.95049 9.15815 8.95049 8.84116 9.146 8.64565L12.293 5.49966H0.5C0.223858 5.49966 0 5.2758 0 4.99966Z" fill="white"/>
</svg>
