<svg width="80" height="80" viewBox="0 0 80 80" fill="none" xmlns="http://www.w3.org/2000/svg">
<circle cx="40" cy="40" r="40" fill="#EF6C57"/>
<path d="M28.8964 32.9873C29.3761 32.9873 29.765 32.5424 29.765 31.9936C29.765 31.4449 29.3761 31 28.8964 31C28.4167 31 28.0278 31.4449 28.0278 31.9936C28.0278 32.5424 28.4167 32.9873 28.8964 32.9873Z" fill="#E7C4B2"/>
<path opacity="0.2" d="M29.2631 31.0938C29.4172 31.2533 29.516 31.4708 29.5417 31.7066C29.5673 31.9425 29.5182 32.1811 29.4031 32.379C29.288 32.5769 29.1146 32.7209 28.9145 32.7849C28.7144 32.8489 28.5009 32.8287 28.3127 32.7278C28.4052 32.8241 28.5147 32.8965 28.6339 32.9399C28.7531 32.9834 28.879 32.9968 29.0032 32.9793C29.1273 32.9619 29.2467 32.9139 29.3531 32.8388C29.4595 32.7636 29.5505 32.663 29.6198 32.5439C29.6891 32.4248 29.735 32.29 29.7545 32.1486C29.774 32.0073 29.7665 31.8628 29.7327 31.7251C29.6988 31.5874 29.6393 31.4597 29.5583 31.3507C29.4772 31.2417 29.3766 31.1541 29.2631 31.0938Z" fill="black"/>
<path d="M51.2261 34.0644C52.4053 34.0644 53.3613 33.6195 53.3613 33.0708C53.3613 32.522 52.4053 32.0771 51.2261 32.0771C50.0468 32.0771 49.0908 32.522 49.0908 33.0708C49.0908 33.6195 50.0468 34.0644 51.2261 34.0644Z" fill="white"/>
<path opacity="0.2" d="M51.2262 32.0771C51.1529 32.0771 51.0805 32.0788 51.009 32.0822C52.0863 32.1329 52.9271 32.5561 52.9271 33.0708C52.9271 33.5854 52.0863 34.0087 51.009 34.0593C51.0804 34.0627 51.1528 34.0644 51.2262 34.0644C52.4054 34.0644 53.3614 33.6195 53.3614 33.0708C53.3614 32.522 52.4054 32.0771 51.2262 32.0771Z" fill="black"/>
<path d="M54.0128 33.0711H43.3004V31.7456C43.3004 31.6797 43.2775 31.6165 43.2368 31.5699C43.1961 31.5233 43.1408 31.4971 43.0832 31.4971H37.148C37.0904 31.4971 37.0351 31.5233 36.9944 31.5699C36.9537 31.6165 36.9308 31.6797 36.9308 31.7456V33.0711H30.706V32.2427C30.706 32.1767 30.6831 32.1135 30.6424 32.0669C30.6017 32.0203 30.5465 31.9941 30.4889 31.9941H27.3041C27.2465 31.9941 27.1913 32.0203 27.1505 32.0669C27.1098 32.1135 27.0869 32.1767 27.0869 32.2427V33.0711H26.2184C26.1898 33.071 26.1616 33.0774 26.1352 33.0899C26.1089 33.1024 26.0849 33.1207 26.0647 33.1438C26.0446 33.1669 26.0286 33.1943 26.0177 33.2244C26.0068 33.2546 26.0012 33.287 26.0012 33.3196V49.6395C26.0012 49.6722 26.0068 49.7045 26.0177 49.7347C26.0286 49.7649 26.0446 49.7923 26.0647 49.8154C26.0849 49.8385 26.1089 49.8568 26.1352 49.8692C26.1616 49.8817 26.1898 49.8881 26.2184 49.8881H54.0128C54.0414 49.8881 54.0696 49.8817 54.096 49.8692C54.1224 49.8568 54.1463 49.8385 54.1665 49.8154C54.1867 49.7923 54.2026 49.7649 54.2135 49.7347C54.2244 49.7045 54.23 49.6722 54.23 49.6395V33.3196C54.23 33.287 54.2244 33.2546 54.2135 33.2244C54.2026 33.1943 54.1867 33.1669 54.1665 33.1438C54.1463 33.1207 54.1224 33.1024 54.096 33.0899C54.0696 33.0774 54.0414 33.071 54.0128 33.0711Z" fill="white"/>
<path opacity="0.2" d="M54.0116 48.6713H26.2171C26.1886 48.6713 26.1604 48.6649 26.134 48.6524C26.1076 48.64 26.0837 48.6217 26.0635 48.5986C26.0433 48.5755 26.0274 48.5481 26.0165 48.518C26.0056 48.4878 26 48.4555 26 48.4229V49.5821C26 49.6147 26.0056 49.647 26.0165 49.6772C26.0274 49.7074 26.0433 49.7348 26.0635 49.7578C26.0837 49.7809 26.1076 49.7992 26.134 49.8117C26.1604 49.8241 26.1886 49.8305 26.2171 49.8305H54.0116C54.0402 49.8305 54.0684 49.8241 54.0948 49.8117C54.1211 49.7992 54.1451 49.7809 54.1653 49.7578C54.1854 49.7348 54.2014 49.7074 54.2123 49.6772C54.2232 49.647 54.2288 49.6147 54.2288 49.5821V48.4229C54.2288 48.4555 54.2232 48.4878 54.2123 48.518C54.2014 48.5481 54.1854 48.5755 54.1653 48.5986C54.1451 48.6217 54.1211 48.64 54.0948 48.6524C54.0684 48.6649 54.0402 48.6713 54.0116 48.6713Z" fill="black"/>
<path opacity="0.2" d="M54.23 40.6924H26.0012V43.8399H54.23V40.6924Z" fill="black"/>
<path opacity="0.2" d="M54.23 39.1182H26.0012V42.2657H54.23V39.1182Z" fill="black"/>
<path d="M54.23 39.8643H26.0012V43.0118H54.23V39.8643Z" fill="#E7C4B2"/>
<path d="M40.1157 47.7336C43.1539 47.7336 45.6167 44.9148 45.6167 41.4376C45.6167 37.9604 43.1539 35.1416 40.1157 35.1416C37.0776 35.1416 34.6147 37.9604 34.6147 41.4376C34.6147 44.9148 37.0776 47.7336 40.1157 47.7336Z" fill="#E7C4B2"/>
<path opacity="0.2" d="M44.3527 37.4229C45.0525 38.7874 45.2777 40.4035 44.9835 41.9495C44.6893 43.4955 43.8972 44.858 42.765 45.7659C41.6328 46.6737 40.2434 47.0604 38.8733 46.8488C37.5033 46.6372 36.2531 45.843 35.3716 44.6242C35.756 45.374 36.272 46.0246 36.887 46.5349C37.502 47.0452 38.2027 47.4042 38.9449 47.5893C39.6871 47.7743 40.4547 47.7814 41.1994 47.6102C41.9442 47.4389 42.6498 47.0929 43.272 46.5941C43.8941 46.0952 44.4192 45.4543 44.8142 44.7117C45.2092 43.9691 45.4656 43.1409 45.5671 42.2793C45.6687 41.4177 45.6132 40.5414 45.4042 39.7056C45.1952 38.8697 44.8372 38.0925 44.3527 37.4229Z" fill="black"/>
<path d="M40.1157 46.1237C42.3767 46.1237 44.2095 44.026 44.2095 41.4383C44.2095 38.8507 42.3767 36.7529 40.1157 36.7529C37.8548 36.7529 36.022 38.8507 36.022 41.4383C36.022 44.026 37.8548 46.1237 40.1157 46.1237Z" fill="white"/>
<path d="M43.3005 41.4381C43.3012 41.9329 43.2132 42.4227 43.0421 42.8771C42.9505 43.1222 42.8352 43.3548 42.6983 43.5705C42.4286 43.9988 42.0807 44.355 41.6788 44.6143C41.2769 44.8736 40.8306 45.0299 40.3707 45.0723C39.9108 45.1147 39.4484 45.0423 39.0154 44.86C38.5824 44.6777 38.1892 44.3899 37.8629 44.0165C37.5367 43.6431 37.2853 43.1931 37.126 42.6975C36.9667 42.2019 36.9034 41.6727 36.9405 41.1463C36.9775 40.62 37.1141 40.1092 37.3406 39.6492C37.5672 39.1892 37.8784 38.7911 38.2527 38.4823C38.4411 38.3257 38.6444 38.1937 38.8585 38.0888C39.343 37.8507 39.8715 37.7539 40.3967 37.8072C40.9219 37.8605 41.4274 38.0622 41.8677 38.3942C42.308 38.7262 42.6694 39.1781 42.9195 39.7094C43.1696 40.2406 43.3005 40.8347 43.3005 41.4381Z" fill="white"/>
<path opacity="0.2" d="M43.2665 40.907C43.1478 39.9802 42.7213 39.1415 42.076 38.5654C42.3556 39.0666 42.5239 39.6385 42.5662 40.2311C42.6084 40.8238 42.5233 41.4193 42.3183 41.9657C42.2267 42.2108 42.1113 42.4434 41.9745 42.6591C41.7239 43.057 41.4057 43.3928 41.039 43.6466C40.6722 43.9003 40.2645 44.0666 39.8403 44.1356C39.416 44.2046 38.9839 44.1748 38.57 44.0481C38.156 43.9213 37.7686 43.7002 37.4312 43.3979C37.7105 43.8997 38.0929 44.3156 38.545 44.6091C38.9971 44.9027 39.5052 45.0651 40.0248 45.0821C40.5444 45.0991 41.0597 44.9702 41.5258 44.7067C41.9918 44.4432 42.3944 44.0531 42.6983 43.5704C42.8351 43.3547 42.9505 43.1221 43.0421 42.877C43.2748 42.2568 43.3524 41.5748 43.2665 40.907V40.907Z" fill="black"/>
</svg>
