<svg width="48" height="48" viewBox="0 0 48 48" fill="none" xmlns="http://www.w3.org/2000/svg">
<circle cx="24" cy="24" r="24" fill="#EF6D58"/>
<path d="M30.1151 16.8697L18.1223 16.5016C17.8123 16.477 17.5051 16.5763 17.2685 16.7778C17.0318 16.9792 16.885 17.2661 16.8604 17.5755L16.86 17.5807L16.4902 29.5754C16.4886 29.8984 16.611 30.2097 16.8324 30.4453C17.0537 30.6809 17.3571 30.8228 17.6802 30.842L29.6695 31.2099C29.9854 31.2073 30.2875 31.0805 30.5103 30.8571C30.7332 30.6337 30.8589 30.3317 30.8602 30.0165L31.23 18.0218C31.2439 17.7304 31.1412 17.4454 30.9446 17.2296C30.748 17.0137 30.4735 16.8847 30.1815 16.8708C30.1594 16.8698 30.1373 16.8694 30.1151 16.8697ZM20.9803 28.554L18.9217 28.4908L19.1186 22.1033L21.1772 22.1665L20.9803 28.554ZM20.249 21.1659L20.2343 21.1654C19.9382 21.1544 19.6585 21.0268 19.4565 20.8104C19.2546 20.594 19.1468 20.3065 19.1569 20.011C19.1669 19.7154 19.2939 19.4359 19.5101 19.2336C19.7263 19.0314 20.014 18.9229 20.3102 18.9319C20.6064 18.941 20.8869 19.0668 21.0903 19.2819C21.2936 19.497 21.4033 19.7837 21.3952 20.0793C21.3871 20.3749 21.2619 20.6553 21.0471 20.8589C20.8322 21.0626 20.5453 21.173 20.249 21.1659ZM28.504 28.785L26.4453 28.7218L26.553 25.2292C26.5789 24.3924 26.2969 23.8116 25.5521 23.7887C25.3191 23.7834 25.0901 23.8504 24.8969 23.9804C24.7036 24.1104 24.5555 24.2971 24.4731 24.5146C24.4132 24.6752 24.3838 24.8456 24.3863 25.0169L24.2741 28.6551L22.2155 28.592L22.4124 22.2044L24.4711 22.2676L24.4436 23.1565C24.6411 22.8387 24.9206 22.5799 25.253 22.4072C25.5853 22.2345 25.9581 22.1543 26.3322 22.1751C27.6836 22.2165 28.6784 23.1368 28.6193 25.0533L28.504 28.785Z" fill="white"/>
</svg>
