<svg width="14" height="10" viewBox="0 0 14 10" fill="none" xmlns="http://www.w3.org/2000/svg">
<path fill-rule="evenodd" clip-rule="evenodd" d="M13.9999 4.99967C13.9999 4.72352 13.7761 4.49967 13.4999 4.49967H1.70692L4.85392 1.35367C4.98039 1.22719 5.02978 1.04286 4.98349 0.870093C4.9372 0.697329 4.80225 0.562385 4.62949 0.516093C4.45673 0.469801 4.27239 0.519194 4.14592 0.645666L0.145917 4.64567C0.0518755 4.73947 -0.000976562 4.86684 -0.000976562 4.99967C-0.000976563 5.13249 0.0518755 5.25986 0.145917 5.35367L4.14592 9.35367C4.27239 9.48014 4.45673 9.52953 4.62949 9.48324C4.80225 9.43695 4.9372 9.302 4.98349 9.12924C5.02978 8.95648 4.98039 8.77214 4.85392 8.64567L1.70692 5.49967H13.4999C13.7761 5.49967 13.9999 5.27581 13.9999 4.99967Z" fill="white"/>
</svg>
