<svg width="450" height="432" viewBox="0 0 450 432" fill="none" xmlns="http://www.w3.org/2000/svg">
<ellipse cx="231.872" cy="273" rx="160.631" ry="159" fill="#F38472"/>
<path fill-rule="evenodd" clip-rule="evenodd" d="M176.549 208.819C184.393 203.815 192.236 198.812 200.136 193.896C200.837 193.458 201.386 194.578 200.715 195.021L200.565 195.12C197.706 197.003 194.851 198.884 191.976 200.741C181.688 207.376 171.401 214.012 161.115 220.65C160.807 220.797 160.44 220.75 160.18 220.53C159.92 220.31 159.816 219.959 159.916 219.635C160.673 218.015 161.419 216.389 162.165 214.764C163.005 212.932 163.846 211.1 164.702 209.276C170.086 197.812 175.469 186.349 180.851 174.886C181.657 174.543 182.465 174.203 183.274 173.866L181.881 172.691C181.538 173.422 181.194 174.154 180.851 174.886C178.894 175.717 176.944 176.562 175.001 177.422C165.343 181.7 155.875 186.344 146.597 191.352C146.169 191.553 145.658 191.453 145.339 191.106C145.021 190.758 144.971 190.245 145.216 189.843L150.199 180.87C155.618 171.179 161.037 161.49 166.456 151.803C167.31 151.525 168.165 151.251 169.021 150.982L167.856 149.3C167.389 150.134 166.923 150.969 166.456 151.803C164.657 152.389 162.865 152.993 161.078 153.618C151.855 156.85 142.806 160.555 133.97 164.716C133.501 164.937 132.941 164.828 132.593 164.447C132.244 164.067 132.189 163.505 132.458 163.065C137.32 155.094 142.181 147.123 147.041 139.152C148.148 138.747 149.251 138.328 150.348 137.894L148.824 136.227C148.229 137.202 147.635 138.177 147.041 139.152C141.412 141.206 135.648 142.879 129.788 144.158C129.322 144.243 128.85 144.048 128.583 143.662C128.315 143.277 128.302 142.771 128.549 142.371C131.708 138.476 134.415 134.246 136.623 129.76C137.212 129.79 137.801 129.82 138.39 129.849L137.32 128.298C137.094 128.788 136.861 129.276 136.623 129.76C134.153 129.636 131.684 129.513 129.215 129.391L127.017 129.285C126.397 129.32 125.774 129.278 125.164 129.159C124.52 128.774 123.98 128.239 123.591 127.601L122.38 126.17C120.72 124.193 119.104 122.18 117.533 120.13C115.502 117.473 113.541 114.77 111.651 112.02C111.697 112.593 111.74 113.166 111.784 113.739C111.817 114.181 111.851 114.622 111.885 115.063C111.898 115.227 111.908 115.391 111.919 115.555C111.942 115.907 111.966 116.259 112.003 116.609C112.123 117.178 112.057 117.765 111.816 118.28C111.66 118.521 111.387 118.657 111.098 118.638C110.809 118.618 110.546 118.447 110.407 118.186C110.134 117.65 110.015 117.052 110.064 116.462L109.965 114.918C109.945 114.591 109.924 114.263 109.902 113.936C109.851 113.148 109.801 112.36 109.756 111.572L109.608 108.989C109.215 108.394 108.825 107.796 108.438 107.196C108.264 106.85 108.262 106.444 108.432 106.096C108.601 105.747 108.924 105.495 109.306 105.413C109.379 105.397 109.452 105.382 109.526 105.368C109.538 105.211 109.552 105.055 109.568 104.899L109.572 104.903C109.569 104.958 109.572 105.015 109.583 105.071C109.592 105.166 109.597 105.26 109.597 105.354C109.732 105.328 109.867 105.304 110.002 105.282L109.572 104.903C109.59 104.616 109.793 104.371 110.083 104.315C110.429 104.248 110.773 104.475 110.86 104.826C110.888 104.937 110.914 105.049 110.939 105.162C113.476 104.924 116.04 105.388 118.341 106.516C118.925 106.892 119.095 107.663 118.722 108.247C118.331 108.812 117.562 108.979 116.969 108.627C115.309 107.85 113.488 107.5 111.672 107.595C111.527 107.373 111.382 107.151 111.237 106.929C111.263 107.159 111.285 107.39 111.302 107.62C111.425 107.61 111.549 107.601 111.672 107.595C116.08 114.311 120.903 120.752 126.114 126.881C125.945 126.872 125.775 126.863 125.605 126.854L126.417 127.236C126.316 127.118 126.215 126.999 126.114 126.881C129.466 127.056 132.82 127.213 136.174 127.369C136.96 127.405 137.746 127.442 138.532 127.479C138.901 127.504 139.239 127.695 139.448 127.997C139.657 128.3 139.713 128.681 139.602 129.03C137.658 133.295 135.276 137.348 132.495 141.126C131.437 141.381 130.376 141.624 129.311 141.853L130.551 143.642C131.219 142.818 131.867 141.979 132.495 141.126C138.206 139.744 143.814 137.971 149.279 135.819C149.753 135.599 150.316 135.71 150.666 136.093C151.017 136.476 151.074 137.041 150.805 137.485C146.008 145.34 141.209 153.196 136.411 161.053C135.24 161.579 134.073 162.113 132.911 162.658L134.422 164.31C135.085 163.225 135.748 162.139 136.411 161.053C137.797 160.431 139.189 159.821 140.585 159.22C149.731 155.285 159.072 151.811 168.573 148.813C169.01 148.738 169.451 148.922 169.702 149.284C169.953 149.646 169.967 150.12 169.739 150.497C168.067 153.481 166.395 156.464 164.721 159.446C159.435 168.905 154.131 178.355 148.81 187.795C147.747 188.35 146.687 188.909 145.63 189.472L147.013 190.981C147.612 189.919 148.211 188.857 148.81 187.795C150.408 186.961 152.011 186.138 153.621 185.324C163.042 180.562 172.627 176.161 182.376 172.121C183.074 171.829 184.167 172.45 183.767 173.294L178.886 183.623C173.508 194.953 168.129 206.281 162.75 217.609C161.946 218.12 161.143 218.631 160.339 219.142L161.54 220.156C161.944 219.307 162.347 218.458 162.75 217.609C164.88 216.254 167.01 214.898 169.14 213.541C171.611 211.969 174.08 210.394 176.549 208.819Z" fill="#FFD5CE"/>
<path fill-rule="evenodd" clip-rule="evenodd" d="M163.415 372.861C158.85 368.467 154.668 363.697 150.915 358.602L150.916 358.602C150.52 358.079 149.545 358.544 149.868 359.159C153.387 365.605 158.014 371.397 163.54 376.269C173.226 385.02 184.755 391.51 197.27 395.255C203.55 397.16 210.022 398.347 216.56 398.792C220.074 398.998 223.591 398.991 227.094 398.773L227.158 398.744C228.713 398.041 230.268 397.343 231.827 396.653C232.553 397.181 233.584 396.641 233.576 395.883C234.204 395.609 234.833 395.336 235.463 395.065L236.104 397.739C233.12 398.241 230.113 398.585 227.094 398.773L223.253 400.517C223.501 400.495 223.749 400.602 223.901 400.81C224.088 401.064 224.086 401.407 223.898 401.656C223.205 402.474 222.451 403.197 221.689 403.928C221.432 404.174 221.174 404.421 220.917 404.674L218.917 402.599C218.429 402.978 218.227 403.642 218.459 404.249C218.739 404.979 219.547 405.366 220.291 405.124C221.721 404.617 223.11 404.002 224.443 403.284L228.399 401.46C231.097 400.22 233.783 398.953 236.457 397.659C237.098 397.406 237.457 396.727 237.304 396.055C237.147 395.379 236.51 394.921 235.816 394.985C235.024 395.138 234.23 395.279 233.434 395.406C233.408 395.363 233.379 395.319 233.346 395.276C232.112 393.651 230.708 392.159 229.157 390.826C228.345 390.143 227.486 389.516 226.587 388.95C225.89 388.376 225.041 388.015 224.141 387.91C223.863 387.938 223.615 388.092 223.467 388.327C223.32 388.562 223.291 388.851 223.388 389.11C223.873 389.829 224.52 390.427 225.28 390.856C225.975 391.374 226.647 391.925 227.321 392.476C227.377 392.522 227.433 392.567 227.489 392.613C228.699 393.598 229.853 394.649 230.946 395.76C225.488 396.442 219.959 396.506 214.465 395.95C201.796 394.729 189.532 390.733 178.559 384.25C173.104 381.023 168.024 377.203 163.415 372.861ZM221.551 401.235C222.035 401.018 222.525 400.813 223.021 400.622L223.253 400.517C223.197 400.522 223.142 400.534 223.088 400.552C222.559 400.76 222.051 400.991 221.551 401.235ZM221.551 401.235C220.647 401.641 219.764 402.092 218.906 402.587L218.917 402.599C219.017 402.522 219.129 402.456 219.252 402.405C219.565 402.247 219.875 402.088 220.183 401.928C220.638 401.693 221.091 401.459 221.551 401.235Z" fill="#FFD5CE"/>
<path fill-rule="evenodd" clip-rule="evenodd" d="M449.077 181C449.077 113.069 393.443 57.9998 324.815 57.9998C256.188 57.9998 200.554 113.069 200.554 181V353.4C200.554 356.76 200.554 358.44 201.208 359.724C201.783 360.853 202.701 361.771 203.83 362.346C205.113 363 206.794 363 210.154 363H439.477C442.837 363 444.517 363 445.801 362.346C446.93 361.771 447.848 360.853 448.423 359.724C449.077 358.44 449.077 356.76 449.077 353.4V181Z" fill="#F7CC47"/>
<mask id="mask0_122_3802" style="mask-type:alpha" maskUnits="userSpaceOnUse" x="200" y="57" width="250" height="306">
<path fill-rule="evenodd" clip-rule="evenodd" d="M449.077 181C449.077 113.069 393.443 57.9998 324.815 57.9998C256.188 57.9998 200.554 113.069 200.554 181V353.4C200.554 356.76 200.554 358.44 201.208 359.724C201.783 360.853 202.701 361.771 203.83 362.346C205.113 363 206.794 363 210.154 363H439.477C442.837 363 444.517 363 445.801 362.346C446.93 361.771 447.848 360.853 448.423 359.724C449.077 358.44 449.077 356.76 449.077 353.4V181Z" fill="white"/>
</mask>
<g mask="url(#mask0_122_3802)">
</g>
<rect x="14.6667" y="216" width="216.195" height="112" rx="6" fill="white"/>
<ellipse cx="54.5718" cy="256.5" rx="22.7308" ry="22.5" fill="#F7CC47"/>
<rect x="98.518" y="243" width="62.6359" height="14" rx="2" fill="#FFE4DF"/>
<rect x="98.518" y="281" width="6.06154" height="29" rx="3" fill="#FFE4DF"/>
<rect x="115.692" y="276" width="6.06154" height="34" rx="3" fill="#FFE4DF"/>
<rect x="133.877" y="272" width="6.06154" height="38" rx="3" fill="#FFE4DF"/>
<rect x="151.051" y="279" width="6.06154" height="31" rx="3" fill="#FFE4DF"/>
<rect x="168.226" y="285" width="6.06154" height="25" rx="3" fill="#FFE4DF"/>
<rect x="186.41" y="281" width="6.06154" height="29" rx="3" fill="#FFE4DF"/>
<rect x="203.585" y="289" width="6.06154" height="21" rx="3" fill="#FFE4DF"/>
<path d="M82.0274 125.051L56.675 155.024L66.0646 117.054L29.5443 131.931L55.685 102.63L16.3632 99.0033L53.2665 85.0828L20.1512 63.7836L59.363 68.4333L40.0406 34.3407L72.5779 56.4954L71.4749 17.4194L89.8839 52.0038L107.253 16.8964L107.316 55.9875L139.179 32.8913L120.882 67.534L159.938 61.7401L127.472 83.998L164.775 96.8337L125.578 101.608L152.582 130.133L115.634 116.329L126.152 154.009L99.9164 124.79L91.5399 162.992L82.0274 125.051Z" fill="#F094E3"/>
<path fill-rule="evenodd" clip-rule="evenodd" d="M98.5179 80.9998C98.5179 85.418 94.8995 88.9998 90.4359 88.9998C85.9723 88.9998 82.3538 85.418 82.3538 80.9998C82.3538 76.5815 85.9723 72.9998 90.4359 72.9998C94.8995 72.9998 98.5179 76.5815 98.5179 80.9998ZM74.2718 102.333C74.2718 105 76.9658 105 76.9658 105H103.906C103.906 105 106.6 105 106.6 102.333C106.6 99.6664 103.906 91.6664 90.4359 91.6664C76.9658 91.6664 74.2718 99.6664 74.2718 102.333Z" fill="white"/>
<g clip-path="url(#clip0_122_3802)">
<path d="M394.98 306.603L394.975 306.709L400.407 363H360.772L355.635 328.428L353.374 362.113L312.672 361.67L316.996 317.444L320.672 296.945V296.94L321.224 293.855H393.899L393.994 294.972L394.98 306.603Z" fill="#2F2E41"/>
<path d="M290.237 339.235C294.435 339.984 298.812 335.351 300.014 328.886C300.54 326.056 300.37 323.344 299.661 321.127L300.305 317.4L311.106 267.266C311.106 267.266 330.995 228.272 330.995 221.503C330.994 214.733 325.241 211.413 325.241 211.413L317.456 211.485L293.043 269.924L288.646 313.108L287.935 319.033C286.473 320.863 285.339 323.342 284.813 326.172C283.611 332.637 286.04 338.485 290.237 339.235Z" fill="#FFB6B6"/>
<path d="M369.428 187.257L362.192 170.857L338.676 174.847L337.093 194.141L369.428 187.257Z" fill="#FFB6B6"/>
<path opacity="0.1" d="M369.428 187.257L362.192 170.857L338.676 174.847L337.093 194.141L369.428 187.257Z" fill="black"/>
<path d="M420.531 221.386C420.531 221.386 403.798 190.803 400.633 187.7C399.224 186.319 397.008 186.3 394.983 186.703L371.689 178.836L363.794 174.488L363.274 182.76L337.354 187.319C337.498 182.275 338.224 180.356 338.224 180.356L328.727 191.246L310.185 200.111L310.195 200.191C308.834 200.656 307.544 201.453 306.567 202.77C302.949 207.646 293 267.04 293 267.04L314.255 271.472L317.148 253.681L319.23 269.699L320.813 299.617C320.813 299.617 349.756 323.995 363.775 315.131C377.795 306.266 394.98 306.709 394.98 306.709L395.409 292.841C395.714 292.363 395.884 292.082 395.884 292.082L395.432 242.89V229.801C398.877 234.505 403.035 238.55 407.869 240.445C423.697 246.651 420.531 221.386 420.531 221.386V221.386Z" fill="#E6E6E6"/>
<path d="M347.976 177.732C359.925 177.732 369.611 168.239 369.611 156.528C369.611 144.818 359.925 135.325 347.976 135.325C336.028 135.325 326.342 144.818 326.342 156.528C326.342 168.239 336.028 177.732 347.976 177.732Z" fill="#FFB6B6"/>
<path d="M363.497 162.521C363.497 162.521 365.378 156.067 369.611 156.528C373.843 156.989 374.784 153.302 373.843 151.458C372.903 149.614 371.022 140.395 371.022 140.395C371.022 140.395 371.962 133.942 366.318 133.02C360.675 132.098 358.793 131.176 357.853 129.332C356.912 127.488 342.803 125.645 338.1 128.41C333.396 131.176 329.634 136.482 326.342 137.978C323.05 139.473 320.228 142.239 322.109 146.848C323.99 151.458 326.719 160.473 326.719 160.473C326.719 160.473 331.515 158.833 332.456 161.599C333.396 164.364 329.634 160.677 334.337 153.302C339.04 145.926 339.04 138.551 346.565 141.317C354.09 144.083 362.556 143.161 361.615 148.692C360.675 154.224 363.497 162.521 363.497 162.521V162.521Z" fill="#2F2E41"/>
<path d="M382.219 179.364C394.389 179.364 404.255 169.898 404.255 158.222C404.255 146.545 394.389 137.08 382.219 137.08C370.049 137.08 360.183 146.545 360.183 158.222C360.183 169.898 370.049 179.364 382.219 179.364Z" fill="#6C63FF"/>
<path d="M389.698 147.558C386.764 152.793 383.83 158.029 380.897 163.264C379.027 160.027 377.167 156.783 375.293 153.548C374.646 152.43 372.885 153.435 373.534 154.556C375.707 158.306 377.857 162.069 380.03 165.819C380.401 166.461 381.421 166.475 381.789 165.819C385.012 160.068 388.234 154.317 391.457 148.565C392.088 147.438 390.33 146.43 389.698 147.558Z" fill="white"/>
<path d="M412.638 213.95L390.683 203.657C390.683 203.657 389.802 196.767 385.684 194.31C384.984 192.673 384.179 190.875 383.448 189.451C381.639 185.927 384.352 179.279 382.091 179.279C379.83 179.279 376.487 186.271 376.664 188.144C376.8 189.581 378.012 192.091 378.262 194.287C375.505 195.306 373.281 197.053 371.818 198.444C370.552 199.648 370.082 201.444 370.577 203.103C372.01 207.911 375.593 217.84 380.734 217.84C387.518 217.84 389.327 216.511 389.327 216.511C389.327 216.511 403.346 233.797 413.748 235.127C424.149 236.456 412.638 213.95 412.638 213.95V213.95Z" fill="#FFB6B6"/>
</g>
<defs>
<clipPath id="clip0_122_3802">
<rect width="231.349" height="236" fill="white" transform="translate(189.441 127)"/>
</clipPath>
</defs>
</svg>
