<svg width="178" height="48" viewBox="0 0 178 48" fill="none" xmlns="http://www.w3.org/2000/svg">
<path d="M72.7443 21.1818C72.6676 20.5341 72.3565 20.0312 71.8111 19.6733C71.2656 19.3153 70.5966 19.1364 69.804 19.1364C69.2244 19.1364 68.7173 19.2301 68.2827 19.4176C67.8523 19.6051 67.5156 19.8629 67.2727 20.1911C67.0341 20.5192 66.9148 20.892 66.9148 21.3097C66.9148 21.6591 66.9979 21.9595 67.1641 22.2109C67.3345 22.4581 67.5518 22.6648 67.8161 22.831C68.0803 22.9929 68.3572 23.1271 68.647 23.2337C68.9368 23.3359 69.2031 23.419 69.446 23.483L70.7756 23.8409C71.1165 23.9304 71.4957 24.054 71.9134 24.2116C72.3352 24.3693 72.7379 24.5845 73.1214 24.8572C73.5092 25.1257 73.8288 25.4709 74.0803 25.8928C74.3317 26.3146 74.4574 26.8324 74.4574 27.446C74.4574 28.1534 74.272 28.7926 73.9013 29.3636C73.5348 29.9347 72.9979 30.3885 72.2905 30.7251C71.5874 31.0618 70.733 31.2301 69.7273 31.2301C68.7898 31.2301 67.978 31.0788 67.2919 30.7763C66.6101 30.4737 66.0732 30.0518 65.6811 29.5107C65.2933 28.9695 65.0739 28.3409 65.0227 27.625H66.6591C66.7017 28.1193 66.8679 28.5284 67.1577 28.8523C67.4517 29.1719 67.8224 29.4105 68.2699 29.5682C68.7216 29.7216 69.2074 29.7983 69.7273 29.7983C70.3324 29.7983 70.8757 29.7003 71.3572 29.5043C71.8388 29.304 72.2202 29.027 72.5014 28.6733C72.7827 28.3153 72.9233 27.8977 72.9233 27.4205C72.9233 26.9858 72.8018 26.6321 72.5589 26.3594C72.3161 26.0866 71.9964 25.8651 71.6001 25.6946C71.2038 25.5241 70.7756 25.375 70.3153 25.2472L68.7045 24.7869C67.6818 24.4929 66.8722 24.0732 66.2756 23.5277C65.679 22.9822 65.3807 22.2685 65.3807 21.3864C65.3807 20.6534 65.5788 20.0142 65.9751 19.4688C66.3757 18.919 66.9126 18.4929 67.5859 18.1903C68.2635 17.8835 69.0199 17.7301 69.8551 17.7301C70.6989 17.7301 71.4489 17.8814 72.1051 18.1839C72.7614 18.4822 73.2813 18.8913 73.6648 19.4112C74.0526 19.9311 74.2571 20.5213 74.2784 21.1818H72.7443ZM80.8478 31.2045C79.9274 31.2045 79.1348 30.9872 78.47 30.5526C77.8052 30.1179 77.2939 29.5192 76.9359 28.7564C76.5779 27.9936 76.399 27.1222 76.399 26.142C76.399 25.1449 76.5822 24.2649 76.9487 23.5021C77.3194 22.7351 77.835 22.1364 78.4956 21.706C79.1603 21.2713 79.9359 21.054 80.8223 21.054C81.5126 21.054 82.1348 21.1818 82.6887 21.4375C83.2427 21.6932 83.6966 22.0511 84.0502 22.5114C84.4039 22.9716 84.6234 23.5085 84.7086 24.1222H83.2001C83.085 23.6747 82.8294 23.2784 82.4331 22.9332C82.041 22.5838 81.5126 22.4091 80.8478 22.4091C80.2598 22.4091 79.7441 22.5625 79.301 22.8693C78.862 23.1719 78.519 23.6001 78.2718 24.1541C78.0289 24.7038 77.9075 25.3494 77.9075 26.0909C77.9075 26.8494 78.0268 27.5099 78.2654 28.0724C78.5083 28.6349 78.8493 29.0717 79.2882 29.3828C79.7314 29.6939 80.2512 29.8494 80.8478 29.8494C81.2399 29.8494 81.5957 29.7812 81.9153 29.6449C82.2349 29.5085 82.5055 29.3125 82.7271 29.0568C82.9487 28.8011 83.1064 28.4943 83.2001 28.1364H84.7086C84.6234 28.7159 84.4125 29.2379 84.0758 29.7024C83.7434 30.1626 83.3024 30.5291 82.7527 30.8018C82.2072 31.0703 81.5723 31.2045 80.8478 31.2045ZM86.9139 31V21.1818H88.3713V22.6648H88.4735C88.6525 22.179 88.9764 21.7848 89.4451 21.4822C89.9139 21.1797 90.4423 21.0284 91.0304 21.0284C91.1412 21.0284 91.2797 21.0305 91.4458 21.0348C91.612 21.0391 91.7377 21.0455 91.823 21.054V22.5881C91.7718 22.5753 91.6547 22.5561 91.4714 22.5305C91.2924 22.5007 91.1028 22.4858 90.9025 22.4858C90.4252 22.4858 89.9991 22.5859 89.6241 22.7862C89.2534 22.9822 88.9593 23.255 88.742 23.6044C88.5289 23.9496 88.4224 24.3437 88.4224 24.7869V31H86.9139ZM97.301 31.2045C96.4146 31.2045 95.6369 30.9936 94.9679 30.5717C94.3031 30.1499 93.7832 29.5597 93.4082 28.8011C93.0375 28.0426 92.8521 27.1562 92.8521 26.142C92.8521 25.1193 93.0375 24.2266 93.4082 23.4638C93.7832 22.701 94.3031 22.1087 94.9679 21.6868C95.6369 21.2649 96.4146 21.054 97.301 21.054C98.1873 21.054 98.9629 21.2649 99.6277 21.6868C100.297 22.1087 100.817 22.701 101.187 23.4638C101.562 24.2266 101.75 25.1193 101.75 26.142C101.75 27.1562 101.562 28.0426 101.187 28.8011C100.817 29.5597 100.297 30.1499 99.6277 30.5717C98.9629 30.9936 98.1873 31.2045 97.301 31.2045ZM97.301 29.8494C97.9743 29.8494 98.5282 29.6768 98.9629 29.3317C99.3975 28.9865 99.7193 28.5327 99.9281 27.9702C100.137 27.4077 100.241 26.7983 100.241 26.142C100.241 25.4858 100.137 24.8743 99.9281 24.3075C99.7193 23.7408 99.3975 23.2827 98.9629 22.9332C98.5282 22.5838 97.9743 22.4091 97.301 22.4091C96.6277 22.4091 96.0737 22.5838 95.639 22.9332C95.2044 23.2827 94.8826 23.7408 94.6738 24.3075C94.465 24.8743 94.3606 25.4858 94.3606 26.142C94.3606 26.7983 94.465 27.4077 94.6738 27.9702C94.8826 28.5327 95.2044 28.9865 95.639 29.3317C96.0737 29.6768 96.6277 29.8494 97.301 29.8494ZM105.561 17.9091V31H104.053V17.9091H105.561ZM109.833 17.9091V31H108.324V17.9091H109.833ZM121.365 31.2045C120.547 31.2045 119.825 30.9979 119.199 30.5845C118.572 30.1669 118.082 29.5788 117.728 28.8203C117.375 28.0575 117.198 27.1562 117.198 26.1165C117.198 25.0852 117.375 24.1903 117.728 23.4318C118.082 22.6733 118.574 22.0874 119.205 21.674C119.836 21.2607 120.564 21.054 121.391 21.054C122.03 21.054 122.535 21.1605 122.906 21.3736C123.281 21.5824 123.566 21.821 123.762 22.0895C123.963 22.3537 124.118 22.571 124.229 22.7415H124.357V17.9091H125.865V31H124.408V29.4915H124.229C124.118 29.6705 123.961 29.8963 123.756 30.169C123.551 30.4375 123.26 30.6783 122.88 30.8913C122.501 31.1001 121.996 31.2045 121.365 31.2045ZM121.57 29.8494C122.175 29.8494 122.686 29.6918 123.104 29.3764C123.522 29.0568 123.839 28.6158 124.056 28.0533C124.274 27.4865 124.382 26.8324 124.382 26.0909C124.382 25.358 124.276 24.7166 124.063 24.1669C123.85 23.6129 123.534 23.1825 123.117 22.8757C122.699 22.5646 122.184 22.4091 121.57 22.4091C120.931 22.4091 120.398 22.5732 119.972 22.9013C119.55 23.2251 119.233 23.6662 119.02 24.2244C118.811 24.7784 118.706 25.4006 118.706 26.0909C118.706 26.7898 118.813 27.4247 119.026 27.9957C119.243 28.5625 119.563 29.0142 119.985 29.3509C120.411 29.6832 120.939 29.8494 121.57 29.8494ZM132.826 31.2045C131.94 31.2045 131.162 30.9936 130.493 30.5717C129.828 30.1499 129.309 29.5597 128.934 28.8011C128.563 28.0426 128.377 27.1562 128.377 26.142C128.377 25.1193 128.563 24.2266 128.934 23.4638C129.309 22.701 129.828 22.1087 130.493 21.6868C131.162 21.2649 131.94 21.054 132.826 21.054C133.713 21.054 134.488 21.2649 135.153 21.6868C135.822 22.1087 136.342 22.701 136.713 23.4638C137.088 24.2266 137.275 25.1193 137.275 26.142C137.275 27.1562 137.088 28.0426 136.713 28.8011C136.342 29.5597 135.822 30.1499 135.153 30.5717C134.488 30.9936 133.713 31.2045 132.826 31.2045ZM132.826 29.8494C133.5 29.8494 134.054 29.6768 134.488 29.3317C134.923 28.9865 135.245 28.5327 135.453 27.9702C135.662 27.4077 135.767 26.7983 135.767 26.142C135.767 25.4858 135.662 24.8743 135.453 24.3075C135.245 23.7408 134.923 23.2827 134.488 22.9332C134.054 22.5838 133.5 22.4091 132.826 22.4091C132.153 22.4091 131.599 22.5838 131.164 22.9332C130.73 23.2827 130.408 23.7408 130.199 24.3075C129.99 24.8743 129.886 25.4858 129.886 26.142C129.886 26.7983 129.99 27.4077 130.199 27.9702C130.408 28.5327 130.73 28.9865 131.164 29.3317C131.599 29.6768 132.153 29.8494 132.826 29.8494ZM141.468 31L138.477 21.1818H140.062L142.184 28.6989H142.287L144.383 21.1818H145.994L148.065 28.6733H148.167L150.289 21.1818H151.875L148.883 31H147.4L145.252 23.4574H145.099L142.951 31H141.468ZM155.377 25.0938V31H153.869V21.1818H155.326V22.7159H155.454C155.684 22.2173 156.034 21.8168 156.502 21.5142C156.971 21.2074 157.576 21.054 158.318 21.054C158.983 21.054 159.564 21.1903 160.063 21.4631C160.561 21.7315 160.949 22.1406 161.226 22.6903C161.503 23.2358 161.642 23.9261 161.642 24.7614V31H160.133V24.8636C160.133 24.0923 159.933 23.4915 159.532 23.0611C159.132 22.6264 158.582 22.4091 157.883 22.4091C157.402 22.4091 156.971 22.5135 156.592 22.7223C156.217 22.9311 155.921 23.2358 155.703 23.6364C155.486 24.0369 155.377 24.5227 155.377 25.0938Z" fill="#8B8B8B"/>
<circle cx="24" cy="24" r="24" fill="#EF6D58"/>
<path d="M24 14V27" stroke="white" stroke-width="2" stroke-linecap="round" stroke-linejoin="round"/>
<path fill-rule="evenodd" clip-rule="evenodd" d="M19 27H29L24 34L19 27Z" stroke="white" stroke-width="2" stroke-linecap="round" stroke-linejoin="round"/>
</svg>
