<svg width="17" height="17" viewBox="0 0 17 17" fill="none" xmlns="http://www.w3.org/2000/svg">
<path fill-rule="evenodd" clip-rule="evenodd" d="M15.2043 0.139091L0.668951 8.39106C0.0702431 8.72794 0.0940074 9.22746 0.723379 9.4963L2.577 10.2904C3.20253 10.5559 4.15157 10.4107 4.68512 9.96013L12.7458 3.08225C13.2755 2.62837 13.333 2.69641 12.8716 3.23078L6.49964 10.6148C6.03739 11.1459 6.17614 11.7972 6.80398 12.0636L7.02093 12.1532C7.64953 12.4171 8.676 12.8577 9.29924 13.1365L11.3591 14.0409C11.9854 14.3164 12.4944 14.5462 12.4975 14.5495C12.4975 14.5529 12.5005 14.5653 12.5036 14.5653C12.5059 14.5686 12.6531 13.9919 12.8294 13.2883L15.9678 0.8029C16.1449 0.100093 15.7999 -0.198621 15.2043 0.139091Z" fill="white"/>
<path fill-rule="evenodd" clip-rule="evenodd" d="M6.96146 12.9442L5.74108 12.2462C5.20453 11.942 4.94743 12.2993 5.17099 13.044C5.17099 13.044 6.30393 16.8511 6.27302 16.9876C6.23949 17.1195 7.3619 14.7259 7.3619 14.7259C7.67817 14.0535 7.49801 13.2483 6.96146 12.9442Z" fill="white"/>
</svg>
