<svg width="100" height="100" viewBox="0 0 100 100" fill="none" xmlns="http://www.w3.org/2000/svg">
<g clip-path="url(#clip0_586_182)">
<path d="M15.5558 11.1113C14.377 11.1113 13.2466 11.5796 12.4131 12.4131C11.5796 13.2466 11.1113 14.377 11.1113 15.5558V33.3335H33.3335V11.1113H15.5558ZM27.778 27.778H16.6669V16.6669H27.778V27.778Z" fill="#545454"/>
<path d="M11.1113 84.4448C11.1113 85.6235 11.5796 86.754 12.4131 87.5875C13.2466 88.421 14.377 88.8892 15.5558 88.8892H33.3335V66.667H11.1113V84.4448ZM16.6669 72.2225H27.778V83.3337H16.6669V72.2225Z" fill="#545454"/>
<path d="M66.666 88.8892H84.4438C85.6225 88.8892 86.753 88.421 87.5865 87.5875C88.42 86.754 88.8882 85.6235 88.8882 84.4448V66.667H66.666V88.8892ZM72.2216 72.2225H83.3327V83.3337H72.2216V72.2225Z" fill="#545454"/>
<path d="M84.4438 11.1113H66.666V33.3335H88.8882V15.5558C88.8882 14.377 88.42 13.2466 87.5865 12.4131C86.753 11.5796 85.6225 11.1113 84.4438 11.1113ZM83.3327 27.778H72.2216V16.6669H83.3327V27.778Z" fill="#545454"/>
<path d="M55.5564 27.7782V22.2227H44.4453V33.3338H50.0009V27.7782H55.5564Z" fill="#545454"/>
<path d="M33.334 33.333H38.8895V38.8886H33.334V33.333Z" fill="#545454"/>
<path d="M38.8887 38.8887H49.9998V44.4442H38.8887V38.8887Z" fill="#545454"/>
<path d="M55.5553 16.6669V22.2224H61.1109V11.1113H38.8887V22.2224H44.4442V16.6669H55.5553Z" fill="#545454"/>
<path d="M11.1113 38.8887H16.6669V49.9998H11.1113V38.8887Z" fill="#545454"/>
<path d="M33.3336 44.4442V49.9998H27.778V38.8887H22.2224V49.9998H16.6669V55.5553H11.1113V61.1109H22.2224V55.5553H27.778V61.1109H33.3336V55.5553H38.8891V44.4442H33.3336Z" fill="#545454"/>
<path d="M55.5556 44.444H61.1111V49.9996H66.6667V44.444H72.2222V38.8885H61.1111V27.7773H55.5556V33.3329H50V38.8885H55.5556V44.444Z" fill="#545454"/>
<path d="M49.9998 83.3329H38.8887V88.8885H61.1109V83.3329H55.5553V77.7773H49.9998V83.3329Z" fill="#545454"/>
<path d="M61.112 55.5554V49.9999H55.5564V44.4443H50.0009V49.9999H44.4453V55.5554H50.0009V61.111H55.5564V55.5554H61.112Z" fill="#545454"/>
<path d="M83.334 55.5557H88.8895V61.1112H83.334V55.5557Z" fill="#545454"/>
<path d="M61.1113 55.5557H77.778V61.1112H61.1113V55.5557Z" fill="#545454"/>
<path d="M83.3338 38.8887H77.7782V44.4442H72.2227V49.9998H77.7782V55.5553H83.3338V49.9998H88.8893V44.4442H83.3338V38.8887Z" fill="#545454"/>
<path d="M55.5547 61.1113H61.1102V77.778H55.5547V61.1113Z" fill="#545454"/>
<path d="M38.8887 77.7779H44.4442V72.2223H49.9998V66.6668H44.4442V55.5557H38.8887V77.7779Z" fill="#545454"/>
</g>
<defs>
<clipPath id="clip0_586_182">
<rect width="100" height="100" fill="white"/>
</clipPath>
</defs>
</svg>
