<svg width="100" height="100" viewBox="0 0 100 100" fill="none" xmlns="http://www.w3.org/2000/svg">
<g clip-path="url(#clip0_589_206)">
<path d="M100 23.8166V25H66.6667V0H68.2445C69.9021 0 71.4919 0.493945 72.6641 1.37285L98.1695 20.502C99.3415 21.3811 99.9999 22.5734 100 23.8166ZM64.5833 31.25C61.1458 31.25 58.3333 29.1406 58.3333 26.5625V0H6.25C2.79818 0 0 2.09863 0 4.6875V95.3125C0 97.9014 2.79818 100 6.25 100H93.75C97.2018 100 100 97.9014 100 95.3125V31.25H64.5833ZM32.0849 78.2236C31.9586 78.3247 31.807 78.4061 31.6387 78.4632C31.4705 78.5203 31.2889 78.552 31.1043 78.5564C30.9197 78.5609 30.7358 78.538 30.5629 78.4892C30.3901 78.4403 30.2319 78.3664 30.0971 78.2717L13.2049 66.3943C13.0647 66.2957 12.9528 66.1765 12.8764 66.0442C12.7999 65.9118 12.7605 65.7691 12.7605 65.6249C12.7605 65.4807 12.7999 65.338 12.8764 65.2056C12.9528 65.0733 13.0647 64.9541 13.2049 64.8555L30.0971 52.9781C30.2319 52.8834 30.3901 52.8095 30.5629 52.7606C30.7358 52.7118 30.9197 52.6889 31.1043 52.6934C31.2889 52.6978 31.4705 52.7295 31.6387 52.7866C31.807 52.8437 31.9586 52.9251 32.0849 53.0262L37.1836 57.1053C37.3124 57.2084 37.4124 57.3298 37.4774 57.4624C37.5425 57.595 37.5713 57.7361 37.5623 57.8772C37.5533 58.0183 37.5065 58.1567 37.4248 58.284C37.3431 58.4113 37.2281 58.525 37.0867 58.6184L26.4714 65.625L37.0867 72.6316C37.2281 72.725 37.3431 72.8387 37.4248 72.966C37.5065 73.0933 37.5533 73.2317 37.5623 73.3728C37.5713 73.5139 37.5425 73.655 37.4774 73.7876C37.4124 73.9202 37.3124 74.0416 37.1836 74.1447L32.0849 78.2236ZM45.443 88.0828L38.2938 86.5262C37.9356 86.4481 37.6334 86.2666 37.4537 86.0215C37.2739 85.7764 37.2313 85.4878 37.3352 85.2191L53.3352 43.8859C53.4392 43.6173 53.6813 43.3907 54.008 43.2559C54.3348 43.1211 54.7196 43.0891 55.0779 43.167L62.2268 44.7236C62.4042 44.7623 62.5697 44.8267 62.7138 44.9133C62.858 44.9999 62.9779 45.1069 63.0669 45.2283C63.1559 45.3497 63.2122 45.483 63.2325 45.6207C63.2527 45.7583 63.2367 45.8977 63.1852 46.0307L47.1852 87.3639C47.1338 87.4969 47.0479 87.621 46.9326 87.7292C46.8172 87.8373 46.6745 87.9274 46.5127 87.9941C46.3509 88.0609 46.1732 88.1031 45.9896 88.1183C45.8061 88.1335 45.6203 88.1215 45.443 88.0828ZM87.3159 66.3943L70.4237 78.2717C70.289 78.3664 70.1307 78.4403 69.9579 78.4892C69.7851 78.538 69.6011 78.5609 69.4165 78.5564C69.232 78.552 69.0504 78.5203 68.8821 78.4632C68.7139 78.4061 68.5622 78.3247 68.4359 78.2236L63.337 74.1445C63.2081 74.0415 63.1082 73.92 63.0432 73.7874C62.9781 73.6548 62.9492 73.5137 62.9583 73.3726C62.9673 73.2315 63.0141 73.0931 63.0957 72.9658C63.1774 72.8385 63.2924 72.7248 63.4339 72.6314L74.0495 65.625L63.4341 58.6184C63.2927 58.525 63.1777 58.4113 63.096 58.284C63.0143 58.1567 62.9676 58.0183 62.9585 57.8772C62.9495 57.7361 62.9784 57.595 63.0434 57.4624C63.1085 57.3298 63.2084 57.2084 63.3372 57.1053L68.4362 53.0262C68.5625 52.9251 68.7141 52.8437 68.8824 52.7866C69.0506 52.7295 69.2322 52.6978 69.4168 52.6934C69.6014 52.6889 69.7853 52.7118 69.9581 52.7606C70.131 52.8095 70.2892 52.8834 70.424 52.9781L87.3161 64.8555C87.4564 64.9541 87.5682 65.0733 87.6447 65.2057C87.7211 65.338 87.7605 65.4807 87.7605 65.6249C87.7604 65.7692 87.721 65.9119 87.6445 66.0442C87.568 66.1765 87.4562 66.2957 87.3159 66.3943Z" fill="#545454"/>
</g>
<defs>
<clipPath id="clip0_589_206">
<rect width="100" height="100" fill="white"/>
</clipPath>
</defs>
</svg>
