<svg width="100" height="100" viewBox="0 0 100 100" fill="none" xmlns="http://www.w3.org/2000/svg">
<path d="M20.0903 80.5388C17.2429 80.5388 14.655 77.3061 14.655 73.3652C14.655 69.4243 16.9804 66.1699 20.0903 66.1699C23.2158 66.1699 25.563 69.4069 25.563 73.3652C25.563 77.3061 22.9595 80.5388 20.109 80.5388H20.0903ZM86.8166 41.3687C86.2447 35.6203 83.6911 30.9363 80.3187 27.3604L79.0029 25.9135L77.9433 27.6993C75.893 30.9363 75.0647 36.6848 75.321 40.982C75.5679 44.2451 76.3118 47.4777 77.6339 49.9891C76.5587 50.7582 75.2585 51.436 74.2458 52.1834C71.8705 53.2653 69.5576 53.6302 67.2478 53.6302H0.408967L0.146425 55.7549C-0.359134 62.7638 0.449533 69.8353 2.49368 76.2807L3.51884 78.7964V79.131C9.76985 93.526 20.8873 100 33.0142 100C56.3273 100 75.4367 85.9918 84.5006 55.781C90.4422 56.1417 96.4369 53.9909 99.2499 46.07L100 44.2842L98.7623 43.1936C95.3774 40.3215 90.7516 39.9392 86.8823 41.3861L86.7979 41.4078L86.8166 41.3687ZM53.4456 35.6203H43.3221V49.6459H53.4456V35.6203ZM53.4456 17.9926H43.3221V32.0183H53.4456V17.9926ZM53.4456 0H43.3221V14.03H53.4456V0ZM65.8164 35.6203H55.7554V49.6459H65.8476V35.6203H65.8164ZM28.3291 35.6203H18.2681V49.6459H28.3603V35.6203H28.3291ZM40.9436 35.6203H30.9514V49.6459H41.0124V35.6203H40.9436ZM15.8271 35.6203H5.82859V49.6459H15.9552V35.6203H15.8271ZM40.9436 17.9926H30.9514V32.0183H41.0124V18.01L40.9436 17.9926ZM28.2603 17.9926H18.2837V32.0183H28.3447V18.01L28.2791 17.9926H28.2603Z" fill="#545454"/>
</svg>
