<svg width="100" height="100" viewBox="0 0 100 100" fill="none" xmlns="http://www.w3.org/2000/svg">
<path d="M16.4892 8.38802C18.3089 5.61458 19.2996 3.92969 19.2996 2.6849C19.2996 1.96615 18.9623 1.25 18.6268 0.752604C18.198 0.288957 17.6838 0.0308848 17.1531 0.0130216C15.6636 0.0130216 13.4785 2.30208 10.8578 6.70312C3.57188 19.0104 -0.146634 30.9401 0.00442499 48.526C0.155484 66.112 3.07303 78.9948 9.50006 90.6797C12.8005 96.8385 15.3299 100 17.1356 100C17.6894 99.9314 18.2095 99.5776 18.6058 99C18.9413 98.2812 19.275 97.5339 19.275 96.8177C19.275 95.3516 18.597 93.6406 16.9564 91.4661C9.14876 80.4427 5.13165 66.2057 5.10355 48.4974C5.0772 32.5 8.89758 19.2266 16.4892 8.38802ZM41.4754 92.7266C41.5773 92.8229 41.6352 92.8698 41.6352 92.8698L41.4754 92.7266ZM57.9496 92.8698L57.9795 92.8359C57.9461 92.8698 57.9338 92.8828 57.9496 92.8698ZM58.4994 51.6771C55.6468 50.5964 67.3539 30.0911 46.5464 5.53906C46.5464 5.53906 49.276 18.3984 35.5103 47.0937C22.4648 74.2682 39.6311 91.0339 41.4824 92.7266C40.3003 91.5938 33.1566 83.4297 43.1599 59.2266C45.092 54.4609 47.6442 50.1458 50.8007 40.4349C50.8007 40.4349 53.5952 46.2812 52.1356 58.9583C49.947 78.125 61.5926 72.6328 61.7682 72.901C65.7643 79.875 58.6557 92.0443 57.9777 92.8359C58.942 91.8854 78.6535 72.5234 63.7742 43.8516C62.722 45.4167 61.3502 52.7578 58.4994 51.6771ZM89.1486 6.6901C86.5349 2.28906 84.3428 0 82.8462 0C82.3156 0.0178632 81.8014 0.275935 81.3725 0.739582C81.037 1.23698 80.6998 1.95313 80.6998 2.67188C80.6998 3.91667 81.6834 5.60417 83.5102 8.375C91.1035 19.2109 94.9275 32.487 94.8958 48.4948C94.8677 66.2031 90.8559 80.4297 83.043 91.4635C81.4024 93.638 80.7279 95.349 80.7244 96.8151C80.7244 97.5312 81.0581 98.2786 81.3936 98.9974C81.7902 99.5748 82.31 99.9294 82.8638 100C84.6695 100 87.1989 96.8411 90.4993 90.6797C96.9264 79 99.8334 66.1016 99.995 48.526C100.157 30.9505 96.4275 19.0104 89.1486 6.6901Z" fill="#545454"/>
</svg>
